<svg width="42" height="42" viewBox="0 0 42 42" fill="none" xmlns="http://www.w3.org/2000/svg">
<rect width="41.9998" height="41.8857" rx="8" fill="#219653" fill-opacity="0.15"/>
<path d="M12.1903 27.0229L12.2447 27.2061C12.2447 27.2061 12.3263 26.9771 12.4894 26.5649C12.571 26.3588 12.6798 26.1069 12.7885 25.8321C12.9245 25.5573 13.0604 25.2595 13.2779 24.9618C13.4683 24.6641 13.7402 24.3435 14.0393 24.1603C14.2024 24.0687 14.3384 24.0229 14.4743 24.0229C14.5015 24.0229 14.5559 24.0229 14.5831 24.0229C14.5831 24.0229 14.5831 24.0229 14.6103 24.0458C14.6918 24.1145 14.855 24.2748 14.9637 24.458C15.0725 24.6412 15.1813 24.8473 15.29 25.0534C15.5076 25.4656 15.6707 25.9237 15.8338 26.3817C15.997 26.8397 16.1601 27.2977 16.2961 27.7557C16.432 28.2137 16.568 28.6718 16.7039 29.1069C16.8671 29.6336 17.5196 30 18.281 30C19.9668 30 22.9577 30 24.6707 30C25.0514 30 25.3776 29.8626 25.5952 29.6565C25.9758 29.2901 26.3293 28.7634 26.4924 28.4886C26.6828 28.1679 26.7372 27.8244 26.8731 27.5267C27.0091 27.2061 27.145 26.9084 27.281 26.6107C27.5529 26.0153 27.8792 25.4886 28.2326 25.0992C28.5861 24.687 28.994 24.4122 29.3746 24.2748C29.565 24.2061 29.7009 24.1603 29.8369 24.1374C29.9456 24.1145 30 24.0916 30 24.0916C30 24.0916 29.9456 24.0916 29.8097 24.0687C29.8097 24.0687 29.5106 24.0458 29.2659 24.0687C29.0211 24.0687 28.7492 24.1374 28.423 24.229C28.1239 24.3206 27.7704 24.4809 27.4713 24.6641C26.8459 25.0534 26.3021 25.6031 25.8671 26.2214C25.6495 26.542 25.4592 26.8626 25.2689 27.2061C25.2145 27.3206 25.1601 27.4351 25.1057 27.5496C25.2145 27.0916 25.3233 26.6107 25.432 26.1527C25.5408 25.6718 25.6767 25.1908 25.7855 24.7099C25.9215 24.229 26.0302 23.771 26.1662 23.3359C26.4381 22.4427 26.71 21.6183 27.0634 20.9542C27.3897 20.2901 27.7976 19.7634 28.2326 19.4886C28.4502 19.3511 28.6405 19.2824 28.8036 19.2366C28.9668 19.1908 29.0483 19.1908 29.0483 19.1908C29.0483 19.1908 29.0483 19.1908 28.994 19.1908C28.9396 19.1908 28.8852 19.1908 28.8036 19.1908C28.6405 19.1908 28.3686 19.1908 28.0695 19.3053C27.7704 19.3969 27.4169 19.5802 27.0906 19.8092C26.7644 20.0382 26.4653 20.3359 26.1662 20.6794C25.5952 21.3435 25.1057 22.1908 24.6979 23.084C24.6435 23.1985 24.5891 23.3359 24.5347 23.4733C24.5619 23.3359 24.6163 23.1985 24.6435 23.0611C24.7251 22.7634 24.8338 22.4656 24.9154 22.1679C25.0242 21.8702 25.1057 21.5725 25.1873 21.2748C25.3233 20.9084 25.4592 20.542 25.5952 20.1985L25.6767 19.9695C25.7311 19.8321 25.7855 19.7176 25.8399 19.5802C25.9486 19.3053 26.0574 19.0534 26.1662 18.7786C26.3021 18.5267 26.4109 18.2748 26.5196 18.0458C26.574 17.9313 26.6284 17.8168 26.6828 17.7023C26.7372 17.5878 26.8187 17.4733 26.8731 17.3588C26.9819 17.1527 27.0906 16.9237 27.2266 16.7405C27.3353 16.5344 27.4713 16.3511 27.5529 16.1908C27.7976 15.8473 27.9879 15.5496 28.1782 15.2977C28.3686 15.0458 28.5317 14.8626 28.6405 14.7481C28.7492 14.6336 28.8308 14.5649 28.8308 14.5649C28.8308 14.5649 28.7492 14.6107 28.5861 14.7023C28.5045 14.7481 28.423 14.8168 28.287 14.8855C28.2326 14.9313 28.1782 14.9542 28.0967 15C28.0423 15.0458 27.9607 15.0916 27.9063 15.1603C27.6344 15.3664 27.3353 15.6412 26.9819 15.9618C26.8187 16.1221 26.6556 16.3053 26.4924 16.4885C26.3021 16.6718 26.1662 16.8779 25.9758 17.084C25.6224 17.4962 25.3233 17.9771 24.9698 18.458C24.9698 18.458 24.9698 18.4809 24.9426 18.5038C24.8066 18.7557 24.6435 19.0076 24.4804 19.2824C24.3988 19.4198 24.3444 19.5344 24.2628 19.6718C24.2628 19.6718 24.2628 19.6947 24.2628 19.7176C24.2085 19.855 24.1269 19.9924 24.0725 20.1298C23.9366 20.4046 23.8006 20.7023 23.6647 21C23.5287 21.2977 23.4199 21.5954 23.3112 21.916C23.2024 22.2137 23.0665 22.5344 22.9849 22.855C22.9033 23.1756 22.7946 23.4962 22.713 23.7939L22.577 24.2748C22.5227 24.4351 22.4955 24.5954 22.4683 24.7557C22.4139 25.0763 22.3595 25.3969 22.2779 25.6947C22.2779 25.7863 22.2508 25.855 22.2236 25.9466C22.2508 25.4886 22.3051 25.0076 22.3323 24.5267C22.3323 24.1603 22.3867 23.8168 22.3867 23.4504C22.4139 23.084 22.4411 22.7176 22.4683 22.3511C22.5227 21.6183 22.577 20.9084 22.6042 20.1756C22.6042 19.9924 22.6042 19.8092 22.6314 19.6489C22.6314 19.4656 22.6314 19.3053 22.6586 19.1221C22.6586 18.7786 22.7946 18.0458 22.8489 17.4275C22.9033 16.8092 22.9305 16.2137 22.9577 15.6641C22.9849 15.1145 23.0121 14.6107 23.0393 14.1756C23.0665 13.7405 23.0665 13.3511 23.0937 13.0305C23.1208 12.7099 23.1208 12.458 23.148 12.2748C23.148 12.0916 23.148 12 23.148 12C23.148 12 23.1208 12.0916 23.0393 12.2519C22.9577 12.4122 22.8761 12.6641 22.7402 12.9618C22.6042 13.2824 22.4955 13.6489 22.3595 14.084C22.2779 14.313 22.2236 14.542 22.142 14.771C22.0604 15.0229 22.006 15.2748 21.9517 15.5496C21.8157 16.0992 21.3807 17.1985 20.9728 19.6947C20.864 20.4046 20.7825 21.5267 20.7281 22.2595C20.7281 22.626 20.6737 22.9924 20.6465 23.3588C20.6465 23.7252 20.6465 24.0916 20.6193 24.4351C20.6193 25.0992 20.6193 25.7634 20.6193 26.4046C20.6193 26.2214 20.5921 26.0382 20.565 25.855C20.4834 25.2366 20.3474 24.6183 20.2387 24C20.1027 23.3817 19.9396 22.7634 19.7764 22.1679C19.6949 21.8702 19.5861 21.5725 19.5045 21.2748C19.423 20.9771 19.3142 20.6794 19.2054 20.4046C18.9879 19.8321 18.7704 19.2824 18.5529 18.7786C18.3353 18.2748 18.0906 17.7939 17.8459 17.3359C17.6012 16.9008 17.3837 16.4885 17.139 16.145C17.0302 15.9618 16.9215 15.8015 16.8127 15.6641C16.7039 15.5267 16.5952 15.3893 16.5136 15.2519C16.3233 15 16.1873 14.8168 16.0785 14.7023C15.9698 14.5878 15.9154 14.5191 15.9154 14.5191C15.9154 14.5191 15.9426 14.5878 15.997 14.7481C16.0514 14.8855 16.1057 15.0916 16.2145 15.3664C16.2961 15.6412 16.4048 15.9618 16.5136 16.3282C16.568 16.5115 16.6224 16.7176 16.7039 16.9237C16.7583 17.1298 16.8399 17.3359 16.8943 17.5649C17.0302 18.0229 17.1662 18.5038 17.3021 19.0305C17.4381 19.5344 17.574 20.084 17.7372 20.6565C17.8731 21.229 18.0091 21.8015 18.145 22.3969C18.1994 22.6947 18.2538 22.9924 18.3353 23.2901C18.3897 23.5878 18.4713 23.8855 18.5257 24.2061C18.5801 24.5038 18.6344 24.8015 18.716 25.1221C18.7704 25.4198 18.852 25.7176 18.9063 26.0153C18.9335 26.1756 18.9607 26.3359 18.9879 26.5191C18.8792 26.2214 18.7704 25.9008 18.6616 25.6031C18.5529 25.3511 18.4441 25.0992 18.3353 24.8473C18.2266 24.5954 18.1178 24.3435 17.9819 24.0916C17.71 23.6107 17.4653 23.1298 17.139 22.6718C16.9758 22.4427 16.8399 22.2137 16.6767 22.0076C16.5136 21.8015 16.3505 21.5954 16.2145 21.3893C16.0514 21.1832 15.8882 21 15.7251 20.8168C15.5619 20.6336 15.426 20.4504 15.2356 20.2901C15.0725 20.1298 14.9094 19.9695 14.7734 19.8321C14.6375 19.6947 14.4743 19.5573 14.3384 19.4198C14.0665 19.1679 13.7674 18.9618 13.5498 18.7786C13.0876 18.4351 12.8157 18.2748 12.8157 18.2748C12.8157 18.2748 12.8701 18.3435 12.9517 18.4351C13.0332 18.5496 13.142 18.7099 13.2779 18.916C13.4139 19.1221 13.577 19.374 13.7674 19.6489C13.9577 19.9237 14.148 20.2672 14.3656 20.6107C14.4743 20.7939 14.5831 20.9771 14.6918 21.1603C14.8006 21.3435 14.9366 21.5496 15.0181 21.7557C15.1269 21.9618 15.2356 22.1679 15.3716 22.374C15.4804 22.5802 15.5891 22.8092 15.6979 23.0382C15.7523 23.1527 15.8066 23.2672 15.861 23.3817C15.861 23.4275 15.8882 23.4504 15.9154 23.4962C15.8338 23.4504 15.7523 23.3817 15.6707 23.3359C15.4804 23.2214 15.2356 23.084 14.8278 23.0611H14.7462H14.719H14.6647C14.6647 23.0611 14.5831 23.0611 14.6103 23.0611C14.5559 23.0611 14.5015 23.0611 14.4199 23.0611C14.3112 23.0611 14.1752 23.084 14.0665 23.1069C13.6042 23.1985 13.2236 23.4046 12.9789 23.6107C12.7341 23.8168 12.571 24.0458 12.435 24.2519C12.3263 24.458 12.2447 24.6641 12.1631 24.8473C12.0544 25.2366 12 25.5802 12 25.8779C12 26.1756 12 26.4504 12.0544 26.6565C12.0544 26.8626 12.1088 27.0458 12.136 27.1603L12.1903 27.0229Z" fill="#219653"/>
</svg>
