<svg width="42" height="42" viewBox="0 0 42 42" fill="none" xmlns="http://www.w3.org/2000/svg">
<rect width="41.9998" height="41.8857" rx="8" fill="#EB5757" fill-opacity="0.15"/>
<g clip-path="url(#clip0_4228_1003)">
<path d="M21.7775 22.0521V23.7635C21.7775 23.8869 21.9104 23.9647 22.0176 23.9036L23.7206 22.9378C23.9266 22.8216 24.1918 22.9042 24.29 23.127C24.3757 23.3198 24.2828 23.5479 24.099 23.6521L22.0751 24.7994C21.8912 24.9036 21.7775 25.0988 21.7775 25.3102V25.8869C21.7775 26.0881 21.6403 26.2743 21.4409 26.3066C21.1882 26.3479 20.9691 26.1533 20.9691 25.9078V23.4384C20.9691 23.2833 20.9074 23.1354 20.8008 23.027L17.4038 26.4228C18.2493 27.0809 19.5284 27.4563 21.3733 27.4563C25.4158 27.4563 26.7415 25.6533 26.7415 23.0234C26.7415 21.5467 26.1098 19.9461 25.2451 18.5839L21.7769 22.0509L21.7775 22.0521Z" fill="#EB5757"/>
<path d="M17.6559 20.1102C17.7732 19.8976 18.0451 19.8372 18.2403 19.9725L19.3541 20.7432L20.2331 19.8647V17.4773C20.2331 17.2755 20.3702 17.0893 20.5696 17.0569C20.8223 17.0162 21.0415 17.2102 21.0415 17.4557V19.0569L23.581 16.518C22.5541 15.2947 21.4169 14.4707 20.6373 14.4707C18.8696 14.4707 15.269 18.736 15.269 22.2282C15.269 23.0426 15.3966 23.7779 15.6918 24.4048L18.7732 21.3246L17.799 20.6503C17.6253 20.53 17.5535 20.2959 17.6565 20.1108L17.6559 20.1102Z" fill="#EB5757"/>
<path d="M28.0731 13.888C28.0731 13.888 28.0707 13.8856 28.0689 13.8844C26.1156 11.9365 23.5575 10.9623 21 10.9623C18.4425 10.9623 15.8844 11.9365 13.9311 13.8844C10.0246 17.7886 10.0228 24.1204 13.9269 28.0264C15.8796 29.9802 18.4401 30.9575 21 30.9575C23.5599 30.9575 26.1162 29.982 28.0689 28.0305C31.9754 24.1264 31.9772 17.7946 28.0731 13.888ZM14.4479 26.5192C11.5509 23.1054 11.7545 18.0401 14.9162 14.8695C16.588 13.2 18.788 12.3545 20.9952 12.3545C22.9719 12.3545 24.9539 13.0329 26.5659 14.4042L24.6952 16.2743L21.5874 19.3814L20.5138 20.4551L19.6557 21.3126L18.9563 22.0114L15.1629 25.8048L14.4479 26.5192ZM27.0838 27.0377C25.4108 28.7042 23.2108 29.5485 21.0042 29.5485C19.0281 29.5485 17.0473 28.8713 15.4341 27.5024L16.0383 26.8982L20.1204 22.8174L21.4862 21.4515L23.1401 19.7982C23.1868 19.7659 23.2263 19.7258 23.2575 19.6808L25.5269 17.412L27.5521 15.3874C30.4491 18.8018 30.2455 23.8665 27.0838 27.0377Z" fill="#EB5757"/>
</g>
<defs>
<clipPath id="clip0_4228_1003">
<rect width="20" height="19.9952" fill="white" transform="translate(11 10.9623)"/>
</clipPath>
</defs>
</svg>
