<svg width="42" height="42" viewBox="0 0 42 42" fill="none" xmlns="http://www.w3.org/2000/svg">
<rect width="41.9998" height="41.8857" rx="8" fill="#6D4230" fill-opacity="0.15"/>
<g clip-path="url(#clip0_4228_999)">
<path d="M30.2895 22.7375L29.9489 23.7572C29.6142 24.7709 29.1092 25.7194 28.4692 26.5494C28.3517 26.5257 28.2402 26.5138 28.1227 26.502C27.5884 24.9251 26.091 23.8283 24.4058 23.8283C23.8597 23.8283 23.3371 23.935 22.8438 24.1544C22.4797 23.6861 22.0452 23.2948 21.5637 22.9747C21.6459 22.3226 21.7868 21.6823 21.9924 21.0539L22.3271 20.0343C22.5737 19.2932 23.3664 18.896 24.1004 19.145L25.2043 19.5185L24.6641 21.1369C24.5291 21.5578 24.5584 22.0084 24.7522 22.4056C24.946 22.7968 25.2807 23.0992 25.7035 23.2355C25.8679 23.2948 26.044 23.3244 26.2261 23.3244C26.9307 23.3244 27.559 22.868 27.7821 22.1921L28.3224 20.5737L29.4263 20.9472C30.1603 21.1962 30.5537 21.9965 30.3071 22.7375H30.2895ZM26.4786 17.4851L25.1985 21.3266C25.1574 21.4452 25.1398 21.5578 25.1398 21.6705C25.1398 22.121 25.4275 22.5419 25.8738 22.6901C26.4257 22.8798 27.0423 22.5834 27.2243 22.0143L28.5103 18.1669L26.4844 17.4792L26.4786 17.4851ZM26.1556 15.9793C26.0264 16.3647 26.2378 16.7856 26.6195 16.9219L28.7334 17.6452C29.121 17.7756 29.5379 17.5622 29.6729 17.1709L29.7669 16.8864L26.2613 15.6948L26.1615 15.9853L26.1556 15.9793ZM29.7375 11.1004C28.7686 10.7744 27.7176 11.296 27.3887 12.2801L26.4375 15.1494L29.943 16.341L30.9002 13.4717C31.2231 12.4876 30.7064 11.4265 29.7316 11.1004H29.7375ZM30.8708 30.0056H11C11 28.2449 12.421 26.8102 14.1709 26.8102H14.212C14.4997 24.5219 16.4316 22.7435 18.7804 22.7435C20.4128 22.7435 21.8514 23.6031 22.6618 24.9013C23.1785 24.5931 23.7657 24.4093 24.4058 24.4093C26.0147 24.4093 27.3652 25.5535 27.6882 27.0829C27.741 27.077 27.788 27.0711 27.835 27.0711C29.4674 27.0711 30.8004 28.3753 30.8708 29.9996V30.0056ZM21.5226 27.8418C21.0705 27.0474 20.2601 26.5672 19.35 26.5672C18.4398 26.5672 17.6236 27.0474 17.1773 27.8418C17.0951 27.9781 17.1421 28.1619 17.2772 28.233C17.3241 28.2627 17.3711 28.2745 17.4181 28.2745C17.5179 28.2745 17.6119 28.2212 17.6647 28.1322C18.0112 27.5157 18.6395 27.1481 19.3441 27.1481C20.0487 27.1481 20.6712 27.5157 21.0176 28.1322C21.0998 28.2686 21.2701 28.316 21.4052 28.233C21.5402 28.1559 21.5931 27.9781 21.5109 27.8418H21.5226Z" fill="#6D4230"/>
</g>
<defs>
<clipPath id="clip0_4228_999">
<rect width="20" height="19" fill="white" transform="translate(11 11)"/>
</clipPath>
</defs>
</svg>
