<svg width="42" height="42" viewBox="0 0 42 42" fill="none" xmlns="http://www.w3.org/2000/svg">
<rect width="41.9998" height="41.8857" rx="8" fill="#EB67CE" fill-opacity="0.15"/>
<path d="M22.7609 21.2069C23.8204 21.5644 25.2418 22.1236 27.1559 20.1297C29.5627 17.5995 29.9421 14.5329 29.9988 13.3595C30.0162 13.1624 29.8462 12.979 29.6587 13.0019C28.5032 13.0615 25.2462 13.2403 22.7827 15.8485C20.8904 17.8378 21.2087 19.0754 21.588 19.653C22.9135 18.0991 24.7535 16.6873 27.0251 15.7889C26.2665 16.2656 24.505 17.5628 23.162 18.9975C22.0807 20.1526 21.1345 21.4086 20.5285 22.7424C20.1666 21.8073 19.5256 20.7118 18.5184 19.5751C17.2496 18.122 15.5448 16.7881 14.8036 16.2885C17.0186 17.2465 18.7801 18.6996 20.0489 20.2718C20.4456 19.7126 20.7857 18.5208 18.9893 16.4856C16.6785 13.8179 13.4781 13.5612 12.3619 13.442C12.17 13.4236 12 13.5795 12 13.7812C12.0174 14.9363 12.2834 17.9616 14.5943 20.5331C16.2032 22.3436 17.5113 22.1465 18.5141 21.8486C18.8934 22.3253 19.7437 23.5629 19.7262 25.2131C17.8339 25.4331 16.2206 26.249 15.3312 27.4041C15.1437 27.6425 15.3137 28 15.5971 28H25.7694C26.0746 28 26.2229 27.6425 26.0354 27.4041C25.1241 26.2307 23.4411 25.3735 21.4703 25.1947C21.4354 23.0587 22.3074 21.9265 22.7609 21.2069Z" fill="#EB67CE"/>
</svg>
