<svg width="42" height="42" viewBox="0 0 42 42" fill="none" xmlns="http://www.w3.org/2000/svg">
<rect width="41.9998" height="41.8857" rx="8" fill="#F2C94C" fill-opacity="0.15"/>
<g clip-path="url(#clip0_4228_935)">
<path d="M22.2094 29.7627H19.7905V31.0017H22.2094V29.7627Z" fill="#F2C94C"/>
<path d="M21.0002 17.8352C21.541 17.8352 21.9803 17.4021 21.9803 16.8688V12.1441C21.9803 11.723 21.8158 11.3175 21.527 11.0121C21.3537 11.0052 21.1787 11.0017 21.0002 11.0017C20.8217 11.0017 20.6466 11.0052 20.4733 11.0121C20.1845 11.3175 20.02 11.7247 20.02 12.1441V16.8688C20.02 17.4021 20.4593 17.8352 21.0002 17.8352Z" fill="#F2C94C"/>
<path d="M16.7398 27.3503C16.2427 27.2968 15.7789 27.2312 15.3501 27.1553C15.4621 27.5056 15.6546 27.9887 15.9715 28.4875C16.6926 29.6177 17.727 30.3391 19.0485 30.6324V29.6454C17.5765 29.0362 16.9481 27.8559 16.7398 27.3485V27.3503Z" fill="#F2C94C"/>
<path d="M15.0859 19.314V20.7393C15.0859 21.043 15.233 21.3278 15.4815 21.5038C16.2639 22.0577 18.0212 22.9878 21.0019 22.9878C23.9827 22.9878 25.74 22.0577 26.5223 21.5038C26.7691 21.3278 26.9179 21.043 26.9179 20.7393V19.314C26.0148 19.9455 24.1262 20.9067 21.0037 20.9067C17.8812 20.9067 15.9926 19.9455 15.0894 19.314H15.0859Z" fill="#F2C94C"/>
<path d="M22.9517 29.6454V30.6307C25.4213 30.0733 26.342 28.1095 26.65 27.1553C26.2212 27.2312 25.7574 27.295 25.2603 27.3503C25.0503 27.8576 24.4237 29.0379 22.9517 29.6471V29.6454Z" fill="#F2C94C"/>
<path d="M28.9658 22.5687C28.8678 22.4841 28.8205 22.3547 28.8432 22.2288C28.845 22.215 29.0918 20.8086 28.9868 19.0122C28.8905 17.3797 28.4739 15.0778 27.0352 13.3884C25.9483 12.1114 24.4168 11.3418 22.4739 11.0898C22.635 11.4143 22.7225 11.7749 22.7225 12.1425V16.8672C22.7225 17.8043 21.9506 18.5653 21.0002 18.5653C20.0498 18.5653 19.2779 17.8043 19.2779 16.8672V12.1442C19.2779 11.7766 19.3654 11.416 19.5264 11.0916C17.5819 11.3418 16.0504 12.1131 14.9634 13.3918C12.1927 16.6515 13.1466 22.1735 13.1571 22.2288C13.1799 22.3565 13.1326 22.4841 13.0346 22.5687C13.0206 22.5808 11.6834 23.7473 12.0702 24.7637C12.3625 25.5299 13.9098 26.8155 21.0002 26.8155C28.0906 26.8155 29.6379 25.5299 29.9302 24.7637C30.317 23.7473 28.978 22.5808 28.9658 22.5687ZM27.219 24.1304C27.1577 24.196 25.6822 25.7301 21.0019 25.7301C16.3217 25.7301 14.8444 24.196 14.7849 24.1304C14.6466 23.9803 14.6571 23.749 14.8094 23.6127C14.9617 23.4764 15.1962 23.4867 15.3345 23.6369C15.345 23.6472 16.7015 24.9984 21.0037 24.9984C23.3036 24.9984 24.7458 24.6101 25.5492 24.2857C26.3508 23.9613 26.6711 23.6403 26.6729 23.6369C26.8112 23.4867 27.0457 23.4764 27.198 23.6127C27.3502 23.749 27.3607 23.9803 27.2225 24.1304H27.219ZM27.6583 20.7395C27.6583 21.2779 27.3958 21.7853 26.9547 22.0993C26.1005 22.705 24.1892 23.7214 21.0019 23.7214C17.8147 23.7214 15.9033 22.705 15.0492 22.0993C14.6081 21.787 14.3456 21.2779 14.3456 20.7395V18.5307C14.3456 18.3789 14.4401 18.2443 14.5836 18.1891C14.7271 18.1338 14.8899 18.1735 14.9932 18.2857C14.9967 18.2892 15.443 18.762 16.4022 19.2279C17.2878 19.6593 18.8071 20.1735 21.0037 20.1735C23.2003 20.1735 24.7196 19.6593 25.6052 19.2279C26.5626 18.762 27.0107 18.2892 27.0142 18.284C27.1175 18.1735 27.2802 18.1356 27.4238 18.1908C27.5655 18.246 27.66 18.3806 27.66 18.5307V20.7395H27.6583Z" fill="#F2C94C"/>
</g>
<defs>
<clipPath id="clip0_4228_935">
<rect width="18" height="20" fill="white" transform="translate(12 11)"/>
</clipPath>
</defs>
</svg>
