<svg width="42" height="43" viewBox="0 0 42 43" fill="none" xmlns="http://www.w3.org/2000/svg">
<rect y="0.286133" width="41.9998" height="41.8857" rx="8" fill="#6C63FF" fill-opacity="0.15"/>
<g clip-path="url(#clip0_4207_957)">
<path d="M25.4999 21.2861C27.9813 21.2861 29.9999 19.2676 29.9999 16.7861C29.9999 16.3876 29.9356 16.0018 29.8328 15.6418L27.0556 18.419C26.5542 18.9204 25.7442 18.9204 25.2428 18.419L23.8799 17.0561C23.3785 16.5547 23.3785 15.7447 23.8799 15.2433L26.6571 12.4533C26.2842 12.3504 25.8985 12.2861 25.4999 12.2861C23.0185 12.2861 20.9999 14.3047 20.9999 16.7861C20.9999 17.3518 21.1156 17.879 21.2956 18.3676L12.7585 25.9018C11.7556 26.9047 11.7556 28.5376 12.7585 29.5404C13.7613 30.5433 15.3942 30.5433 16.3971 29.5404L23.9185 20.9904C24.4199 21.1833 24.9471 21.299 25.4999 21.299V21.2861ZM14.5713 29.0004C13.8642 29.0004 13.2856 28.4218 13.2856 27.7147C13.2856 27.0076 13.8642 26.429 14.5713 26.429C15.2785 26.429 15.8571 27.0076 15.8571 27.7147C15.8571 28.4218 15.2785 29.0004 14.5713 29.0004Z" fill="#6C63FF"/>
<path d="M13.9541 17.1203C14.1726 17.4546 14.6612 17.5061 14.9441 17.2232L15.2655 16.9146L17.9655 19.6146L19.4183 18.3418L16.6283 15.5518L16.9498 15.2303C17.2326 14.9475 17.1941 14.4589 16.8469 14.2403L14.0698 12.3889C13.8126 12.2218 13.4783 12.2475 13.2598 12.4661L12.1926 13.5461C11.9741 13.7646 11.9483 14.0989 12.1155 14.3561L13.9541 17.1203Z" fill="#6C63FF"/>
<path d="M25.8858 22.5334C25.7572 22.5334 25.6286 22.5719 25.5 22.5719C25.1143 22.5719 24.7286 22.5334 24.3429 22.4434L21.6172 25.5291L25.9886 29.9005C26.49 30.4019 27.3 30.4019 27.8015 29.9005L29.6143 28.0876C30.1158 27.5862 30.1158 26.7762 29.6143 26.2748L25.8729 22.5334H25.8858Z" fill="#6C63FF"/>
</g>
<defs>
<clipPath id="clip0_4207_957">
<rect width="18" height="18" fill="white" transform="translate(12 12.2861)"/>
</clipPath>
</defs>
</svg>
