<svg width="42" height="42" viewBox="0 0 42 42" fill="none" xmlns="http://www.w3.org/2000/svg">
<rect width="41.9998" height="41.8857" rx="8" fill="#6FCF97" fill-opacity="0.15"/>
<g clip-path="url(#clip0_4228_958)">
<path d="M29.9828 22.9496C29.7732 22.9496 28.9294 22.9155 28.3792 22.3743C27.7638 21.7648 27.7952 20.7921 27.7952 20.7482C27.8018 20.5881 27.9329 20.4589 28.0954 20.4524C28.1392 20.4524 29.1265 20.4215 29.7427 21.031C30.3614 21.6372 30.33 22.6107 30.33 22.6538C30.3234 22.8139 30.1923 22.9431 30.0298 22.9496H29.9828Z" fill="#6FCF97"/>
<path d="M26.9386 16.009C26.9386 15.9261 26.9039 15.8489 26.8478 15.7904L22.0759 11.0894C22.0165 11.0309 21.9382 11 21.854 11C21.7699 11 21.6948 11.0309 21.6354 11.0894L11.5183 21.0554C10.8279 21.7356 10.8279 22.844 11.5183 23.525L17.153 29.076C17.4871 29.4052 17.9309 29.5872 18.406 29.5872C18.8812 29.5872 19.3217 29.4052 19.6566 29.076L26.8478 21.9916C26.9072 21.9331 26.9419 21.8559 26.9419 21.773C26.9386 19.522 26.9386 18.2567 26.9386 16.009ZM22.1914 23.6388C21.4787 24.3409 20.5441 24.6919 19.6095 24.6919C18.6749 24.6919 17.7404 24.3441 17.031 23.6453C15.6089 22.2443 15.6122 19.9624 17.0343 18.5623C18.4564 17.1613 20.7693 17.1613 22.1914 18.5623C23.6135 19.9633 23.6135 22.2419 22.1914 23.6396V23.6388Z" fill="#6FCF97"/>
<path d="M21.7505 18.9961C21.1599 18.4175 20.3878 18.125 19.6124 18.125C18.837 18.125 18.0658 18.4175 17.4776 18.9961C16.2964 20.1598 16.2964 22.0475 17.4743 23.208C18.6523 24.3684 20.5685 24.3684 21.7497 23.2047C22.9276 22.0443 22.9276 20.1566 21.7497 18.9961H21.7505ZM21.4164 21.2837C21.3851 21.3267 20.6163 22.3425 19.61 22.3425C18.6036 22.3425 17.8381 21.3267 17.8068 21.2837C17.7251 21.1756 17.7251 21.0285 17.8068 20.9172C17.8381 20.8741 18.6069 19.864 19.61 19.864C20.613 19.864 21.3851 20.8741 21.4164 20.9172C21.4981 21.0277 21.4981 21.1756 21.4164 21.2837Z" fill="#6FCF97"/>
<path d="M25.9007 26.5765C25.763 26.5765 25.6351 26.4839 25.6005 26.349C25.5881 26.3092 25.3439 25.3608 25.8157 24.6368C26.2843 23.9135 27.2593 23.7348 27.3005 23.7258C27.4597 23.6982 27.6189 23.7965 27.6602 23.9534C27.6693 23.9932 27.9101 24.9358 27.4383 25.6623C26.9698 26.3856 25.9972 26.5643 25.9568 26.5733C25.9378 26.5765 25.9197 26.5765 25.9007 26.5765Z" fill="#6FCF97"/>
<path d="M28.2013 27.5613C28.2079 27.6011 28.3481 28.5681 27.8078 29.2394C27.2643 29.9138 26.2793 29.9967 26.2389 30H26.2142C26.0608 30 25.9296 29.8919 25.9049 29.7416C25.8983 29.7018 25.7547 28.7347 26.2958 28.0603C26.8394 27.3858 27.8276 27.3061 27.8681 27.3029C28.0273 27.2874 28.1774 27.4045 28.2021 27.5613H28.2013Z" fill="#6FCF97"/>
<path d="M30.5892 27.1461C30.5298 27.2355 30.43 27.2843 30.3302 27.2843C30.2774 27.2843 30.2238 27.2721 30.1768 27.2445C30.1396 27.2225 29.2801 26.7366 29.0797 25.902C28.8792 25.0642 29.4269 24.2483 29.4484 24.215C29.5391 24.0825 29.7206 24.0395 29.8641 24.1199C29.8988 24.1419 30.755 24.6278 30.9546 25.4624C31.1575 26.3002 30.6139 27.1128 30.5892 27.1469V27.1461Z" fill="#6FCF97"/>
<path d="M20.7532 21.1016C20.5247 21.3389 20.0842 21.7265 19.6091 21.7265C19.1339 21.7265 18.6935 21.3389 18.4683 21.1016C18.6935 20.8644 19.1306 20.48 19.6091 20.48C20.0875 20.48 20.528 20.8652 20.7532 21.1016Z" fill="#6FCF97"/>
</g>
<defs>
<clipPath id="clip0_4228_958">
<rect width="20" height="19" fill="white" transform="translate(11 11)"/>
</clipPath>
</defs>
</svg>
