<svg width="42" height="42" viewBox="0 0 42 42" fill="none" xmlns="http://www.w3.org/2000/svg">
<rect width="41.9998" height="41.8857" rx="8" fill="#48AADD" fill-opacity="0.15"/>
<g clip-path="url(#clip0_4228_948)">
<path d="M28.9808 12.1038C28.8959 12.0377 28.7921 12 28.6836 12H15.9478C15.4289 12 15.0044 12.4245 15.0044 12.9434V20.8302C15.0044 21.0896 15.2167 21.3019 15.4761 21.3019C15.7355 21.3019 15.9478 21.0896 15.9478 20.8302V13.4151C15.9478 13.1557 16.1601 12.9434 16.4195 12.9434H23.7921L20.1129 13.6604C19.8912 13.7028 19.7308 13.8962 19.7308 14.1226V27.3113H19.7261V28.2547H19.7308V29.5283C19.7308 29.6698 19.7968 29.8066 19.9053 29.8915C19.9902 29.9623 20.094 30 20.2025 30C20.2355 30 20.2638 30 20.2968 29.9906L28.7733 28.3396C28.995 28.2972 29.1553 28.1038 29.1553 27.8774V12.4717C29.1553 12.3302 29.0893 12.1981 28.9808 12.1038ZM21.7921 23.1792C21.377 23.1792 21.0374 22.5943 21.0374 21.8726C21.0374 21.1509 21.377 20.566 21.7921 20.566C22.2072 20.566 22.5516 21.1509 22.5516 21.8726C22.5516 22.5943 22.2119 23.1792 21.7921 23.1792Z" fill="#48AADD"/>
<path fill-rule="evenodd" clip-rule="evenodd" d="M17.9245 23.0188L17.2925 21.9575C17.2642 21.9056 17.2075 21.8726 17.1462 21.8726C17.0849 21.8726 17.033 21.9056 17 21.9575L16.3679 23.0188C16.3019 23.132 16.2642 23.2641 16.2642 23.3961V24.0094H18.033V23.3961C18.033 23.2641 17.9953 23.132 17.9245 23.0188ZM16.2642 25.4763V29.8301C16.2642 29.8773 16.283 29.9197 16.316 29.948C16.3443 29.981 16.3868 29.9999 16.434 29.9999H17.8632C17.9057 29.9999 17.9481 29.981 17.9811 29.948C18.0142 29.9197 18.033 29.8773 18.033 29.8301V25.4763H16.2642ZM14.6038 23.0188L13.9717 21.9575C13.9387 21.9056 13.8868 21.8726 13.8255 21.8726C13.7642 21.8726 13.7123 21.9056 13.6792 21.9575L13.0472 23.0188C12.9764 23.132 12.9434 23.2641 12.9434 23.3961V24.0094H14.7075V23.3961C14.7075 23.2641 14.6745 23.132 14.6038 23.0188ZM12.3679 24.2546C12.1651 24.2546 12 24.415 12 24.6178V24.8631C12 25.066 12.1651 25.231 12.3679 25.231H18.9953V24.2546H12.3679ZM13.8255 24.9386C13.717 24.9386 13.6274 24.8537 13.6274 24.7405C13.6274 24.6273 13.717 24.5424 13.8255 24.5424C13.934 24.5424 14.0236 24.632 14.0236 24.7405C14.0236 24.849 13.934 24.9386 13.8255 24.9386ZM17.1462 24.9386C17.0377 24.9386 16.9481 24.8537 16.9481 24.7405C16.9481 24.6273 17.0377 24.5424 17.1462 24.5424C17.2547 24.5424 17.3443 24.632 17.3443 24.7405C17.3443 24.849 17.2547 24.9386 17.1462 24.9386ZM12.9434 25.4763V29.8301C12.9434 29.8773 12.9623 29.9197 12.9906 29.948C13.0236 29.981 13.066 29.9999 13.1132 29.9999H14.5377C14.5849 29.9999 14.6274 29.981 14.6604 29.948C14.6934 29.9197 14.7075 29.8773 14.7075 29.8301V25.4763H12.9434Z" fill="#48AADD"/>
</g>
<defs>
<clipPath id="clip0_4228_948">
<rect width="17.1557" height="18" fill="white" transform="translate(12 12)"/>
</clipPath>
</defs>
</svg>
