<svg width="42" height="42" viewBox="0 0 42 42" fill="none" xmlns="http://www.w3.org/2000/svg">
<rect width="41.9998" height="41.8857" rx="8" fill="#56CCF2" fill-opacity="0.15"/>
<g clip-path="url(#clip0_4228_978)">
<path d="M21.2896 15.7773C19.7477 15.7773 16.6108 19.4991 16.6108 22.5385C16.6108 24.8336 17.7628 26.4021 21.2896 26.4021C24.8164 26.4021 25.9684 24.8336 25.9684 22.5385C25.9684 19.4637 22.8315 15.7773 21.2896 15.7773ZM23.6645 22.5297L21.901 23.531C21.7415 23.6196 21.6441 23.788 21.6441 23.9741V24.4792C21.6441 24.6564 21.52 24.8159 21.3516 24.8425C21.1301 24.8779 20.944 24.7096 20.944 24.4969V22.3436C20.944 22.1752 20.8643 22.0157 20.7225 21.9271L18.8173 20.6068C18.6667 20.5004 18.6046 20.2966 18.6932 20.1371C18.7996 19.951 19.03 19.8979 19.1983 20.0131L20.7136 21.0676C20.8022 21.1296 20.9352 21.0676 20.9352 20.9524V17.842C20.9352 17.6648 21.0592 17.5053 21.2276 17.4787C21.4491 17.4433 21.6352 17.6116 21.6352 17.8243V19.2687C21.6352 19.375 21.7415 19.4371 21.839 19.3928L22.4682 19.0915C22.6277 19.0117 22.8226 19.056 22.929 19.1978C23.053 19.3839 22.9821 19.6232 22.796 19.7206L21.9365 20.1283C21.7593 20.2169 21.6441 20.3941 21.6441 20.589V21.8917V22.6271C21.6441 22.7335 21.7593 22.8044 21.8567 22.7512L23.3454 21.9094C23.5227 21.8119 23.7531 21.8828 23.8417 22.0777C23.9126 22.2461 23.8417 22.4411 23.6733 22.5385L23.6645 22.5297Z" fill="#56CCF2"/>
<path d="M31.2849 21.5637C31.2849 24.0183 30.3899 26.3931 28.7506 28.2274C27.1201 30.0617 24.8604 31.2314 22.4236 31.5149C19.9867 31.7985 17.5233 31.1693 15.5206 29.7515C13.5091 28.3337 12.1001 26.2247 11.5419 23.8322C10.9925 21.4396 11.3381 18.923 12.5166 16.7697C13.6952 14.6164 15.6269 12.9682 17.9486 12.153C18.1701 12.0555 18.4183 12.0555 18.6309 12.153C18.8525 12.2504 19.0208 12.4277 19.1006 12.6492C19.1803 12.8707 19.1626 13.1188 19.0563 13.3315C18.9499 13.5442 18.755 13.6948 18.5246 13.7657C16.0966 14.6164 14.2003 16.5393 13.385 18.9762C12.5698 21.413 12.9331 24.0892 14.3598 26.2247C15.7864 28.3603 18.1258 29.7161 20.6868 29.8933C23.2477 30.0705 25.7554 29.0515 27.4657 27.1374C29.1759 25.2234 29.9025 22.6182 29.4329 20.0927C28.9632 17.5672 27.3505 15.3962 25.0642 14.2176L25.525 15.5734C25.6137 15.795 25.6137 16.0431 25.5073 16.2646C25.4098 16.4861 25.2149 16.6456 24.9845 16.7165C24.8959 16.7343 24.7984 16.7343 24.7098 16.7165C24.3465 16.7165 24.0186 16.4861 23.8946 16.1317L22.7514 12.7024C22.6628 12.4808 22.6628 12.2327 22.7692 12.0112C22.8755 11.7896 23.0616 11.6301 23.292 11.5592L26.7302 10.4161C26.9517 10.3364 27.191 10.3452 27.4036 10.4427C27.6163 10.5402 27.7758 10.7263 27.8467 10.939C27.9176 11.1605 27.8999 11.3997 27.7935 11.6124C27.6872 11.8251 27.5011 11.9757 27.2796 12.0378L25.6934 12.5606C27.3771 13.3847 28.7949 14.6696 29.7785 16.2557C30.7709 17.8419 31.2938 19.6851 31.2938 21.5548L31.2849 21.5637Z" fill="#56CCF2"/>
</g>
<defs>
<clipPath id="clip0_4228_978">
<rect width="20" height="21.214" fill="white" transform="translate(11.2852 10.363)"/>
</clipPath>
</defs>
</svg>
