<svg width="42" height="42" viewBox="0 0 42 42" fill="none" xmlns="http://www.w3.org/2000/svg">
<rect width="41.9998" height="41.8857" rx="8" fill="#27AE60" fill-opacity="0.15"/>
<g clip-path="url(#clip0_4228_953)">
<path d="M30.684 27.0456L27.2295 23.3445C27.0189 23.1158 26.6819 22.9702 26.3659 22.9702H23.2274C22.9115 22.9702 22.6587 23.2197 22.6587 23.5316C22.6587 23.8435 22.9115 24.093 23.2274 24.093H26.4081L29.8625 27.8357C29.8625 27.8565 29.8414 27.8565 29.8414 27.8565H12.169L12.1479 27.8149L15.6234 24.093H18.7619C19.0779 24.093 19.3307 23.8435 19.3307 23.5316C19.3307 23.2197 19.0779 22.9702 18.7619 22.9702H15.6234C15.2864 22.9702 14.9705 23.1158 14.7598 23.3445L11.3054 27.0456C10.9684 27.399 10.9052 27.9188 11.1369 28.3763C11.3475 28.7713 11.7898 29.0001 12.2322 29.0001H29.7572C30.1995 29.0001 30.6419 28.7713 30.8525 28.3763C31.1053 27.9396 31.021 27.4198 30.684 27.0456Z" fill="#27AE60"/>
<path d="M17.734 18.3937C17.4749 18.743 17.3085 19.188 17.3085 19.6537C17.3085 20.868 18.3006 21.8474 19.5307 21.8474C19.7435 21.8474 19.9562 21.8016 20.1458 21.7538V25.5339C20.1458 25.9996 20.5249 26.3739 20.9968 26.3739C21.4686 26.3739 21.8477 25.9996 21.8477 25.5339V21.7767C22.0373 21.8224 22.2501 21.8702 22.4628 21.8702C23.6929 21.8702 24.685 20.8909 24.685 19.6766C24.685 19.2109 24.5186 18.7659 24.2595 18.4166C24.7082 17.9737 24.9926 17.3894 24.9926 16.7137C24.9926 15.803 24.4723 15.0336 23.7161 14.6365C23.6698 13.1665 22.4628 12 20.9968 12C19.5307 12 18.3259 13.1665 18.2774 14.6136C17.5213 15.0108 17.001 15.803 17.001 16.6908C17.001 17.3666 17.2853 17.9508 17.734 18.3937Z" fill="#27AE60"/>
</g>
<defs>
<clipPath id="clip0_4228_953">
<rect width="20" height="17" fill="white" transform="translate(11 12)"/>
</clipPath>
</defs>
</svg>
