<svg width="42" height="43" viewBox="0 0 42 43" fill="none" xmlns="http://www.w3.org/2000/svg">
<rect y="0.171875" width="41.9998" height="41.8857" rx="8" fill="#9B51E0" fill-opacity="0.15"/>
<g clip-path="url(#clip0_4228_1020)">
<path fill-rule="evenodd" clip-rule="evenodd" d="M20.9663 11.1719C18.762 12.2114 15.8544 13.4061 12.6019 13.7031C12.2503 13.7301 11.9934 14.0068 12.0001 14.3376C12.088 17.591 12.1624 21.7287 12.7845 23.5782C13.9273 27.1557 17.1053 30.0379 20.8717 31.1449C21.0069 31.1854 21.1421 31.1854 21.2774 31.1449C25.0572 29.9839 28.0324 27.1557 29.2225 23.5782C29.9934 21.2562 29.9528 17.6045 30.0069 14.3376C30.0069 14.0136 29.7499 13.7368 29.4051 13.7031C26.1324 13.4128 23.2112 12.2181 21.0001 11.1719H20.9663ZM20.3375 21.9987L23.0422 19.0288C23.1572 18.9005 23.3532 18.8938 23.4817 19.0085L24.0294 19.5013C24.1579 19.616 24.1647 19.8118 24.0497 19.94L20.6418 23.6795V23.693V23.6997V23.7065L20.635 23.7132V23.72H20.6282L20.6215 23.7267H20.6147H20.6079H20.6012H20.5944H20.5877H20.5809H20.5741H20.5674H20.5606H20.5538H20.5471H20.5403H20.5336H20.5268H20.52H20.5133H20.5065H20.4998H20.493H20.4457H20.4389H20.4321H20.4254H20.4118H20.4051H20.3983H20.3916H20.3848H20.378H20.3713H20.3645H20.3578H20.351H20.3442H20.3375H20.3307L20.3239 23.72L20.3172 23.7132L20.3104 23.7065V23.6997V23.693L18.3022 21.8705C18.1737 21.7557 18.1669 21.56 18.2819 21.4317L18.7755 20.885C18.8904 20.7568 19.0865 20.75 19.2082 20.8648L20.4457 21.9852L20.3375 21.9987ZM21.0001 16.1736C23.7657 16.1736 26.0106 18.4145 26.0106 21.1752C26.0106 23.936 23.7657 26.1769 21.0001 26.1769C18.2345 26.1769 15.9896 23.936 15.9896 21.1752C15.9896 18.4145 18.2345 16.1736 21.0001 16.1736Z" fill="#9B51E0"/>
</g>
<defs>
<clipPath id="clip0_4228_1020">
<rect width="18" height="20" fill="white" transform="translate(12 11.1719)"/>
</clipPath>
</defs>
</svg>
