<svg width="42" height="42" viewBox="0 0 42 42" fill="none" xmlns="http://www.w3.org/2000/svg">
<rect width="41.9998" height="41.8857" rx="8" fill="#2F80ED" fill-opacity="0.15"/>
<g clip-path="url(#clip0_4228_983)">
<path d="M26.7041 14.2827C26.7041 14.2827 26.6854 14.2205 26.6666 14.2019C26.6479 14.1397 26.6041 14.0838 26.5853 14.0029C26.5666 13.9408 26.5478 13.8848 26.504 13.8226C26.4665 13.7605 26.4415 13.7045 26.4039 13.6237C26.3664 13.5615 26.3414 13.5056 26.3039 13.4247C26.3039 13.4061 26.2851 13.4061 26.2851 13.3874C25.422 11.9388 23.8021 11 22.0071 11C20.0057 11 18.2045 12.1937 17.4039 14.0029H17.0037C16.6034 14.0029 16.2031 14.0651 15.8216 14.1397H15.8028C15.6652 14.177 15.5214 14.2205 15.3838 14.2579C15.3838 14.2579 15.3713 14.2641 15.3463 14.2765C15.2837 14.2952 15.2462 14.3138 15.1836 14.3387C15.1461 14.3573 15.1211 14.3573 15.0836 14.376C15.0648 14.376 15.021 14.376 15.0023 14.3946C14.9647 14.4133 14.9022 14.4319 14.8647 14.4568C14.8459 14.4568 14.8271 14.4755 14.8271 14.4755C14.3456 14.7117 13.889 15.035 13.4887 15.4329L13.47 15.4516C12.5693 16.3655 12.0127 17.5965 12.0127 18.9519C12.0127 21.6937 14.2517 23.9257 17.0162 23.9257H25.0155C27.7736 23.9257 30.0189 21.6999 30.0189 18.9519C30.0189 16.8256 28.6993 14.9977 26.7167 14.2765L26.7041 14.2827Z" fill="#2F80ED"/>
<path d="M17.2225 25.5672C16.9848 25.4491 16.6846 25.5485 16.5407 25.7848L16.0404 26.7795C15.9215 27.0158 16.0216 27.3142 16.2593 27.4572C16.3406 27.4945 16.3969 27.5194 16.4782 27.5194C16.6596 27.5194 16.8409 27.4199 16.916 27.2396L17.4163 26.2449C17.5789 25.9837 17.4789 25.6853 17.2162 25.5672H17.2225Z" fill="#2F80ED"/>
<path d="M27.2229 25.5672C26.9853 25.4491 26.6851 25.5485 26.5412 25.7848L26.0409 26.7795C25.922 27.0158 26.0221 27.3142 26.2598 27.4572C26.3411 27.4945 26.3974 27.5194 26.4787 27.5194C26.66 27.5194 26.8414 27.4199 26.9165 27.2396L27.4168 26.2449C27.5794 25.9837 27.4794 25.6853 27.2167 25.5672H27.2229Z" fill="#2F80ED"/>
<path d="M22.2195 25.5672C21.9819 25.4491 21.6816 25.5485 21.5378 25.7848L21.0374 26.7795C20.9186 27.0158 21.0187 27.3142 21.2564 27.4572C21.3377 27.4945 21.3939 27.5194 21.4753 27.5194C21.6566 27.5194 21.838 27.4199 21.9131 27.2396L22.4134 26.2449C22.576 25.9837 22.4759 25.6853 22.2133 25.5672H22.2195Z" fill="#2F80ED"/>
<path d="M19.2239 28.054C18.9862 27.9359 18.686 28.0353 18.5422 28.2716L18.0418 29.2664C17.923 29.5026 18.0231 29.8011 18.2607 29.944C18.3421 29.9814 18.3983 30.0062 18.4796 30.0062C18.661 30.0062 18.8424 29.9067 18.9175 29.7264L19.4178 28.7317C19.5804 28.4706 19.4803 28.1721 19.2177 28.054H19.2239Z" fill="#2F80ED"/>
<path d="M24.221 28.054C23.9833 27.9359 23.6831 28.0353 23.5393 28.2716L23.0389 29.2664C22.9201 29.5026 23.0202 29.8011 23.2578 29.944C23.3391 29.9814 23.3954 30.0062 23.4767 30.0062C23.6581 30.0062 23.8395 29.9067 23.9145 29.7264L24.4149 28.7317C24.5775 28.4706 24.4774 28.1721 24.2147 28.054H24.221Z" fill="#2F80ED"/>
</g>
<defs>
<clipPath id="clip0_4228_983">
<rect width="18" height="19" fill="white" transform="translate(12 11)"/>
</clipPath>
</defs>
</svg>
