<svg width="42" height="42" viewBox="0 0 42 42" fill="none" xmlns="http://www.w3.org/2000/svg">
<rect width="41.9998" height="41.8857" rx="8" fill="#F2994A" fill-opacity="0.15"/>
<g clip-path="url(#clip0_4228_944)">
<path d="M29.9999 15.4915C29.9999 15.4915 25.4946 14.8405 20.9999 10C16.5053 14.809 11.9999 15.46 11.9999 15.46C11.9999 15.46 11.6361 27.6295 20.9999 31C30.3638 27.6295 29.9999 15.4915 29.9999 15.4915ZM21.7169 25.6765C22.3697 25.288 22.5838 24.4585 22.1878 23.818C22.0701 23.629 21.9096 23.4715 21.7169 23.356C20.4756 22.537 20.4863 21.697 20.4863 21.697C19.8014 22.516 19.4803 23.566 19.5873 24.616C19.6515 25.0465 19.8977 25.4245 20.2615 25.666C18.3995 25.3195 17.019 23.776 16.9119 21.9175C17.0083 20.6575 17.5968 19.471 18.5493 18.6205C18.8275 18.316 19.0844 18.001 19.3091 17.665C19.7372 17.119 19.9619 16.447 19.9298 15.7645C20.315 15.9115 20.6575 16.1425 20.9464 16.4365C21.4387 16.888 21.8133 17.455 22.0166 18.085C22.2734 19.03 22.3483 20.017 22.2199 20.983C22.2199 20.983 22.2199 21.4345 22.4875 21.571C23.0653 21.8335 23.8573 20.374 23.258 18.484L23.3864 18.589C24.403 19.4185 25.0023 20.6365 25.0237 21.9385C24.9167 23.776 23.5576 25.3195 21.7169 25.6765Z" fill="#F2994A"/>
</g>
<defs>
<clipPath id="clip0_4228_944">
<rect width="18" height="21" fill="white" transform="translate(12 10)"/>
</clipPath>
</defs>
</svg>
