<svg width="42" height="42" viewBox="0 0 42 42" fill="none" xmlns="http://www.w3.org/2000/svg">
<rect width="41.9998" height="41.8857" rx="8" fill="#4F4F4F" fill-opacity="0.15"/>
<g clip-path="url(#clip0_4228_992)">
<path d="M27.8612 8C27.9416 8.12775 28.0405 8.24743 28.0998 8.38459C28.5781 9.48324 29.0512 10.5846 29.5204 11.6859C29.7154 12.1431 29.6522 12.279 29.1817 12.4121C28.1393 12.7066 27.0943 12.9944 26.0506 13.2848C25.9478 13.3131 25.8476 13.3534 25.7264 13.3937C26.214 14.5314 26.6923 15.6421 27.147 16.7045C26.5882 17.0084 26.0545 17.2975 25.4786 17.6108C24.9989 16.5041 24.4929 15.3396 23.9789 14.1535C23.7615 14.2463 23.5757 14.3283 23.3885 14.4036C22.9879 14.5637 22.7705 14.4843 22.5926 14.0849C22.2921 13.4112 22.0009 12.7321 21.7136 12.0517C21.5093 11.5703 21.5884 11.3739 22.0509 11.1534C22.2117 11.0768 22.3738 11.0041 22.5741 10.91C22.4555 10.6236 22.3369 10.3479 22.2275 10.0695C21.9811 9.44559 22.1458 8.90904 22.6519 8.67775C23.1579 8.44645 23.6719 8.68178 23.9526 9.28288C24.0751 9.5451 24.1858 9.81405 24.3295 10.1435C25.4206 9.41466 26.4762 8.70733 27.5318 8C27.6412 8 27.7519 8 27.8612 8Z" fill="#2F3336"/>
<path d="M28.9947 20.3003C28.9182 20.463 28.8141 20.6149 28.7113 20.7629C27.4818 22.55 26.2496 24.3372 25.0162 26.1216C24.4244 26.9796 23.9303 27.1705 22.934 26.9366C21.1193 26.5103 19.3047 26.0853 17.4624 25.7209C17.5823 25.7814 17.7009 25.8446 17.8234 25.9011C19.3113 26.5856 20.7965 27.2741 22.2869 27.9491C22.5255 28.0567 22.6335 28.2019 22.6862 28.4669C22.7719 28.8945 22.8562 29.3235 22.9419 29.7511C23.2779 31.4293 22.0234 33 20.3444 33H18.0778C16.1142 33 14.4182 31.5961 14.0123 29.6354C13.696 28.1118 13.3784 26.5896 13.0648 25.066C12.7656 23.6164 13.5049 22.4357 14.9282 22.1184C16.3079 21.8104 17.689 21.5092 19.078 21.2497C20.0044 21.0762 21.0284 21.6975 21.3328 22.546H18.1595C18.2425 22.5729 18.3506 22.6132 18.4613 22.6401C19.8226 22.9655 21.1852 23.2829 22.5439 23.6204C22.8325 23.6917 22.9827 23.6056 23.1462 23.3663C24.1609 21.8696 25.1954 20.3863 26.2154 18.8937C26.558 18.3921 26.985 18.064 27.6096 18.0667C28.7351 18.072 29.4757 19.2621 28.9934 20.3003H28.9947Z" fill="#2F3336"/>
<path d="M16.4832 13.4624C18.3545 13.4839 19.9003 15.0882 19.8647 16.9708C19.8278 18.8642 18.2978 20.4174 16.4608 20.4228C14.5934 20.4281 13.0028 18.7943 13.0397 16.9076C13.0779 14.9873 14.6237 13.4409 16.4845 13.4637L16.4832 13.4624Z" fill="#2F3336"/>
<path d="M29.4267 21.9609C29.6283 22.4666 29.8233 22.8807 29.9591 23.3151C30.1054 23.7831 29.8431 24.2725 29.4095 24.4433C28.9865 24.6101 28.4963 24.446 28.2775 24.0318C28.2222 23.9269 28.2209 23.7279 28.2841 23.6311C28.6294 23.0946 29.0023 22.5768 29.428 21.9609H29.4267Z" fill="#2F3336"/>
</g>
<defs>
<clipPath id="clip0_4228_992">
<rect width="17" height="25" fill="white" transform="translate(13 8)"/>
</clipPath>
</defs>
</svg>
