<svg width="24" height="24" viewBox="0 0 24 24" fill="none" xmlns="http://www.w3.org/2000/svg">
<rect width="24" height="24" rx="12" fill="#007A49"/>
<g clip-path="url(#clip0_2060_11716)">
<path d="M11.6916 6C8.52098 6.16103 6 8.78231 6 11.997C6 15.2117 8.68786 18.003 12.0015 18.003C13.56 18.003 14.9814 17.4125 16.0482 16.4374L11.8436 12.2296C11.7631 12.173 11.7273 12.0984 11.7214 11.997V6C11.7214 6 11.7005 6 11.6916 6ZM12.2816 6V11.499L17.0464 8.74652C16.0243 7.16004 14.2811 6.09245 12.2786 6H12.2816ZM17.3265 9.22366L12.4515 12.0417L16.4415 16.0348C17.413 14.9672 18.003 13.5507 18.003 11.994C18.003 10.995 17.7586 10.0527 17.3265 9.22366Z" fill="white"/>
</g>
<defs>
<clipPath id="clip0_2060_11716">
<rect width="12" height="12" fill="white" transform="translate(6 6)"/>
</clipPath>
</defs>
</svg>
