<svg width="11" height="11" viewBox="0 0 11 11" fill="none" xmlns="http://www.w3.org/2000/svg">
<path d="M10.2142 4.32139L6.67847 4.32139V0.785741C6.67847 0.577349 6.59568 0.377493 6.44832 0.230138C6.30096 0.0827831 6.1011 0 5.8927 0L5.1073 0C4.8989 0 4.69904 0.0827831 4.55168 0.230138C4.40432 0.377493 4.32153 0.577349 4.32153 0.785741V4.32139H0.785767C0.577368 4.32139 0.377506 4.40417 0.230146 4.55153C0.0827859 4.69888 0 4.89874 0 5.10713L0 5.89287C0 6.10126 0.0827859 6.30112 0.230146 6.44847C0.377506 6.59583 0.577368 6.67861 0.785767 6.67861H4.32153L4.32153 10.2143C4.32153 10.4227 4.40432 10.6225 4.55168 10.7699C4.69904 10.9172 4.8989 11 5.1073 11H5.89307C6.10147 11 6.30133 10.9172 6.44869 10.7699C6.59605 10.6225 6.67883 10.4227 6.67883 10.2143L6.67883 6.67824L10.2146 6.67824C10.4229 6.67815 10.6227 6.59532 10.77 6.44798C10.9173 6.30063 11 6.10083 11 5.8925V5.10713C11 4.89874 10.9172 4.69888 10.7699 4.55153C10.6225 4.40417 10.4226 4.32139 10.2142 4.32139Z" fill="white"/>
</svg>
