<svg width="18" height="18" viewBox="0 0 18 18" fill="none" xmlns="http://www.w3.org/2000/svg">
<path d="M16.7071 7.57675H6.53445C6.39803 7.57677 6.26467 7.53557 6.15105 7.4583C6.03742 7.38102 5.94859 7.27111 5.89574 7.14237C5.8429 7.01363 5.82837 6.87176 5.85398 6.7346C5.87958 6.59744 5.94418 6.47107 6.03967 6.37135L9.86927 2.41074C10.108 2.16414 10.2419 1.83106 10.2419 1.48392C10.2419 1.13677 10.108 0.80366 9.86927 0.557065L9.70104 0.384851C9.58155 0.262341 9.43966 0.165161 9.28345 0.098848C9.12723 0.0325348 8.95978 -0.00158691 8.79066 -0.00158691C8.62155 -0.00158691 8.45409 0.0325348 8.29788 0.098848C8.14166 0.165161 7.99974 0.262341 7.88026 0.384851L0.369543 8.06298C0.13258 8.31255 0 8.64684 0 8.99487C0 9.34289 0.13258 9.67722 0.369543 9.92679L7.88026 17.615C7.99974 17.7375 8.14166 17.8347 8.29788 17.901C8.45409 17.9673 8.62155 18.0015 8.79066 18.0015C8.95978 18.0015 9.12723 17.9673 9.28345 17.901C9.43966 17.8347 9.58155 17.7375 9.70104 17.615L9.86927 17.4428C10.108 17.1962 10.2419 16.8631 10.2419 16.516C10.2419 16.1688 10.108 15.8357 9.86927 15.5891L6.03967 11.6285C5.94418 11.5288 5.87958 11.4024 5.85398 11.2653C5.82837 11.1281 5.8429 10.9863 5.89574 10.8575C5.94859 10.7288 6.03742 10.6189 6.15105 10.5416C6.26467 10.4643 6.39803 10.4231 6.53445 10.4231H16.7071C17.0483 10.4231 17.3755 10.2844 17.6167 10.0374C17.858 9.79047 17.9935 9.45555 17.9935 9.10631V8.89357C17.9935 8.54432 17.858 8.2094 17.6167 7.96245C17.3755 7.7155 17.0483 7.57675 16.7071 7.57675Z" fill="black" fill-opacity="0.87"/>
</svg>
