<svg width="28" height="28" viewBox="0 0 28 28" fill="none" xmlns="http://www.w3.org/2000/svg">
<g filter="url(#filter0_b_2146_11806)">
<rect width="28" height="28" rx="4" fill="white"/>
<path d="M8.85103 11.8755C8.77793 11.8755 8.70815 11.8591 8.63672 11.8542L9.09358 20.8929C9.14508 21.8423 9.94416 22.5845 10.911 22.5829H17.0911C18.0596 22.5829 18.8587 21.8407 18.9085 20.8913L19.3654 11.8542C19.2923 11.8608 19.2242 11.8755 19.1511 11.8755H8.85103ZM12.1836 20.7983C12.1836 21.1262 11.9128 21.3937 11.5772 21.3937C11.2416 21.3937 10.9708 21.1278 10.9708 20.7983V13.66C10.9708 13.3321 11.2416 13.0646 11.5772 13.0646C11.9128 13.0646 12.1836 13.3305 12.1836 13.66V20.7983ZM14.6074 20.7983C14.6074 21.1262 14.3366 21.3937 14.001 21.3937C13.6655 21.3937 13.3947 21.1278 13.3947 20.7983V13.66C13.3947 13.3321 13.6655 13.0646 14.001 13.0646C14.3366 13.0646 14.6074 13.3305 14.6074 13.66V20.7983ZM17.0312 20.7983C17.0312 21.1262 16.7605 21.3937 16.4249 21.3937C16.0893 21.3937 15.8185 21.1278 15.8185 20.7983V13.66C15.8185 13.3321 16.0893 13.0646 16.4249 13.0646C16.7605 13.0646 17.0312 13.3305 17.0312 13.66V20.7983Z" fill="#4F4F4F"/>
<path d="M19.848 7.42884H17.4301C17.4207 6.32177 16.5021 5.42619 15.3667 5.41699H12.6263C11.4871 5.41699 10.5629 6.3181 10.5629 7.42884H8.15445C5.93267 7.42884 5.93833 10.7813 8.15445 10.7813H19.8461C22.0679 10.7813 22.0622 7.42884 19.8461 7.42884H19.848ZM11.9379 7.42884C11.9379 7.05921 12.2453 6.75761 12.6263 6.75761H15.3686C15.7458 6.76313 16.0514 7.05921 16.057 7.42884H11.9379Z" fill="#4F4F4F"/>
</g>
<defs>
<filter id="filter0_b_2146_11806" x="-50" y="-50" width="128" height="128" filterUnits="userSpaceOnUse" color-interpolation-filters="sRGB">
<feFlood flood-opacity="0" result="BackgroundImageFix"/>
<feGaussianBlur in="BackgroundImageFix" stdDeviation="25"/>
<feComposite in2="SourceAlpha" operator="in" result="effect1_backgroundBlur_2146_11806"/>
<feBlend mode="normal" in="SourceGraphic" in2="effect1_backgroundBlur_2146_11806" result="shape"/>
</filter>
</defs>
</svg>
