<svg width="16" height="18" viewBox="0 0 16 18" fill="none" xmlns="http://www.w3.org/2000/svg">
<path d="M2.85103 6.87521C2.77793 6.87521 2.70815 6.8589 2.63672 6.854L3.09358 15.8927C3.14508 16.8421 3.94416 17.5843 4.91103 17.5827H11.0911C12.0596 17.5827 12.8587 16.8404 12.9085 15.8911L13.3654 6.854C13.2923 6.86053 13.2242 6.87521 13.1511 6.87521H2.85103ZM6.18359 15.7981C6.18359 16.126 5.91279 16.3935 5.57721 16.3935C5.24163 16.3935 4.97084 16.1276 4.97084 15.7981V8.65978C4.97084 8.3319 5.24163 8.06438 5.57721 8.06438C5.91279 8.06438 6.18359 8.33027 6.18359 8.65978V15.7981ZM8.60742 15.7981C8.60742 16.126 8.33663 16.3935 8.00104 16.3935C7.66546 16.3935 7.39467 16.1276 7.39467 15.7981V8.65978C7.39467 8.3319 7.66546 8.06438 8.00104 8.06438C8.33663 8.06438 8.60742 8.33027 8.60742 8.65978V15.7981ZM11.0312 15.7981C11.0312 16.126 10.7605 16.3935 10.4249 16.3935C10.0893 16.3935 9.8185 16.1276 9.8185 15.7981V8.65978C9.8185 8.3319 10.0893 8.06438 10.4249 8.06438C10.7605 8.06438 11.0312 8.33027 11.0312 8.65978V15.7981Z"/>
<path d="M13.848 2.42884H11.4301C11.4207 1.32177 10.5021 0.426187 9.36674 0.416992H6.62629C5.48711 0.416992 4.56294 1.3181 4.56294 2.42884H2.15445C-0.0673313 2.42884 -0.0616732 5.78132 2.15445 5.78132H13.8461C16.0679 5.78132 16.0622 2.42884 13.8461 2.42884H13.848ZM5.93788 2.42884C5.93788 2.05921 6.24531 1.75761 6.62629 1.75761H9.36862C9.74584 1.76313 10.0514 2.05921 10.057 2.42884H5.93788Z"/>
</svg>
