<svg width="17" height="24" viewBox="0 0 17 24" fill="none" xmlns="http://www.w3.org/2000/svg">
<g clip-path="url(#clip0_4531_3362)">
<path fill-rule="evenodd" clip-rule="evenodd" d="M8.80517 0C11.3533 0 13.4797 2.1159 13.4797 4.59394V6.06165H4.18787V4.59394C4.18787 2.1159 6.25708 0 8.80517 0ZM13.4797 7.05327V7.81581H4.18787V7.05327H13.4793H13.4797ZM13.4797 8.75006V10.8851C13.4797 13.4014 11.3533 15.4603 8.80517 15.4603C6.25708 15.4603 4.18827 13.4014 4.18827 10.8851V8.75006H13.4797Z" fill="#007A49"/>
<path fill-rule="evenodd" clip-rule="evenodd" d="M7.67489 19.0623C1.40998 18.4715 0.701294 12.7529 0.701294 7.58685C0.701294 6.63388 2.59794 6.63388 2.77051 7.45338C2.82817 11.6473 2.82817 17.0612 8.80519 17.0612C14.7822 17.0612 14.8399 11.6473 14.8399 7.45338C15.0697 6.63388 16.9091 6.69084 16.9091 7.58685C16.9091 12.7529 16.2004 18.4715 9.91627 19.0628V21.9412H13.173C14.5908 21.9412 14.5524 24.0001 13.173 24.0001H4.41812C3.11525 24.0001 3.07722 21.9412 4.41812 21.9412H7.67489V19.0628V19.0623Z" fill="#007A49"/>
</g>
<defs>
<clipPath id="clip0_4531_3362">
<rect width="16.2078" height="24" fill="white" transform="translate(0.701294)"/>
</clipPath>
</defs>
</svg>
