<svg width="21" height="21" viewBox="0 0 21 21" fill="none" xmlns="http://www.w3.org/2000/svg">
<g clip-path="url(#clip0_4531_3354)">
<path d="M7.47277 10.6116C5.01354 10.9949 3.49715 12.072 2.60747 13.1827C1.46598 14.6068 1.33169 16.084 1.33169 16.084L1.32609 16.1595C1.3177 16.8338 1.49396 17.3486 1.6926 17.7095C2.58788 16.3833 3.98956 14.7383 5.9452 13.6275C2.62425 16.5316 1.16942 20.4065 1.16942 20.4065C1.08269 20.6303 1.1946 20.8821 1.42122 20.9689C1.64783 21.0556 1.89963 20.9409 1.98357 20.7143C1.98357 20.7143 2.27733 19.9477 2.88724 18.8566C3.59787 19.1951 4.47357 19.2482 5.32689 19.0832C6.35927 18.8845 7.38604 18.353 8.03512 17.4633C8.88005 16.3022 9.02833 15.1495 9.15983 14.1116C9.29132 13.0708 9.40323 12.1447 10.1167 11.1599C10.3237 10.8745 10.1251 10.4745 9.76974 10.4689C8.92761 10.4521 8.16382 10.5052 7.47557 10.6116H7.46998H7.47277Z" fill="#007A49"/>
<path d="M13.5272 10.3882C15.9864 10.0049 17.5028 8.92781 18.3925 7.8171C19.534 6.39303 19.6682 4.91582 19.6682 4.91582L19.6738 4.84028C19.6822 4.16602 19.506 3.65123 19.3073 3.29032C18.4121 4.61646 17.0104 6.26154 15.0547 7.37225C18.3757 4.46817 19.8305 0.593274 19.8305 0.593274C19.9172 0.369453 19.8053 0.117655 19.5787 0.0309241C19.3521 -0.0558065 19.1003 0.0589017 19.0164 0.28552C19.0164 0.28552 18.7226 1.05211 18.1127 2.14323C17.4021 1.80471 16.5264 1.75155 15.673 1.91662C14.6407 2.11526 13.6139 2.64683 12.9648 3.53652C12.1199 4.69759 11.9716 5.85027 11.8401 6.88824C11.7086 7.92901 11.5967 8.85506 10.8833 9.83988C10.6762 10.1252 10.8749 10.5253 11.2302 10.5309C12.0723 10.5477 12.8361 10.4946 13.5244 10.3882H13.53H13.5272Z" fill="#007A49"/>
<path d="M10.388 7.47248C10.0048 5.01325 8.92761 3.49686 7.8169 2.60717C6.39284 1.46568 4.91562 1.33139 4.91562 1.33139L4.84008 1.3258C4.16582 1.3174 3.65104 1.49366 3.29012 1.6923C4.61626 2.58759 6.26135 3.98926 7.37206 5.9449C4.46798 2.62396 0.590283 1.17192 0.590283 1.17192C0.366463 1.08519 0.114664 1.1971 0.0279334 1.42372C-0.0587972 1.65034 0.055911 1.90214 0.28253 1.98607C0.28253 1.98607 1.04912 2.27983 2.14024 2.88974C1.80171 3.60038 1.74856 4.47608 1.91362 5.32939C2.11227 6.36177 2.64384 7.38855 3.53353 8.03763C4.6946 8.88255 5.84728 9.03083 6.88525 9.16233C7.92602 9.29382 8.85207 9.40573 9.83689 10.1192C10.1223 10.3262 10.5223 10.1276 10.5279 9.77224C10.5447 8.93011 10.4916 8.16632 10.3852 7.47807V7.47248H10.388Z" fill="#007A49"/>
<path d="M10.6119 13.5267C10.9952 15.9859 12.0723 17.5023 13.183 18.392C14.6071 19.5335 16.0843 19.6678 16.0843 19.6678L16.1598 19.6734C16.8341 19.6817 17.3489 19.5055 17.7098 19.3068C16.3836 18.4116 14.7386 17.0099 13.6279 15.0543C16.5319 18.3752 20.4068 19.83 20.4068 19.83C20.6306 19.9168 20.8824 19.8049 20.9692 19.5782C21.0559 19.3516 20.9412 19.0998 20.7146 19.0159C20.7146 19.0159 19.948 18.7221 18.8569 18.1122C19.1954 17.4016 19.2486 16.5259 19.0835 15.6726C18.8848 14.6402 18.3533 13.6134 17.4636 12.9643C16.3025 12.1194 15.1498 11.9711 14.1119 11.8396C13.0711 11.7081 12.145 11.5962 11.1602 10.8828C10.8749 10.6758 10.4748 10.8744 10.4692 11.2297C10.4524 12.0718 10.5055 12.8356 10.6119 13.5239V13.5295V13.5267Z" fill="#007A49"/>
</g>
<defs>
<clipPath id="clip0_4531_3354">
<rect width="21" height="21" fill="white"/>
</clipPath>
</defs>
</svg>
