<svg width="19" height="18" viewBox="0 0 19 18" fill="none" xmlns="http://www.w3.org/2000/svg">
<g clip-path="url(#clip0_3524_969)">
<path d="M9.5 0.285645C4.808 0.285645 1 4.02964 1 8.64279C1 13.2559 4.808 16.9999 9.5 16.9999C14.192 16.9999 18 13.2559 18 8.64279C17.9951 4.02964 14.192 0.29042 9.5 0.285645ZM9.5 15.4097C5.69686 15.4097 2.61743 12.382 2.61743 8.64279C2.61743 4.90356 5.69686 1.87589 9.5 1.87589C13.3031 1.87589 16.3826 4.90356 16.3826 8.64279C16.3826 12.3772 13.2983 15.4049 9.5 15.4097Z" fill="#4F4F4F" stroke="#4F4F4F" stroke-width="0.2"/>
<path d="M12.6572 4.7411H10.6366C10.1898 4.70768 9.80119 5.03719 9.76719 5.47653C9.73319 5.91588 10.0683 6.29792 10.5152 6.33135C10.5589 6.33135 10.5978 6.33135 10.6415 6.33135H10.7095L7.15405 9.82702V9.76017C7.18805 9.32082 6.85291 8.93878 6.40605 8.90535C5.95919 8.87192 5.57062 9.20143 5.53662 9.64078C5.53662 9.68376 5.53662 9.72196 5.53662 9.76494V11.7516C5.53662 12.1909 5.90091 12.5491 6.34776 12.5491H8.36834C8.81519 12.5825 9.20376 12.253 9.23776 11.8136C9.27176 11.3743 8.93662 10.9922 8.48976 10.9588C8.44605 10.9588 8.40719 10.9588 8.36348 10.9588H8.29548L11.8509 7.46314V7.53C11.8169 7.96935 12.152 8.35139 12.5989 8.38482C13.0458 8.41825 13.4343 8.08874 13.4683 7.64939C13.4683 7.60641 13.4683 7.56821 13.4683 7.52523V5.53861C13.4683 5.09927 13.104 4.7411 12.6572 4.7411Z" fill="#4F4F4F"/>
</g>
<defs>
<clipPath id="clip0_3524_969">
<rect width="19" height="18" fill="white"/>
</clipPath>
</defs>
</svg>
