<svg width="12" height="8" viewBox="0 0 12 8" fill="none" xmlns="http://www.w3.org/2000/svg">
<path fill-rule="evenodd" clip-rule="evenodd" d="M10.1168 3.24143V3.13652C10.1168 2.16609 9.6292 1.25468 8.80232 0.661282C7.97545 0.0678811 6.89769 -0.135383 5.88706 0.110501C4.87644 0.356385 4.0425 1.01863 3.63259 1.91037C3.3711 1.80218 3.09194 1.74973 2.80572 1.74973C2.26154 1.74973 1.73856 1.95299 1.35339 2.31362C0.96822 2.67097 0.752668 3.15946 0.752668 3.66435C0.752668 3.73319 0.752668 3.79876 0.763269 3.86433C0.272091 4.32004 0 4.93967 0 5.58224C0 6.22482 0.279158 6.84445 0.773869 7.30015C1.26858 7.75586 1.93644 8.0083 2.62904 8.0083H9.37477C10.2229 8.0083 11.0215 7.63128 11.5126 6.9887C12.0038 6.34612 12.1346 5.52651 11.8554 4.7823C11.5762 4.03809 10.9296 3.46436 10.1133 3.2447L10.1168 3.24143ZM8.39949 3.85122L5.85879 6.20843C5.78459 6.28055 5.68918 6.32645 5.5867 6.34612C5.48423 6.36579 5.37468 6.35268 5.27927 6.31334C5.21213 6.29039 5.14853 6.25105 5.09906 6.20515L3.60786 4.81836C3.47358 4.69378 3.42411 4.51675 3.47004 4.34627C3.51952 4.17906 3.66086 4.04465 3.84108 3.99875C4.02129 3.95285 4.21564 3.99875 4.34992 4.12333L5.50189 5.19211L7.67862 3.17258C7.8129 3.07095 7.98958 3.03488 8.15567 3.08078C8.32175 3.12668 8.45249 3.24798 8.50196 3.40207C8.55143 3.55616 8.5161 3.72336 8.40302 3.84466L8.39595 3.85122H8.39949Z" fill="#007A49"/>
</svg>
