<svg width="224" height="175" viewBox="0 0 224 175" fill="none" xmlns="http://www.w3.org/2000/svg">
<g clip-path="url(#clip0_5785_2211)">
<path d="M112.291 32.2144H88.5248" stroke="#D4D0C8" stroke-width="1.5" stroke-miterlimit="10"/>
<path d="M117.587 40.0566H93.1554" stroke="#D4D0C8" stroke-width="1.5" stroke-miterlimit="10"/>
<path d="M116.998 24.3662H100.904" stroke="#D4D0C8" stroke-width="1.5" stroke-miterlimit="10"/>
<path d="M100.904 32.2144V40.0565" stroke="#D4D0C8" stroke-width="1.5" stroke-miterlimit="10"/>
<path d="M107.579 24.3662V32.2142" stroke="#D4D0C8" stroke-width="1.5" stroke-miterlimit="10"/>
<path d="M22.139 85.6943H4.28223" stroke="#D4D0C8" stroke-width="1.5" stroke-miterlimit="10"/>
<path d="M25.0821 77.8521H8.99463" stroke="#D4D0C8" stroke-width="1.5" stroke-miterlimit="10"/>
<path d="M15.6631 77.8521V85.6942" stroke="#D4D0C8" stroke-width="1.5" stroke-miterlimit="10"/>
<path d="M222 89.2202H196.097" stroke="#D4D0C8" stroke-width="1.5" stroke-miterlimit="10"/>
<path d="M216.897 81.3779H200.803" stroke="#D4D0C8" stroke-width="1.5" stroke-miterlimit="10"/>
<path d="M207.478 81.3779V89.2201" stroke="#D4D0C8" stroke-width="1.5" stroke-miterlimit="10"/>
<path d="M216.897 89.2202V97.0624" stroke="#D4D0C8" stroke-width="1.5" stroke-miterlimit="10"/>
<path fill-rule="evenodd" clip-rule="evenodd" d="M201.8 22H185.707V23.5H191.631V29.8423H181V31.3423H201.05V38.4345H202.55V31.3423H206.903V29.8423H193.131V23.5H201.8V22Z" fill="#D4D0C8" fill-opacity="0.5"/>
<path d="M79.4773 164.015C79.4773 165.153 68.4701 166.075 54.8994 166.075C41.3286 166.075 30.3214 165.153 30.3214 164.015C30.3214 162.877 41.3286 161.956 54.8994 161.956C68.4701 161.956 79.4773 162.877 79.4773 164.015Z" fill="#D5D5D5"/>
<path d="M216.661 164.821C216.661 165.959 208.059 166.881 197.449 166.881C186.839 166.881 178.238 165.959 178.238 164.821C178.238 163.683 186.839 162.761 197.449 162.761C208.059 162.761 216.661 163.683 216.661 164.821Z" fill="#D5D5D5"/>
<path d="M69.952 53.6167H49.812V57.2719H69.952V53.6167Z" fill="#005A36"/>
<path d="M64.7862 51.999H54.985V53.6243H64.7862V51.999Z" fill="#8ABC6F"/>
<path d="M61.8331 44.981H57.9447V51.9915H61.8331V44.981Z" fill="#005A36"/>
<path d="M67.4946 41.7864C67.4946 45.9858 64.0879 49.3829 59.8854 49.3829C55.6829 49.3829 52.2832 45.9788 52.2832 41.7864C52.2832 37.5941 55.6899 34.1899 59.8854 34.1899C64.081 34.1899 67.4946 37.5941 67.4946 41.7864Z" fill="#005A36"/>
<path d="M65.1838 41.7867C65.1838 44.7095 62.8103 47.0812 59.8853 47.0812C56.9603 47.0812 54.5868 44.7095 54.5868 41.7867C54.5868 38.8639 56.9603 36.4922 59.8853 36.4922C62.8103 36.4922 65.1838 38.8639 65.1838 41.7867Z" fill="#BDBDBA"/>
<path d="M64.0669 41.7863C64.0669 44.0953 62.196 45.9647 59.8853 45.9647C57.5746 45.9647 55.7037 44.0953 55.7037 41.7863C55.7037 39.4774 57.5746 37.6079 59.8853 37.6079C62.196 37.6079 64.0669 39.4774 64.0669 41.7863Z" fill="white"/>
<path d="M136.522 53.6167H116.382V57.2719H136.522V53.6167Z" fill="#005A36"/>
<path d="M131.349 51.999H121.548V53.6243H131.349V51.999Z" fill="#8ABC6F"/>
<path d="M128.396 44.981H124.508V51.9915H128.396V44.981Z" fill="#005A36"/>
<path d="M134.058 41.7864C134.058 45.9858 130.651 49.3829 126.448 49.3829C122.246 49.3829 118.846 45.9788 118.846 41.7864C118.846 37.5941 122.253 34.1899 126.448 34.1899C130.644 34.1899 134.058 37.5941 134.058 41.7864Z" fill="#005A36"/>
<path d="M131.754 41.7867C131.754 44.7095 129.38 47.0812 126.455 47.0812C123.53 47.0812 121.157 44.7095 121.157 41.7867C121.157 38.8639 123.53 36.4922 126.455 36.4922C129.38 36.4922 131.754 38.8639 131.754 41.7867Z" fill="#BDBDBA"/>
<path d="M130.637 41.7863C130.637 44.0953 128.766 45.9647 126.455 45.9647C124.145 45.9647 122.274 44.0953 122.274 41.7863C122.274 39.4774 124.152 37.6079 126.455 37.6079C128.759 37.6079 130.637 39.4774 130.637 41.7863Z" fill="white"/>
<path d="M178.373 138.413C178.373 142.745 145.527 146.254 105.003 146.254C64.4789 146.254 31.6337 142.745 31.6337 138.413C31.6337 134.081 64.4859 130.572 105.003 130.572C145.52 130.572 178.373 134.081 178.373 138.413Z" fill="#D5D5D5"/>
<path d="M178.373 57.2734H31.6337V91.3843H178.373V57.2734Z" fill="#008952"/>
<path d="M54.8592 91.3848H41.4907V138.498H54.8592V91.3848Z" fill="#005A36"/>
<path d="M168.523 91.3848H155.147V138.498H168.523V91.3848Z" fill="#005A36"/>
<mask id="mask0_5785_2211" style="mask-type:luminance" maskUnits="userSpaceOnUse" x="31" y="57" width="148" height="35">
<path d="M178.373 57.2734H31.6337V91.3843H178.373V57.2734Z" fill="white"/>
</mask>
<g mask="url(#mask0_5785_2211)">
<path d="M47.692 39.6949L-15.2305 102.57L-6.98198 110.812L55.9405 47.9372L47.692 39.6949Z" fill="#007A49"/>
<path d="M81.0292 39.6915L18.1067 102.566L26.3552 110.809L89.2777 47.9338L81.0292 39.6915Z" fill="#007A49"/>
<path d="M114.354 39.7008L51.4316 102.576L59.6801 110.818L122.603 47.943L114.354 39.7008Z" fill="#007A49"/>
<path d="M147.691 39.6905L84.7684 102.565L93.0169 110.808L155.939 47.9328L147.691 39.6905Z" fill="#007A49"/>
<path d="M181.016 39.6993L118.094 102.574L126.342 110.816L189.265 47.9416L181.016 39.6993Z" fill="#007A49"/>
<path d="M214.353 39.6969L151.43 102.572L159.679 110.814L222.601 47.9391L214.353 39.6969Z" fill="#007A49"/>
</g>
<path d="M168.523 103.892H41.4907V119.866H168.523V103.892Z" fill="#008952"/>
<mask id="mask1_5785_2211" style="mask-type:luminance" maskUnits="userSpaceOnUse" x="41" y="103" width="128" height="17">
<path d="M168.523 103.892H41.4907V119.866H168.523V103.892Z" fill="white"/>
</mask>
<g mask="url(#mask1_5785_2211)">
<path d="M47.6891 62.7325L-15.2334 125.607L-6.98491 133.85L55.9376 70.9748L47.6891 62.7325Z" fill="#007A49"/>
<path d="M81.026 62.7296L18.1035 125.604L26.352 133.847L89.2745 70.9718L81.026 62.7296Z" fill="#007A49"/>
<path d="M114.358 62.7384L51.4355 125.613L59.684 133.856L122.607 70.9806L114.358 62.7384Z" fill="#007A49"/>
<path d="M147.688 62.7213L84.7653 125.596L93.0137 133.838L155.936 70.9635L147.688 62.7213Z" fill="#007A49"/>
<path d="M181.013 62.7301L118.091 125.605L126.339 133.847L189.262 70.9723L181.013 62.7301Z" fill="#007A49"/>
<path d="M214.35 62.7276L151.427 125.603L159.676 133.845L222.598 70.9699L214.35 62.7276Z" fill="#007A49"/>
</g>
<g style="mix-blend-mode:multiply" opacity="0.3">
<path d="M178.373 72.9059V65.1141L163.587 57.2734H148.913L178.373 72.9059Z" fill="black"/>
</g>
<path d="M159.846 49.7879L154.561 51.8946C160.202 41.2776 172.279 40.0778 179.574 43.9493C184.342 46.4815 187.916 50.6878 189.619 55.8079L184.998 57.3495C183.686 53.4222 180.949 50.1925 177.291 48.2463C171.692 45.2747 164.844 45.8746 159.846 49.7809V49.7879Z" fill="#B1B1AB"/>
<path d="M186.108 71.1052C190.897 62.0857 187.469 50.8898 178.436 46.0975C169.41 41.3052 158.205 44.7372 153.409 53.7637L186.108 71.1052Z" fill="#BDBDBA"/>
<path d="M187.972 76.0515L151.769 56.8475L153.388 53.8062L191.064 73.7914L187.972 76.0515Z" fill="#B1B1AB"/>
<path d="M154.561 51.895C154.149 52.4879 153.758 53.1088 153.409 53.7645L186.108 71.1059C186.457 70.4502 186.75 69.7806 187.008 69.1039L154.561 51.895Z" fill="#D5D5D5"/>
<path d="M170.067 58.7457L168.677 61.3574L171.254 62.7259L172.643 60.1142L170.067 58.7457Z" fill="#B1B1AB"/>
<path d="M63.9552 129.155L61.15 130.316L75.1 163.953L77.9052 162.791L63.9552 129.155Z" fill="#005A36"/>
<path d="M44.663 149.533L29.4456 161.921L30.3156 164.016L49.8367 162.02L73.3051 159.622L68.1256 147.135L62.9461 134.643L44.663 149.533Z" fill="#8ABC6F"/>
<path d="M215.674 161.792H179.23V164.827H215.674V161.792Z" fill="#005A36"/>
<path d="M204.217 139.211L198.588 120.422H196.316L190.687 139.211L183.925 161.792H197.449H210.979L204.217 139.211Z" fill="#8ABC6F"/>
</g>
<defs>
<clipPath id="clip0_5785_2211">
<rect width="221" height="155" fill="white" transform="translate(1 20)"/>
</clipPath>
</defs>
</svg>
