<svg width="24" height="27" viewBox="0 0 24 27" fill="none" xmlns="http://www.w3.org/2000/svg">
<g clip-path="url(#clip0_3564_2257)">
<path d="M14.7045 5.42676H3.38607C1.51724 5.42943 0.00270453 6.93119 0 8.78094V23.5308C0 25.3805 1.51724 26.8823 3.38607 26.885H14.7045C16.5707 26.8769 18.0771 25.3779 18.0798 23.5308V8.78094C18.0798 6.93387 16.5707 5.43479 14.7045 5.42676Z" fill="#4F4F4F"/>
<path d="M20.6143 0.115723H10.164C8.47636 0.115723 7.10787 1.47292 7.10516 3.14332C7.13762 3.83129 7.72721 4.364 8.42227 4.33188C9.07136 4.30243 9.59333 3.78578 9.62308 3.14332C9.62308 2.84886 9.86649 2.60794 10.164 2.60794H20.6143C21.093 2.60794 21.4824 2.99609 21.4824 3.46991V17.3738C21.4824 17.6683 21.239 17.9092 20.9415 17.9092H20.2979C19.6028 17.9092 19.0375 18.4687 19.0375 19.1567C19.0375 19.8446 19.6028 20.4041 20.2979 20.4041H20.9442C22.6319 20.4014 23.9977 19.0469 24.0004 17.3765V3.46991C24.0004 1.62015 22.4831 0.1184 20.6143 0.115723Z" fill="#4F4F4F"/>
</g>
<defs>
<clipPath id="clip0_3564_2257">
<rect width="24" height="26.7692" fill="white" transform="translate(0 0.115479)"/>
</clipPath>
</defs>
</svg>
