<svg width="23" height="23" viewBox="0 0 23 23" fill="none" xmlns="http://www.w3.org/2000/svg">
<g clip-path="url(#clip0_2980_351)">
<path d="M4.41067 18.9619H7.75928V22.2832C7.75928 22.6801 7.43745 23.0019 7.04059 23.0019H5.12738C4.73052 23.0019 4.40869 22.6801 4.40869 22.2832V18.9619H4.41067Z" fill="#007A49"/>
<path d="M11.7004 6.67806L10.2966 7.98524C10.0083 8.25379 9.55817 8.23996 9.28768 7.95562L7.75948 6.35028V14.7423H4.41086V6.37398L2.9419 7.94575C2.6714 8.23404 2.21728 8.24984 1.92705 7.98129L0.525208 6.67609C0.234969 6.40557 0.219173 5.95142 0.489669 5.66115L5.55998 0.227085C5.84232 -0.0750266 6.32408 -0.0770012 6.60839 0.225111L11.734 5.65918C12.0084 5.94944 11.9926 6.40557 11.7004 6.67806Z" fill="#007A49"/>
<path d="M16.3245 11.2966L15.0194 12.6985C14.7489 12.9888 14.7647 13.443 15.0549 13.7135L16.6266 15.1826H0.718688C0.32183 15.1826 0 15.5044 0 15.9013V17.8127C0 18.2096 0.32183 18.5315 0.718688 18.5315H16.6503L15.0451 20.0598C14.7588 20.3303 14.7469 20.7825 15.0155 21.0708L16.3225 22.4747C16.595 22.767 17.0511 22.7808 17.3413 22.5083L22.7749 17.3823C23.077 17.0979 23.075 16.6181 22.7729 16.3338L17.3413 11.265C17.0511 10.9945 16.597 11.0103 16.3265 11.3005L16.3245 11.2966Z" fill="#007A49"/>
<path d="M16.3245 11.2966L15.0194 12.6985C14.7489 12.9888 14.7647 13.443 15.0549 13.7135L16.6266 15.1826H0.718688C0.32183 15.1826 0 15.5044 0 15.9013V17.8127C0 18.2096 0.32183 18.5315 0.718688 18.5315H16.6503L15.0451 20.0598C14.7588 20.3303 14.7469 20.7825 15.0155 21.0708L16.3225 22.4747C16.595 22.767 17.0511 22.7808 17.3413 22.5083L22.7749 17.3823C23.077 17.0979 23.075 16.6181 22.7729 16.3338L17.3413 11.265C17.0511 10.9945 16.597 11.0103 16.3265 11.3005L16.3245 11.2966Z" fill="white" fill-opacity="0.2"/>
</g>
<defs>
<clipPath id="clip0_2980_351">
<rect width="23" height="23" fill="white"/>
</clipPath>
</defs>
</svg>
