<svg width="24" height="24" viewBox="0 0 24 24" fill="none" xmlns="http://www.w3.org/2000/svg">
<rect width="24" height="24" rx="12" fill="#007A49"/>
<g clip-path="url(#clip0_3611_4366)">
<path d="M12.5376 12.5574C12.4801 12.5574 12.4226 12.5345 12.3824 12.5002C12.1582 12.3058 11.8534 12.2315 11.566 12.2887C11.4337 12.3173 11.3072 12.2315 11.2785 12.1057C11.2497 11.9742 11.336 11.8485 11.4625 11.8199C11.8994 11.7284 12.3536 11.8427 12.6871 12.1343C12.7849 12.2201 12.7964 12.3687 12.7101 12.4659C12.6641 12.5173 12.6009 12.5459 12.5319 12.5459V12.5574H12.5376Z" fill="white"/>
<path d="M16.2113 9.14432C16.0905 9.14432 15.9698 9.15575 15.849 9.1729C15.4466 7.05761 13.3998 5.66838 11.2725 6.06857C9.69135 6.36585 8.44946 7.59501 8.15049 9.1729C8.02975 9.15575 7.90901 9.15004 7.78827 9.14432C6.20141 9.19006 4.95377 10.505 4.99977 12.0771C5.04576 13.5864 6.26465 14.8042 7.78827 14.8499H9.46712C8.55295 13.5864 8.84042 11.8256 10.1053 10.9166C11.3759 10.0076 13.1468 10.2934 14.061 11.5512C14.7221 12.4602 14.7739 13.6665 14.1989 14.6326L14.4117 14.8442H16.2055C17.7924 14.7984 19.04 13.4835 18.994 11.9114C18.948 10.4021 17.7291 9.18434 16.2055 9.1386L16.2113 9.14432Z" fill="white"/>
<path d="M16.4185 17.0338L14.9294 15.5531C14.7799 15.4102 14.5557 15.3759 14.3775 15.4731L13.5898 14.6898C14.3947 13.6951 14.2337 12.2372 13.2333 11.4369C12.2329 10.6365 10.7668 10.7965 9.96185 11.7913C9.15692 12.7861 9.3179 14.2439 10.3183 15.0443C11.1807 15.7303 12.4111 15.7246 13.2621 15.0214L14.0497 15.8046C13.952 15.9876 13.9865 16.2106 14.1302 16.3535L15.6193 17.8342C15.8436 18.0572 16.2 18.0572 16.4243 17.8342C16.6485 17.6112 16.6485 17.2568 16.4243 17.0338H16.4185ZM10.3528 14.4612C9.65712 13.6894 9.72037 12.5002 10.4965 11.8085C11.2727 11.1167 12.4686 11.1796 13.1643 11.9514C13.8083 12.666 13.8083 13.7465 13.1643 14.4612L13.0953 14.5355C12.3594 15.2673 11.1635 15.2673 10.4276 14.5355C10.4046 14.5126 10.3816 14.4897 10.3586 14.4612H10.3528Z" fill="white"/>
</g>
<defs>
<clipPath id="clip0_3611_4366">
<rect width="14" height="12" fill="white" transform="translate(5 6)"/>
</clipPath>
</defs>
</svg>
