<svg width="24" height="25" viewBox="0 0 24 25" fill="none" xmlns="http://www.w3.org/2000/svg">
<g clip-path="url(#clip0_3524_1052)">
<path d="M20.4437 16.7107C23.8408 11.0718 24.7132 4.3023 20.5261 1.61571C16.336 -1.06135 10.5289 2.53839 6.9728 8.08396C3.41669 13.6295 9.20721 17.3383 10.0949 17.9087C10.9826 18.479 17.0435 22.3592 20.4406 16.7202L20.4437 16.7107Z" fill="url(#paint0_linear_3524_1052)"/>
<path d="M20.4437 16.7107C23.8408 11.0718 24.7132 4.3023 20.5261 1.61571C16.336 -1.06135 10.5289 2.53839 6.9728 8.08396C3.41669 13.6295 9.20721 17.3383 10.0949 17.9087C10.9826 18.479 17.0435 22.3592 20.4406 16.7202L20.4437 16.7107Z" fill="white" fill-opacity="0.5"/>
<path fill-rule="evenodd" clip-rule="evenodd" d="M10.91 21.8199L11 21.6899V23.9999H9V21.7099L9.16 21.4699L9.32 21.7499C9.32 21.7499 9.38 21.8099 9.42 21.8099C9.47 21.8099 9.51 21.7899 9.53 21.7599L9.76 21.4399L9.96 21.7799C9.96 21.7799 10.02 21.8299 10.07 21.8399C10.11 21.8299 10.15 21.8199 10.17 21.7799L10.43 21.4199L10.7 21.8199C10.7 21.8199 10.76 21.8699 10.81 21.8699C10.85 21.8699 10.89 21.8499 10.91 21.8199Z" fill="url(#paint1_linear_3524_1052)"/>
<path fill-rule="evenodd" clip-rule="evenodd" d="M15.7396 15.528L12.6753 15.8731L10.5124 19.252L10.1943 19.391L10.1803 18.9136C10.1803 18.9136 10.1573 18.8221 10.1224 18.8003C10.0874 18.7785 10.0462 18.7757 10.0115 18.7855L9.61146 18.9505L9.61096 18.5616C9.61096 18.5616 9.59441 18.4827 9.55941 18.4609C9.52442 18.439 9.47377 18.4332 9.436 18.4525L9.08936 18.5823L9.11156 18.2532C9.11156 18.2532 9.095 18.1743 9.05357 18.1399C9.02165 18.1086 8.97744 18.1153 8.93016 18.1316L8.83252 18.1736L12.8186 11.9472L12.1217 9.80966C11.9656 9.34941 12.2368 8.93258 12.7139 8.88698C13.2036 8.83493 13.719 9.15897 13.8625 9.62566L14.0186 10.0859L14.91 8.69237C15.2061 8.23103 15.8278 8.09552 16.2891 8.39161C16.7505 8.68769 16.886 9.30941 16.5899 9.77075L14.8164 12.5293L14.8069 12.5262L13.872 13.9897L15.205 13.8317C15.6757 13.7735 16.188 14.107 16.3536 14.5704C16.5067 15.0401 16.2355 15.457 15.7584 15.5026L15.7396 15.528Z" fill="url(#paint2_linear_3524_1052)"/>
<path d="M20 24C20 24.55 19.55 25 19 25H1C0.45 25 0 24.55 0 24C0 23.45 0.45 23 1 23H19C19.55 23 20 23.45 20 24Z" fill="#C4C4C4"/>
</g>
<defs>
<linearGradient id="paint0_linear_3524_1052" x1="17.7317" y1="0.514504" x2="17.7572" y2="18.9159" gradientUnits="userSpaceOnUse">
<stop stop-color="#4F4F4F"/>
<stop offset="1" stop-color="#828282"/>
</linearGradient>
<linearGradient id="paint1_linear_3524_1052" x1="8.89" y1="23.8199" x2="11.1" y2="21.8099" gradientUnits="userSpaceOnUse">
<stop stop-color="#4F4F4F"/>
<stop offset="1" stop-color="#828282"/>
</linearGradient>
<linearGradient id="paint2_linear_3524_1052" x1="8.32436" y1="14.5983" x2="17.3778" y2="13.0351" gradientUnits="userSpaceOnUse">
<stop stop-color="#4F4F4F"/>
<stop offset="1" stop-color="#828282"/>
</linearGradient>
<clipPath id="clip0_3524_1052">
<rect width="24" height="25" fill="white"/>
</clipPath>
</defs>
</svg>
