<svg xmlns="http://www.w3.org/2000/svg"  viewBox="0 0 24 24" width="24px" height="24px"><path d="M 12 2 C 6.4860328 2 2 6.4860368 2 12 C 2 17.513963 6.4860328 22 12 22 C 17.513967 22 22 17.513963 22 12 C 22 6.4860368 17.513967 2 12 2 z M 12 3.5 C 16.703308 3.5 20.5 7.2966955 20.5 12 C 20.5 16.703304 16.703308 20.5 12 20.5 C 7.2966924 20.5 3.5 16.703304 3.5 12 C 3.5 7.2966955 7.2966924 3.5 12 3.5 z M 12 7 A 1 1 0 0 0 12 9 A 1 1 0 0 0 12 7 z M 11.988281 10.984375 A 0.78507853 0.78507853 0 0 0 11.214844 11.78125 L 11.214844 17.238281 A 0.785156 0.785156 0 1 0 12.785156 17.238281 L 12.785156 11.78125 A 0.78507853 0.78507853 0 0 0 11.988281 10.984375 z"/></svg>