<svg width="30" height="30" fill="none" xmlns="http://www.w3.org/2000/svg">
<path d="M19.2053 19.0114C19.3133 19.0822 19.4123 19.1573 19.5116 19.2382C19.5436 19.2627 19.5755 19.2871 19.6084 19.3124C19.9506 19.5966 20.2186 20.0304 20.2592 20.46C20.2818 21.1889 20.2056 21.742 19.6698 22.3143C19.1544 22.7624 18.5776 22.9774 17.8709 22.9609C17.2312 22.9112 16.7169 22.6831 16.275 22.2503C15.8315 21.7546 15.6538 21.195 15.7147 20.5565C15.8153 20.0299 16.0715 19.5484 16.5058 19.1893C17.2986 18.682 18.351 18.5221 19.2053 19.0114Z" fill="#007A49"/>
<path d="M10.3486 19.1009C10.8245 19.4283 11.157 19.8986 11.2679 20.4391C11.3536 21.0424 11.2377 21.5885 10.8633 22.0928C10.4633 22.5603 9.92588 22.8774 9.28069 22.9492C8.57848 23.0035 7.97784 22.8104 7.4284 22.409C7.02478 22.0675 6.75997 21.5773 6.73173 21.0716C6.71858 20.4248 6.80225 19.9336 7.27679 19.4336C7.30323 19.404 7.32967 19.3744 7.35692 19.3439C8.11984 18.5567 9.44029 18.5604 10.3486 19.1009Z" fill="#007A49"/>
<path d="M19.4638 2.51253C19.8729 2.81134 20.137 3.24278 20.25 3.71092C20.3158 4.31544 20.2791 4.87529 19.8908 5.38328C19.8358 5.44515 19.7798 5.50621 19.7227 5.56639C19.683 5.61076 19.683 5.61076 19.6426 5.65603C19.3356 5.97282 18.8671 6.22105 18.4031 6.25862C17.6159 6.27953 17.0185 6.20899 16.4004 5.71287C15.9165 5.23559 15.6844 4.70154 15.7021 4.04718C15.7558 3.4549 16.0022 2.97867 16.4696 2.56956C17.3772 1.87331 18.5164 1.90093 19.4638 2.51253Z" fill="#007A49"/>
<path d="M10.3594 2.44095C10.8642 2.81133 11.2067 3.30898 11.2843 3.90637C11.3429 4.55657 11.1343 5.11272 10.7009 5.62146C10.332 5.99518 9.80265 6.24038 9.25647 6.26652C8.55795 6.2787 8.02743 6.20123 7.4874 5.76184C7.45545 5.73735 7.4235 5.71287 7.39058 5.68764C7.04845 5.40337 6.78036 4.96959 6.73978 4.53998C6.7172 3.81109 6.79338 3.25796 7.32919 2.68567C8.18017 1.94591 9.38027 1.81786 10.3594 2.44095Z" fill="#007A49"/>
<path d="M19.2053 19.0114C19.3133 19.0822 19.4123 19.1573 19.5116 19.2382C19.5436 19.2627 19.5755 19.2871 19.6084 19.3124C19.9506 19.5966 20.2186 20.0304 20.2592 20.46C20.2818 21.1889 20.2056 21.742 19.6698 22.3143C19.1544 22.7624 18.5776 22.9774 17.8709 22.9609C17.2312 22.9112 16.7169 22.6831 16.275 22.2503C15.8315 21.7546 15.6538 21.195 15.7147 20.5565C15.8153 20.0299 16.0715 19.5484 16.5058 19.1893C17.2986 18.682 18.351 18.5221 19.2053 19.0114Z" fill="#007A49"/>
<path d="M10.3594 2.44095C10.8642 2.81133 11.2067 3.30898 11.2843 3.90637C11.3429 4.55657 11.1343 5.11272 10.7009 5.62146C10.332 5.99518 9.80265 6.24038 9.25647 6.26652C8.55795 6.2787 8.02743 6.20123 7.4874 5.76184C7.45545 5.73735 7.4235 5.71287 7.39058 5.68764C7.04845 5.40337 6.78036 4.96959 6.73978 4.53998C6.7172 3.81109 6.79338 3.25796 7.32919 2.68567C8.18017 1.94591 9.38027 1.81786 10.3594 2.44095Z" fill="#007A49"/>
<path d="M10.3152 10.7561C10.8246 11.0955 11.1628 11.5699 11.2716 12.1485C11.3531 12.8224 11.1705 13.3896 10.7216 13.9235C10.3414 14.3163 9.77623 14.5739 9.20965 14.6112C8.49282 14.6245 7.90764 14.4719 7.37404 14.0137C6.83834 13.4954 6.71876 12.9381 6.73134 12.2488C6.75955 11.6867 7.09494 11.2355 7.52071 10.8551C8.31778 10.2325 9.46706 10.2527 10.3152 10.7561Z" fill="#007A49"/>
<path d="M19.4016 10.8032C19.8343 11.1381 20.1286 11.5462 20.2502 12.0605C20.2966 12.7702 20.2267 13.3472 19.7229 13.916C19.3352 14.3107 18.8111 14.5765 18.2295 14.6095C17.4774 14.6181 16.9008 14.4624 16.3347 13.9831C15.8924 13.5495 15.6853 12.9757 15.7021 12.3861C15.7611 11.7936 16.0144 11.2942 16.4808 10.8833C17.3504 10.2695 18.5011 10.199 19.4016 10.8032Z" fill="#007A49"/>
</svg>
