<svg width="15" height="15" viewBox="0 0 15 15" fill="none" xmlns="http://www.w3.org/2000/svg">
<g clip-path="url(#clip0_3467_11613)">
<path d="M0.425893 5.58214H1.24286C1.47857 5.58214 1.66875 5.39196 1.66875 5.15625V2.84464L4.07946 5.25536C4.15982 5.33571 4.26696 5.37857 4.37946 5.37857C4.49196 5.37857 4.59911 5.33304 4.67946 5.25536L5.25804 4.67679C5.42411 4.51071 5.42411 4.24286 5.25804 4.07679L2.84732 1.66607H5.15357C5.38929 1.66607 5.57946 1.47589 5.57946 1.24018V0.425893C5.57946 0.190179 5.38929 0 5.15357 0H0.425893C0.190179 0 0 0.190179 0 0.425893V5.15893C0 5.39464 0.190179 5.58482 0.425893 5.58482V5.58214Z" fill="#007A49"/>
<path d="M14.5742 9.41797H13.7572C13.5215 9.41797 13.3314 9.60815 13.3314 9.84386V12.1555L10.9206 9.74475C10.8403 9.6644 10.7331 9.62154 10.6206 9.62154C10.5081 9.62154 10.401 9.66708 10.3206 9.74475L9.74207 10.3233C9.576 10.4894 9.576 10.7573 9.74207 10.9233L12.1528 13.334H9.84118C9.60546 13.334 9.41528 13.5242 9.41528 13.7599V14.5769C9.41528 14.8126 9.60546 15.0028 9.84118 15.0028H14.5742C14.8099 15.0028 15.0001 14.8126 15.0001 14.5769V9.84386C15.0001 9.60815 14.8099 9.41797 14.5742 9.41797Z" fill="#007A49"/>
<path d="M14.5742 0H9.84118C9.60546 0 9.41528 0.190179 9.41528 0.425893V1.24286C9.41528 1.47857 9.60546 1.66875 9.84118 1.66875H12.1555L9.74475 4.07946C9.57868 4.24554 9.57868 4.51339 9.74475 4.67946L10.3233 5.25804C10.4037 5.33839 10.5108 5.38125 10.6233 5.38125C10.7358 5.38125 10.843 5.33571 10.9233 5.25804L13.334 2.85V5.15625C13.334 5.39196 13.5242 5.58214 13.7599 5.58214H14.5769C14.8126 5.58214 15.0028 5.39196 15.0028 5.15625V0.425893C15.0001 0.190179 14.8099 0 14.5742 0Z" fill="#007A49"/>
<path d="M0.425893 14.9999H5.15893C5.39464 14.9999 5.58482 14.8097 5.58482 14.574V13.757C5.58482 13.5213 5.39464 13.3311 5.15893 13.3311H2.84464L5.25536 10.9204C5.42143 10.7543 5.42143 10.4865 5.25536 10.3204L4.67679 9.74182C4.59643 9.66147 4.48929 9.61861 4.37679 9.61861C4.26429 9.61861 4.15714 9.66415 4.07679 9.74182L1.66607 12.1525V9.84093C1.66607 9.60522 1.47589 9.41504 1.24018 9.41504H0.425893C0.190179 9.41772 0 9.6079 0 9.84093V14.574C0 14.8097 0.190179 14.9999 0.425893 14.9999Z" fill="#007A49"/>
</g>
<defs>
<clipPath id="clip0_3467_11613">
<rect width="15" height="15" fill="white"/>
</clipPath>
</defs>
</svg>
