<svg width="14" height="14" viewBox="0 0 14 14" fill="none" xmlns="http://www.w3.org/2000/svg">
<path d="M13.8568 3.40168L10.5992 0.145115C10.5052 0.0512172 10.3772 0 10.2448 0C10.1167 0.0042681 9.99717 0.0554853 9.90324 0.145115L8.37048 1.67309L12.3198 5.62109L13.8525 4.08884C13.9422 3.99921 13.9934 3.87117 13.9934 3.74312C13.9977 3.61508 13.9465 3.49131 13.8568 3.40168Z" fill="#4F4F4F"/>
<path d="M0.147355 9.89807C0.0576951 9.9877 0.00646089 10.1115 0.00646089 10.2395L-0.00634766 13.5131C-0.00634766 13.6455 0.0448865 13.7692 0.138816 13.8631C0.232745 13.957 0.356561 14.0082 0.488916 14.0082L3.75936 13.9954C3.88745 13.9954 4.01127 13.9442 4.10092 13.8503L11.6366 6.31713L7.68732 2.36914L0.147355 9.89807Z" fill="#4F4F4F"/>
</svg>
