<svg width="224" height="246" viewBox="0 0 224 246" fill="none" xmlns="http://www.w3.org/2000/svg">
<rect width="224" height="246" fill="white"/>
<rect x="64" y="62" width="41.9998" height="41.8857" rx="8" fill="#F2994A" fill-opacity="0.15"/>
<g clip-path="url(#clip0_4381_4287)">
<path d="M93.9999 77.4915C93.9999 77.4915 89.4946 76.8405 84.9999 72C80.5053 76.809 75.9999 77.46 75.9999 77.46C75.9999 77.46 75.6361 89.6295 84.9999 93C94.3638 89.6295 93.9999 77.4915 93.9999 77.4915ZM85.7169 87.6765C86.3697 87.288 86.5838 86.4585 86.1878 85.818C86.0701 85.629 85.9096 85.4715 85.7169 85.356C84.4756 84.537 84.4863 83.697 84.4863 83.697C83.8014 84.516 83.4803 85.566 83.5873 86.616C83.6515 87.0465 83.8977 87.4245 84.2615 87.666C82.3995 87.3195 81.019 85.776 80.9119 83.9175C81.0083 82.6575 81.5968 81.471 82.5493 80.6205C82.8275 80.316 83.0844 80.001 83.3091 79.665C83.7372 79.119 83.9619 78.447 83.9298 77.7645C84.315 77.9115 84.6575 78.1425 84.9464 78.4365C85.4387 78.888 85.8133 79.455 86.0166 80.085C86.2734 81.03 86.3483 82.017 86.2199 82.983C86.2199 82.983 86.2199 83.4345 86.4875 83.571C87.0653 83.8335 87.8573 82.374 87.258 80.484L87.3864 80.589C88.403 81.4185 89.0023 82.6365 89.0237 83.9385C88.9167 85.776 87.5576 87.3195 85.7169 87.6765Z" fill="#F2994A"/>
</g>
<rect x="64" y="115.886" width="41.9998" height="41.8857" rx="8" fill="#6FCF97" fill-opacity="0.15"/>
<g clip-path="url(#clip1_4381_4287)">
<path d="M93.9828 138.835C93.7732 138.835 92.9294 138.801 92.3792 138.26C91.7638 137.651 91.7952 136.678 91.7952 136.634C91.8018 136.474 91.9329 136.345 92.0954 136.338C92.1392 136.338 93.1265 136.307 93.7427 136.917C94.3614 137.523 94.33 138.496 94.33 138.54C94.3234 138.7 94.1923 138.829 94.0298 138.835H93.9828Z" fill="#6FCF97"/>
<path d="M90.9386 131.895C90.9386 131.812 90.9039 131.735 90.8478 131.676L86.0759 126.975C86.0165 126.917 85.9382 126.886 85.854 126.886C85.7699 126.886 85.6948 126.917 85.6354 126.975L75.5183 136.941C74.8279 137.621 74.8279 138.73 75.5183 139.411L81.153 144.962C81.4871 145.291 81.9309 145.473 82.406 145.473C82.8812 145.473 83.3217 145.291 83.6566 144.962L90.8478 137.877C90.9072 137.819 90.9419 137.742 90.9419 137.659C90.9386 135.408 90.9386 134.142 90.9386 131.895ZM86.1914 139.525C85.4787 140.227 84.5441 140.578 83.6095 140.578C82.6749 140.578 81.7404 140.23 81.031 139.531C79.6089 138.13 79.6122 135.848 81.0343 134.448C82.4564 133.047 84.7693 133.047 86.1914 134.448C87.6135 135.849 87.6135 138.128 86.1914 139.525V139.525Z" fill="#6FCF97"/>
<path d="M85.7505 134.882C85.1599 134.303 84.3878 134.011 83.6124 134.011C82.837 134.011 82.0658 134.303 81.4776 134.882C80.2964 136.046 80.2964 137.933 81.4743 139.094C82.6523 140.254 84.5685 140.254 85.7497 139.09C86.9276 137.93 86.9276 136.042 85.7497 134.882H85.7505ZM85.4164 137.169C85.3851 137.212 84.6163 138.228 83.61 138.228C82.6036 138.228 81.8381 137.212 81.8068 137.169C81.7251 137.061 81.7251 136.914 81.8068 136.803C81.8381 136.76 82.6069 135.75 83.61 135.75C84.613 135.75 85.3851 136.76 85.4164 136.803C85.4981 136.913 85.4981 137.061 85.4164 137.169Z" fill="#6FCF97"/>
<path d="M89.9007 142.462C89.763 142.462 89.6351 142.37 89.6005 142.235C89.5881 142.195 89.3439 141.247 89.8157 140.523C90.2843 139.799 91.2593 139.621 91.3005 139.612C91.4597 139.584 91.6189 139.682 91.6602 139.839C91.6693 139.879 91.9101 140.822 91.4383 141.548C90.9698 142.271 89.9972 142.45 89.9568 142.459C89.9378 142.462 89.9197 142.462 89.9007 142.462Z" fill="#6FCF97"/>
<path d="M92.2013 143.447C92.2079 143.487 92.3481 144.454 91.8078 145.125C91.2643 145.8 90.2793 145.883 90.2389 145.886H90.2142C90.0608 145.886 89.9296 145.778 89.9049 145.628C89.8983 145.588 89.7547 144.621 90.2958 143.946C90.8394 143.272 91.8276 143.192 91.8681 143.189C92.0273 143.173 92.1774 143.29 92.2021 143.447H92.2013Z" fill="#6FCF97"/>
<path d="M94.5892 143.032C94.5298 143.121 94.43 143.17 94.3302 143.17C94.2774 143.17 94.2238 143.158 94.1768 143.13C94.1396 143.108 93.2801 142.622 93.0797 141.787C92.8792 140.95 93.4269 140.134 93.4484 140.1C93.5391 139.968 93.7206 139.925 93.8641 140.005C93.8988 140.027 94.755 140.513 94.9546 141.348C95.1575 142.186 94.6139 142.998 94.5892 143.032V143.032Z" fill="#6FCF97"/>
<path d="M84.7532 136.987C84.5247 137.225 84.0842 137.612 83.6091 137.612C83.1339 137.612 82.6935 137.225 82.4683 136.987C82.6935 136.75 83.1306 136.366 83.6091 136.366C84.0875 136.366 84.528 136.751 84.7532 136.987Z" fill="#6FCF97"/>
</g>
<rect x="64" y="169.771" width="41.9998" height="41.8857" rx="8" fill="#2F80ED" fill-opacity="0.15"/>
<g clip-path="url(#clip2_4381_4287)">
<path fill-rule="evenodd" clip-rule="evenodd" d="M77.9161 187.606C80.8992 185.706 84.2789 187.436 87.3806 185.396C90.7732 183.165 94.9655 185.874 93.8016 189.717C92.6528 193.514 85.8201 196.237 81.5717 196.237C75.5473 196.237 74.5385 189.756 77.9161 187.606ZM83.4857 188.388C83.7228 189.128 87.872 188.259 87.4496 187.403C87.165 186.828 83.2529 187.671 83.4857 188.388Z" fill="#2F80ED"/>
</g>
<rect x="10" y="27" width="41.9998" height="41.8857" rx="8" fill="#007A49" fill-opacity="0.15"/>
<path d="M36.5568 56.4816H33.6928C33.0102 55.9504 31.8862 55.6245 31.4089 55.5269V51.8315C31.6219 51.8931 31.84 51.9264 32.0633 51.9264C33.0179 51.9264 33.8622 51.3541 34.2164 50.4662C34.26 50.3559 34.3755 50.2891 34.4935 50.3045C34.4987 50.3045 34.5218 50.3097 34.5269 50.3097C34.6783 50.3405 34.8348 50.3559 34.994 50.3559C36.272 50.3559 37.3113 49.3165 37.3113 48.0385C37.3113 46.9555 36.5799 46.0317 35.5303 45.7827C35.5252 45.7827 35.52 45.7802 35.5149 45.7802C35.42 45.7596 35.343 45.6852 35.3199 45.5902C35.2993 45.5056 35.3199 45.4157 35.3789 45.3541C35.7125 44.9435 35.8947 44.4251 35.8947 43.8939C35.8947 42.6159 34.8554 41.5766 33.5774 41.5766C33.4747 41.5766 33.3721 41.5843 33.272 41.5971C33.1334 41.6151 33.0025 41.5175 32.982 41.379L32.9794 41.3559C32.9769 41.343 32.9769 41.3302 32.9769 41.3174C32.9769 40.0393 31.9375 39 30.6595 39C29.3815 39 28.337 40.0393 28.337 41.3174C28.337 41.3302 28.337 41.343 28.3345 41.3559L28.3319 41.379C28.3114 41.5201 28.1805 41.6176 28.0419 41.5971C27.9418 41.5843 27.8392 41.5766 27.7365 41.5766C26.4585 41.5766 25.4192 42.6159 25.4192 43.8939C25.4192 44.4226 25.6014 44.9384 25.9324 45.349C25.9914 45.4132 26.0145 45.503 25.994 45.5902C25.9683 45.6878 25.8939 45.7622 25.7964 45.7827C25.7938 45.7827 25.7887 45.7853 25.7861 45.7853C24.734 46.0317 24 46.9581 24 48.0411C24 49.3191 25.0393 50.3584 26.3174 50.3584C26.4765 50.3584 26.633 50.343 26.7844 50.3122C26.7895 50.3097 26.7972 50.3097 26.8024 50.3097C26.9204 50.2943 27.0487 50.3584 27.0949 50.4688C27.4491 51.3541 28.2934 51.929 29.248 51.929C29.4713 51.929 29.692 51.8982 29.9024 51.834V55.5269C29.7177 55.568 28.3935 55.8683 27.6133 56.4816H24.7545C24.6108 56.4816 24.4953 56.5971 24.4953 56.7408C24.4953 56.8845 24.6108 57 24.7545 57H36.5568C36.7005 57 36.816 56.8845 36.816 56.7408C36.816 56.5971 36.7005 56.4816 36.5568 56.4816Z" fill="#007A49"/>
<rect x="10" y="80.8857" width="41.9998" height="41.8857" rx="8" fill="#F2C94C" fill-opacity="0.15"/>
<g clip-path="url(#clip3_4381_4287)">
<path d="M32.2094 110.648H29.7905V111.887H32.2094V110.648Z" fill="#F2C94C"/>
<path d="M31.0002 98.7212C31.541 98.7212 31.9803 98.288 31.9803 97.7548V93.0301C31.9803 92.609 31.8158 92.2035 31.527 91.898C31.3537 91.8911 31.1787 91.8877 31.0002 91.8877C30.8217 91.8877 30.6466 91.8911 30.4733 91.898C30.1845 92.2035 30.02 92.6107 30.02 93.0301V97.7548C30.02 98.288 30.4593 98.7212 31.0002 98.7212Z" fill="#F2C94C"/>
<path d="M26.7398 108.236C26.2427 108.183 25.7789 108.117 25.3501 108.041C25.4621 108.391 25.6546 108.874 25.9715 109.373C26.6926 110.503 27.727 111.225 29.0485 111.518V110.531C27.5765 109.922 26.9481 108.742 26.7398 108.234V108.236Z" fill="#F2C94C"/>
<path d="M25.0859 100.2V101.625C25.0859 101.929 25.233 102.214 25.4815 102.39C26.2639 102.943 28.0212 103.874 31.0019 103.874C33.9827 103.874 35.74 102.943 36.5223 102.39C36.7691 102.214 36.9179 101.929 36.9179 101.625V100.2C36.0148 100.831 34.1262 101.792 31.0037 101.792C27.8812 101.792 25.9926 100.831 25.0894 100.2H25.0859Z" fill="#F2C94C"/>
<path d="M32.9517 110.531V111.516C35.4213 110.959 36.342 108.995 36.65 108.041C36.2212 108.117 35.7574 108.181 35.2603 108.236C35.0503 108.743 34.4237 109.924 32.9517 110.533V110.531Z" fill="#F2C94C"/>
<path d="M38.9658 103.454C38.8678 103.37 38.8205 103.24 38.8432 103.114C38.845 103.101 39.0918 101.694 38.9868 99.8979C38.8905 98.2655 38.4739 95.9635 37.0352 94.2741C35.9483 92.9972 34.4168 92.2275 32.4739 91.9756C32.635 92.3 32.7225 92.6607 32.7225 93.0282V97.753C32.7225 98.69 31.9506 99.451 31.0002 99.451C30.0498 99.451 29.2779 98.69 29.2779 97.753V93.0299C29.2779 92.6624 29.3654 92.3017 29.5264 91.9773C27.5819 92.2275 26.0504 92.9989 24.9634 94.2776C22.1927 97.5373 23.1466 103.059 23.1571 103.114C23.1799 103.242 23.1326 103.37 23.0346 103.454C23.0206 103.467 21.6834 104.633 22.0702 105.649C22.3625 106.416 23.9098 107.701 31.0002 107.701C38.0906 107.701 39.6379 106.416 39.9302 105.649C40.317 104.633 38.978 103.467 38.9658 103.454ZM37.219 105.016C37.1577 105.082 35.6822 106.616 31.0019 106.616C26.3217 106.616 24.8444 105.082 24.7849 105.016C24.6466 104.866 24.6571 104.635 24.8094 104.498C24.9617 104.362 25.1962 104.372 25.3345 104.523C25.345 104.533 26.7015 105.884 31.0037 105.884C33.3036 105.884 34.7458 105.496 35.5492 105.171C36.3508 104.847 36.6711 104.526 36.6729 104.523C36.8112 104.372 37.0457 104.362 37.198 104.498C37.3502 104.635 37.3607 104.866 37.2225 105.016H37.219ZM37.6583 101.625C37.6583 102.164 37.3958 102.671 36.9547 102.985C36.1005 103.591 34.1892 104.607 31.0019 104.607C27.8147 104.607 25.9033 103.591 25.0492 102.985C24.6081 102.673 24.3456 102.164 24.3456 101.625V99.4165C24.3456 99.2646 24.4401 99.13 24.5836 99.0748C24.7271 99.0196 24.8899 99.0593 24.9932 99.1714C24.9967 99.1749 25.443 99.6477 26.4022 100.114C27.2878 100.545 28.8071 101.059 31.0037 101.059C33.2003 101.059 34.7196 100.545 35.6052 100.114C36.5626 99.6477 37.0107 99.1749 37.0142 99.1697C37.1175 99.0593 37.2802 99.0213 37.4238 99.0765C37.5655 99.1318 37.66 99.2664 37.66 99.4165V101.625H37.6583Z" fill="#F2C94C"/>
</g>
<rect x="10" y="134.771" width="41.9998" height="41.8857" rx="8" fill="#E86F56" fill-opacity="0.15"/>
<path d="M29.2345 155.861C27.4368 155.861 27.3783 152.457 27.3783 152.401C27.3783 152.259 27.3327 152.119 27.2482 152.005C27.1636 151.888 27.0421 151.8 26.9034 151.752C26.7667 151.704 26.6171 151.696 26.4762 151.731C26.3352 151.767 26.2073 151.842 26.1119 151.946C25.2054 152.999 24.5614 154.241 24.2339 155.571C23.1909 160.608 25.9037 162.961 27.1115 163.741C28.1784 164.419 29.4297 164.778 30.7091 164.771C32.5849 164.771 34.3891 164.075 35.7444 162.827C36.7398 161.899 37.4445 160.723 37.7806 159.428C38.1168 158.132 38.0647 156.775 37.6375 155.507C37.1474 154.168 36.3017 152.977 35.1849 152.046C33.7233 150.851 32.7757 149.178 32.5242 147.349C32.5025 147.22 32.4439 147.101 32.355 147.003C32.2661 146.905 32.149 146.834 32.0211 146.797C31.8953 146.763 31.7608 146.763 31.6329 146.797C31.5071 146.83 31.3922 146.897 31.3011 146.99C31.2209 147.074 29.3516 149.066 30.2732 152.587C30.6267 153.936 30.5898 154.96 30.18 155.471C29.9436 155.736 29.5945 155.88 29.2345 155.861Z" fill="#E86F56"/>
<rect x="118" y="10" width="41.9998" height="41.8857" rx="8" fill="#EB5757" fill-opacity="0.15"/>
<g clip-path="url(#clip4_4381_4287)">
<path d="M139.777 32.0522V33.7636C139.777 33.887 139.91 33.9648 140.018 33.9037L141.721 32.9379C141.927 32.8217 142.192 32.9043 142.29 33.1271C142.376 33.3199 142.283 33.5481 142.099 33.6522L140.075 34.7996C139.891 34.9037 139.777 35.099 139.777 35.3103V35.887C139.777 36.0882 139.64 36.2744 139.441 36.3067C139.188 36.3481 138.969 36.1534 138.969 35.9079V33.4385C138.969 33.2834 138.907 33.1355 138.801 33.0271L135.404 36.4229C136.249 37.081 137.528 37.4564 139.373 37.4564C143.416 37.4564 144.742 35.6534 144.742 33.0235C144.742 31.5469 144.11 29.9463 143.245 28.584L139.777 32.051L139.777 32.0522Z" fill="#EB5757"/>
<path d="M135.656 30.1102C135.773 29.8976 136.045 29.8372 136.24 29.9725L137.354 30.7432L138.233 29.8647V27.4773C138.233 27.2755 138.37 27.0893 138.57 27.0569C138.822 27.0162 139.041 27.2102 139.041 27.4557V29.0569L141.581 26.518C140.554 25.2947 139.417 24.4707 138.637 24.4707C136.87 24.4707 133.269 28.736 133.269 32.2282C133.269 33.0426 133.397 33.7779 133.692 34.4048L136.773 31.3246L135.799 30.6503C135.625 30.53 135.553 30.2959 135.656 30.1108L135.656 30.1102Z" fill="#EB5757"/>
<path d="M146.073 23.8882C146.073 23.8882 146.071 23.8858 146.069 23.8846C144.116 21.9367 141.557 20.9624 139 20.9624C136.443 20.9624 133.884 21.9367 131.931 23.8846C128.025 27.7887 128.023 34.1205 131.927 38.0265C133.88 39.9804 136.44 40.9576 139 40.9576C141.56 40.9576 144.116 39.9822 146.069 38.0307C149.975 34.1265 149.977 27.7947 146.073 23.8882ZM132.448 36.5193C129.551 33.1055 129.754 28.0402 132.916 24.8696C134.588 23.2001 136.788 22.3546 138.995 22.3546C140.972 22.3546 142.954 23.0331 144.566 24.4043L142.695 26.2744L139.587 29.3816L138.514 30.4552L137.656 31.3127L136.956 32.0115L133.163 35.8049L132.448 36.5193ZM145.084 37.0378C143.411 38.7043 141.211 39.5486 139.004 39.5486C137.028 39.5486 135.047 38.8714 133.434 37.5025L134.038 36.8983L138.12 32.8175L139.486 31.4516L141.14 29.7983C141.187 29.766 141.226 29.7259 141.257 29.681L143.527 27.4121L145.552 25.3876C148.449 28.8019 148.246 33.8666 145.084 37.0378Z" fill="#EB5757"/>
</g>
<rect x="118" y="63.8857" width="41.9998" height="41.8857" rx="8" fill="#219653" fill-opacity="0.15"/>
<path d="M130.19 90.9086L130.245 91.0918C130.245 91.0918 130.326 90.8628 130.489 90.4506C130.571 90.2445 130.68 89.9926 130.789 89.7178C130.924 89.443 131.06 89.1453 131.278 88.8476C131.468 88.5499 131.74 88.2293 132.039 88.046C132.202 87.9544 132.338 87.9086 132.474 87.9086C132.502 87.9086 132.556 87.9086 132.583 87.9086C132.583 87.9086 132.583 87.9086 132.61 87.9315C132.692 88.0002 132.855 88.1606 132.964 88.3438C133.073 88.527 133.181 88.7331 133.29 88.9392C133.508 89.3514 133.671 89.8094 133.834 90.2674C133.997 90.7254 134.16 91.1835 134.296 91.6415C134.432 92.0995 134.568 92.5575 134.704 92.9926C134.867 93.5193 135.52 93.8857 136.281 93.8857C137.967 93.8857 140.958 93.8857 142.671 93.8857C143.051 93.8857 143.378 93.7483 143.595 93.5422C143.976 93.1758 144.329 92.6491 144.492 92.3743C144.683 92.0537 144.737 91.7102 144.873 91.4125C145.009 91.0918 145.145 90.7941 145.281 90.4964C145.553 89.901 145.879 89.3743 146.233 88.985C146.586 88.5728 146.994 88.298 147.375 88.1606C147.565 88.0918 147.701 88.046 147.837 88.0231C147.946 88.0002 148 87.9773 148 87.9773C148 87.9773 147.946 87.9773 147.81 87.9544C147.81 87.9544 147.511 87.9315 147.266 87.9544C147.021 87.9544 146.749 88.0231 146.423 88.1147C146.124 88.2064 145.77 88.3667 145.471 88.5499C144.846 88.9392 144.302 89.4888 143.867 90.1071C143.65 90.4277 143.459 90.7483 143.269 91.0918C143.215 91.2064 143.16 91.3209 143.106 91.4354C143.215 90.9773 143.323 90.4964 143.432 90.0384C143.541 89.5575 143.677 89.0766 143.785 88.5957C143.921 88.1147 144.03 87.6567 144.166 87.2216C144.438 86.3285 144.71 85.5041 145.063 84.8399C145.39 84.1758 145.798 83.6491 146.233 83.3743C146.45 83.2369 146.64 83.1682 146.804 83.1224C146.967 83.0766 147.048 83.0766 147.048 83.0766C147.048 83.0766 147.048 83.0766 146.994 83.0766C146.94 83.0766 146.885 83.0766 146.804 83.0766C146.64 83.0766 146.369 83.0766 146.069 83.1911C145.77 83.2827 145.417 83.4659 145.091 83.6949C144.764 83.9239 144.465 84.2216 144.166 84.5651C143.595 85.2293 143.106 86.0766 142.698 86.9697C142.644 87.0842 142.589 87.2216 142.535 87.359C142.562 87.2216 142.616 87.0842 142.644 86.9468C142.725 86.6491 142.834 86.3514 142.915 86.0537C143.024 85.756 143.106 85.4583 143.187 85.1606C143.323 84.7941 143.459 84.4277 143.595 84.0842L143.677 83.8552C143.731 83.7178 143.785 83.6033 143.84 83.4659C143.949 83.1911 144.057 82.9392 144.166 82.6644C144.302 82.4125 144.411 82.1606 144.52 81.9315C144.574 81.817 144.628 81.7025 144.683 81.588C144.737 81.4735 144.819 81.359 144.873 81.2445C144.982 81.0384 145.091 80.8094 145.227 80.6262C145.335 80.4201 145.471 80.2369 145.553 80.0766C145.798 79.7331 145.988 79.4354 146.178 79.1835C146.369 78.9315 146.532 78.7483 146.64 78.6338C146.749 78.5193 146.831 78.4506 146.831 78.4506C146.831 78.4506 146.749 78.4964 146.586 78.588C146.505 78.6338 146.423 78.7025 146.287 78.7712C146.233 78.817 146.178 78.8399 146.097 78.8857C146.042 78.9315 145.961 78.9773 145.906 79.046C145.634 79.2522 145.335 79.527 144.982 79.8476C144.819 80.0079 144.656 80.1911 144.492 80.3743C144.302 80.5575 144.166 80.7636 143.976 80.9697C143.622 81.3819 143.323 81.8628 142.97 82.3438C142.97 82.3438 142.97 82.3667 142.943 82.3896C142.807 82.6415 142.644 82.8934 142.48 83.1682C142.399 83.3056 142.344 83.4201 142.263 83.5575C142.263 83.5575 142.263 83.5804 142.263 83.6033C142.208 83.7407 142.127 83.8781 142.073 84.0155C141.937 84.2903 141.801 84.588 141.665 84.8857C141.529 85.1835 141.42 85.4812 141.311 85.8018C141.202 86.0995 141.066 86.4201 140.985 86.7407C140.903 87.0613 140.795 87.3819 140.713 87.6796L140.577 88.1606C140.523 88.3209 140.495 88.4812 140.468 88.6415C140.414 88.9621 140.36 89.2827 140.278 89.5804C140.278 89.672 140.251 89.7407 140.224 89.8323C140.251 89.3743 140.305 88.8934 140.332 88.4125C140.332 88.046 140.387 87.7025 140.387 87.3361C140.414 86.9697 140.441 86.6033 140.468 86.2369C140.523 85.5041 140.577 84.7941 140.604 84.0613C140.604 83.8781 140.604 83.6949 140.631 83.5346C140.631 83.3514 140.631 83.1911 140.659 83.0079C140.659 82.6644 140.795 81.9315 140.849 81.3132C140.903 80.6949 140.931 80.0995 140.958 79.5499C140.985 79.0002 141.012 78.4964 141.039 78.0613C141.066 77.6262 141.066 77.2369 141.094 76.9163C141.121 76.5957 141.121 76.3438 141.148 76.1606C141.148 75.9773 141.148 75.8857 141.148 75.8857C141.148 75.8857 141.121 75.9773 141.039 76.1377C140.958 76.298 140.876 76.5499 140.74 76.8476C140.604 77.1682 140.495 77.5346 140.36 77.9697C140.278 78.1987 140.224 78.4277 140.142 78.6567C140.06 78.9086 140.006 79.1606 139.952 79.4354C139.816 79.985 139.381 81.0842 138.973 83.5804C138.864 84.2903 138.782 85.4125 138.728 86.1453C138.728 86.5117 138.674 86.8781 138.647 87.2445C138.647 87.6109 138.647 87.9773 138.619 88.3209C138.619 88.985 138.619 89.6491 138.619 90.2903C138.619 90.1071 138.592 89.9239 138.565 89.7407C138.483 89.1224 138.347 88.5041 138.239 87.8857C138.103 87.2674 137.94 86.6491 137.776 86.0537C137.695 85.756 137.586 85.4583 137.505 85.1606C137.423 84.8628 137.314 84.5651 137.205 84.2903C136.988 83.7178 136.77 83.1682 136.553 82.6644C136.335 82.1606 136.091 81.6796 135.846 81.2216C135.601 80.7865 135.384 80.3743 135.139 80.0308C135.03 79.8476 134.921 79.6873 134.813 79.5499C134.704 79.4125 134.595 79.2751 134.514 79.1377C134.323 78.8857 134.187 78.7025 134.079 78.588C133.97 78.4735 133.915 78.4048 133.915 78.4048C133.915 78.4048 133.943 78.4735 133.997 78.6338C134.051 78.7712 134.106 78.9773 134.215 79.2522C134.296 79.527 134.405 79.8476 134.514 80.214C134.568 80.3972 134.622 80.6033 134.704 80.8094C134.758 81.0155 134.84 81.2216 134.894 81.4506C135.03 81.9086 135.166 82.3896 135.302 82.9163C135.438 83.4201 135.574 83.9697 135.737 84.5422C135.873 85.1148 136.009 85.6873 136.145 86.2827C136.199 86.5804 136.254 86.8781 136.335 87.1758C136.39 87.4735 136.471 87.7712 136.526 88.0918C136.58 88.3896 136.634 88.6873 136.716 89.0079C136.77 89.3056 136.852 89.6033 136.906 89.901C136.934 90.0613 136.961 90.2216 136.988 90.4048C136.879 90.1071 136.77 89.7865 136.662 89.4888C136.553 89.2369 136.444 88.985 136.335 88.7331C136.227 88.4812 136.118 88.2293 135.982 87.9773C135.71 87.4964 135.465 87.0155 135.139 86.5575C134.976 86.3285 134.84 86.0995 134.677 85.8934C134.514 85.6873 134.35 85.4812 134.215 85.2751C134.051 85.0689 133.888 84.8857 133.725 84.7025C133.562 84.5193 133.426 84.3361 133.236 84.1758C133.073 84.0155 132.909 83.8552 132.773 83.7178C132.637 83.5804 132.474 83.443 132.338 83.3056C132.066 83.0537 131.767 82.8476 131.55 82.6644C131.088 82.3209 130.816 82.1606 130.816 82.1606C130.816 82.1606 130.87 82.2293 130.952 82.3209C131.033 82.4354 131.142 82.5957 131.278 82.8018C131.414 83.0079 131.577 83.2598 131.767 83.5346C131.958 83.8094 132.148 84.1529 132.366 84.4964C132.474 84.6796 132.583 84.8628 132.692 85.046C132.801 85.2293 132.937 85.4354 133.018 85.6415C133.127 85.8476 133.236 86.0537 133.372 86.2598C133.48 86.4659 133.589 86.6949 133.698 86.9239C133.752 87.0384 133.807 87.1529 133.861 87.2674C133.861 87.3132 133.888 87.3361 133.915 87.3819C133.834 87.3361 133.752 87.2674 133.671 87.2216C133.48 87.1071 133.236 86.9697 132.828 86.9468H132.746H132.719H132.665C132.665 86.9468 132.583 86.9468 132.61 86.9468C132.556 86.9468 132.502 86.9468 132.42 86.9468C132.311 86.9468 132.175 86.9697 132.066 86.9926C131.604 87.0842 131.224 87.2903 130.979 87.4964C130.734 87.7025 130.571 87.9315 130.435 88.1377C130.326 88.3438 130.245 88.5499 130.163 88.7331C130.054 89.1224 130 89.4659 130 89.7636C130 90.0613 130 90.3361 130.054 90.5422C130.054 90.7483 130.109 90.9315 130.136 91.046L130.19 90.9086Z" fill="#219653"/>
<rect x="118" y="117.771" width="41.9998" height="41.8857" rx="8" fill="#EB67CE" fill-opacity="0.15"/>
<path d="M140.761 138.978C141.82 139.336 143.242 139.895 145.156 137.901C147.563 135.371 147.942 132.304 147.999 131.131C148.016 130.934 147.846 130.751 147.659 130.773C146.503 130.833 143.246 131.012 140.783 133.62C138.89 135.609 139.209 136.847 139.588 137.424C140.913 135.871 142.753 134.459 145.025 133.56C144.266 134.037 142.505 135.334 141.162 136.769C140.081 137.924 139.135 139.18 138.528 140.514C138.167 139.579 137.526 138.483 136.518 137.347C135.25 135.893 133.545 134.56 132.804 134.06C135.019 135.018 136.78 136.471 138.049 138.043C138.446 137.484 138.786 136.292 136.989 134.257C134.678 131.589 131.478 131.333 130.362 131.213C130.17 131.195 130 131.351 130 131.553C130.017 132.708 130.283 135.733 132.594 138.305C134.203 140.115 135.511 139.918 136.514 139.62C136.893 140.097 137.744 141.334 137.726 142.985C135.834 143.205 134.221 144.02 133.331 145.176C133.144 145.414 133.314 145.771 133.597 145.771H143.769C144.075 145.771 144.223 145.414 144.035 145.176C143.124 144.002 141.441 143.145 139.47 142.966C139.435 140.83 140.307 139.698 140.761 138.978Z" fill="#EB67CE"/>
<rect x="172" y="35" width="41.9998" height="41.8857" rx="8" fill="#68B030" fill-opacity="0.15"/>
<path d="M191.601 50.3756H187.593L188.472 48.1252C188.724 47.5151 189.247 47 189.6 47C189.953 47 190.445 47.4395 190.727 48.1252L191.601 50.3756ZM188.472 65H190.727V61.6244H188.472V65ZM193.006 58.2504H184.526L184.087 59.3756C183.823 59.9551 184.186 60.5008 184.81 60.5008H194.391C194.783 60.5008 195.086 60.2996 195.178 59.9954C194.312 59.6042 193.575 58.9973 193.007 58.2504H193.006ZM191.854 54.8748H185.842L184.963 57.1252H192.33C192.028 56.4346 191.854 55.6764 191.854 54.8748ZM192.414 52.4715L192.038 51.4992H187.156L186.281 53.7496H191.966C192.058 53.2989 192.219 52.8755 192.412 52.4715H192.414ZM196.364 60.4123V65H198.618V60.4123C198.249 60.4654 197.875 60.5008 197.491 60.5008C197.107 60.5008 196.733 60.4654 196.364 60.4123ZM197.489 47C195.235 47 192.982 52.3894 192.982 54.8748C192.982 57.3602 195.001 59.3756 197.491 59.3756C199.981 59.3756 202 57.3602 202 54.8748C202 52.3894 199.744 47 197.489 47Z" fill="#68B030"/>
<rect x="172" y="88.8857" width="41.9998" height="41.8857" rx="8" fill="#9B51E0" fill-opacity="0.15"/>
<g clip-path="url(#clip5_4381_4287)">
<path fill-rule="evenodd" clip-rule="evenodd" d="M192.966 99.8857C190.762 100.925 187.854 102.12 184.602 102.417C184.25 102.444 183.993 102.721 184 103.051C184.088 106.305 184.162 110.443 184.785 112.292C185.927 115.87 189.105 118.752 192.872 119.859C193.007 119.899 193.142 119.899 193.277 119.859C197.057 118.698 200.032 115.87 201.223 112.292C201.993 109.97 201.953 106.318 202.007 103.051C202.007 102.727 201.75 102.451 201.405 102.417C198.132 102.127 195.211 100.932 193 99.8857H192.966ZM192.337 110.713L195.042 107.743C195.157 107.614 195.353 107.608 195.482 107.722L196.029 108.215C196.158 108.33 196.165 108.526 196.05 108.654L192.642 112.393V112.407V112.414V112.42L192.635 112.427V112.434H192.628L192.621 112.441H192.615H192.608H192.601H192.594H192.588H192.581H192.574H192.567H192.561H192.554H192.547H192.54H192.534H192.527H192.52H192.513H192.507H192.5H192.493H192.446H192.439H192.432H192.425H192.412H192.405H192.398H192.392H192.385H192.378H192.371H192.365H192.358H192.351H192.344H192.337H192.331L192.324 112.434L192.317 112.427L192.31 112.42V112.414V112.407L190.302 110.584C190.174 110.47 190.167 110.274 190.282 110.146L190.775 109.599C190.89 109.471 191.087 109.464 191.208 109.579L192.446 110.699L192.337 110.713ZM193 104.887C195.766 104.887 198.011 107.128 198.011 109.889C198.011 112.65 195.766 114.891 193 114.891C190.235 114.891 187.99 112.65 187.99 109.889C187.99 107.128 190.235 104.887 193 104.887Z" fill="#9B51E0"/>
</g>
<rect x="172" y="142.771" width="41.9998" height="41.8857" rx="8" fill="#6D4230" fill-opacity="0.15"/>
<g clip-path="url(#clip6_4381_4287)">
<path d="M202.289 165.509L201.949 166.529C201.614 167.542 201.109 168.491 200.469 169.321C200.352 169.297 200.24 169.285 200.123 169.273C199.588 167.697 198.091 166.6 196.406 166.6C195.86 166.6 195.337 166.707 194.844 166.926C194.48 166.458 194.045 166.066 193.564 165.746C193.646 165.094 193.787 164.454 193.992 163.825L194.327 162.806C194.574 162.065 195.366 161.668 196.1 161.917L197.204 162.29L196.664 163.908C196.529 164.329 196.558 164.78 196.752 165.177C196.946 165.568 197.281 165.871 197.703 166.007C197.868 166.066 198.044 166.096 198.226 166.096C198.931 166.096 199.559 165.639 199.782 164.964L200.322 163.345L201.426 163.719C202.16 163.968 202.554 164.768 202.307 165.509H202.289ZM198.479 160.257L197.198 164.098C197.157 164.217 197.14 164.329 197.14 164.442C197.14 164.892 197.427 165.313 197.874 165.462C198.426 165.651 199.042 165.355 199.224 164.786L200.51 160.938L198.484 160.251L198.479 160.257ZM198.156 158.751C198.026 159.136 198.238 159.557 198.619 159.693L200.733 160.417C201.121 160.547 201.538 160.334 201.673 159.942L201.767 159.658L198.261 158.466L198.161 158.757L198.156 158.751ZM201.738 153.872C200.769 153.546 199.718 154.068 199.389 155.052L198.437 157.921L201.943 159.112L202.9 156.243C203.223 155.259 202.706 154.198 201.732 153.872H201.738ZM202.871 172.777H183C183 171.016 184.421 169.582 186.171 169.582H186.212C186.5 167.293 188.432 165.515 190.78 165.515C192.413 165.515 193.851 166.375 194.662 167.673C195.179 167.365 195.766 167.181 196.406 167.181C198.015 167.181 199.365 168.325 199.688 169.854C199.741 169.848 199.788 169.843 199.835 169.843C201.467 169.843 202.8 171.147 202.871 172.771V172.777ZM193.523 170.613C193.07 169.819 192.26 169.339 191.35 169.339C190.44 169.339 189.624 169.819 189.177 170.613C189.095 170.75 189.142 170.933 189.277 171.004C189.324 171.034 189.371 171.046 189.418 171.046C189.518 171.046 189.612 170.993 189.665 170.904C190.011 170.287 190.639 169.92 191.344 169.92C192.049 169.92 192.671 170.287 193.018 170.904C193.1 171.04 193.27 171.087 193.405 171.004C193.54 170.927 193.593 170.75 193.511 170.613H193.523Z" fill="#6D4230"/>
</g>
<g clip-path="url(#clip7_4381_4287)">
<path d="M132.325 144.623C132.866 142.297 130.379 139.398 128.026 139.853C126.109 140.225 125.157 140.684 124.846 140.784C124.246 140.981 119.754 140.692 119.238 141.436C118.865 141.975 121.21 142.597 122.707 142.748C123.017 142.777 123.105 143.178 122.841 143.341C121.369 144.251 118.437 146.098 118.185 146.553C117.85 147.167 116.327 149.544 116.759 149.807C117.187 150.07 118.487 148.884 119.33 148.04C120.174 147.196 122.64 146.478 122.64 146.478C122.64 146.478 118.353 150.76 117.791 151.95C116.948 153.717 119.389 152.944 119.389 152.944C119.007 153.943 121.008 153.725 121.482 153.349C122.418 152.606 125.303 149.135 125.316 149.485C125.329 149.836 122.33 153.621 122.636 154.507C122.938 155.388 124.15 154.281 124.85 153.349C125.551 152.418 127.606 149.811 127.606 149.811C127.606 149.811 129.943 148.111 131.893 145.179C131.91 145.154 132.321 144.648 132.325 144.623Z" fill="#EDB8A0"/>
<path d="M119.498 152.852L123.588 147.999" stroke="black" stroke-width="0.5" stroke-miterlimit="10" stroke-linecap="round"/>
<path d="M101.591 130.859L116.298 121.724C116.39 121.665 116.474 121.599 116.558 121.528L121.406 116.557C122.463 115.634 124.091 115.851 124.871 117.012L127.249 120.563C127.753 121.315 127.77 122.288 127.296 123.061L123.881 128.575C123.63 128.98 123.26 129.297 122.82 129.485C120.073 130.655 109.582 135.07 103.324 136.829C101.768 137.267 100.258 136.006 100.396 134.402L100.551 132.597C100.61 131.887 100.996 131.248 101.596 130.855L101.591 130.859Z" fill="#219653"/>
<path d="M135.463 222.165L134.687 227.428C134.687 227.428 120.115 233.005 121.465 233.084C122.816 233.164 143.759 231.952 143.759 231.952L142.526 222.399L135.463 222.165Z" fill="#4F4F4F"/>
<path d="M139.523 137.017C139.523 137.017 140.685 148.149 141.557 148.725C142.43 149.302 143.587 149.594 143.587 149.594L141.7 136.875L139.523 137.021V137.017Z" stroke="#424242" stroke-miterlimit="10"/>
<path d="M162.534 129.368C162.534 129.368 168.44 141.348 166.724 148.019L133.982 143.533L134.666 131.089L162.534 129.368Z" fill="black"/>
<path d="M163.432 131.791C163.432 131.791 158.805 140.325 149.946 141.01" stroke="#424242" stroke-miterlimit="10" stroke-linecap="round"/>
<path d="M156.024 139.189C156.024 139.189 157.819 144.72 163.025 144.837" stroke="#424242" stroke-miterlimit="10" stroke-linecap="round"/>
<path d="M133.982 143.533C133.982 143.533 125.211 174.637 124.98 184.65L131.39 223.222C131.39 223.222 137.505 226.25 143.873 223.803C144.133 223.702 140.643 203.798 140.4 183.3L158.704 145.154L133.978 143.533H133.982Z" fill="black"/>
<path d="M166.871 146.716L165.584 184.248L180.004 223.485C180.004 223.485 173.973 228.56 166.347 223.94L150.693 186.579L152.3 159.394L145.475 155.279L144.46 143.504L166.876 146.712L166.871 146.716Z" fill="black"/>
<path d="M141.532 139.853L148.482 145.07L158.448 133.992L134.242 137.434L140.164 145.254L141.532 139.853Z" fill="white"/>
<path d="M169.811 221.53L168.553 226.071C168.553 226.071 159.359 236 160.713 236C162.068 236 177.164 229.851 177.164 229.851L175.231 220.394L169.811 221.53Z" fill="#4F4F4F"/>
<path d="M161.359 134.677C161.359 134.677 165.336 144.41 162.471 185.242C162.471 185.242 172.513 207.252 177.722 224.663" stroke="#424242" stroke-miterlimit="10" stroke-linecap="round"/>
<path d="M146.741 156.253L136.721 184.056L141.02 224.663" stroke="#424242" stroke-miterlimit="10" stroke-linecap="round"/>
<path d="M103.03 136.348C103.03 136.348 103.223 137.321 101.059 138.065C98.8945 138.808 97.6194 138.57 97.6194 138.57C97.6194 138.57 92.7621 132.864 92.5482 132.664C92.3343 132.463 92.6992 130.27 94.1379 129.389C95.0104 128.854 98.3954 129.723 100.916 130.492C102.674 131.026 103.76 132.781 103.467 134.589C103.349 135.3 103.206 135.96 103.03 136.348Z" fill="#EDB8A0"/>
<path d="M99.0454 134.836C99.0454 134.836 95.0731 134.263 93.3953 132.885C93.3953 132.885 90.887 132.384 90.3543 132.697C89.8216 133.01 89.3854 133.461 88.2319 133.654C87.0784 133.846 87.4265 133.081 88.6387 131.999C88.9869 131.69 89.9097 130.575 90.715 130.425C91.7972 130.22 94.1336 129.397 94.1336 129.397L98.8272 134.986" fill="#EDB8A0"/>
<path d="M97.6233 138.574C97.6233 138.574 96.0126 139.581 95.4463 139.552C94.8801 139.523 94.3474 139.188 94.209 138.261C94.209 138.261 91.2099 138.808 92.162 136.548C92.162 136.548 90.35 136.256 90.3038 135.078C90.3038 135.078 88.6973 134.28 89.0455 133.002C89.3978 131.724 94.4438 131.837 94.4438 131.837L99.8003 134.543L97.6275 138.57L97.6233 138.574Z" fill="#EDB8A0"/>
<path d="M96.4825 138.787C96.4825 138.787 98.0135 137.438 97.9254 136.895C97.8415 136.352 97.5521 136.055 97.204 136.16C96.7384 136.298 94.9641 137.647 94.2007 138.261" stroke="#1A1C30" stroke-width="0.78" stroke-linecap="round" stroke-linejoin="round"/>
<path d="M92.1578 136.553C92.1578 136.553 96.2307 135.918 96.2684 135.32C96.3062 134.719 96.0209 133.925 95.1695 134.096C94.1586 134.297 91.2602 134.99 90.2954 134.969" stroke="#1A1C30" stroke-width="0.78" stroke-linecap="round" stroke-linejoin="round"/>
<path d="M97.208 136.16C97.208 136.16 97.9547 135.697 97.661 135.179C97.3632 134.661 96.9606 134.481 96.0923 134.702" stroke="#1A1C30" stroke-width="0.78" stroke-linecap="round" stroke-linejoin="round"/>
<path d="M90.2158 133.269C90.2158 133.269 90.4381 132.981 90.7527 132.685" stroke="#1A1C30" stroke-width="0.78" stroke-linecap="round" stroke-linejoin="round"/>
<path d="M86.8418 121.651L88.9004 120.499L99.4872 139.255C99.7955 139.802 99.6001 140.496 99.0516 140.803L98.9822 140.841C98.4337 141.148 97.7369 140.954 97.4286 140.408L86.8418 121.651Z" fill="#F2994A"/>
<path d="M92.0742 124.66L92.9635 126.235C93.2026 126.661 93.0935 127.179 92.7202 127.388L90.7991 128.461C90.4216 128.67 89.9224 128.495 89.6833 128.069L88.7563 126.427" fill="#F2994A"/>
<path d="M87.9634 109.259C84.289 102.471 79.6834 97.8009 76.7598 97.5837L76.8563 96.9404L75.3253 97.9346C72.6953 99.7183 74.0921 107.68 78.446 115.717C82.7957 123.758 88.4541 128.829 91.0841 127.046L92.5228 126.093L92.1076 125.542C93.1185 122.43 91.5413 115.876 87.9634 109.263V109.259Z" fill="#F2994A"/>
<path d="M92.4111 126.174C95.2134 124.72 94.0471 116.97 89.8063 108.864C85.5654 100.758 79.8557 95.365 77.0535 96.819C74.2512 98.273 75.4174 106.023 79.6583 114.129C83.8992 122.235 89.6088 127.628 92.4111 126.174Z" fill="#EB5757"/>
<path d="M88.0434 109.25C91.5836 115.792 92.9762 122.1 91.1474 123.34C89.3228 124.581 84.9688 120.278 81.4286 113.737C77.8885 107.195 76.4959 100.888 78.3247 99.6471C80.1493 98.4106 84.5032 102.709 88.0434 109.25Z" fill="#D3DDF7"/>
<path d="M99.0454 134.836C99.0454 134.836 95.0731 134.264 93.3953 132.885C93.3953 132.885 90.887 132.384 90.3543 132.697C89.8216 133.011 89.3854 133.462 88.2319 133.654C87.0784 133.846 87.4265 133.082 88.6387 132C88.9869 131.691 89.9097 130.575 90.715 130.425C91.7972 130.22 94.1336 129.397 94.1336 129.397L98.8272 134.987" fill="#EDB8A0"/>
<path d="M99.0454 134.836C99.0454 134.836 95.0732 134.264 93.3954 132.885C93.3954 132.885 90.8871 132.384 90.3544 132.697C89.8217 133.011 89.3854 133.462 88.2319 133.654" stroke="black" stroke-width="0.5" stroke-miterlimit="10" stroke-linecap="round"/>
<path d="M88.0434 109.251C84.5032 102.709 80.1493 98.4066 78.3247 99.6472C78.1821 99.7433 78.0604 99.877 77.9556 100.036C80.0654 100.165 83.7608 104.154 86.8396 109.848C90.1029 115.876 91.5375 121.699 90.3169 123.549C90.6314 123.57 90.9125 123.503 91.1516 123.34C92.9762 122.104 91.5878 115.792 88.0476 109.251H88.0434Z" fill="#F2994A"/>
<path d="M85.577 106.685C87.4603 110.165 88.1985 113.519 87.2296 114.179C86.2565 114.839 83.9453 112.55 82.0578 109.071C80.1702 105.591 79.4362 102.237 80.4051 101.577C81.374 100.917 83.6894 103.206 85.577 106.685Z" fill="white"/>
<path d="M156.016 117.889L153.096 107.509C152.022 103.699 150.143 100.174 147.66 97.0825C143.26 91.6104 131.704 92.1075 131.704 92.1075L122.812 98.4777C122.786 98.4944 122.757 98.5069 122.732 98.5237C117.497 101.402 116.537 105.838 116.671 112.68L116.994 121.916L123.013 116.193L124.531 118.269C124.523 118.211 124.519 118.152 124.515 118.098L125.236 119.226L124.536 118.269C124.75 120.174 125.748 125.028 130.387 127.296L133.03 131.44L132.329 137.163C157.136 146.144 163.31 128.508 163.31 128.508L156.02 117.898L156.016 117.889Z" fill="#219653"/>
<path d="M121.742 115.237L124.989 119.193C124.989 119.193 124.544 125.287 130.714 127.242" stroke="black" stroke-width="0.5" stroke-miterlimit="10" stroke-linecap="round"/>
<path d="M146.389 123.286L127.51 139.665C127.51 139.665 131.247 144.878 132.929 145.062L155.546 130.73" fill="#219653"/>
<path d="M133.122 134.644C133.122 134.644 143.403 123.102 146.956 121.427" stroke="black" stroke-width="0.5" stroke-miterlimit="10" stroke-linecap="round"/>
<path d="M141.507 110.838C141.507 110.838 141.998 113.419 145.29 122.496" stroke="black" stroke-width="0.5" stroke-miterlimit="10" stroke-linecap="round"/>
<path d="M135.551 143.579C135.551 143.579 156.674 130.179 156.859 126.269C157.044 122.359 151.532 104.209 151.532 104.209" stroke="black" stroke-width="0.5" stroke-miterlimit="10" stroke-linecap="round"/>
<path d="M137.862 124.589C137.862 124.589 142.946 125.066 144.523 120.471" stroke="black" stroke-width="0.5" stroke-miterlimit="10" stroke-linecap="round"/>
<path d="M117.275 121.169C117.275 121.169 118.676 119.773 120.077 121.356" stroke="black" stroke-width="0.5" stroke-miterlimit="10" stroke-linecap="round"/>
<path d="M100.644 130.383L103.634 128.988C103.634 128.988 107.279 132.944 105.971 136.34L102.326 137.41C102.326 137.41 104.008 133.688 100.644 130.383Z" fill="white"/>
<path d="M128.705 137.572C128.705 137.572 132.631 139.247 135.433 144.063L132.417 146.365C132.417 146.365 128.701 141.06 126.109 140.22L128.701 137.568L128.705 137.572Z" fill="white"/>
<path d="M125.408 91.502L137.79 92.4084C137.79 92.4084 138.26 99.1922 130.781 105.174L127.422 101.924L125.593 105.88C125.593 105.88 122.753 104.288 122.367 99.7185L122.971 94.1712L125.404 91.502H125.408Z" fill="white"/>
<path d="M131.704 92.1073C132.157 92.4916 132.371 93.0806 132.266 93.6654C131.868 95.871 130.668 101.218 128.256 101.886C125.207 102.734 123.307 96.7399 123.307 96.7399L124.825 86.2676L131.704 92.1073Z" fill="#EDB8A0"/>
<path d="M122.048 94.5888L122.011 96.1135C121.981 96.1302 121.461 100.629 122.98 100.804C128.5 101 130.459 97.4484 131 91.5C131 91.5 121.432 93.4024 122.048 94.593V94.5888Z" fill="#C88364"/>
<path d="M111.478 83.3605C111.478 83.3605 109.93 98.0434 119.091 100.571C128.252 103.098 130.446 88.2227 130.127 83.0764C129.812 77.9301 127.51 76.0169 121.088 75.7872C111.591 75.4446 111.478 83.3605 111.478 83.3605Z" fill="#EDB8A0"/>
<path d="M119.708 90.4576C119.733 90.9881 119.481 91.4267 119.146 91.4434C118.81 91.4601 118.512 91.0466 118.487 90.5161C118.462 89.9856 118.714 89.547 119.049 89.5303C119.385 89.5136 119.683 89.9271 119.708 90.4576Z" fill="black"/>
<path d="M120.715 87.7506C120.715 87.7506 117.69 89.0622 117.393 86.7856" stroke="black" stroke-width="0.5" stroke-miterlimit="10" stroke-linecap="round"/>
<path d="M113.718 87.7593C113.718 87.7593 112.72 89.4886 111.57 88.72" stroke="black" stroke-width="0.5" stroke-miterlimit="10" stroke-linecap="round"/>
<path d="M112.112 90.8249C112.112 90.8249 112.682 90.6411 113.521 91.0839" stroke="black" stroke-miterlimit="10" stroke-linecap="round"/>
<path d="M121.08 96.3014C121.08 96.3014 121.906 95.516 122.585 95.3364" stroke="black" stroke-width="0.5" stroke-miterlimit="10" stroke-linecap="round"/>
<path d="M114.888 92.5171C114.888 92.5171 114.364 93.7076 115.702 94.2799" stroke="black" stroke-width="0.5" stroke-miterlimit="10" stroke-linecap="round"/>
<path d="M111.373 86.5187C111.373 86.5187 111.529 82.2203 113.441 79.7892C113.441 79.7892 116.071 85.7417 127.405 86.9573L130.706 86.268C130.706 86.268 132.057 79.3756 127.321 76.6604C122.585 73.9452 115.341 75.4449 113.009 77.8885C109.058 82.0281 111.373 86.5228 111.373 86.5228V86.5187Z" fill="black"/>
<path d="M125.203 86.1715L127.166 90.0271L128.55 85.6953L125.203 86.1715Z" fill="black"/>
<path d="M132.056 89.6263C131.49 91.6773 129.871 93.0349 128.437 92.6547C127.002 92.2746 126.297 90.3071 126.859 88.252C127.426 86.2009 129.045 84.8433 130.479 85.2235C131.914 85.6036 132.618 87.5711 132.056 89.6263Z" fill="#EDB8A0"/>
<path d="M130.618 87.8428C130.618 87.8428 129.003 86.4601 128.122 88.9874C128.122 88.9874 129.066 89.9815 128.47 90.7668C128.47 90.7668 129.401 90.9757 129.859 90.1612" stroke="black" stroke-width="0.5" stroke-miterlimit="10" stroke-linecap="round"/>
<path d="M129.917 88.8075C129.917 88.8075 129.829 88.2436 129.2 87.6045" stroke="black" stroke-width="0.5" stroke-miterlimit="10" stroke-linecap="round"/>
<path d="M130.702 92.5878C130.702 93.3564 130.077 93.9788 129.305 93.9788C128.533 93.9788 127.908 93.3564 127.908 92.5878C127.908 91.8192 128.533 91.1968 129.305 91.1968C130.077 91.1968 130.702 91.8192 130.702 92.5878Z" fill="white"/>
<path d="M126.78 78.4564C126.78 78.4564 128.5 69.5046 132.518 71.2173C136.536 72.9299 138.352 81.5016 134.527 82.1699C130.702 82.8383 127.736 81.0254 127.736 81.0254L126.78 78.4522V78.4564Z" fill="black"/>
<path d="M126.83 81.0298C126.83 81.0298 133.478 86.5521 135.63 81.46" stroke="black" stroke-width="0.5" stroke-miterlimit="10" stroke-linecap="round"/>
<path d="M151.947 159.181L144.254 154.857" stroke="#424242" stroke-miterlimit="10" stroke-linecap="round"/>
</g>
<defs>
<clipPath id="clip0_4381_4287">
<rect width="18" height="21" fill="white" transform="translate(76 72)"/>
</clipPath>
<clipPath id="clip1_4381_4287">
<rect width="20" height="19" fill="white" transform="translate(75 126.886)"/>
</clipPath>
<clipPath id="clip2_4381_4287">
<rect width="18" height="11.6471" fill="white" transform="translate(76 184.59)"/>
</clipPath>
<clipPath id="clip3_4381_4287">
<rect width="18" height="20" fill="white" transform="translate(22 91.8857)"/>
</clipPath>
<clipPath id="clip4_4381_4287">
<rect width="20" height="19.9952" fill="white" transform="translate(129 20.9624)"/>
</clipPath>
<clipPath id="clip5_4381_4287">
<rect width="18" height="20" fill="white" transform="translate(184 99.8857)"/>
</clipPath>
<clipPath id="clip6_4381_4287">
<rect width="20" height="19" fill="white" transform="translate(183 153.771)"/>
</clipPath>
<clipPath id="clip7_4381_4287">
<rect width="106" height="165" fill="white" transform="translate(74 71)"/>
</clipPath>
</defs>
</svg>
