<svg width="224" height="171" viewBox="0 0 224 171" fill="none" xmlns="http://www.w3.org/2000/svg">
<path d="M39.9751 86.9038L178.44 85.7139L215.266 150.131H9.03589L39.9751 86.9038Z" fill="#EFEFEC"/>
<path d="M203.223 137.724C200.907 137.494 198.098 137.152 195.98 137.43C192.68 137.866 192.26 139.35 191.49 140.643C190.578 142.134 189.174 143.42 185.635 144.07C182.914 144.57 179.908 144.681 176.814 144.633L178.154 148.092H209.181L203.533 137.755C203.429 137.747 203.318 137.732 203.215 137.724H203.223Z" fill="#DBCCAF"/>
<path d="M203.223 137.724C200.907 137.494 198.098 137.152 195.98 137.43C192.68 137.866 192.26 139.35 191.49 140.643C190.578 142.134 189.174 143.42 185.635 144.07C182.914 144.57 179.908 144.681 176.814 144.633L178.154 148.092H209.181L203.533 137.755C203.429 137.747 203.318 137.732 203.215 137.724H203.223Z" fill="#D5D0C8"/>
<path d="M185.072 141.776C187.032 140.737 187.143 139.27 188.23 138.032C189.459 136.612 191.855 135.581 195.734 135.478C197.979 135.414 200.232 135.612 202.501 135.842L201.565 134.129L172.768 134.177L176.108 142.784C179.622 142.871 183.232 142.736 185.072 141.776Z" fill="#D5D0C8"/>
<path d="M185.072 141.776C187.032 140.737 187.143 139.27 188.23 138.032C189.459 136.612 191.855 135.581 195.734 135.478C197.979 135.414 200.232 135.612 202.501 135.842L201.565 134.129L172.768 134.177L176.108 142.784C179.622 142.871 183.232 142.736 185.072 141.776Z" stroke="#C2BEB6" stroke-width="0.650517" stroke-miterlimit="10"/>
<path d="M166.826 118.858L193.164 118.771L200.796 132.725L172.228 132.772L166.826 118.858Z" fill="#D5D0C8"/>
<path d="M166.826 118.858L193.164 118.771L200.796 132.725L172.228 132.772L166.826 118.858Z" stroke="#C2BEB6" stroke-width="0.650517" stroke-miterlimit="10"/>
<path d="M165.096 114.392L166.239 117.327L192.323 117.232L190.72 114.289L165.096 114.392Z" fill="#D5D0C8"/>
<path d="M165.096 114.392L166.239 117.327L192.323 117.232L190.72 114.289L165.096 114.392Z" stroke="#C2BEB6" stroke-width="0.650517" stroke-miterlimit="10"/>
<path d="M163.066 109.156L164.256 112.219L189.531 112.116L187.849 109.045L163.066 109.156Z" fill="#8ABC6F" stroke="#84AC61" stroke-width="0.594985" stroke-miterlimit="10"/>
<path d="M186.659 106.864L184.699 103.278L160.844 103.413L162.225 106.983L186.659 106.864Z" fill="#D5D0C8"/>
<path d="M186.659 106.864L184.699 103.278L160.844 103.413L162.225 106.983L186.659 106.864Z" stroke="#C2BEB6" stroke-width="0.650517" stroke-miterlimit="10"/>
<path d="M178.9 98.3114C176.766 98.716 175.195 100.39 176.56 101.786L183.858 101.746L181.907 98.1686C180.82 98.121 179.789 98.1448 178.9 98.3114Z" fill="#8ABC6F"/>
<path d="M178.9 98.3114C176.766 98.716 175.195 100.39 176.56 101.786L183.858 101.746L181.907 98.1686C180.82 98.121 179.789 98.1448 178.9 98.3114Z" stroke="#84AC61" stroke-width="0.594985" stroke-miterlimit="10"/>
<path d="M161.479 97.4547C160.479 96.8518 159.289 96.4313 158.02 96.1299L160.249 101.881L164.906 101.858C164.605 100.295 163.383 98.5892 161.487 97.4547H161.479Z" fill="#8ABC6F"/>
<path d="M161.479 97.4547C160.479 96.8518 159.289 96.4313 158.02 96.1299L160.249 101.881L164.906 101.858C164.605 100.295 163.383 98.5892 161.487 97.4547H161.479Z" stroke="#84AC61" stroke-width="0.594985" stroke-miterlimit="10"/>
<path d="M156.679 92.687L157.227 94.107C159.876 94.5592 162.407 95.3208 164.335 96.6456C166.477 98.0974 167.984 100.009 168.492 101.834L172.966 101.81C171.776 100.001 172.689 97.9466 175.045 97.0423C176.726 96.3918 178.741 96.2569 180.899 96.3521L178.813 92.5283L156.672 92.687H156.679Z" fill="#D5D0C8"/>
<path d="M156.679 92.687L157.227 94.107C159.876 94.5592 162.407 95.3208 164.335 96.6456C166.477 98.0974 167.984 100.009 168.492 101.834L172.966 101.81C171.776 100.001 172.689 97.9466 175.045 97.0423C176.726 96.3918 178.741 96.2569 180.899 96.3521L178.813 92.5283L156.672 92.687H156.679Z" stroke="#C2BEB6" stroke-width="0.650517" stroke-miterlimit="10"/>
<path d="M177.932 90.8943L176.235 87.7925L154.855 87.967L156.053 91.0609L177.932 90.8943Z" fill="#DBCCAF"/>
<path d="M177.932 90.8943L176.235 87.7925L154.855 87.967L156.053 91.0609L177.932 90.8943Z" fill="#D5D0C8"/>
<path d="M127.224 141.872L128.025 148.1L162.034 148.092L160.13 141.849L127.224 141.872Z" fill="#DBCCAF"/>
<path d="M127.224 141.872L128.025 148.1L162.034 148.092L160.13 141.849L127.224 141.872Z" fill="#D5D0C8"/>
<path d="M140.71 144.522C137.402 143.174 131.872 141.849 127.263 142.198L128.025 148.1H145.406C144.613 146.735 142.955 145.427 140.71 144.522Z" fill="#8ABC6F"/>
<path d="M140.71 144.522C137.402 143.174 131.872 141.849 127.263 142.198L128.025 148.1H145.406C144.613 146.735 142.955 145.427 140.71 144.522Z" stroke="#84AC61" stroke-width="0.594985" stroke-miterlimit="10"/>
<path d="M159.17 139.937L157.433 134.201L126.24 134.249L126.978 139.969L159.17 139.937Z" fill="#8ABC6F" stroke="#84AC61" stroke-width="0.594985" stroke-miterlimit="10"/>
<path d="M163.066 139.937L170.451 139.929L168.373 134.185L161.209 134.193L163.066 139.937Z" fill="#D5D0C8"/>
<path d="M163.066 139.937L170.451 139.929L168.373 134.185L161.209 134.193L163.066 139.937Z" stroke="#C2BEB6" stroke-width="0.650517" stroke-miterlimit="10"/>
<path d="M163.224 141.849L165.231 148.092H173.426L171.149 141.841L163.224 141.849Z" fill="#DBCCAF"/>
<path d="M163.224 141.849L165.231 148.092H173.426L171.149 141.841L163.224 141.849Z" fill="#D5D0C8"/>
<path d="M144.494 99.7706L145.121 101.968L156.64 101.897L155.839 99.6992L144.494 99.7706Z" fill="#DBCCAF"/>
<path d="M144.494 99.7706L145.121 101.968L156.64 101.897L155.839 99.6992L144.494 99.7706Z" fill="#D5D0C8"/>
<path d="M143.455 96.1378L144.002 98.0497L155.212 97.9783L154.514 96.0664L143.455 96.1378Z" fill="#DBCCAF"/>
<path d="M143.455 96.1378L144.002 98.0497L155.212 97.9783L154.514 96.0664L143.455 96.1378Z" fill="#D5D0C8"/>
<path d="M142.447 92.5998L142.908 94.2261L153.824 94.1468L153.229 92.5205L142.447 92.5998Z" fill="#DBCCAF"/>
<path d="M142.447 92.5998L142.908 94.2261L153.824 94.1468L153.229 92.5205L142.447 92.5998Z" fill="#D5D0C8"/>
<path d="M152.641 90.8947L151.586 87.9912L141.154 88.0785L141.979 90.982L152.641 90.8947Z" fill="#DBCCAF"/>
<path d="M152.641 90.8947L151.586 87.9912L141.154 88.0785L141.979 90.982L152.641 90.8947Z" fill="#D5D0C8"/>
<path d="M141.837 101.985L138.179 88.1016L120.306 88.2523L122.091 102.104L141.837 101.985Z" fill="#8ABC6F" stroke="#84AC61" stroke-width="0.594985" stroke-miterlimit="10"/>
<path d="M109.62 139.953L109.422 134.272L100.917 134.288L100.846 139.961L109.62 139.953Z" fill="#D4D0C8"/>
<path d="M109.62 139.953L109.422 134.272L100.917 134.288L100.846 139.961L109.62 139.953Z" stroke="#C2BEB6" stroke-width="0.650517" stroke-miterlimit="10"/>
<path d="M114.436 139.952L123.352 139.936L122.726 134.256L114.087 134.272L114.436 139.952Z" fill="#D4D0C8"/>
<path d="M114.436 139.952L123.352 139.936L122.726 134.256L114.087 134.272L114.436 139.952Z" stroke="#C2BEB6" stroke-width="0.650517" stroke-miterlimit="10"/>
<path d="M100.822 141.864L100.743 148.108L124.241 148.1L123.559 141.849L100.822 141.864Z" fill="#DBCCAF"/>
<path d="M100.822 141.864L100.743 148.108L124.241 148.1L123.559 141.849L100.822 141.864Z" fill="#D5D0C8"/>
<path d="M114.864 99.9535L115.038 102.143L119.211 102.119L118.973 99.9297L114.864 99.9535Z" stroke="#C2BEB6" stroke-width="0.650517" stroke-miterlimit="10"/>
<path d="M114.864 99.9535L115.038 102.143L119.211 102.119L118.973 99.9297L114.864 99.9535Z" stroke="#C2BEB6" stroke-width="0.650517" stroke-miterlimit="10"/>
<path d="M117.172 95.3286C116.284 95.3921 115.395 95.4873 114.515 95.5825L114.761 98.6209L118.831 98.5971L118.466 95.2334C117.958 95.2651 117.466 95.3127 117.18 95.3365L117.172 95.3286Z" fill="#D5D0C8"/>
<path d="M117.172 95.3286C116.284 95.3921 115.395 95.4873 114.515 95.5825L114.761 98.6209L118.831 98.5971L118.466 95.2334C117.958 95.2651 117.466 95.3127 117.18 95.3365L117.172 95.3286Z" stroke="#C2BEB6" stroke-width="0.650517" stroke-miterlimit="10"/>
<path d="M118.251 93.3299L117.696 88.2686L113.92 88.3003L114.356 93.6472C115.665 93.4965 116.99 93.3458 118.251 93.3299Z" stroke="#C2BEB6" stroke-width="0.650517" stroke-miterlimit="10"/>
<path d="M118.251 93.3299L117.696 88.2686L113.92 88.3003L114.356 93.6472C115.665 93.4965 116.99 93.3458 118.251 93.3299Z" fill="#D4D0C8" stroke="#C2BEB6" stroke-width="0.650517" stroke-miterlimit="10"/>
<path d="M108.041 99.9945L108.113 102.184L112.674 102.16L112.531 99.9707L108.041 99.9945Z" stroke="#C2BEB6" stroke-width="0.650517" stroke-miterlimit="10"/>
<path d="M108.041 99.9945L108.113 102.184L112.674 102.16L112.531 99.9707L108.041 99.9945Z" stroke="#C2BEB6" stroke-width="0.650517" stroke-miterlimit="10"/>
<path d="M107.899 95.7413L107.994 98.6607L112.444 98.629L112.262 95.7731C110.81 95.8683 109.342 95.8603 107.899 95.7334V95.7413Z" stroke="#C2BEB6" stroke-width="0.650517" stroke-miterlimit="10"/>
<path d="M107.899 95.7413L107.994 98.6607L112.444 98.629L112.262 95.7731C110.81 95.8683 109.342 95.8603 107.899 95.7334V95.7413Z" fill="#D4D0C8" stroke="#C2BEB6" stroke-width="0.650517" stroke-miterlimit="10"/>
<path d="M109.779 93.9797C110.516 94.0035 111.31 93.9559 112.135 93.8845L111.778 88.3154L107.653 88.3472L107.835 93.829C108.462 93.9004 109.112 93.9559 109.787 93.9718L109.779 93.9797Z" stroke="#C2BEB6" stroke-width="0.650517" stroke-miterlimit="10"/>
<path d="M109.779 93.9797C110.516 94.0035 111.31 93.9559 112.135 93.8845L111.778 88.3154L107.653 88.3472L107.835 93.829C108.462 93.9004 109.112 93.9559 109.787 93.9718L109.779 93.9797Z" fill="#D4D0C8" stroke="#C2BEB6" stroke-width="0.650517" stroke-miterlimit="10"/>
<path d="M101.354 100.033L101.33 102.222L105.741 102.198L105.709 100.009L101.354 100.033Z" fill="#D4D0C8"/>
<path d="M101.354 100.033L101.33 102.222L105.741 102.198L105.709 100.009L101.354 100.033Z" stroke="#C2BEB6" stroke-width="0.650517" stroke-miterlimit="10"/>
<path d="M105.431 95.3994C103.908 95.098 102.568 94.6855 101.425 94.1777L101.37 98.6996L105.677 98.6758L105.622 95.4391C105.558 95.4232 105.495 95.4153 105.431 95.4074V95.3994Z" stroke="#C2BEB6" stroke-width="0.650517" stroke-miterlimit="10"/>
<path d="M105.431 95.3994C103.908 95.098 102.568 94.6855 101.425 94.1777L101.37 98.6996L105.677 98.6758L105.622 95.4391C105.558 95.4232 105.495 95.4153 105.431 95.4074V95.3994Z" fill="#D4D0C8" stroke="#C2BEB6" stroke-width="0.650517" stroke-miterlimit="10"/>
<path d="M105.59 93.4245L105.503 88.3711L101.505 88.4028L101.465 91.3381C102.409 92.2504 103.829 92.9644 105.59 93.4166V93.4245Z" stroke="#C2BEB6" stroke-width="0.650517" stroke-miterlimit="10"/>
<path d="M105.59 93.4245L105.503 88.3711L101.505 88.4028L101.465 91.3381C102.409 92.2504 103.829 92.9644 105.59 93.4166V93.4245Z" fill="#D4D0C8" stroke="#C2BEB6" stroke-width="0.650517" stroke-miterlimit="10"/>
<path d="M87.0345 143.062C82.695 144.292 81.5289 146.172 81.1243 148.108H96.459L96.6732 141.991C93.4524 141.777 89.8348 142.261 87.0424 143.062H87.0345Z" fill="#D5D0C8"/>
<path d="M87.0345 143.062C82.695 144.292 81.5289 146.172 81.1243 148.108H96.459L96.6732 141.991C93.4524 141.777 89.8348 142.261 87.0424 143.062H87.0345Z" stroke="#C2BEB6" stroke-width="0.650517" stroke-miterlimit="10"/>
<path d="M66.2813 143.783L65.4246 148.115H76.4992C76.9197 146.568 77.7051 145.068 79.5138 143.775H66.2813V143.783Z" fill="#DBCCAF"/>
<path d="M66.2813 143.783L65.4246 148.115H76.4992C76.9197 146.568 77.7051 145.068 79.5138 143.775H66.2813V143.783Z" fill="#D5D0C8"/>
<path d="M78.427 141.69H84.0357C84.599 141.515 85.2019 141.349 85.8524 141.198C89.1843 140.413 93.0954 139.976 96.7446 140.111L96.816 138.064L78.9109 138.088L78.427 141.698V141.69Z" fill="#DBCCAF"/>
<path d="M78.427 141.69H84.0357C84.599 141.515 85.2019 141.349 85.8524 141.198C89.1843 140.413 93.0954 139.976 96.7446 140.111L96.816 138.064L78.9109 138.088L78.427 141.698V141.69Z" fill="#D5D0C8"/>
<path d="M73.7941 141.69L74.3653 138.088L67.408 138.096L66.694 141.697L73.7941 141.69Z" fill="#D5D0C8"/>
<path d="M73.7941 141.69L74.3653 138.088L67.408 138.096L66.694 141.697L73.7941 141.69Z" stroke="#C2BEB6" stroke-width="0.650517" stroke-miterlimit="10"/>
<path d="M96.8714 136.359L96.9428 134.296L68.1456 134.343L67.741 136.398L96.8714 136.359Z" fill="#DBCCAF"/>
<path d="M96.8714 136.359L96.9428 134.296L68.1456 134.343L67.741 136.398L96.8714 136.359Z" fill="#D5D0C8"/>
<path d="M152.078 132.805L159.139 132.797L154.768 118.898L148.262 118.922L152.078 132.805Z" fill="#D5D0C8"/>
<path d="M152.078 132.805L159.139 132.797L154.768 118.898L148.262 118.922L152.078 132.805Z" stroke="#C2BEB6" stroke-width="0.650517" stroke-miterlimit="10"/>
<path d="M132.777 130.187C131.357 129.552 129.532 129.179 127.628 128.981C126.978 128.917 126.272 128.854 125.534 128.822L126.058 132.852L134.657 132.836C134.498 131.884 134.157 130.79 132.785 130.187H132.777Z" fill="#8ABC6F" stroke="#84AC61" stroke-width="0.594985" stroke-miterlimit="10"/>
<path d="M128.977 127.22C131.508 127.553 134.602 128.14 136.212 129.171C137.957 130.282 138.584 131.551 138.933 132.821L147.08 132.805L143.653 118.93L135.157 118.961C135.173 121.73 130.905 123.967 124.971 124.364L125.296 126.91C126.557 126.958 127.803 127.061 128.977 127.22Z" fill="#D5D0C8"/>
<path d="M128.977 127.22C131.508 127.553 134.602 128.14 136.212 129.171C137.957 130.282 138.584 131.551 138.933 132.821L147.08 132.805L143.653 118.93L135.157 118.961C135.173 121.73 130.905 123.967 124.971 124.364L125.296 126.91C126.557 126.958 127.803 127.061 128.977 127.22Z" stroke="#C2BEB6" stroke-width="0.650517" stroke-miterlimit="10"/>
<path d="M144.685 123.11L143.653 118.938L135.157 118.969C135.165 120.659 133.594 122.15 131.016 123.15L144.685 123.11Z" fill="#8ABC6F" stroke="#84AC61" stroke-width="0.594985" stroke-miterlimit="10"/>
<path d="M162.963 132.789L167.857 132.781L162.804 118.874L158.29 118.89L162.963 132.789Z" fill="#D5D0C8"/>
<path d="M162.963 132.789L167.857 132.781L162.804 118.874L158.29 118.89L162.963 132.789Z" stroke="#C2BEB6" stroke-width="0.650517" stroke-miterlimit="10"/>
<path d="M108.271 129.807C106.169 129.101 103.17 129.093 100.981 129.696L100.941 132.893L110.064 132.877C110.033 131.854 110.35 130.497 108.271 129.807Z" fill="#D4D0C8"/>
<path d="M108.271 129.807C106.169 129.101 103.17 129.093 100.981 129.696L100.941 132.893L110.064 132.877C110.033 131.854 110.35 130.497 108.271 129.807Z" stroke="#C2BEB6" stroke-width="0.650517" stroke-miterlimit="10"/>
<path d="M108.97 122.73C111.294 123.515 112.064 124.832 114.182 125.689C116.308 126.538 119.164 126.776 121.909 126.807L121.647 124.404C115.467 124.102 110.517 121.865 109.858 119.057L101.108 119.088L101.068 122.047C103.813 121.794 106.772 121.992 108.962 122.738L108.97 122.73Z" fill="#D5D0C8"/>
<path d="M108.97 122.73C111.294 123.515 112.064 124.832 114.182 125.689C116.308 126.538 119.164 126.776 121.909 126.807L121.647 124.404C115.467 124.102 110.517 121.865 109.858 119.057L101.108 119.088L101.068 122.047C103.813 121.794 106.772 121.992 108.962 122.738L108.97 122.73Z" fill="#D4D0C8"/>
<path d="M109.422 125.974C108.2 125.134 107.026 123.928 104.487 123.848C103.448 123.817 102.203 123.832 101.052 123.967L101.005 127.632C104.265 127.149 108.065 127.41 110.842 128.346C114.166 129.457 114.301 131.194 114.412 132.876L122.575 132.86L122.115 128.68C117.085 128.624 112.302 127.918 109.422 125.974Z" fill="#D4D0C8"/>
<path d="M109.422 125.974C108.2 125.134 107.026 123.928 104.487 123.848C103.448 123.817 102.203 123.832 101.052 123.967L101.005 127.632C104.265 127.149 108.065 127.41 110.842 128.346C114.166 129.457 114.301 131.194 114.412 132.876L122.575 132.86L122.115 128.68C117.085 128.624 112.302 127.918 109.422 125.974Z" stroke="#C2BEB6" stroke-width="0.650517" stroke-miterlimit="10"/>
<path d="M152.158 114.018C149.032 113.399 146.85 112.059 145.486 110.615C143.36 108.33 142.741 105.91 142.201 103.515L130.794 103.578C131.333 105.585 131.135 108.306 134.332 109.821C137.449 111.273 141.884 111.257 144.788 112.987C146.961 114.264 148.112 115.843 148.31 117.39L162.248 117.342L161.193 114.431C158.211 114.47 155.14 114.597 152.158 114.018Z" fill="#DBCCAF"/>
<path d="M152.158 114.018C149.032 113.399 146.85 112.059 145.486 110.615C143.36 108.33 142.741 105.91 142.201 103.515L130.794 103.578C131.333 105.585 131.135 108.306 134.332 109.821C137.449 111.273 141.884 111.257 144.788 112.987C146.961 114.264 148.112 115.843 148.31 117.39L162.248 117.342L161.193 114.431C158.211 114.47 155.14 114.597 152.158 114.018Z" fill="#D5D0C8"/>
<path d="M132.467 103.57C132.523 105.181 133.332 106.862 135.585 107.814C137.751 108.719 140.44 108.171 142.884 108.314C143.217 108.33 143.542 108.362 143.859 108.401C142.971 106.799 142.566 105.149 142.201 103.515L132.467 103.57Z" fill="#8ABC6F"/>
<path d="M132.467 103.57C132.523 105.181 133.332 106.862 135.585 107.814C137.751 108.719 140.44 108.171 142.884 108.314C143.217 108.33 143.542 108.362 143.859 108.401C142.971 106.799 142.566 105.149 142.201 103.515L132.467 103.57Z" stroke="#84AC61" stroke-width="0.594985" stroke-miterlimit="10"/>
<path d="M147.334 112.147C146.937 112.043 146.604 111.861 146.406 111.591C144.97 109.608 141.178 110.338 138.14 110.203C136.339 110.132 134.609 109.751 133.229 109.156C133.546 109.394 133.903 109.616 134.332 109.822C137.449 111.274 141.884 111.258 144.788 112.987C146.961 114.265 148.112 115.843 148.31 117.39L162.248 117.343L161.193 114.431C158.21 114.471 155.14 114.598 152.157 114.019C150.19 113.63 148.588 112.956 147.334 112.147Z" fill="#8ABC6F"/>
<path d="M147.334 112.147C146.937 112.043 146.604 111.861 146.406 111.591C144.97 109.608 141.178 110.338 138.14 110.203C136.339 110.132 134.609 109.751 133.229 109.156C133.546 109.394 133.903 109.616 134.332 109.822C137.449 111.274 141.884 111.258 144.788 112.987C146.961 114.265 148.112 115.843 148.31 117.39L162.248 117.343L161.193 114.431C158.21 114.471 155.14 114.598 152.157 114.019C150.19 113.63 148.588 112.956 147.334 112.147Z" stroke="#84AC61" stroke-width="0.594985" stroke-miterlimit="10"/>
<path d="M148.334 109.362C149.31 110.528 150.857 112.012 153.617 112.377C155.934 112.678 158.226 112.583 160.503 112.551L157.195 103.436L145.811 103.499C146.271 105.475 146.779 107.474 148.342 109.362H148.334Z" fill="#D5D0C8"/>
<path d="M148.334 109.362C149.31 110.528 150.857 112.012 153.617 112.377C155.934 112.678 158.226 112.583 160.503 112.551L157.195 103.436L145.811 103.499C146.271 105.475 146.779 107.474 148.342 109.362H148.334Z" stroke="#C2BEB6" stroke-width="0.650517" stroke-miterlimit="10"/>
<path d="M134.728 117.438L144.32 117.407C144.216 115.757 142.765 113.837 139.385 113.131C135.466 112.306 131.968 111.719 129.802 109.775C127.708 107.855 127.787 105.682 127.176 103.603L122.281 103.627L123.44 112.583C128.763 112.917 133.34 114.9 134.728 117.446V117.438Z" fill="#D5D0C8"/>
<path d="M134.728 117.438L144.32 117.407C144.216 115.757 142.765 113.837 139.385 113.131C135.466 112.306 131.968 111.719 129.802 109.775C127.708 107.855 127.787 105.682 127.176 103.603L122.281 103.627L123.44 112.583C128.763 112.917 133.34 114.9 134.728 117.446V117.438Z" stroke="#C2BEB6" stroke-width="0.650517" stroke-miterlimit="10"/>
<path d="M109.929 117.525C110.731 114.931 114.975 112.892 120.362 112.575L119.386 103.642L101.314 103.745L101.14 117.565L109.929 117.533V117.525Z" fill="#DBCCAF"/>
<path d="M109.929 117.525C110.731 114.931 114.975 112.892 120.362 112.575L119.386 103.642L101.314 103.745L101.14 117.565L109.929 117.533V117.525Z" fill="#D5D0C8"/>
<path d="M113.531 118.613C113.388 116.296 117.157 114.408 121.956 114.392C126.756 114.376 130.976 116.233 131.373 118.557C131.777 120.874 128.001 122.762 122.948 122.778C117.894 122.793 113.674 120.929 113.531 118.613Z" stroke="#C2BEB6" stroke-width="0.650517" stroke-miterlimit="10"/>
<path d="M103.155 143.062L121.345 143.046L121.718 146.901H103.155V143.062Z" fill="#8ABC6F"/>
<path d="M103.155 143.062L121.345 143.046L121.718 146.901H103.155V143.062Z" stroke="#84AC61" stroke-width="0.594985" stroke-miterlimit="10"/>
<path d="M117.363 118.311C117.26 117.153 119.148 116.209 121.575 116.201H122.773C125.201 116.185 127.311 117.121 127.485 118.279L127.573 118.851C127.747 120.009 125.859 120.953 123.36 120.961H122.123C119.624 120.969 117.514 120.041 117.41 118.882L117.363 118.311Z" fill="#8ABC6F" stroke="#84AC61" stroke-width="0.594985" stroke-miterlimit="10"/>
<path d="M116.427 110.362C116.094 109.862 114.388 109.592 113.087 109.283C110.263 108.625 112.357 107.339 110.326 106.546C109.366 106.078 105.63 106.189 105.074 106.855C103.765 108.006 107.573 108.744 107.224 109.799C107.058 110.846 103.781 111.623 103.194 112.67C102.798 113.622 103.591 114.955 106.161 114.654C107.899 114.44 108.652 113.408 109.85 112.877C111.413 112.179 113.817 112.155 115.348 111.457C116.363 110.989 116.609 110.64 116.427 110.362Z" fill="#52C6DA" stroke="#4EB8BF" stroke-width="0.594985" stroke-miterlimit="10"/>
<path d="M64.187 110.409C63.0446 111.528 61.934 112.726 61.2359 113.908C60.4981 115.161 60.276 116.454 59.4906 117.708L67.4475 117.676L69.8989 106.625C67.4079 107.521 65.4325 109.172 64.1791 110.409H64.187Z" fill="#8ABC6F"/>
<path d="M64.187 110.409C63.0446 111.528 61.934 112.726 61.2359 113.908C60.4981 115.161 60.276 116.454 59.4906 117.708L67.4475 117.676L69.8989 106.625C67.4079 107.521 65.4325 109.172 64.1791 110.409H64.187Z" stroke="#84AC61" stroke-width="0.594985" stroke-miterlimit="10"/>
<path d="M38.801 114.099C36.6511 115.154 35.2707 116.447 34.3346 117.795L55.4526 117.724C56.7616 116.098 56.9837 114.321 58.2213 112.679C58.2609 112.623 58.3085 112.575 58.3482 112.52C52.9695 111.267 43.8464 111.568 38.801 114.107V114.099Z" fill="#D5D0C8"/>
<path d="M38.801 114.099C36.6511 115.154 35.2707 116.447 34.3346 117.795L55.4526 117.724C56.7616 116.098 56.9837 114.321 58.2213 112.679C58.2609 112.623 58.3085 112.575 58.3482 112.52C52.9695 111.267 43.8464 111.568 38.801 114.107V114.099Z" stroke="#C2BEB6" stroke-width="0.650517" stroke-miterlimit="10"/>
<path d="M42.4581 110.918C44.7191 110.426 47.1307 110.124 49.5186 109.997L51.6209 104.008L45.1713 104.047L42.4581 110.918Z" fill="#D5D0C8"/>
<path d="M42.4581 110.918C44.7191 110.426 47.1307 110.124 49.5186 109.997L51.6209 104.008L45.1713 104.047L42.4581 110.918Z" stroke="#C2BEB6" stroke-width="0.650517" stroke-miterlimit="10"/>
<path d="M30.384 117.811C31.7326 115.812 33.8666 113.885 37.3651 112.457C37.4444 112.425 37.5317 112.393 37.611 112.361L41.1175 104.071L35.596 104.103L29.2733 117.811H30.384Z" fill="#DBCCAF"/>
<path d="M30.384 117.811C31.7326 115.812 33.8666 113.885 37.3651 112.457C37.4444 112.425 37.5317 112.393 37.611 112.361L41.1175 104.071L35.596 104.103L29.2733 117.811H30.384Z" fill="#D5D0C8"/>
<path d="M53.5487 109.966C55.8255 110.037 57.9992 110.283 59.9031 110.696C60.5457 110.013 61.2597 109.355 62.0451 108.704C63.481 107.514 65.2818 106.324 67.3841 105.46C66.6622 105.047 66.1703 104.524 65.9958 103.937L55.4923 103.992L53.5566 109.966H53.5487Z" fill="#D5D0C8"/>
<path d="M53.5487 109.966C55.8255 110.037 57.9992 110.283 59.9031 110.696C60.5457 110.013 61.2597 109.355 62.0451 108.704C63.481 107.514 65.2818 106.324 67.3841 105.46C66.6622 105.047 66.1703 104.524 65.9958 103.937L55.4923 103.992L53.5566 109.966H53.5487Z" stroke="#C2BEB6" stroke-width="0.650517" stroke-miterlimit="10"/>
<path d="M39.7688 95.0593L36.2941 102.596L42.4264 102.564C43.7353 100.224 46.0122 97.9072 50.3436 96.4475C52.9061 95.5749 55.762 95.1465 58.1023 95.4083C57.8087 94.6864 57.4121 93.9962 56.9202 93.3457C51.5892 94.7975 44.8143 95.7256 39.7608 95.0593H39.7688Z" fill="#DBCCAF"/>
<path d="M39.7688 95.0593L36.2941 102.596L42.4264 102.564C43.7353 100.224 46.0122 97.9072 50.3436 96.4475C52.9061 95.5749 55.762 95.1465 58.1023 95.4083C57.8087 94.6864 57.4121 93.9962 56.9202 93.3457C51.5892 94.7975 44.8143 95.7256 39.7608 95.0593H39.7688Z" fill="#D5D0C8"/>
<path d="M55.532 91.8139C55.1829 91.4966 54.8021 91.1951 54.3975 90.9175C53.0806 89.9972 51.4305 89.3229 49.5821 88.8311L42.6168 88.8866L40.6573 93.1308C44.735 93.9479 50.8276 93.0753 55.532 91.8139Z" fill="#DBCCAF"/>
<path d="M55.532 91.8139C55.1829 91.4966 54.8021 91.1951 54.3975 90.9175C53.0806 89.9972 51.4305 89.3229 49.5821 88.8311L42.6168 88.8866L40.6573 93.1308C44.735 93.9479 50.8276 93.0753 55.532 91.8139Z" fill="#D5D0C8"/>
<path d="M58.6338 97.8362C57.2138 96.5035 52.9458 97.3285 50.7959 98.3281C48.1542 99.5419 46.8531 100.986 46.0201 102.541L57.8008 102.469C58.5783 100.986 58.8718 99.4308 58.729 97.9156C58.6973 97.8918 58.6656 97.868 58.6338 97.8362Z" fill="#D5D0C8"/>
<path d="M58.6338 97.8362C57.2138 96.5035 52.9458 97.3285 50.7959 98.3281C48.1542 99.5419 46.8531 100.986 46.0201 102.541L57.8008 102.469C58.5783 100.986 58.8718 99.4308 58.729 97.9156C58.6973 97.8918 58.6656 97.868 58.6338 97.8362Z" stroke="#C2BEB6" stroke-width="0.650517" stroke-miterlimit="10"/>
<path d="M62.164 97.249C62.4417 98.9546 62.2116 100.724 61.4025 102.445L66.202 102.421C66.9398 101.097 69.0024 100.01 71.4537 99.6052L71.9932 97.1855L62.1561 97.249H62.164Z" fill="#8ABC6F"/>
<path d="M62.164 97.249C62.4417 98.9546 62.2116 100.724 61.4025 102.445L66.202 102.421C66.9398 101.097 69.0024 100.01 71.4537 99.6052L71.9932 97.1855L62.1561 97.249H62.164Z" stroke="#84AC61" stroke-width="0.594985" stroke-miterlimit="10"/>
<path d="M57.4755 89.7912C57.8722 90.1006 58.2292 90.4258 58.5783 90.7669L73.4529 90.648L73.9051 88.625L55.9286 88.7678C56.4918 89.0772 57.0154 89.4104 57.4755 89.7832V89.7912Z" fill="#DBCCAF"/>
<path d="M57.4755 89.7912C57.8722 90.1006 58.2292 90.4258 58.5783 90.7669L73.4529 90.648L73.9051 88.625L55.9286 88.7678C56.4918 89.0772 57.0154 89.4104 57.4755 89.7832V89.7912Z" fill="#D5D0C8"/>
<path d="M60.3395 92.8295C60.9027 93.6386 61.3549 94.4875 61.6722 95.368L72.4216 95.2967L72.9928 92.7422L60.3395 92.8374V92.8295Z" fill="#DBCCAF"/>
<path d="M60.3395 92.8295C60.9027 93.6386 61.3549 94.4875 61.6722 95.368L72.4216 95.2967L72.9928 92.7422L60.3395 92.8374V92.8295Z" fill="#D5D0C8"/>
<path d="M68.701 103.024C68.9707 101.874 70.9699 100.93 73.1674 100.914C75.3648 100.898 76.9753 101.826 76.7611 102.976C76.5548 104.127 74.5557 105.071 72.2947 105.087C70.0338 105.095 68.4233 104.174 68.6931 103.024H68.701Z" fill="#D5D0C8"/>
<path d="M124.566 94.9559C125.978 96.0507 128.493 96.2807 130.667 96.5108C132.928 96.7567 134.879 97.3676 135.68 98.6051C136.386 99.6999 136.061 100.93 135.791 102.024H137.664C137.933 100.699 138.092 99.3112 137.092 98.0022C135.871 96.3839 132.705 95.7333 129.889 95.4795C128.057 95.3129 126.089 94.9162 125.423 93.8611C125.121 93.3851 125.28 92.8615 125.661 92.3856C125.938 92.7663 126.454 93.1075 127.152 93.2344C127.66 93.3217 128.152 93.3296 128.66 93.3217C129.532 93.3058 129.81 93.2741 129.857 93.8452C129.873 94.0436 130.214 94.2657 130.579 94.3054C135.062 94.71 135.411 91.6557 132.293 90.2833C130.548 89.5058 128.628 89.6328 127.057 90.1643C126.518 90.2198 126.089 90.4181 125.804 90.6958C125.09 91.0687 124.503 91.5208 124.138 91.9651C123.352 92.9171 123.384 94.0357 124.55 94.9559H124.566Z" fill="#52C6DA" stroke="#4EB8BF" stroke-width="0.594985" stroke-miterlimit="10"/>
<path d="M37.5714 143.546C37.7697 144.474 38.1029 145.387 38.5155 146.299C38.8486 147.013 39.166 147.751 38.8645 148.496H41.0223C41.2841 147.782 41.0779 147.076 40.7843 146.378C40.2369 145.03 39.7372 143.705 39.4754 142.332C39.0311 139.802 39.2453 137.239 39.5547 134.669C39.8165 132.591 40.3559 130.036 44.5446 128.418C48.7968 126.744 55.3258 127.045 60.0936 127.077C68.2647 127.133 75.8805 126.188 80.3072 122.746C85.2416 118.747 84.0358 114.154 85.9635 109.886C86.7569 108.085 88.518 106.411 89.1051 104.587C89.6366 102.897 89.3748 101.271 87.812 99.8187C86.5823 98.6446 83.7661 98.0893 83.2028 96.7407C82.8934 95.9791 83.0997 94.9081 83.7819 94.1624C84.3928 93.4881 85.6621 93.0201 86.7172 92.5996C89.5017 91.4572 91.4612 90.0927 92.6194 88.4902L91.0883 88.5061C90.6917 89.0138 90.2157 89.5057 89.6287 89.9817C87.6692 91.5286 83.9168 92.2029 82.354 93.9244C80.8943 95.5031 81.2275 97.5499 83.4646 98.6526C85.0512 99.4221 86.4554 100.112 87.217 101.247C88.0976 102.548 87.7485 104.023 87.09 105.38C86.4792 106.617 85.3765 107.792 84.6625 109.021C83.8851 110.346 83.536 111.711 83.2504 113.059C82.4412 116.867 82.0604 121.571 75.0555 124.427C70.01 126.434 63.3382 126.244 57.3567 126.22C51.4306 126.196 44.1004 126.553 40.5146 129.362C37.0002 132.043 37.4128 135.28 37.1827 138.049C37.0399 139.905 37.1986 141.745 37.5714 143.57V143.546Z" fill="#52C6DA" stroke="#4EB8BF" stroke-width="0.594985" stroke-miterlimit="10"/>
<path d="M45.0444 145.847C44.4653 146.069 43.9337 146.299 43.426 146.529C43.6085 147.053 43.7037 147.584 43.6244 148.116H60.6885L61.6405 143.824C55.9445 143.451 49.717 144.046 45.0444 145.839V145.847Z" fill="#DBCCAF"/>
<path d="M45.0444 145.847C44.4653 146.069 43.9337 146.299 43.426 146.529C43.6085 147.053 43.7037 147.584 43.6244 148.116H60.6885L61.6405 143.824C55.9445 143.451 49.717 144.046 45.0444 145.839V145.847Z" fill="#D5D0C8"/>
<path d="M46.5913 138.311C44.8381 138.184 43.188 137.986 41.649 137.716C41.5934 139.176 41.649 140.627 41.9187 142.063C42.0694 142.849 42.3074 143.618 42.5851 144.38C42.593 144.38 42.6089 144.38 42.6168 144.364C48.3683 142.365 55.3495 141.579 62.053 141.936L62.8066 138.549C57.3724 138.549 51.8351 138.692 46.5834 138.303L46.5913 138.311Z" fill="#D5D0C8"/>
<path d="M46.5913 138.311C44.8381 138.184 43.188 137.986 41.649 137.716C41.5934 139.176 41.649 140.627 41.9187 142.063C42.0694 142.849 42.3074 143.618 42.5851 144.38C42.593 144.38 42.6089 144.38 42.6168 144.364C48.3683 142.365 55.3495 141.579 62.053 141.936L62.8066 138.549C57.3724 138.549 51.8351 138.692 46.5834 138.303L46.5913 138.311Z" stroke="#C2BEB6" stroke-width="0.650517" stroke-miterlimit="10"/>
<path d="M41.7996 135.542C43.8622 136.058 46.2263 136.391 48.9156 136.55C53.5803 136.819 58.4433 136.692 63.227 136.692L63.7505 134.352L41.9265 134.384C41.9186 134.479 41.9027 134.574 41.8948 134.661C41.863 134.955 41.8313 135.248 41.7996 135.542Z" fill="#DBCCAF"/>
<path d="M41.7996 135.542C43.8622 136.058 46.2263 136.391 48.9156 136.55C53.5803 136.819 58.4433 136.692 63.227 136.692L63.7505 134.352L41.9265 134.384C41.9186 134.479 41.9027 134.574 41.8948 134.661C41.863 134.955 41.8313 135.248 41.7996 135.542Z" fill="#D5D0C8"/>
<path d="M35.1121 143.816C34.7392 141.904 34.6281 139.976 34.8027 138.033C34.8185 137.898 34.8265 137.755 34.8344 137.612C31.7643 138.31 29.9635 139.564 28.7894 140.865C26.6395 143.229 26.0048 145.688 25.6954 148.116H36.4607C36.5242 147.584 36.2544 147.061 36.0244 146.561C35.6198 145.649 35.3025 144.736 35.12 143.808L35.1121 143.816Z" fill="#D5D0C8"/>
<path d="M35.1121 143.816C34.7392 141.904 34.6281 139.976 34.8027 138.033C34.8185 137.898 34.8265 137.755 34.8344 137.612C31.7643 138.31 29.9635 139.564 28.7894 140.865C26.6395 143.229 26.0048 145.688 25.6954 148.116H36.4607C36.5242 147.584 36.2544 147.061 36.0244 146.561C35.6198 145.649 35.3025 144.736 35.12 143.808L35.1121 143.816Z" stroke="#C2BEB6" stroke-width="0.650517" stroke-miterlimit="10"/>
<path d="M20.9594 148.123C21.3719 145.26 22.2208 142.316 25.4099 139.627C27.4249 137.905 30.4792 136.406 34.8345 135.708C34.8821 135.708 34.9297 135.692 34.9773 135.684C35.0169 135.256 35.0645 134.827 35.1439 134.391L21.6099 134.415L15.2872 148.123H20.9515H20.9594Z" fill="#DBCCAF"/>
<path d="M20.9594 148.123C21.3719 145.26 22.2208 142.316 25.4099 139.627C27.4249 137.905 30.4792 136.406 34.8345 135.708C34.8821 135.708 34.9297 135.692 34.9773 135.684C35.0169 135.256 35.0645 134.827 35.1439 134.391L21.6099 134.415L15.2872 148.123H20.9515H20.9594Z" fill="#D5D0C8"/>
<path d="M56.2539 129.599C57.1741 130.646 57.0631 131.812 56.5712 132.971L64.0601 132.955L65.1628 127.973C63.4096 128.052 61.6326 128.076 59.8397 128.06C57.8246 128.044 55.286 127.949 52.795 128.028C54.3103 128.393 55.6272 128.877 56.2539 129.591V129.599Z" fill="#DBCCAF"/>
<path d="M56.2539 129.599C57.1741 130.646 57.0631 131.812 56.5712 132.971L64.0601 132.955L65.1628 127.973C63.4096 128.052 61.6326 128.076 59.8397 128.06C57.8246 128.044 55.286 127.949 52.795 128.028C54.3103 128.393 55.6272 128.877 56.2539 129.591V129.599Z" fill="#D5D0C8"/>
<path d="M52.2953 130.552C51.4226 129.711 49.0665 129.409 47.2022 129.092C46.9166 129.044 46.6945 128.973 46.52 128.894C46.3137 128.957 46.1074 129.028 45.9091 129.108C43.3626 130.099 42.5137 131.583 42.1567 132.995L52.3032 132.979C52.7633 132.114 52.9934 131.218 52.2953 130.552Z" fill="#8ABC6F"/>
<path d="M52.2953 130.552C51.4226 129.711 49.0665 129.409 47.2022 129.092C46.9166 129.044 46.6945 128.973 46.52 128.894C46.3137 128.957 46.1074 129.028 45.9091 129.108C43.3626 130.099 42.5137 131.583 42.1567 132.995L52.3032 132.979C52.7633 132.114 52.9934 131.218 52.2953 130.552Z" stroke="#84AC61" stroke-width="0.594985" stroke-miterlimit="10"/>
<path d="M57.1185 124.754H57.3131C60.0796 124.761 63.0915 124.827 66.0187 124.696L67.4316 119.224L58.8613 119.246L57.127 124.754H57.1185Z" stroke="#C2BEB6" stroke-width="0.650517" stroke-miterlimit="10"/>
<path d="M37.8173 125.403C35.2231 124.999 32.1292 124.84 29.1543 125.102C27.8929 125.213 26.7347 125.387 25.6796 125.617L22.2604 133.027L35.5087 133.003C35.9768 131.647 36.8177 130.306 38.436 129.076C39.5943 128.188 41.0222 127.49 42.6327 126.95C42.0774 126.141 39.3166 125.617 37.8252 125.387L37.8173 125.403Z" fill="#8ABC6F"/>
<path d="M37.8173 125.403C35.2231 124.999 32.1292 124.84 29.1543 125.102C27.8929 125.213 26.7347 125.387 25.6796 125.617L22.2604 133.027L35.5087 133.003C35.9768 131.647 36.8177 130.306 38.436 129.076C39.5943 128.188 41.0222 127.49 42.6327 126.95C42.0774 126.141 39.3166 125.617 37.8252 125.387L37.8173 125.403Z" stroke="#84AC61" stroke-width="0.594985" stroke-miterlimit="10"/>
<path d="M30.852 123.182C35.5643 122.992 44.7429 123.73 46.7024 125.951C48.3287 125.665 50.0423 125.483 51.7796 125.364L53.6518 119.231L28.5752 119.311L26.6078 123.571C28.004 123.365 29.432 123.23 30.852 123.174V123.182Z" fill="#D5D0C8"/>
<path d="M30.852 123.182C35.5643 122.992 44.7429 123.73 46.7024 125.951C48.3287 125.665 50.0423 125.483 51.7796 125.364L53.6518 119.231L28.5752 119.311L26.6078 123.571C28.004 123.365 29.432 123.23 30.852 123.174V123.182Z" stroke="#C2BEB6" stroke-width="0.650517" stroke-miterlimit="10"/>
<path d="M90.6123 131.012L90.4774 132.916L96.9905 132.9L97.054 131.004L90.6123 131.012Z" stroke="#C2BEB6" stroke-width="0.650517" stroke-miterlimit="10"/>
<path d="M90.6123 131.012L90.4774 132.916L96.9905 132.9L97.054 131.004L90.6123 131.012Z" fill="#D4D0C8"/>
<path d="M90.9058 126.895L90.7313 129.37L97.1175 129.354L97.2048 126.887L90.9058 126.895Z" fill="#D5D0C8"/>
<path d="M90.9058 126.895L90.7313 129.37L97.1175 129.354L97.2048 126.887L90.9058 126.895Z" stroke="#C2BEB6" stroke-width="0.650517" stroke-miterlimit="10"/>
<path d="M91.1914 122.975L91.0168 125.379L97.2523 125.363L97.3395 122.952L91.1914 122.975Z" fill="#D5D0C8"/>
<path d="M91.1914 122.975L91.0168 125.379L97.2523 125.363L97.3395 122.952L91.1914 122.975Z" fill="#D5D0C8"/>
<path d="M97.4031 121.12L97.4745 119.089L91.4691 119.113L91.3263 121.136L97.4031 121.12Z" stroke="#C2BEB6" stroke-width="0.650517" stroke-miterlimit="10"/>
<path d="M97.4031 121.12L97.4745 119.089L91.4691 119.113L91.3263 121.136L97.4031 121.12Z" stroke="#C2BEB6" stroke-width="0.650517" stroke-miterlimit="10"/>
<path d="M80.0375 132.931H86.6537L87.9468 119.119H85.3923C84.7577 120.531 83.7819 121.912 82.1318 123.236C81.8542 123.459 81.5448 123.681 81.2274 123.895L80.0454 132.923L80.0375 132.931Z" fill="#D5D0C8"/>
<path d="M80.0375 132.931H86.6537L87.9468 119.119H85.3923C84.7577 120.531 83.7819 121.912 82.1318 123.236C81.8542 123.459 81.5448 123.681 81.2274 123.895L80.0454 132.923L80.0375 132.931Z" fill="#D4D0C8"/>
<path d="M68.7802 131.116L68.4232 132.948L76.3643 132.94L76.6419 131.108L68.7802 131.116Z" fill="#DBCCAF"/>
<path d="M68.7802 131.116L68.4232 132.948L76.3643 132.94L76.6419 131.108L68.7802 131.116Z" fill="#D5D0C8"/>
<path d="M76.8959 129.394L77.4354 125.832C76.293 126.268 75.0396 126.649 73.683 126.943C72.2947 127.244 70.8905 127.466 69.4626 127.633L69.1135 129.41L76.8959 129.394Z" fill="#D5D0C8"/>
<path d="M76.8959 129.394L77.4354 125.832C76.293 126.268 75.0396 126.649 73.683 126.943C72.2947 127.244 70.8905 127.466 69.4626 127.633L69.1135 129.41L76.8959 129.394Z" stroke="#C2BEB6" stroke-width="0.650517" stroke-miterlimit="10"/>
<path d="M73.6196 123.714C76.6421 122.492 78.316 120.882 79.3235 119.152L71.1365 119.184L70.0497 124.698C71.319 124.475 72.5248 124.158 73.6196 123.722V123.714Z" fill="#D5D0C8"/>
<path d="M73.6196 123.714C76.6421 122.492 78.316 120.882 79.3235 119.152L71.1365 119.184L70.0497 124.698C71.319 124.475 72.5248 124.158 73.6196 123.722V123.714Z" stroke="#C2BEB6" stroke-width="0.650517" stroke-miterlimit="10"/>
<path d="M91.0485 104.571C90.4615 106.491 88.6844 108.244 87.8753 110.14C86.8043 112.607 86.7012 115.138 85.9554 117.613L97.5299 117.573L98.0138 103.762L91.223 103.801C91.1834 104.063 91.1278 104.317 91.0485 104.579V104.571Z" fill="#D5D0C8"/>
<path d="M91.0485 104.571C90.4615 106.491 88.6844 108.244 87.8753 110.14C86.8043 112.607 86.7012 115.138 85.9554 117.613L97.5299 117.573L98.0138 103.762L91.223 103.801C91.1834 104.063 91.1278 104.317 91.0485 104.579V104.571Z" stroke="#C2BEB6" stroke-width="0.650517" stroke-miterlimit="10"/>
<path d="M81.1956 113.051C81.5129 111.615 81.9255 110.156 82.7664 108.752C83.4883 107.522 84.6069 106.348 85.2336 105.11C85.4399 104.69 85.6144 104.261 85.7096 103.833L79.0854 103.873C78.2128 105.086 76.1422 106.03 73.6591 106.348L71.422 117.676L80.0294 117.645C80.6244 116.082 80.8624 114.495 81.1798 113.059L81.1956 113.051Z" stroke="#C2BEB6" stroke-width="0.650517" stroke-miterlimit="10"/>
<path d="M81.1956 113.051C81.5129 111.615 81.9255 110.156 82.7664 108.752C83.4883 107.522 84.6069 106.348 85.2336 105.11C85.4399 104.69 85.6144 104.261 85.7096 103.833L79.0854 103.873C78.2128 105.086 76.1422 106.03 73.6591 106.348L71.422 117.676L80.0294 117.645C80.6244 116.082 80.8624 114.495 81.1798 113.059L81.1956 113.051Z" stroke="#C2BEB6" stroke-width="0.650517" stroke-miterlimit="10"/>
<path d="M87.5184 93.4405C85.559 94.2338 84.4483 95.0985 85.0116 96.463C85.2258 96.9787 85.916 97.2405 86.6299 97.5657C87.7247 98.0655 88.756 98.6208 89.4859 99.3031C90.4854 100.231 91.0328 101.239 91.2153 102.278L98.0695 102.238L98.5534 88.4268L94.4361 88.4585C93.1827 90.418 90.8742 92.0601 87.5184 93.4326V93.4405Z" fill="#8ABC6F"/>
<path d="M87.5184 93.4405C85.559 94.2338 84.4483 95.0985 85.0116 96.463C85.2258 96.9787 85.916 97.2405 86.6299 97.5657C87.7247 98.0655 88.756 98.6208 89.4859 99.3031C90.4854 100.231 91.0328 101.239 91.2153 102.278L98.0695 102.238L98.5534 88.4268L94.4361 88.4585C93.1827 90.418 90.8742 92.0601 87.5184 93.4326V93.4405Z" stroke="#84AC61" stroke-width="0.594985" stroke-miterlimit="10"/>
<path d="M79.5138 102.341L85.7175 102.31C85.6461 102.032 85.5271 101.762 85.3526 101.5C84.7259 100.548 83.3693 99.9852 82.0445 99.3426C79.1886 97.9305 79.0299 95.384 80.8783 93.4087C82.5046 91.6316 86.1856 91.0287 88.1689 89.4659C88.5576 89.1565 88.8987 88.8312 89.1923 88.498L77.1656 88.5932L75.0078 99.5172C77.5147 99.8345 79.3076 100.937 79.5059 102.333L79.5138 102.341Z" fill="#D5D0C8"/>
<path d="M79.5138 102.341L85.7175 102.31C85.6461 102.032 85.5271 101.762 85.3526 101.5C84.7259 100.548 83.3693 99.9852 82.0445 99.3426C79.1886 97.9305 79.0299 95.384 80.8783 93.4087C82.5046 91.6316 86.1856 91.0287 88.1689 89.4659C88.5576 89.1565 88.8987 88.8312 89.1923 88.498L77.1656 88.5932L75.0078 99.5172C77.5147 99.8345 79.3076 100.937 79.5059 102.333L79.5138 102.341Z" stroke="#C2BEB6" stroke-width="0.650517" stroke-miterlimit="10"/>
<g filter="url(#filter0_b_4855_3469)">
<path d="M167.389 115.653L63.0685 91.854L109.081 142.626L167.389 115.653Z" fill="#68B030" fill-opacity="0.5"/>
<path d="M167.389 115.653L63.0685 91.854L109.081 142.626L167.389 115.653Z" stroke="white" stroke-width="0.793314" stroke-dasharray="1.59 1.59"/>
</g>
<path d="M215.258 150.131H9.03589V157.659H215.258V150.131Z" fill="#BDBDBA"/>
<g style="mix-blend-mode:multiply" opacity="0.56">
<path d="M103.924 142.626C103.924 141.969 106.233 141.436 109.081 141.436C111.928 141.436 114.237 141.969 114.237 142.626C114.237 143.284 111.928 143.816 109.081 143.816C106.233 143.816 103.924 143.284 103.924 142.626Z" fill="#606161"/>
</g>
<g style="mix-blend-mode:multiply" opacity="0.56">
<path d="M153.903 118.033C153.903 116.499 159.409 115.257 166.199 115.257C172.989 115.257 178.496 116.499 178.496 118.033C178.496 119.568 172.989 120.81 166.199 120.81C159.409 120.81 153.903 119.568 153.903 118.033Z" fill="#606161"/>
</g>
<g style="mix-blend-mode:multiply" opacity="0.56">
<path d="M49.9788 94.2341C49.9788 92.7 55.4851 91.4575 62.2751 91.4575C69.0652 91.4575 74.5715 92.7 74.5715 94.2341C74.5715 95.7682 69.0652 97.0107 62.2751 97.0107C55.4851 97.0107 49.9788 95.7682 49.9788 94.2341Z" fill="#606161"/>
</g>
<path fill-rule="evenodd" clip-rule="evenodd" d="M84.7045 63.4367C87.5064 59.1537 89.1476 54.0405 89.179 48.5412H89.1744C89.2611 33.3353 77.0069 20.9397 61.801 20.853C46.5997 20.7663 34.1995 33.025 34.1128 48.2264C34.0818 53.9778 35.8156 59.3272 38.8064 63.7605L38.8029 63.7606L58.2335 91.978C59.7573 94.1907 63.0193 94.2089 64.5659 92.0145L83.6578 64.9268C84.0046 64.4661 84.3373 63.9942 84.6552 63.5117L84.7081 63.4366L84.7045 63.4367Z" fill="#007A49"/>
<path d="M83.704 48.5098C83.6338 60.6912 73.7036 70.5098 61.5222 70.4396C49.3408 70.3735 39.5222 60.4392 39.5924 48.2578C39.6626 36.0764 49.5928 26.2578 61.7742 26.328C73.9556 26.3982 83.7742 36.3284 83.704 48.5098Z" fill="#007A49"/>
<path d="M81.0356 48.4938C80.9736 59.2005 72.2455 67.8336 61.5387 67.7717C50.832 67.7097 42.1989 58.9816 42.2608 48.2748C42.3228 37.564 51.0509 28.935 61.7577 28.9969C72.4644 29.0589 81.0975 37.787 81.0356 48.4938Z" fill="white"/>
<path d="M78.9642 29.4716C84.1058 34.3668 87.2674 40.7357 88.0886 46.8126C88.0795 42.588 86.8249 38.0577 84.2427 33.8924C79.8447 26.7981 72.7824 22.683 66.2036 22.6602C70.5104 23.422 75.0042 25.7032 78.9642 29.4716Z" fill="#007A49"/>
<path fill-rule="evenodd" clip-rule="evenodd" d="M181.057 98.2363C182.912 95.4002 183.999 92.0143 184.02 88.3727H184.017C184.074 78.3038 175.96 70.0958 165.891 70.0384C155.825 69.981 147.614 78.0984 147.557 88.1643C147.536 91.9728 148.684 95.5151 150.665 98.4508L150.662 98.4508L163.529 117.136C164.538 118.601 166.698 118.613 167.722 117.16L180.366 99.2198C180.594 98.9167 180.813 98.6063 181.022 98.2889L181.059 98.2363L181.057 98.2363Z" fill="#007A49"/>
<path d="M180.394 88.352C180.348 96.4181 173.772 102.92 165.706 102.873C157.64 102.829 151.138 96.2513 151.185 88.1851C151.231 80.1189 157.807 73.6173 165.873 73.6638C173.939 73.7103 180.441 80.2858 180.394 88.352Z" fill="#007A49"/>
<path d="M178.628 88.3411C178.587 95.4308 172.807 101.147 165.717 101.106C158.628 101.065 152.911 95.2859 152.952 88.1962C152.993 81.1037 158.773 75.3899 165.862 75.4309C172.952 75.4719 178.669 81.2514 178.628 88.3411Z" fill="white"/>
<path d="M177.256 75.7452C180.661 78.9867 182.754 83.204 183.298 87.2279C183.292 84.4305 182.461 81.4307 180.751 78.6725C177.839 73.9749 173.163 71.25 168.806 71.2349C171.658 71.7394 174.634 73.2499 177.256 75.7452Z" fill="#007A49"/>
<path fill-rule="evenodd" clip-rule="evenodd" d="M120.141 127.275C121.61 125.029 122.471 122.348 122.487 119.464H122.485C122.53 111.491 116.104 104.991 108.13 104.945C100.159 104.9 93.6568 111.328 93.6113 119.299C93.595 122.315 94.504 125.12 96.0722 127.444L96.0706 127.444L106.26 142.241C107.059 143.401 108.769 143.411 109.58 142.26L119.584 128.066C119.771 127.818 119.951 127.564 120.122 127.304L120.142 127.275L120.141 127.275Z" fill="#007A49"/>
<path d="M119.616 119.447C119.579 125.835 114.372 130.984 107.984 130.947C101.597 130.912 96.4479 125.703 96.4847 119.315C96.5215 112.928 101.729 107.779 108.116 107.816C114.504 107.852 119.653 113.06 119.616 119.447Z" fill="#007A49"/>
<path d="M118.217 119.439C118.184 125.053 113.607 129.58 107.993 129.548C102.378 129.515 97.8513 124.938 97.8838 119.324C97.9163 113.707 102.493 109.183 108.108 109.215C113.722 109.248 118.249 113.824 118.217 119.439Z" fill="white"/>
<path d="M117.13 109.463C119.827 112.03 121.485 115.37 121.915 118.557C121.91 116.341 121.253 113.966 119.898 111.782C117.592 108.061 113.889 105.904 110.439 105.892C112.697 106.291 115.054 107.487 117.13 109.463Z" fill="#007A49"/>
<defs>
<filter id="filter0_b_4855_3469" x="61.1355" y="90.3937" width="108.269" height="53.508" filterUnits="userSpaceOnUse" color-interpolation-filters="sRGB">
<feFlood flood-opacity="0" result="BackgroundImageFix"/>
<feGaussianBlur in="BackgroundImageFix" stdDeviation="0.396657"/>
<feComposite in2="SourceAlpha" operator="in" result="effect1_backgroundBlur_4855_3469"/>
<feBlend mode="normal" in="SourceGraphic" in2="effect1_backgroundBlur_4855_3469" result="shape"/>
</filter>
</defs>
</svg>
