<svg width="224" height="171" viewBox="0 0 224 171" fill="none" xmlns="http://www.w3.org/2000/svg">
<path d="M39.9751 86.4038L178.44 85.2139L215.266 149.631H9.03589L39.9751 86.4038Z" fill="#EFEFEC"/>
<path d="M203.223 137.224C200.907 136.994 198.098 136.652 195.98 136.93C192.68 137.366 192.26 138.85 191.49 140.143C190.578 141.634 189.174 142.92 185.635 143.57C182.914 144.07 179.908 144.181 176.814 144.133L178.154 147.592H209.181L203.533 137.255C203.429 137.247 203.318 137.232 203.215 137.224H203.223Z" fill="#DBCCAF"/>
<path d="M203.223 137.224C200.907 136.994 198.098 136.652 195.98 136.93C192.68 137.366 192.26 138.85 191.49 140.143C190.578 141.634 189.174 142.92 185.635 143.57C182.914 144.07 179.908 144.181 176.814 144.133L178.154 147.592H209.181L203.533 137.255C203.429 137.247 203.318 137.232 203.215 137.224H203.223Z" fill="#D5D0C8"/>
<path d="M185.072 141.276C187.032 140.237 187.143 138.77 188.23 137.532C189.459 136.112 191.855 135.081 195.734 134.978C197.979 134.914 200.232 135.112 202.501 135.342L201.565 133.629L172.768 133.677L176.108 142.284C179.622 142.371 183.232 142.236 185.072 141.276Z" fill="#D5D0C8"/>
<path d="M185.072 141.276C187.032 140.237 187.143 138.77 188.23 137.532C189.459 136.112 191.855 135.081 195.734 134.978C197.979 134.914 200.232 135.112 202.501 135.342L201.565 133.629L172.768 133.677L176.108 142.284C179.622 142.371 183.232 142.236 185.072 141.276Z" stroke="#C2BEB6" stroke-width="0.650517" stroke-miterlimit="10"/>
<path d="M166.826 118.358L193.164 118.271L200.796 132.225L172.228 132.272L166.826 118.358Z" fill="#D5D0C8"/>
<path d="M166.826 118.358L193.164 118.271L200.796 132.225L172.228 132.272L166.826 118.358Z" stroke="#C2BEB6" stroke-width="0.650517" stroke-miterlimit="10"/>
<path d="M165.096 113.892L166.239 116.827L192.323 116.732L190.72 113.789L165.096 113.892Z" fill="#D5D0C8"/>
<path d="M165.096 113.892L166.239 116.827L192.323 116.732L190.72 113.789L165.096 113.892Z" stroke="#C2BEB6" stroke-width="0.650517" stroke-miterlimit="10"/>
<path d="M163.066 108.656L164.256 111.718L189.531 111.615L187.849 108.545L163.066 108.656Z" fill="#8ABC6F" stroke="#84AC61" stroke-width="0.594985" stroke-miterlimit="10"/>
<path d="M186.659 106.364L184.699 102.778L160.844 102.913L162.225 106.483L186.659 106.364Z" fill="#D5D0C8"/>
<path d="M186.659 106.364L184.699 102.778L160.844 102.913L162.225 106.483L186.659 106.364Z" stroke="#C2BEB6" stroke-width="0.650517" stroke-miterlimit="10"/>
<path d="M178.9 97.8109C176.766 98.2155 175.195 99.8894 176.56 101.286L183.858 101.246L181.907 97.6681C180.82 97.6205 179.789 97.6443 178.9 97.8109Z" fill="#8ABC6F"/>
<path d="M178.9 97.8109C176.766 98.2155 175.195 99.8894 176.56 101.286L183.858 101.246L181.907 97.6681C180.82 97.6205 179.789 97.6443 178.9 97.8109Z" stroke="#84AC61" stroke-width="0.594985" stroke-miterlimit="10"/>
<path d="M161.479 96.9547C160.479 96.3518 159.289 95.9313 158.02 95.6299L160.249 101.381L164.906 101.358C164.605 99.7948 163.383 98.0892 161.487 96.9547H161.479Z" fill="#8ABC6F"/>
<path d="M161.479 96.9547C160.479 96.3518 159.289 95.9313 158.02 95.6299L160.249 101.381L164.906 101.358C164.605 99.7948 163.383 98.0892 161.487 96.9547H161.479Z" stroke="#84AC61" stroke-width="0.594985" stroke-miterlimit="10"/>
<path d="M156.679 92.187L157.227 93.607C159.876 94.0592 162.407 94.8208 164.335 96.1456C166.477 97.5974 167.984 99.5093 168.492 101.334L172.966 101.31C171.776 99.5013 172.688 97.4466 175.045 96.5423C176.726 95.8918 178.741 95.7569 180.899 95.8521L178.813 92.0283L156.672 92.187H156.679Z" fill="#D5D0C8"/>
<path d="M156.679 92.187L157.227 93.607C159.876 94.0592 162.407 94.8208 164.335 96.1456C166.477 97.5974 167.984 99.5093 168.492 101.334L172.966 101.31C171.776 99.5013 172.689 97.4466 175.045 96.5423C176.726 95.8918 178.741 95.7569 180.899 95.8521L178.813 92.0283L156.672 92.187H156.679Z" stroke="#C2BEB6" stroke-width="0.650517" stroke-miterlimit="10"/>
<path d="M177.932 90.3948L176.235 87.293L154.855 87.4675L156.053 90.5614L177.932 90.3948Z" fill="#DBCCAF"/>
<path d="M177.932 90.3948L176.235 87.293L154.855 87.4675L156.053 90.5614L177.932 90.3948Z" fill="#D5D0C8"/>
<path d="M127.224 141.372L128.025 147.6L162.034 147.592L160.13 141.349L127.224 141.372Z" fill="#DBCCAF"/>
<path d="M127.224 141.372L128.025 147.6L162.034 147.592L160.13 141.349L127.224 141.372Z" fill="#D5D0C8"/>
<path d="M140.71 144.022C137.402 142.673 131.872 141.348 127.263 141.697L128.025 147.599H145.406C144.613 146.235 142.955 144.926 140.71 144.022Z" fill="#8ABC6F"/>
<path d="M140.71 144.022C137.402 142.673 131.872 141.348 127.263 141.697L128.025 147.599H145.406C144.613 146.235 142.955 144.926 140.71 144.022Z" stroke="#84AC61" stroke-width="0.594985" stroke-miterlimit="10"/>
<path d="M159.17 139.437L157.433 133.701L126.24 133.749L126.978 139.469L159.17 139.437Z" fill="#8ABC6F" stroke="#84AC61" stroke-width="0.594985" stroke-miterlimit="10"/>
<path d="M163.066 139.437L170.451 139.429L168.373 133.686L161.209 133.693L163.066 139.437Z" fill="#D5D0C8"/>
<path d="M163.066 139.437L170.451 139.429L168.373 133.686L161.209 133.693L163.066 139.437Z" stroke="#C2BEB6" stroke-width="0.650517" stroke-miterlimit="10"/>
<path d="M163.224 141.349L165.231 147.592H173.426L171.149 141.341L163.224 141.349Z" fill="#DBCCAF"/>
<path d="M163.224 141.349L165.231 147.592H173.426L171.149 141.341L163.224 141.349Z" fill="#D5D0C8"/>
<path d="M144.494 99.2706L145.121 101.468L156.64 101.397L155.839 99.1992L144.494 99.2706Z" fill="#DBCCAF"/>
<path d="M144.494 99.2706L145.121 101.468L156.64 101.397L155.839 99.1992L144.494 99.2706Z" fill="#D5D0C8"/>
<path d="M143.455 95.6378L144.002 97.5497L155.212 97.4783L154.514 95.5664L143.455 95.6378Z" fill="#DBCCAF"/>
<path d="M143.455 95.6378L144.002 97.5497L155.212 97.4783L154.514 95.5664L143.455 95.6378Z" fill="#D5D0C8"/>
<path d="M142.447 92.0998L142.908 93.7261L153.824 93.6468L153.229 92.0205L142.447 92.0998Z" fill="#DBCCAF"/>
<path d="M142.447 92.0998L142.908 93.7261L153.824 93.6468L153.229 92.0205L142.447 92.0998Z" fill="#D5D0C8"/>
<path d="M152.641 90.3947L151.586 87.4912L141.154 87.5785L141.979 90.482L152.641 90.3947Z" fill="#DBCCAF"/>
<path d="M152.641 90.3947L151.586 87.4912L141.154 87.5785L141.979 90.482L152.641 90.3947Z" fill="#D5D0C8"/>
<path d="M141.837 101.485L138.179 87.6016L120.306 87.7523L122.091 101.604L141.837 101.485Z" fill="#8ABC6F" stroke="#84AC61" stroke-width="0.594985" stroke-miterlimit="10"/>
<path d="M109.62 139.453L109.422 133.772L100.917 133.788L100.846 139.461L109.62 139.453Z" fill="#D4D0C8"/>
<path d="M109.62 139.453L109.422 133.772L100.917 133.788L100.846 139.461L109.62 139.453Z" stroke="#C2BEB6" stroke-width="0.650517" stroke-miterlimit="10"/>
<path d="M114.436 139.453L123.352 139.437L122.726 133.757L114.087 133.773L114.436 139.453Z" fill="#D4D0C8"/>
<path d="M114.436 139.453L123.352 139.437L122.726 133.757L114.087 133.773L114.436 139.453Z" stroke="#C2BEB6" stroke-width="0.650517" stroke-miterlimit="10"/>
<path d="M100.822 141.364L100.743 147.608L124.241 147.6L123.559 141.349L100.822 141.364Z" fill="#DBCCAF"/>
<path d="M100.822 141.364L100.743 147.608L124.241 147.6L123.559 141.349L100.822 141.364Z" fill="#D5D0C8"/>
<path d="M114.864 99.4535L115.038 101.643L119.211 101.619L118.973 99.4297L114.864 99.4535Z" stroke="#C2BEB6" stroke-width="0.650517" stroke-miterlimit="10"/>
<path d="M114.864 99.4535L115.038 101.643L119.211 101.619L118.973 99.4297L114.864 99.4535Z" stroke="#C2BEB6" stroke-width="0.650517" stroke-miterlimit="10"/>
<path d="M117.172 94.8286C116.284 94.8921 115.395 94.9873 114.515 95.0825L114.761 98.1209L118.831 98.0971L118.466 94.7334C117.958 94.7651 117.466 94.8127 117.18 94.8365L117.172 94.8286Z" fill="#D5D0C8"/>
<path d="M117.172 94.8286C116.284 94.8921 115.395 94.9873 114.515 95.0825L114.761 98.1209L118.831 98.0971L118.466 94.7334C117.958 94.7651 117.466 94.8127 117.18 94.8365L117.172 94.8286Z" stroke="#C2BEB6" stroke-width="0.650517" stroke-miterlimit="10"/>
<path d="M118.251 92.8299L117.696 87.7686L113.92 87.8003L114.356 93.1472C115.665 92.9965 116.99 92.8458 118.251 92.8299Z" stroke="#C2BEB6" stroke-width="0.650517" stroke-miterlimit="10"/>
<path d="M118.251 92.8299L117.696 87.7686L113.92 87.8003L114.356 93.1472C115.665 92.9965 116.99 92.8458 118.251 92.8299Z" fill="#D4D0C8" stroke="#C2BEB6" stroke-width="0.650517" stroke-miterlimit="10"/>
<path d="M108.041 99.4945L108.113 101.684L112.674 101.66L112.531 99.4707L108.041 99.4945Z" stroke="#C2BEB6" stroke-width="0.650517" stroke-miterlimit="10"/>
<path d="M108.041 99.4945L108.113 101.684L112.674 101.66L112.531 99.4707L108.041 99.4945Z" stroke="#C2BEB6" stroke-width="0.650517" stroke-miterlimit="10"/>
<path d="M107.899 95.2413L107.994 98.1607L112.444 98.129L112.262 95.2731C110.81 95.3683 109.342 95.3603 107.899 95.2334V95.2413Z" stroke="#C2BEB6" stroke-width="0.650517" stroke-miterlimit="10"/>
<path d="M107.899 95.2413L107.994 98.1607L112.444 98.129L112.262 95.2731C110.81 95.3683 109.342 95.3603 107.899 95.2334V95.2413Z" fill="#D4D0C8" stroke="#C2BEB6" stroke-width="0.650517" stroke-miterlimit="10"/>
<path d="M109.779 93.4797C110.516 93.5035 111.31 93.4559 112.135 93.3845L111.778 87.8154L107.653 87.8472L107.835 93.329C108.462 93.4004 109.112 93.4559 109.787 93.4718L109.779 93.4797Z" stroke="#C2BEB6" stroke-width="0.650517" stroke-miterlimit="10"/>
<path d="M109.779 93.4797C110.516 93.5035 111.31 93.4559 112.135 93.3845L111.778 87.8154L107.653 87.8472L107.835 93.329C108.462 93.4004 109.112 93.4559 109.787 93.4718L109.779 93.4797Z" fill="#D4D0C8" stroke="#C2BEB6" stroke-width="0.650517" stroke-miterlimit="10"/>
<path d="M101.354 99.5326L101.33 101.722L105.741 101.698L105.709 99.5088L101.354 99.5326Z" fill="#D4D0C8"/>
<path d="M101.354 99.5326L101.33 101.722L105.741 101.698L105.709 99.5088L101.354 99.5326Z" stroke="#C2BEB6" stroke-width="0.650517" stroke-miterlimit="10"/>
<path d="M105.431 94.8994C103.908 94.598 102.568 94.1855 101.425 93.6777L101.37 98.1996L105.677 98.1758L105.622 94.9391C105.558 94.9232 105.495 94.9153 105.431 94.9074V94.8994Z" stroke="#C2BEB6" stroke-width="0.650517" stroke-miterlimit="10"/>
<path d="M105.431 94.8994C103.908 94.598 102.568 94.1855 101.425 93.6777L101.37 98.1996L105.677 98.1758L105.622 94.9391C105.558 94.9232 105.495 94.9153 105.431 94.9074V94.8994Z" fill="#D4D0C8" stroke="#C2BEB6" stroke-width="0.650517" stroke-miterlimit="10"/>
<path d="M105.59 92.9245L105.503 87.8711L101.505 87.9028L101.465 90.8381C102.409 91.7504 103.829 92.4644 105.59 92.9166V92.9245Z" stroke="#C2BEB6" stroke-width="0.650517" stroke-miterlimit="10"/>
<path d="M105.59 92.9245L105.503 87.8711L101.505 87.9028L101.465 90.8381C102.409 91.7504 103.829 92.4644 105.59 92.9166V92.9245Z" fill="#D4D0C8" stroke="#C2BEB6" stroke-width="0.650517" stroke-miterlimit="10"/>
<path d="M87.0345 142.562C82.695 143.792 81.5289 145.672 81.1243 147.608H96.459L96.6732 141.491C93.4524 141.277 89.8348 141.761 87.0424 142.562H87.0345Z" fill="#D5D0C8"/>
<path d="M87.0345 142.562C82.695 143.792 81.5289 145.672 81.1243 147.608H96.459L96.6732 141.491C93.4524 141.277 89.8348 141.761 87.0424 142.562H87.0345Z" stroke="#C2BEB6" stroke-width="0.650517" stroke-miterlimit="10"/>
<path d="M66.2813 143.283L65.4246 147.615H76.4992C76.9197 146.068 77.7051 144.568 79.5138 143.275H66.2813V143.283Z" fill="#DBCCAF"/>
<path d="M66.2813 143.283L65.4246 147.615H76.4992C76.9197 146.068 77.7051 144.568 79.5138 143.275H66.2813V143.283Z" fill="#D5D0C8"/>
<path d="M78.427 141.19H84.0357C84.599 141.015 85.2019 140.849 85.8524 140.698C89.1843 139.913 93.0954 139.476 96.7446 139.611L96.816 137.564L78.9109 137.588L78.427 141.198V141.19Z" fill="#DBCCAF"/>
<path d="M78.427 141.19H84.0357C84.599 141.015 85.2019 140.849 85.8524 140.698C89.1843 139.913 93.0954 139.476 96.7446 139.611L96.816 137.564L78.9109 137.588L78.427 141.198V141.19Z" fill="#D5D0C8"/>
<path d="M73.7941 141.19L74.3653 137.588L67.408 137.596L66.694 141.197L73.7941 141.19Z" fill="#D5D0C8"/>
<path d="M73.7941 141.19L74.3653 137.588L67.408 137.596L66.694 141.197L73.7941 141.19Z" stroke="#C2BEB6" stroke-width="0.650517" stroke-miterlimit="10"/>
<path d="M96.8714 135.859L96.9428 133.796L68.1456 133.843L67.741 135.898L96.8714 135.859Z" fill="#DBCCAF"/>
<path d="M96.8714 135.859L96.9428 133.796L68.1456 133.843L67.741 135.898L96.8714 135.859Z" fill="#D5D0C8"/>
<path d="M152.078 132.304L159.139 132.296L154.768 118.397L148.262 118.421L152.078 132.304Z" fill="#D5D0C8"/>
<path d="M152.078 132.304L159.139 132.296L154.768 118.397L148.262 118.421L152.078 132.304Z" stroke="#C2BEB6" stroke-width="0.650517" stroke-miterlimit="10"/>
<path d="M132.777 129.687C131.357 129.052 129.532 128.679 127.628 128.481C126.978 128.417 126.272 128.354 125.534 128.322L126.058 132.352L134.657 132.336C134.498 131.384 134.157 130.29 132.785 129.687H132.777Z" fill="#8ABC6F" stroke="#84AC61" stroke-width="0.594985" stroke-miterlimit="10"/>
<path d="M128.977 126.72C131.508 127.053 134.602 127.64 136.212 128.671C137.957 129.782 138.584 131.051 138.933 132.321L147.08 132.305L143.653 118.43L135.157 118.461C135.173 121.23 130.905 123.467 124.971 123.864L125.296 126.41C126.557 126.458 127.803 126.561 128.977 126.72Z" fill="#D5D0C8"/>
<path d="M128.977 126.72C131.508 127.053 134.602 127.64 136.212 128.671C137.957 129.782 138.584 131.051 138.933 132.321L147.08 132.305L143.653 118.43L135.157 118.461C135.173 121.23 130.905 123.467 124.971 123.864L125.296 126.41C126.557 126.458 127.803 126.561 128.977 126.72Z" stroke="#C2BEB6" stroke-width="0.650517" stroke-miterlimit="10"/>
<path d="M144.685 122.61L143.653 118.438L135.157 118.469C135.165 120.159 133.594 121.65 131.016 122.65L144.685 122.61Z" fill="#8ABC6F" stroke="#84AC61" stroke-width="0.594985" stroke-miterlimit="10"/>
<path d="M162.963 132.289L167.857 132.281L162.804 118.374L158.29 118.39L162.963 132.289Z" fill="#D5D0C8"/>
<path d="M162.963 132.289L167.857 132.281L162.804 118.374L158.29 118.39L162.963 132.289Z" stroke="#C2BEB6" stroke-width="0.650517" stroke-miterlimit="10"/>
<path d="M108.271 129.307C106.169 128.601 103.17 128.593 100.981 129.196L100.941 132.393L110.064 132.377C110.033 131.354 110.35 129.997 108.271 129.307Z" fill="#D4D0C8"/>
<path d="M108.271 129.307C106.169 128.601 103.17 128.593 100.981 129.196L100.941 132.393L110.064 132.377C110.033 131.354 110.35 129.997 108.271 129.307Z" stroke="#C2BEB6" stroke-width="0.650517" stroke-miterlimit="10"/>
<path d="M108.97 122.23C111.294 123.015 112.064 124.332 114.182 125.189C116.308 126.038 119.164 126.276 121.909 126.307L121.647 123.904C115.467 123.602 110.517 121.365 109.858 118.557L101.108 118.588L101.068 121.547C103.813 121.294 106.772 121.492 108.962 122.238L108.97 122.23Z" fill="#D5D0C8"/>
<path d="M108.97 122.23C111.294 123.015 112.064 124.332 114.182 125.189C116.308 126.038 119.164 126.276 121.909 126.307L121.647 123.904C115.467 123.602 110.517 121.365 109.858 118.557L101.108 118.588L101.068 121.547C103.813 121.294 106.772 121.492 108.962 122.238L108.97 122.23Z" fill="#D4D0C8"/>
<path d="M109.422 125.474C108.2 124.633 107.026 123.427 104.487 123.348C103.448 123.316 102.203 123.332 101.052 123.467L101.005 127.132C104.265 126.648 108.065 126.91 110.842 127.846C114.166 128.957 114.301 130.694 114.412 132.376L122.575 132.36L122.115 128.179C117.085 128.124 112.302 127.418 109.422 125.474Z" fill="#D4D0C8"/>
<path d="M109.422 125.474C108.2 124.633 107.026 123.427 104.487 123.348C103.448 123.316 102.203 123.332 101.052 123.467L101.005 127.132C104.265 126.648 108.065 126.91 110.842 127.846C114.166 128.957 114.301 130.694 114.412 132.376L122.575 132.36L122.115 128.179C117.085 128.124 112.302 127.418 109.422 125.474Z" stroke="#C2BEB6" stroke-width="0.650517" stroke-miterlimit="10"/>
<path d="M152.158 113.518C149.032 112.899 146.85 111.559 145.486 110.115C143.36 107.83 142.741 105.41 142.201 103.015L130.794 103.078C131.333 105.085 131.135 107.806 134.332 109.321C137.449 110.773 141.884 110.757 144.788 112.487C146.961 113.764 148.112 115.343 148.31 116.89L162.248 116.842L161.193 113.931C158.211 113.97 155.14 114.097 152.158 113.518Z" fill="#DBCCAF"/>
<path d="M152.158 113.518C149.032 112.899 146.85 111.559 145.486 110.115C143.36 107.83 142.741 105.41 142.201 103.015L130.794 103.078C131.333 105.085 131.135 107.806 134.332 109.321C137.449 110.773 141.884 110.757 144.788 112.487C146.961 113.764 148.112 115.343 148.31 116.89L162.248 116.842L161.193 113.931C158.211 113.97 155.14 114.097 152.158 113.518Z" fill="#D5D0C8"/>
<path d="M132.467 103.07C132.523 104.681 133.332 106.362 135.585 107.314C137.751 108.219 140.44 107.671 142.884 107.814C143.217 107.83 143.542 107.862 143.859 107.901C142.971 106.299 142.566 104.649 142.201 103.015L132.467 103.07Z" fill="#8ABC6F"/>
<path d="M132.467 103.07C132.523 104.681 133.332 106.362 135.585 107.314C137.751 108.219 140.44 107.671 142.884 107.814C143.217 107.83 143.542 107.862 143.859 107.901C142.971 106.299 142.566 104.649 142.201 103.015L132.467 103.07Z" stroke="#84AC61" stroke-width="0.594985" stroke-miterlimit="10"/>
<path d="M147.334 111.646C146.937 111.543 146.604 111.36 146.406 111.091C144.97 109.107 141.178 109.837 138.14 109.702C136.339 109.631 134.609 109.25 133.229 108.655C133.546 108.893 133.903 109.115 134.332 109.322C137.449 110.773 141.884 110.758 144.788 112.487C146.961 113.764 148.112 115.343 148.31 116.89L162.248 116.842L161.193 113.931C158.21 113.97 155.14 114.097 152.157 113.518C150.19 113.13 148.588 112.455 147.334 111.646Z" fill="#8ABC6F"/>
<path d="M147.334 111.646C146.937 111.543 146.604 111.36 146.406 111.091C144.97 109.107 141.178 109.837 138.14 109.702C136.339 109.631 134.609 109.25 133.229 108.655C133.546 108.893 133.903 109.115 134.332 109.322C137.449 110.773 141.884 110.758 144.788 112.487C146.961 113.764 148.112 115.343 148.31 116.89L162.248 116.842L161.193 113.931C158.21 113.97 155.14 114.097 152.157 113.518C150.19 113.13 148.588 112.455 147.334 111.646Z" stroke="#84AC61" stroke-width="0.594985" stroke-miterlimit="10"/>
<path d="M148.334 108.862C149.31 110.028 150.857 111.511 153.617 111.876C155.934 112.178 158.226 112.082 160.503 112.051L157.195 102.936L145.811 102.999C146.271 104.974 146.779 106.974 148.342 108.862H148.334Z" fill="#D5D0C8"/>
<path d="M148.334 108.862C149.31 110.028 150.857 111.511 153.617 111.876C155.934 112.178 158.226 112.082 160.503 112.051L157.195 102.936L145.811 102.999C146.271 104.974 146.779 106.974 148.342 108.862H148.334Z" stroke="#C2BEB6" stroke-width="0.650517" stroke-miterlimit="10"/>
<path d="M134.728 116.939L144.32 116.907C144.216 115.257 142.765 113.337 139.385 112.631C135.466 111.806 131.968 111.219 129.802 109.275C127.708 107.356 127.787 105.182 127.176 103.104L122.281 103.127L123.44 112.084C128.763 112.417 133.34 114.4 134.728 116.947V116.939Z" fill="#D5D0C8"/>
<path d="M134.728 116.939L144.32 116.907C144.216 115.257 142.765 113.337 139.385 112.631C135.466 111.806 131.968 111.219 129.802 109.275C127.708 107.356 127.787 105.182 127.176 103.104L122.281 103.127L123.44 112.084C128.763 112.417 133.34 114.4 134.728 116.947V116.939Z" stroke="#C2BEB6" stroke-width="0.650517" stroke-miterlimit="10"/>
<path d="M109.929 117.025C110.731 114.43 114.975 112.392 120.362 112.074L119.386 103.142L101.314 103.245L101.14 117.064L109.929 117.033V117.025Z" fill="#DBCCAF"/>
<path d="M109.929 117.025C110.731 114.43 114.975 112.392 120.362 112.074L119.386 103.142L101.314 103.245L101.14 117.064L109.929 117.033V117.025Z" fill="#D5D0C8"/>
<path d="M113.531 118.113C113.388 115.797 117.157 113.909 121.956 113.893C126.756 113.877 130.976 115.733 131.373 118.058C131.777 120.374 128.001 122.262 122.948 122.278C117.894 122.294 113.674 120.43 113.531 118.113Z" stroke="#C2BEB6" stroke-width="0.650517" stroke-miterlimit="10"/>
<path d="M103.155 142.562L121.345 142.546L121.718 146.401H103.155V142.562Z" fill="#8ABC6F"/>
<path d="M103.155 142.562L121.345 142.546L121.718 146.401H103.155V142.562Z" stroke="#84AC61" stroke-width="0.594985" stroke-miterlimit="10"/>
<path d="M117.363 117.811C117.26 116.652 119.148 115.708 121.575 115.7H122.773C125.201 115.685 127.311 116.621 127.485 117.779L127.573 118.35C127.747 119.508 125.859 120.452 123.36 120.46H122.123C119.624 120.468 117.514 119.54 117.41 118.382L117.363 117.811Z" fill="#8ABC6F" stroke="#84AC61" stroke-width="0.594985" stroke-miterlimit="10"/>
<path d="M116.427 109.862C116.094 109.362 114.388 109.092 113.087 108.783C110.263 108.125 112.357 106.839 110.326 106.046C109.366 105.578 105.63 105.689 105.074 106.355C103.765 107.506 107.573 108.244 107.224 109.299C107.058 110.346 103.781 111.123 103.194 112.17C102.798 113.122 103.591 114.455 106.161 114.154C107.899 113.94 108.652 112.908 109.85 112.377C111.413 111.679 113.817 111.655 115.348 110.957C116.363 110.489 116.609 110.14 116.427 109.862Z" fill="#52C6DA" stroke="#4EB8BF" stroke-width="0.594985" stroke-miterlimit="10"/>
<path d="M64.187 109.909C63.0446 111.028 61.934 112.226 61.2359 113.408C60.4981 114.661 60.276 115.954 59.4906 117.208L67.4475 117.176L69.8989 106.125C67.4079 107.021 65.4325 108.672 64.1791 109.909H64.187Z" fill="#8ABC6F"/>
<path d="M64.187 109.909C63.0446 111.028 61.934 112.226 61.2359 113.408C60.4981 114.661 60.276 115.954 59.4906 117.208L67.4475 117.176L69.8989 106.125C67.4079 107.021 65.4325 108.672 64.1791 109.909H64.187Z" stroke="#84AC61" stroke-width="0.594985" stroke-miterlimit="10"/>
<path d="M38.801 113.599C36.6511 114.654 35.2707 115.947 34.3346 117.295L55.4526 117.224C56.7616 115.598 56.9837 113.821 58.2213 112.179C58.2609 112.123 58.3085 112.075 58.3482 112.02C52.9695 110.767 43.8464 111.068 38.801 113.607V113.599Z" fill="#D5D0C8"/>
<path d="M38.801 113.599C36.6511 114.654 35.2707 115.947 34.3346 117.295L55.4526 117.224C56.7616 115.598 56.9837 113.821 58.2213 112.179C58.2609 112.123 58.3085 112.075 58.3482 112.02C52.9695 110.767 43.8464 111.068 38.801 113.607V113.599Z" stroke="#C2BEB6" stroke-width="0.650517" stroke-miterlimit="10"/>
<path d="M42.4581 110.418C44.7191 109.926 47.1307 109.624 49.5186 109.497L51.6209 103.508L45.1713 103.547L42.4581 110.418Z" fill="#D5D0C8"/>
<path d="M42.4581 110.418C44.7191 109.926 47.1307 109.624 49.5186 109.497L51.6209 103.508L45.1713 103.547L42.4581 110.418Z" stroke="#C2BEB6" stroke-width="0.650517" stroke-miterlimit="10"/>
<path d="M30.384 117.311C31.7326 115.312 33.8666 113.385 37.3651 111.957C37.4444 111.925 37.5317 111.893 37.611 111.861L41.1175 103.571L35.596 103.603L29.2733 117.311H30.384Z" fill="#DBCCAF"/>
<path d="M30.384 117.311C31.7326 115.312 33.8666 113.385 37.3651 111.957C37.4444 111.925 37.5317 111.893 37.611 111.861L41.1175 103.571L35.596 103.603L29.2733 117.311H30.384Z" fill="#D5D0C8"/>
<path d="M53.5487 109.466C55.8255 109.537 57.9992 109.783 59.9031 110.196C60.5457 109.513 61.2597 108.855 62.0451 108.204C63.481 107.014 65.2818 105.824 67.3841 104.96C66.6622 104.547 66.1703 104.024 65.9958 103.437L55.4923 103.492L53.5566 109.466H53.5487Z" fill="#D5D0C8"/>
<path d="M53.5487 109.466C55.8255 109.537 57.9992 109.783 59.9031 110.196C60.5457 109.513 61.2597 108.855 62.0451 108.204C63.481 107.014 65.2818 105.824 67.3841 104.96C66.6622 104.547 66.1703 104.024 65.9958 103.437L55.4923 103.492L53.5566 109.466H53.5487Z" stroke="#C2BEB6" stroke-width="0.650517" stroke-miterlimit="10"/>
<path d="M39.7688 94.5593L36.2941 102.096L42.4264 102.064C43.7353 99.7237 46.0122 97.4072 50.3436 95.9476C52.9061 95.0749 55.762 94.6465 58.1023 94.9083C57.8087 94.1864 57.4121 93.4962 56.9202 92.8457C51.5892 94.2975 44.8143 95.2256 39.7608 94.5593H39.7688Z" fill="#DBCCAF"/>
<path d="M39.7688 94.5593L36.2941 102.096L42.4264 102.064C43.7353 99.7237 46.0122 97.4072 50.3436 95.9476C52.9061 95.0749 55.762 94.6465 58.1023 94.9083C57.8087 94.1864 57.4121 93.4962 56.9202 92.8457C51.5892 94.2975 44.8143 95.2256 39.7608 94.5593H39.7688Z" fill="#D5D0C8"/>
<path d="M55.532 91.3139C55.1829 90.9966 54.8021 90.6951 54.3975 90.4175C53.0806 89.4972 51.4305 88.8229 49.5821 88.3311L42.6168 88.3866L40.6573 92.6308C44.735 93.4479 50.8276 92.5753 55.532 91.3139Z" fill="#DBCCAF"/>
<path d="M55.532 91.3139C55.1829 90.9966 54.8021 90.6951 54.3975 90.4175C53.0806 89.4972 51.4305 88.8229 49.5821 88.3311L42.6168 88.3866L40.6573 92.6308C44.735 93.4479 50.8276 92.5753 55.532 91.3139Z" fill="#D5D0C8"/>
<path d="M58.6338 97.3362C57.2138 96.0035 52.9458 96.8285 50.7959 97.8281C48.1542 99.0419 46.8531 100.486 46.0201 102.041L57.8008 101.969C58.5783 100.486 58.8718 98.9308 58.729 97.4156C58.6973 97.3918 58.6656 97.368 58.6338 97.3362Z" fill="#D5D0C8"/>
<path d="M58.6338 97.3362C57.2138 96.0035 52.9458 96.8285 50.7959 97.8281C48.1542 99.0419 46.8531 100.486 46.0201 102.041L57.8008 101.969C58.5783 100.486 58.8718 98.9308 58.729 97.4156C58.6973 97.3918 58.6656 97.368 58.6338 97.3362Z" stroke="#C2BEB6" stroke-width="0.650517" stroke-miterlimit="10"/>
<path d="M62.164 96.749C62.4417 98.4546 62.2116 100.224 61.4025 101.945L66.202 101.921C66.9398 100.597 69.0024 99.5097 71.4537 99.1052L71.9932 96.6855L62.1561 96.749H62.164Z" fill="#8ABC6F"/>
<path d="M62.164 96.749C62.4417 98.4546 62.2116 100.224 61.4025 101.945L66.202 101.921C66.9398 100.597 69.0024 99.5097 71.4537 99.1052L71.9932 96.6855L62.1561 96.749H62.164Z" stroke="#84AC61" stroke-width="0.594985" stroke-miterlimit="10"/>
<path d="M57.4755 89.2912C57.8722 89.6006 58.2292 89.9258 58.5783 90.2669L73.4529 90.148L73.9051 88.125L55.9286 88.2678C56.4918 88.5772 57.0154 88.9104 57.4755 89.2832V89.2912Z" fill="#DBCCAF"/>
<path d="M57.4755 89.2912C57.8722 89.6006 58.2292 89.9258 58.5783 90.2669L73.4529 90.148L73.9051 88.125L55.9286 88.2678C56.4918 88.5772 57.0154 88.9104 57.4755 89.2832V89.2912Z" fill="#D5D0C8"/>
<path d="M60.3395 92.3295C60.9027 93.1386 61.3549 93.9875 61.6722 94.868L72.4216 94.7967L72.9928 92.2422L60.3395 92.3374V92.3295Z" fill="#DBCCAF"/>
<path d="M60.3395 92.3295C60.9027 93.1386 61.3549 93.9875 61.6722 94.868L72.4216 94.7967L72.9928 92.2422L60.3395 92.3374V92.3295Z" fill="#D5D0C8"/>
<path d="M68.701 102.524C68.9707 101.374 70.9699 100.43 73.1674 100.414C75.3648 100.398 76.9753 101.327 76.7611 102.477C76.5548 103.627 74.5557 104.571 72.2947 104.587C70.0338 104.595 68.4233 103.675 68.6931 102.524H68.701Z" fill="#D5D0C8"/>
<path d="M124.566 94.4564C125.978 95.5512 128.493 95.7812 130.667 96.0113C132.928 96.2572 134.879 96.8681 135.68 98.1056C136.386 99.2004 136.061 100.43 135.791 101.525H137.664C137.933 100.2 138.092 98.8117 137.092 97.5027C135.871 95.8843 132.705 95.2338 129.889 94.98C128.057 94.8134 126.089 94.4167 125.423 93.3616C125.121 92.8856 125.28 92.362 125.661 91.886C125.938 92.2668 126.454 92.608 127.152 92.7349C127.66 92.8222 128.152 92.8301 128.66 92.8222C129.532 92.8063 129.81 92.7746 129.857 93.3457C129.873 93.5441 130.214 93.7662 130.579 93.8059C135.062 94.2105 135.411 91.1562 132.293 89.7838C130.548 89.0063 128.628 89.1332 127.057 89.6648C126.518 89.7203 126.089 89.9186 125.804 90.1963C125.09 90.5691 124.503 91.0213 124.138 91.4656C123.352 92.4176 123.384 93.5361 124.55 94.4564H124.566Z" fill="#52C6DA" stroke="#4EB8BF" stroke-width="0.594985" stroke-miterlimit="10"/>
<path d="M37.5714 143.046C37.7697 143.974 38.1029 144.887 38.5155 145.799C38.8486 146.513 39.166 147.251 38.8645 147.996H41.0223C41.2841 147.282 41.0779 146.576 40.7843 145.878C40.2369 144.53 39.7372 143.205 39.4754 141.832C39.0311 139.302 39.2453 136.739 39.5547 134.169C39.8165 132.091 40.3559 129.536 44.5446 127.918C48.7968 126.244 55.3258 126.545 60.0936 126.577C68.2647 126.633 75.8805 125.688 80.3072 122.246C85.2416 118.247 84.0358 113.654 85.9635 109.386C86.7569 107.585 88.518 105.911 89.1051 104.087C89.6366 102.397 89.3748 100.771 87.812 99.3187C86.5823 98.1446 83.7661 97.5893 83.2028 96.2407C82.8934 95.4791 83.0997 94.4081 83.7819 93.6624C84.3928 92.9881 85.6621 92.5201 86.7172 92.0996C89.5017 90.9572 91.4612 89.5927 92.6194 87.9902L91.0883 88.0061C90.6917 88.5138 90.2157 89.0057 89.6287 89.4817C87.6692 91.0286 83.9168 91.7029 82.354 93.4244C80.8943 95.0031 81.2275 97.0499 83.4646 98.1526C85.0512 98.9221 86.4554 99.6123 87.217 100.747C88.0976 102.048 87.7485 103.523 87.09 104.88C86.4792 106.117 85.3765 107.292 84.6625 108.521C83.8851 109.846 83.536 111.211 83.2504 112.559C82.4412 116.367 82.0604 121.071 75.0555 123.927C70.01 125.934 63.3382 125.744 57.3567 125.72C51.4306 125.696 44.1004 126.053 40.5146 128.862C37.0002 131.543 37.4128 134.78 37.1827 137.549C37.0399 139.405 37.1986 141.245 37.5714 143.07V143.046Z" fill="#52C6DA" stroke="#4EB8BF" stroke-width="0.594985" stroke-miterlimit="10"/>
<path d="M45.0444 145.347C44.4653 145.569 43.9337 145.799 43.426 146.029C43.6085 146.553 43.7037 147.084 43.6244 147.616H60.6885L61.6405 143.324C55.9445 142.951 49.717 143.546 45.0444 145.339V145.347Z" fill="#DBCCAF"/>
<path d="M45.0444 145.347C44.4653 145.569 43.9337 145.799 43.426 146.029C43.6085 146.553 43.7037 147.084 43.6244 147.616H60.6885L61.6405 143.324C55.9445 142.951 49.717 143.546 45.0444 145.339V145.347Z" fill="#D5D0C8"/>
<path d="M46.5913 137.811C44.8381 137.684 43.188 137.486 41.649 137.216C41.5934 138.676 41.649 140.127 41.9187 141.563C42.0694 142.349 42.3074 143.118 42.5851 143.88C42.593 143.88 42.6089 143.88 42.6168 143.864C48.3683 141.865 55.3495 141.079 62.053 141.436L62.8066 138.049C57.3724 138.049 51.8351 138.192 46.5834 137.803L46.5913 137.811Z" fill="#D5D0C8"/>
<path d="M46.5913 137.811C44.8381 137.684 43.188 137.486 41.649 137.216C41.5934 138.676 41.649 140.127 41.9187 141.563C42.0694 142.349 42.3074 143.118 42.5851 143.88C42.593 143.88 42.6089 143.88 42.6168 143.864C48.3683 141.865 55.3495 141.079 62.053 141.436L62.8066 138.049C57.3724 138.049 51.8351 138.192 46.5834 137.803L46.5913 137.811Z" stroke="#C2BEB6" stroke-width="0.650517" stroke-miterlimit="10"/>
<path d="M41.7996 135.042C43.8622 135.557 46.2263 135.89 48.9156 136.049C53.5803 136.319 58.4433 136.192 63.227 136.192L63.7505 133.852L41.9265 133.883C41.9186 133.978 41.9027 134.074 41.8948 134.161C41.863 134.454 41.8313 134.748 41.7996 135.042Z" fill="#DBCCAF"/>
<path d="M41.7996 135.042C43.8622 135.557 46.2263 135.89 48.9156 136.049C53.5803 136.319 58.4433 136.192 63.227 136.192L63.7505 133.852L41.9265 133.883C41.9186 133.978 41.9027 134.074 41.8948 134.161C41.863 134.454 41.8313 134.748 41.7996 135.042Z" fill="#D5D0C8"/>
<path d="M35.1121 143.316C34.7392 141.404 34.6281 139.476 34.8027 137.533C34.8185 137.398 34.8265 137.255 34.8344 137.112C31.7643 137.81 29.9635 139.064 28.7894 140.365C26.6395 142.729 26.0048 145.188 25.6954 147.616H36.4607C36.5242 147.084 36.2544 146.561 36.0244 146.061C35.6198 145.149 35.3025 144.236 35.12 143.308L35.1121 143.316Z" fill="#D5D0C8"/>
<path d="M35.1121 143.316C34.7392 141.404 34.6281 139.476 34.8027 137.533C34.8185 137.398 34.8265 137.255 34.8344 137.112C31.7643 137.81 29.9635 139.064 28.7894 140.365C26.6395 142.729 26.0048 145.188 25.6954 147.616H36.4607C36.5242 147.084 36.2544 146.561 36.0244 146.061C35.6198 145.149 35.3025 144.236 35.12 143.308L35.1121 143.316Z" stroke="#C2BEB6" stroke-width="0.650517" stroke-miterlimit="10"/>
<path d="M20.9594 147.624C21.3719 144.76 22.2208 141.817 25.4099 139.127C27.4249 137.406 30.4792 135.907 34.8345 135.209C34.8821 135.209 34.9297 135.193 34.9773 135.185C35.0169 134.756 35.0645 134.328 35.1439 133.892L21.6099 133.915L15.2872 147.624H20.9515H20.9594Z" fill="#DBCCAF"/>
<path d="M20.9594 147.624C21.3719 144.76 22.2208 141.817 25.4099 139.127C27.4249 137.406 30.4792 135.907 34.8345 135.209C34.8821 135.209 34.9297 135.193 34.9773 135.185C35.0169 134.756 35.0645 134.328 35.1439 133.892L21.6099 133.915L15.2872 147.624H20.9515H20.9594Z" fill="#D5D0C8"/>
<path d="M56.2539 129.099C57.1741 130.146 57.0631 131.312 56.5712 132.471L64.0601 132.455L65.1628 127.473C63.4096 127.552 61.6326 127.576 59.8397 127.56C57.8246 127.544 55.286 127.449 52.795 127.528C54.3103 127.893 55.6272 128.377 56.2539 129.091V129.099Z" fill="#DBCCAF"/>
<path d="M56.2539 129.099C57.1741 130.146 57.0631 131.312 56.5712 132.471L64.0601 132.455L65.1628 127.473C63.4096 127.552 61.6326 127.576 59.8397 127.56C57.8246 127.544 55.286 127.449 52.795 127.528C54.3103 127.893 55.6272 128.377 56.2539 129.091V129.099Z" fill="#D5D0C8"/>
<path d="M52.2953 130.052C51.4226 129.211 49.0665 128.909 47.2022 128.592C46.9166 128.544 46.6945 128.473 46.52 128.394C46.3137 128.457 46.1074 128.528 45.9091 128.608C43.3626 129.599 42.5137 131.083 42.1567 132.495L52.3032 132.479C52.7633 131.614 52.9934 130.718 52.2953 130.052Z" fill="#8ABC6F"/>
<path d="M52.2953 130.052C51.4226 129.211 49.0665 128.909 47.2022 128.592C46.9166 128.544 46.6945 128.473 46.52 128.394C46.3137 128.457 46.1074 128.528 45.9091 128.608C43.3626 129.599 42.5137 131.083 42.1567 132.495L52.3032 132.479C52.7633 131.614 52.9934 130.718 52.2953 130.052Z" stroke="#84AC61" stroke-width="0.594985" stroke-miterlimit="10"/>
<path d="M57.1185 124.254H57.3131C60.0796 124.261 63.0915 124.327 66.0187 124.196L67.4316 118.724L58.8613 118.746L57.127 124.254H57.1185Z" stroke="#C2BEB6" stroke-width="0.650517" stroke-miterlimit="10"/>
<path d="M37.8173 124.903C35.2231 124.499 32.1292 124.34 29.1543 124.602C27.8929 124.713 26.7347 124.887 25.6796 125.117L22.2604 132.527L35.5087 132.503C35.9768 131.147 36.8177 129.806 38.436 128.576C39.5943 127.688 41.0222 126.99 42.6327 126.45C42.0774 125.641 39.3166 125.117 37.8252 124.887L37.8173 124.903Z" fill="#8ABC6F"/>
<path d="M37.8173 124.903C35.2231 124.499 32.1292 124.34 29.1543 124.602C27.8929 124.713 26.7347 124.887 25.6796 125.117L22.2604 132.527L35.5087 132.503C35.9768 131.147 36.8177 129.806 38.436 128.576C39.5943 127.688 41.0222 126.99 42.6327 126.45C42.0774 125.641 39.3166 125.117 37.8252 124.887L37.8173 124.903Z" stroke="#84AC61" stroke-width="0.594985" stroke-miterlimit="10"/>
<path d="M30.852 122.682C35.5643 122.492 44.7429 123.23 46.7024 125.451C48.3287 125.165 50.0423 124.983 51.7796 124.864L53.6518 118.731L28.5752 118.811L26.6078 123.071C28.004 122.865 29.432 122.73 30.852 122.674V122.682Z" fill="#D5D0C8"/>
<path d="M30.852 122.682C35.5643 122.492 44.7429 123.23 46.7024 125.451C48.3287 125.165 50.0423 124.983 51.7796 124.864L53.6518 118.731L28.5752 118.811L26.6078 123.071C28.004 122.865 29.432 122.73 30.852 122.674V122.682Z" stroke="#C2BEB6" stroke-width="0.650517" stroke-miterlimit="10"/>
<path d="M90.6123 130.512L90.4774 132.416L96.9905 132.4L97.054 130.504L90.6123 130.512Z" stroke="#C2BEB6" stroke-width="0.650517" stroke-miterlimit="10"/>
<path d="M90.6123 130.512L90.4774 132.416L96.9905 132.4L97.054 130.504L90.6123 130.512Z" fill="#D4D0C8"/>
<path d="M90.9058 126.396L90.7313 128.871L97.1175 128.855L97.2048 126.388L90.9058 126.396Z" fill="#D5D0C8"/>
<path d="M90.9058 126.396L90.7313 128.871L97.1175 128.855L97.2048 126.388L90.9058 126.396Z" stroke="#C2BEB6" stroke-width="0.650517" stroke-miterlimit="10"/>
<path d="M91.1914 122.476L91.0168 124.88L97.2523 124.864L97.3395 122.452L91.1914 122.476Z" fill="#D5D0C8"/>
<path d="M91.1914 122.476L91.0168 124.88L97.2523 124.864L97.3395 122.452L91.1914 122.476Z" fill="#D5D0C8"/>
<path d="M97.4031 120.62L97.4745 118.589L91.4691 118.613L91.3263 120.636L97.4031 120.62Z" stroke="#C2BEB6" stroke-width="0.650517" stroke-miterlimit="10"/>
<path d="M97.4031 120.62L97.4745 118.589L91.4691 118.613L91.3263 120.636L97.4031 120.62Z" stroke="#C2BEB6" stroke-width="0.650517" stroke-miterlimit="10"/>
<path d="M80.0375 132.431H86.6537L87.9468 118.619H85.3923C84.7577 120.031 83.7819 121.412 82.1318 122.736C81.8542 122.959 81.5448 123.181 81.2274 123.395L80.0454 132.423L80.0375 132.431Z" fill="#D5D0C8"/>
<path d="M80.0375 132.431H86.6537L87.9468 118.619H85.3923C84.7577 120.031 83.7819 121.412 82.1318 122.736C81.8542 122.959 81.5448 123.181 81.2274 123.395L80.0454 132.423L80.0375 132.431Z" fill="#D4D0C8"/>
<path d="M68.7802 130.616L68.4232 132.449L76.3643 132.441L76.6419 130.608L68.7802 130.616Z" fill="#DBCCAF"/>
<path d="M68.7802 130.616L68.4232 132.449L76.3643 132.441L76.6419 130.608L68.7802 130.616Z" fill="#D5D0C8"/>
<path d="M76.8959 128.894L77.4354 125.332C76.293 125.768 75.0396 126.149 73.683 126.443C72.2947 126.744 70.8905 126.966 69.4626 127.133L69.1135 128.91L76.8959 128.894Z" fill="#D5D0C8"/>
<path d="M76.8959 128.894L77.4354 125.332C76.293 125.768 75.0396 126.149 73.683 126.443C72.2947 126.744 70.8905 126.966 69.4626 127.133L69.1135 128.91L76.8959 128.894Z" stroke="#C2BEB6" stroke-width="0.650517" stroke-miterlimit="10"/>
<path d="M73.6196 123.214C76.6421 121.992 78.316 120.382 79.3235 118.652L71.1365 118.684L70.0497 124.198C71.319 123.975 72.5248 123.658 73.6196 123.222V123.214Z" fill="#D5D0C8"/>
<path d="M73.6196 123.214C76.6421 121.992 78.316 120.382 79.3235 118.652L71.1365 118.684L70.0497 124.198C71.319 123.975 72.5248 123.658 73.6196 123.222V123.214Z" stroke="#C2BEB6" stroke-width="0.650517" stroke-miterlimit="10"/>
<path d="M91.0485 104.071C90.4615 105.991 88.6844 107.744 87.8753 109.64C86.8043 112.107 86.7012 114.638 85.9554 117.113L97.5299 117.073L98.0138 103.262L91.223 103.301C91.1834 103.563 91.1278 103.817 91.0485 104.079V104.071Z" fill="#D5D0C8"/>
<path d="M91.0485 104.071C90.4615 105.991 88.6844 107.744 87.8753 109.64C86.8043 112.107 86.7012 114.638 85.9554 117.113L97.5299 117.073L98.0138 103.262L91.223 103.301C91.1834 103.563 91.1278 103.817 91.0485 104.079V104.071Z" stroke="#C2BEB6" stroke-width="0.650517" stroke-miterlimit="10"/>
<path d="M81.1956 112.551C81.5129 111.115 81.9255 109.656 82.7664 108.252C83.4883 107.022 84.6069 105.848 85.2336 104.61C85.4399 104.19 85.6144 103.761 85.7096 103.333L79.0854 103.373C78.2128 104.586 76.1422 105.53 73.6591 105.848L71.422 117.176L80.0294 117.145C80.6244 115.582 80.8624 113.995 81.1798 112.559L81.1956 112.551Z" stroke="#C2BEB6" stroke-width="0.650517" stroke-miterlimit="10"/>
<path d="M81.1956 112.551C81.5129 111.115 81.9255 109.656 82.7664 108.252C83.4883 107.022 84.6069 105.848 85.2336 104.61C85.4399 104.19 85.6144 103.761 85.7096 103.333L79.0854 103.373C78.2128 104.586 76.1422 105.53 73.6591 105.848L71.422 117.176L80.0294 117.145C80.6244 115.582 80.8624 113.995 81.1798 112.559L81.1956 112.551Z" stroke="#C2BEB6" stroke-width="0.650517" stroke-miterlimit="10"/>
<path d="M87.5184 92.9405C85.559 93.7338 84.4483 94.5985 85.0116 95.963C85.2258 96.4787 85.916 96.7405 86.6299 97.0657C87.7247 97.5655 88.756 98.1208 89.4859 98.8031C90.4854 99.7313 91.0328 100.739 91.2153 101.778L98.0695 101.738L98.5534 87.9268L94.4361 87.9585C93.1827 89.918 90.8742 91.5601 87.5184 92.9326V92.9405Z" fill="#8ABC6F"/>
<path d="M87.5184 92.9405C85.559 93.7338 84.4483 94.5985 85.0116 95.963C85.2258 96.4787 85.916 96.7405 86.6299 97.0657C87.7247 97.5655 88.756 98.1208 89.4859 98.8031C90.4854 99.7313 91.0328 100.739 91.2153 101.778L98.0695 101.738L98.5534 87.9268L94.4361 87.9585C93.1827 89.918 90.8742 91.5601 87.5184 92.9326V92.9405Z" stroke="#84AC61" stroke-width="0.594985" stroke-miterlimit="10"/>
<path d="M79.5138 101.841L85.7175 101.81C85.6461 101.532 85.5271 101.262 85.3526 101C84.7259 100.048 83.3693 99.4852 82.0445 98.8426C79.1886 97.4305 79.0299 94.884 80.8783 92.9087C82.5046 91.1316 86.1856 90.5287 88.1689 88.9659C88.5576 88.6565 88.8987 88.3312 89.1923 87.998L77.1656 88.0932L75.0078 99.0172C77.5147 99.3345 79.3076 100.437 79.5059 101.833L79.5138 101.841Z" fill="#D5D0C8"/>
<path d="M79.5138 101.841L85.7175 101.81C85.6461 101.532 85.5271 101.262 85.3526 101C84.7259 100.048 83.3693 99.4852 82.0445 98.8426C79.1886 97.4305 79.0299 94.884 80.8783 92.9087C82.5046 91.1316 86.1856 90.5287 88.1689 88.9659C88.5576 88.6565 88.8987 88.3312 89.1923 87.998L77.1656 88.0932L75.0078 99.0172C77.5147 99.3345 79.3076 100.437 79.5059 101.833L79.5138 101.841Z" stroke="#C2BEB6" stroke-width="0.650517" stroke-miterlimit="10"/>
<g filter="url(#filter0_b_4855_3911)">
<path d="M167.389 115.154L63.0685 91.3545L109.081 142.127L167.389 115.154Z" fill="#68B030" fill-opacity="0.5"/>
<path d="M167.389 115.154L63.0685 91.3545L109.081 142.127L167.389 115.154Z" stroke="white" stroke-width="0.793314" stroke-dasharray="1.59 1.59"/>
</g>
<path d="M215.258 149.631H9.03589V157.159H215.258V149.631Z" fill="#BDBDBA"/>
<g clip-path="url(#clip0_4855_3911)">
<path d="M120 119C119.517 119 119.125 118.608 119.125 118.123V89.2804C119.125 78.1781 125.241 68.1184 135.087 63.0274C135.517 62.8056 136.043 62.9739 136.265 63.4047C136.486 63.8356 136.318 64.3633 135.888 64.5851C126.627 69.3753 120.873 78.8384 120.873 89.2804V118.123C120.873 118.608 120.481 119 119.998 119H120Z" fill="#799662"/>
<path d="M166 49.0622C156.933 56.4093 158.388 64.9827 148.481 73.2935C142.548 78.2698 135.109 76.8728 130.538 70.6193C129.894 69.7398 129.337 68.8042 128.871 67.8303C128.617 67.3052 128.39 66.7698 128.192 66.2268C126.149 60.6259 127.037 54.2424 131.924 50.653C144.787 41.2103 166 49.0622 166 49.0622Z" fill="#007A49"/>
<path d="M131.443 66.357C131.443 66.357 130.189 58.8901 132.771 55.4893C132.771 55.4893 131.37 61.7734 133.583 64.5827L131.443 66.357Z" fill="#68B030" fill-opacity="0.52"/>
<path d="M135.323 62.8822C135.323 62.8822 134.723 55.3336 137.592 52.1699C137.592 52.1699 135.649 58.3087 137.61 61.2991L135.323 62.8796V62.8822Z" fill="#68B030" fill-opacity="0.52"/>
<path d="M139.808 60.5295C139.808 60.5295 140.648 53.0039 144.062 50.4443C144.062 50.4443 140.991 56.1013 142.35 59.4129L139.806 60.5295H139.808Z" fill="#68B030" fill-opacity="0.52"/>
<path d="M131.512 66.329C131.512 66.329 137.481 70.9764 141.691 70.3085C141.691 70.3085 135.504 68.5673 134.084 65.2812L131.51 66.329H131.512Z" fill="#68B030" fill-opacity="0.52"/>
<path d="M135.489 63.6289C135.489 63.6289 141.836 67.7359 145.975 66.7034C145.975 66.7034 139.661 65.5078 137.961 62.3594L135.489 63.6264V63.6289Z" fill="#68B030" fill-opacity="0.52"/>
<path d="M140.19 60.9729C140.19 60.9729 147.202 63.8001 151.069 62.0003C151.069 62.0003 144.642 62.0283 142.378 59.2598L140.19 60.9755V60.9729Z" fill="#68B030" fill-opacity="0.52"/>
<path d="M145.629 56.6794C145.629 56.6794 146.281 50.8414 148.929 48.8555C148.929 48.8555 146.548 53.2454 147.601 55.8126L145.627 56.6794H145.629Z" fill="#68B030" fill-opacity="0.52"/>
<path d="M145.927 57.0212C145.927 57.0212 151.366 59.2136 154.366 57.8166C154.366 57.8166 149.379 57.837 147.624 55.6904L145.927 57.0212Z" fill="#68B030" fill-opacity="0.52"/>
<path d="M151.623 54.329C151.623 54.329 152.094 50.115 154.007 48.6797C154.007 48.6797 152.287 51.8485 153.048 53.7019L151.623 54.329Z" fill="#68B030" fill-opacity="0.52"/>
<path d="M151.837 54.5763C151.837 54.5763 155.762 56.1595 157.93 55.1499C157.93 55.1499 154.33 55.1652 153.063 53.6152L151.837 54.5763Z" fill="#68B030" fill-opacity="0.52"/>
<path d="M156.93 52.5139C148.301 56.0804 134.425 64.7711 129.543 69.0973C129.301 68.6843 129.077 68.2611 128.871 67.8303C128.815 67.7181 128.764 67.6034 128.711 67.4887C130.835 65.3702 145.629 55.4864 156.638 51.8486C157.055 51.7109 157.337 52.3431 156.93 52.5114V52.5139Z" fill="#799662"/>
<path d="M120 100.754C119.517 100.754 119.125 100.361 119.125 99.8771C119.125 89.4325 113.373 79.9694 104.11 75.1817C103.68 74.96 103.512 74.4322 103.733 74.0014C103.954 73.5706 104.481 73.4023 104.911 73.6241C114.757 78.7151 120.873 88.7748 120.873 99.8771C120.873 100.361 120.481 100.754 119.998 100.754H120Z" fill="#799662"/>
<path d="M74 59.6618C83.0672 67.009 81.612 75.5823 91.5187 83.8932C97.4516 88.8694 104.891 87.4724 109.462 81.2189C110.106 80.3394 110.663 79.4038 111.129 78.4299C111.383 77.9048 111.61 77.3694 111.808 76.8264C113.851 71.2255 112.963 64.842 108.076 61.2526C95.2128 51.8099 74 59.6618 74 59.6618Z" fill="#007A49"/>
<path d="M108.559 76.9537C108.559 76.9537 109.813 69.4867 107.231 66.0859C107.231 66.0859 108.633 72.37 106.42 75.1794L108.559 76.9537Z" fill="#68B030" fill-opacity="0.52"/>
<path d="M104.677 73.4789C104.677 73.4789 105.277 65.9303 102.407 62.7666C102.407 62.7666 104.351 68.9054 102.39 71.8957L104.677 73.4763V73.4789Z" fill="#68B030" fill-opacity="0.52"/>
<path d="M100.192 71.1291C100.192 71.1291 99.3521 63.6035 95.9379 61.0439C95.9379 61.0439 99.0086 66.7009 97.65 70.0125L100.194 71.1291H100.192Z" fill="#68B030" fill-opacity="0.52"/>
<path d="M108.488 76.9257C108.488 76.9257 102.519 81.5731 98.309 80.9052C98.309 80.9052 104.496 79.164 105.916 75.8779L108.49 76.9257H108.488Z" fill="#68B030" fill-opacity="0.52"/>
<path d="M104.511 74.2286C104.511 74.2286 98.1639 78.3355 94.0247 77.303C94.0247 77.303 100.339 76.1074 102.039 72.959L104.511 74.226V74.2286Z" fill="#68B030" fill-opacity="0.52"/>
<path d="M99.81 71.5696C99.81 71.5696 92.7984 74.3968 88.9314 72.597C88.9314 72.597 95.3578 72.625 97.6221 69.8564L99.81 71.5721V71.5696Z" fill="#68B030" fill-opacity="0.52"/>
<path d="M94.3706 67.277C94.3706 67.277 93.7193 61.4391 91.0709 59.4531C91.0709 59.4531 93.4522 63.8431 92.3989 66.4102L94.3732 67.277H94.3706Z" fill="#68B030" fill-opacity="0.52"/>
<path d="M94.073 67.6179C94.073 67.6179 88.6337 69.8103 85.6342 68.4132C85.6342 68.4132 90.6206 68.4336 92.376 66.2871L94.073 67.6179Z" fill="#68B030" fill-opacity="0.52"/>
<path d="M88.3767 64.9257C88.3767 64.9257 87.9061 60.7116 85.9929 59.2764C85.9929 59.2764 87.7127 62.4452 86.952 64.2985L88.3767 64.9257Z" fill="#68B030" fill-opacity="0.52"/>
<path d="M88.1631 65.173C88.1631 65.173 84.2375 66.7561 82.0699 65.7466C82.0699 65.7466 85.6699 65.7619 86.9368 64.2119L88.1631 65.173Z" fill="#68B030" fill-opacity="0.52"/>
<path d="M83.0697 63.1106C91.6993 66.6771 105.575 75.3678 110.457 79.694C110.699 79.281 110.923 78.8578 111.129 78.427C111.185 78.3148 111.236 78.2001 111.289 78.0854C109.165 75.9669 94.3707 66.0831 83.3623 62.4452C82.9451 62.3076 82.6627 62.9398 83.0697 63.1081V63.1106Z" fill="#799662"/>
</g>
<defs>
<filter id="filter0_b_4855_3911" x="61.1355" y="89.8942" width="108.269" height="53.5085" filterUnits="userSpaceOnUse" color-interpolation-filters="sRGB">
<feFlood flood-opacity="0" result="BackgroundImageFix"/>
<feGaussianBlur in="BackgroundImageFix" stdDeviation="0.396657"/>
<feComposite in2="SourceAlpha" operator="in" result="effect1_backgroundBlur_4855_3911"/>
<feBlend mode="normal" in="SourceGraphic" in2="effect1_backgroundBlur_4855_3911" result="shape"/>
</filter>
<clipPath id="clip0_4855_3911">
<rect width="92" height="73" fill="white" transform="translate(74 46)"/>
</clipPath>
</defs>
</svg>
