<svg width="42" height="42" viewBox="0 0 42 42" fill="none" xmlns="http://www.w3.org/2000/svg">
<rect width="41.9998" height="41.8857" rx="8" fill="#828282" fill-opacity="0.1"/>
<path opacity="0.2" d="M22.4572 23.2965H19.6359L19.0462 12H23.0469L22.4572 23.2965ZM19 27.2509C19 26.5263 19.1966 26.0176 19.5897 25.7247C19.9905 25.4317 20.4723 25.2853 21.035 25.2853C21.5823 25.2853 22.0525 25.4317 22.4456 25.7247C22.8465 26.0176 23.0469 26.5263 23.0469 27.2509C23.0469 27.9447 22.8465 28.4457 22.4456 28.754C22.0525 29.0624 21.5823 29.2165 21.035 29.2165C20.4723 29.2165 19.9905 29.0624 19.5897 28.754C19.1966 28.4457 19 27.9447 19 27.2509Z" fill="black"/>
</svg>
