<svg width="30" height="30" viewBox="0 0 28 28" fill="none" xmlns="http://www.w3.org/2000/svg">
<g clip-path="url(#clip0_3564_2417)">
<path d="M17.0352 10.422L15.2834 10.8266V6.43353C15.2834 6.20231 15.0967 6 14.8526 6H13.1152C12.8855 6 12.6844 6.18786 12.6844 6.43353V10.841L10.9326 10.4364C10.4157 10.3064 10.028 10.8844 10.3008 11.3324L13.4742 16.3902C13.5316 16.5058 13.6321 16.578 13.747 16.6214C14.0342 16.737 14.3213 16.6358 14.4649 16.4046L17.6526 11.3468C17.9685 10.8699 17.5521 10.3064 17.0352 10.4364V10.422Z" fill="#3E3E3E"/>
<path d="M20.5549 15.3057H18.8318C18.602 15.3057 18.401 15.4935 18.401 15.7392V18.4271H9.57026V15.7392C9.57026 15.508 9.38359 15.3057 9.13949 15.3057H7.43077C7.20103 15.3057 7 15.4935 7 15.7392V20.5802C7 20.8114 7.18667 21.0138 7.43077 21.0138H20.5836C20.8133 21.0138 21.0144 20.8259 21.0144 20.5802V15.7392C21 15.508 20.8133 15.3057 20.5692 15.3057H20.5549Z" fill="#3E3E3E"/>
</g>
<defs>
<clipPath id="clip0_3564_2417">
<rect width="14" height="15" fill="white" transform="translate(7 6)"/>
</clipPath>
</defs>
</svg>
