<svg width="18" height="12" viewBox="0 0 18 12" fill="none" xmlns="http://www.w3.org/2000/svg">
<path d="M17.8239 5.1876C16.3806 2.03503 12.919 0 9 0C5.08097 0 1.61741 2.03503 0.176113 5.1876C-0.0587044 5.70293 -0.0587044 6.29505 0.176113 6.81239C1.61741 9.96295 5.08097 12 9 12C12.919 12 16.3826 9.96497 17.8239 6.81239C18.0587 6.29707 18.0587 5.70495 17.8239 5.1876ZM9 9.15864C7.25708 9.15864 5.83806 7.742 5.83806 6.00202C5.83806 4.26204 7.25708 2.8454 9 2.8454C10.7429 2.8454 12.1619 4.26204 12.1619 6.00202C12.1619 7.742 10.7429 9.15864 9 9.15864Z" fill="#007A49"/>
</svg>
