<svg  viewBox="0 0 22 22" fill="none" xmlns="http://www.w3.org/2000/svg">
<g clip-path="url(#clip0_2060_11436)">
<path d="M20.9265 9.93679H18.8025C18.3639 8.74091 17.2395 7.88672 15.8957 7.88672C14.5519 7.88672 13.43 8.74091 12.9889 9.93679H1.02503C0.46407 9.93679 0 10.4009 0 10.9873C0 11.5738 0.46407 12.0379 1.05053 12.0379H13.0144C13.4529 13.2337 14.5774 14.0879 15.9212 14.0879C17.265 14.0879 18.3869 13.2337 18.828 12.0379H20.952C21.5385 12.0379 22.0026 11.5738 22.0026 10.9873C21.9796 10.4009 21.5155 9.93679 20.9291 9.93679H20.9265Z" fill="white"/>
<path d="M20.9265 17.8489H8.76634C8.32777 16.653 7.20329 15.7988 5.85953 15.7988C4.51576 15.7988 3.39383 16.653 2.95271 17.8489H1.05053C0.46407 17.8489 0 18.313 0 18.8739C0 19.4349 0.46407 19.9245 1.05053 19.9245H2.97821C3.39383 21.1203 4.51576 21.9745 5.85953 21.9745C7.20329 21.9745 8.32522 21.1203 8.76634 19.9245H20.9265C21.513 19.9245 21.9771 19.4604 21.9771 18.8739C21.9771 18.313 21.513 17.8489 20.9265 17.8489Z" fill="white"/>
<path d="M1.05053 4.12538H8.08299C8.52156 5.32125 9.64604 6.17545 10.9898 6.17545C12.3336 6.17545 13.4555 5.32125 13.8966 4.12538H20.9291C21.5155 4.12538 21.9796 3.66131 21.9796 3.07485C21.9796 2.48838 21.5155 2.02431 20.9291 2.02431H13.8966C13.458 0.851388 12.3336 -0.00280762 10.9898 -0.00280762C9.64604 -0.00280762 8.52411 0.851388 8.08299 2.04726H1.05053C0.46407 2.04981 0 2.51388 0 3.10034C0 3.68681 0.46407 4.12538 1.05053 4.12538Z" fill="white"/>
</g>
<defs>
<clipPath id="clip0_2060_11436">
<rect width="22" height="21.9745" fill="white"/>
</clipPath>
</defs>
</svg>
