<svg width="105" height="98" viewBox="0 0 105 98" fill="none" xmlns="http://www.w3.org/2000/svg">
<g clip-path="url(#clip0_2080_12249)">
<path d="M44.8305 32.7143C44.3234 31.121 42.9454 30.1097 41.5101 30.2719L19.1188 32.8383C17.4155 33.0291 16.229 34.7941 16.4586 36.7785L23.1377 94.7561C23.3674 96.7406 24.9271 98.1812 26.6304 97.9904L97.6798 89.8619C99.3831 89.671 100.57 87.906 100.34 85.9216L94.7326 37.2269C94.5029 35.2425 92.9432 33.8019 91.2399 33.9927L52.5814 38.4195C49.2322 38.8011 46.0171 36.4446 44.8305 32.7238V32.7143Z" fill="#263238"/>
<path d="M55.5956 11.5822C60.4949 32.9147 63.6813 54.8674 65.0497 77.2303C47.395 79.3292 29.7403 80.9702 12.0856 82.1628C10.7268 57.6246 6.84181 33.697 0.660278 10.7426C13.1286 7.40343 25.5587 3.8162 37.9313 0C43.8736 3.67309 49.7681 7.53699 55.5956 11.5822Z" fill="#007A49"/>
<path opacity="0.7" d="M55.5956 11.5822C60.4949 32.9147 63.6813 54.8674 65.0497 77.2303C47.395 79.3292 29.7403 80.9702 12.0856 82.1628C10.7268 57.6246 6.84181 33.697 0.660278 10.7426C13.1286 7.40343 25.5587 3.8162 37.9313 0C43.8736 3.67309 49.7681 7.53699 55.5956 11.5822Z" fill="#FAFAFA"/>
<path d="M52.5813 22.6395C38.7829 26.0931 24.9366 29.2511 11.0617 32.1323C10.4684 32.2563 9.87513 31.8556 9.75074 31.245C9.62634 30.6344 10.0091 30.0334 10.6119 29.9093C24.4678 26.9518 38.2949 23.6985 52.0646 20.1685C52.6579 20.0159 53.2607 20.4452 53.3947 21.1321C53.5382 21.819 53.165 22.4964 52.5718 22.6395H52.5813Z" fill="#007A49"/>
<path d="M54.0741 30.3863C40.2087 33.5729 26.305 36.4827 12.3822 39.0968C11.7794 39.2113 11.2052 38.7915 11.0904 38.1809C10.9756 37.5608 11.3775 36.9693 11.9708 36.8548C25.884 34.1548 39.7685 31.1686 53.6052 27.8963C54.1985 27.7531 54.7918 28.2016 54.9257 28.8885C55.0501 29.5754 54.6674 30.2528 54.0741 30.3863Z" fill="#007A49"/>
<path d="M55.4138 38.1904C41.4909 41.1193 27.5394 43.762 13.5592 46.109C12.9564 46.2044 12.3822 45.7846 12.2865 45.1645C12.1908 44.5539 12.5927 43.9528 13.1956 43.8574C27.1567 41.4246 41.0986 38.696 55.0023 35.6812C55.5956 35.5572 56.1888 36.0056 56.2941 36.7021C56.4089 37.389 56.007 38.0568 55.4138 38.1904Z" fill="#007A49"/>
<path d="M56.6002 46.0422C42.62 48.704 28.6207 51.0892 14.5926 53.169C13.9897 53.2549 13.4252 52.8255 13.3391 52.2054C13.2529 51.5853 13.674 51.0033 14.2768 50.9079C28.2857 48.7327 42.2755 46.2712 56.2366 43.5235C56.8395 43.3995 57.4136 43.8765 57.5093 44.573C57.605 45.2695 57.1935 45.9373 56.6002 46.0422Z" fill="#007A49"/>
<path d="M40.8976 56.661C32.4387 57.9681 23.9701 59.1702 15.5016 60.2673C14.8988 60.3436 14.3438 59.8952 14.2672 59.2751C14.1907 58.655 14.6213 58.073 15.2241 57.9871C23.6831 56.8327 32.142 55.5829 40.601 54.2282C41.2038 54.1328 41.7684 54.6003 41.8449 55.2681C41.931 55.9359 41.5004 56.5656 40.8976 56.661Z" fill="#007A49"/>
<path d="M55.5956 11.5822C50.9929 12.8797 46.3807 14.139 41.7589 15.3697C40.5819 10.2083 39.3092 5.08509 37.9218 0C43.8641 3.67309 49.7585 7.53699 55.586 11.5822H55.5956Z" fill="#007A49"/>
<path d="M56.9065 42.9798C56.696 41.5392 55.519 40.6329 54.0932 40.7951L31.7019 43.3615C29.9986 43.5523 28.525 45.1742 28.391 46.9678L24.9558 94.9374C24.8314 96.7406 26.1041 98.0381 27.7978 97.8472L98.8472 89.7187C100.55 89.5279 102.024 87.9061 102.158 86.1124L104.99 46.5671C105.115 44.7639 103.842 43.4664 102.148 43.6572L63.4899 48.084C60.1408 48.4656 57.4136 46.3476 56.916 42.9798H56.9065Z" fill="#007A49"/>
</g>
<defs>
<clipPath id="clip0_2080_12249">
<rect width="105" height="98" fill="white"/>
</clipPath>
</defs>
</svg>
