<svg  viewBox="0 0 22 21" fill="none" xmlns="http://www.w3.org/2000/svg">
<g clip-path="url(#clip0_2060_11543)">
<path fill-rule="evenodd" clip-rule="evenodd" d="M16.9897 5.92645C16.9897 2.64774 14.2856 0 10.9844 0C7.68322 0 5.01028 2.64774 5.01028 5.92645C5.01028 9.20516 7.81589 13.4284 9.58354 15.8013C10.2781 16.7381 11.6907 16.7381 12.3891 15.8013C14.1646 13.4206 16.9936 9.12774 16.9936 5.92258L16.9897 5.92645ZM8.04611 5.56258C8.04611 3.97548 9.38063 2.64774 10.9844 2.64774C12.5881 2.64774 13.9539 3.97161 13.9539 5.56258C13.9539 7.15355 12.6194 8.50839 10.9844 8.50839C9.34941 8.50839 8.04611 7.18452 8.04611 5.56258Z" fill="white"/>
<path fill-rule="evenodd" clip-rule="evenodd" d="M13.392 15.9755C16.7946 16.2233 19.0227 16.9587 19.8734 17.52C18.8471 18.2245 15.7645 19.1729 10.9805 19.1729C6.19652 19.1729 3.15289 18.2245 2.08762 17.52C2.93828 16.9587 5.20539 16.2194 8.60411 15.9755C8.21391 15.4491 7.8237 14.8491 7.43349 14.2529C3.11777 14.7097 0 16.0103 0 17.52C0 19.4516 4.92444 21 10.9805 21C17.0365 21 21.9961 19.4555 21.9961 17.52C21.9961 16.0103 18.8783 14.7097 14.5548 14.2529C14.1646 14.8491 13.7744 15.4491 13.3842 15.9755H13.392Z" fill="white"/>
</g>
<defs>
<clipPath id="clip0_2060_11543">
<rect width="22" height="21" fill="white"/>
</clipPath>
</defs>
</svg>
