<svg  fill="none" xmlns="http://www.w3.org/2000/svg">
<circle cx="18" cy="18" r="17.5714" fill="white" stroke="white" stroke-width="0.857143"/>
<g clip-path="url(#clip0_2060_11330)">
<path d="M25.875 16.875H24.6488C24.1734 14.0484 21.9516 11.8259 19.125 11.3512V10.0934C19.125 9.47215 18.6212 9 18.0316 9C17.4421 9 16.875 9.50379 16.875 10.0934V11.3512C14.0484 11.8259 11.8259 14.0484 11.3512 16.875H10.0934C9.50379 16.875 9 17.3777 9 17.9684C9 18.559 9.50379 19.125 10.0934 19.125H11.3196C11.8259 21.9516 14.0484 24.1734 16.875 24.648V25.8743C16.875 26.4973 17.3777 26.9684 17.9684 26.9684C18.559 26.9684 19.125 26.4973 19.125 25.875V24.6488C21.9516 24.1734 24.1734 21.9516 24.648 19.125H25.8743C26.4973 19.125 27 18.6223 27 18C27 17.3777 26.4973 16.875 25.875 16.875ZM18 22.5C15.5127 22.5 13.5 20.4873 13.5 18C13.5 15.5127 15.5127 13.5 18 13.5C20.4873 13.5 22.5 15.5127 22.5 18C22.5 20.4873 20.4891 22.5 18 22.5Z" fill="#333333"/>
<path d="M18 14.9062C16.2914 14.9062 14.9062 16.2914 14.9062 18C14.9062 19.7086 16.2907 21.0938 18 21.0938C19.7093 21.0938 21.0938 19.7086 21.0938 18C21.0938 16.2914 19.7086 14.9062 18 14.9062Z" fill="#333333"/>
</g>
<defs>
<clipPath id="clip0_2060_11330">
</clipPath>
</defs>
</svg>
