<svg width="24" height="24" viewBox="0 0 24 24" fill="none" xmlns="http://www.w3.org/2000/svg">
<path fill-rule="evenodd" clip-rule="evenodd" d="M4 1C2.34315 1 1 2.34315 1 4V20C1 21.6569 2.34315 23 4 23H20C21.6569 23 23 21.6569 23 20V4C23 2.34315 21.6569 1 20 1H4ZM7.5557 7.3421C7.5557 8.07237 6.99194 8.68421 6.27785 8.68421C5.56376 8.68421 5 8.0921 5 7.3421C5 6.59211 5.56376 6 6.27785 6C6.99194 6 7.5557 6.59211 7.5557 7.3421ZM17.7221 6H10.1114C9.6604 6 9.24698 6.25658 9.00268 6.67105C8.77718 7.08553 8.77718 7.59868 9.00268 8.01316C9.22819 8.42763 9.64161 8.68421 10.1114 8.68421H17.7221C18.1732 8.68421 18.5866 8.42763 18.8309 8.01316C19.0564 7.59868 19.0564 7.08553 18.8309 6.67105C18.6054 6.25658 18.1919 6 17.7221 6ZM6.27785 13.3421C6.99194 13.3421 7.5557 12.7303 7.5557 12C7.5557 11.25 6.99194 10.6579 6.27785 10.6579C5.56376 10.6579 5 11.25 5 12C5 12.75 5.56376 13.3421 6.27785 13.3421ZM17.7221 10.6579H10.1114C9.6604 10.6579 9.24698 10.9145 9.00268 11.3289C8.77718 11.7434 8.77718 12.2566 9.00268 12.6711C9.22819 13.0855 9.64161 13.3421 10.1114 13.3421H17.7221C18.1732 13.3421 18.5866 13.0855 18.8309 12.6711C19.0564 12.2566 19.0564 11.7434 18.8309 11.3289C18.6054 10.9145 18.1919 10.6579 17.7221 10.6579ZM6.27785 18C6.99194 18 7.5557 17.3882 7.5557 16.6579C7.5557 15.9079 6.99194 15.3158 6.27785 15.3158C5.56376 15.3158 5 15.9079 5 16.6579C5 17.4079 5.56376 18 6.27785 18ZM17.7221 15.3158H10.1114C9.6604 15.3158 9.24698 15.5724 9.00268 15.9868C8.77718 16.4013 8.77718 16.9145 9.00268 17.3289C9.22819 17.7434 9.64161 18 10.1114 18H17.7221C18.1732 18 18.5866 17.7434 18.8309 17.3289C19.0564 16.9145 19.0564 16.4013 18.8309 15.9868C18.6054 15.5724 18.1919 15.3158 17.7221 15.3158Z" fill="#828282"/>
</svg>
