<svg width="27" height="22" viewBox="0 0 27 22" fill="none" xmlns="http://www.w3.org/2000/svg">
<g clip-path="url(#clip0_2980_363)">
<path d="M15.9568 7.78086H18.14V5.69763H15.9568V7.78086ZM23.9099 7.78086H26.0961V5.69763H23.9099V7.78086ZM8.0036 7.78086H10.1868V5.69763H8.0036V7.78086ZM0.52417 7.78086H2.23367V5.69763H0.52417V7.78086Z" fill="#007A49"/>
<path d="M15.9568 7.78086H18.14V5.69763H15.9568V7.78086ZM23.9099 7.78086H26.0961V5.69763H23.9099V7.78086ZM8.0036 7.78086H10.1868V5.69763H8.0036V7.78086ZM0.52417 7.78086H2.23367V5.69763H0.52417V7.78086Z" fill="white" fill-opacity="0.2"/>
<path d="M15.9568 18.7512H18.14V16.668H15.9568V18.7512ZM23.9099 18.7512H26.0961V16.668H23.9099V18.7512ZM8.0036 18.7512H10.1868V16.668H8.0036V18.7512ZM0.52417 18.7512H2.23367V16.668H0.52417V18.7512Z" fill="#007A49"/>
<path d="M15.9568 18.7512H18.14V16.668H15.9568V18.7512ZM23.9099 18.7512H26.0961V16.668H23.9099V18.7512ZM8.0036 18.7512H10.1868V16.668H8.0036V18.7512ZM0.52417 18.7512H2.23367V16.668H0.52417V18.7512Z" fill="white" fill-opacity="0.2"/>
<path d="M21.032 0.088623L18.4133 2.70379V22.1209H23.633V2.70379L21.032 0.088623ZM21.032 18.088C20.8055 18.088 20.6201 17.9322 20.6201 17.7416C20.6201 17.5511 20.8055 17.3953 21.032 17.3953C21.2586 17.3953 21.4439 17.5511 21.4439 17.7416C21.4439 17.9322 21.2586 18.088 21.032 18.088ZM21.032 7.11767C20.8055 7.11767 20.6201 6.9618 20.6201 6.77129C20.6201 6.58078 20.8055 6.42491 21.032 6.42491C21.2586 6.42491 21.4439 6.58078 21.4439 6.77129C21.4439 6.9618 21.2586 7.11767 21.032 7.11767Z" fill="#007A49"/>
<path d="M13.0791 0.088623L10.4604 2.70379V22.1209H15.6802V2.70379L13.0791 0.088623ZM13.0791 18.088C12.8526 18.088 12.6672 17.9322 12.6672 17.7416C12.6672 17.5511 12.8526 17.3953 13.0791 17.3953C13.3057 17.3953 13.4911 17.5511 13.4911 17.7416C13.4911 17.9322 13.3057 18.088 13.0791 18.088ZM13.0791 7.11767C12.8526 7.11767 12.6672 6.9618 12.6672 6.77129C12.6672 6.58078 12.8526 6.42491 13.0791 6.42491C13.3057 6.42491 13.4911 6.58078 13.4911 6.77129C13.4911 6.9618 13.3057 7.11767 13.0791 7.11767Z" fill="#007A49"/>
<path d="M5.12576 0.088623L2.50708 2.70379V22.1209H7.72974V2.70379L5.12576 0.088623ZM5.12576 18.088C4.8992 18.088 4.71384 17.9322 4.71384 17.7416C4.71384 17.5511 4.8992 17.3953 5.12576 17.3953C5.35233 17.3953 5.53769 17.5511 5.53769 17.7416C5.53769 17.9322 5.35233 18.088 5.12576 18.088ZM5.12576 7.11767C4.8992 7.11767 4.71384 6.9618 4.71384 6.77129C4.71384 6.58078 4.8992 6.42491 5.12576 6.42491C5.35233 6.42491 5.53769 6.58078 5.53769 6.77129C5.53769 6.9618 5.35233 7.11767 5.12576 7.11767Z" fill="#007A49"/>
</g>
<defs>
<clipPath id="clip0_2980_363">
<rect width="27" height="22" fill="white"/>
</clipPath>
</defs>
</svg>
