<svg width="24" height="24" viewBox="0 0 24 24" fill="none" xmlns="http://www.w3.org/2000/svg">
<rect width="24" height="24" rx="12" fill="#EB5757"/>
<g clip-path="url(#clip0_2060_11736)">
<path fill-rule="evenodd" clip-rule="evenodd" d="M18 12C18 15.3139 15.3139 18 12 18C8.68613 18 6 15.3139 6 12C6 8.68613 8.68613 6 12 6C15.3139 6 18 8.68613 18 12ZM14.4558 12.4582L12.7223 14.2235C12.0095 14.9338 10.9399 13.8684 11.6527 13.1581L11.66 13.1508C11.8821 12.9321 11.809 12.7538 11.4952 12.7538H10.108C9.69076 12.7538 9.35326 12.4144 9.35326 11.9956V12.0044C9.35326 11.5847 9.69139 11.2465 10.108 11.2465H11.4952C11.8084 11.2465 11.8828 11.0685 11.66 10.8492L11.6527 10.8419C10.9399 10.1316 12.0095 9.06586 12.7223 9.77647L14.4529 11.5175C14.7101 11.7763 14.7113 12.1973 14.4558 12.4579V12.4582Z" fill="white"/>
</g>
<defs>
<clipPath id="clip0_2060_11736">
<rect width="12" height="12" fill="white" transform="translate(6 6)"/>
</clipPath>
</defs>
</svg>
