<svg width="32" height="53" viewBox="0 0 32 53" fill="none" xmlns="http://www.w3.org/2000/svg">
<path fill-rule="evenodd" clip-rule="evenodd" d="M16 0.523926C7.16344 0.523926 0 7.68747 0 16.5241C0 24.8469 6.35439 31.6854 14.4762 32.4527V49.2865C14.4762 50.1281 15.1584 50.8103 16 50.8103C16.8416 50.8103 17.5238 50.1281 17.5238 49.2865V32.4527C25.6456 31.6854 32 24.8469 32 16.5241C32 7.68747 24.8366 0.523926 16 0.523926Z" fill="#007A49"/>
<path d="M4.38412 16.2894C4.38412 10.0302 9.45822 4.95605 15.7174 4.95605C21.9767 4.95605 27.0508 10.0302 27.0508 16.2894C27.0508 22.5486 21.9767 27.6227 15.7174 27.6227C9.45822 27.6227 4.38412 22.5486 4.38412 16.2894Z" fill="white"/>
<path opacity="0.3" d="M16.0004 52.334C13.8964 52.334 12.1908 51.4812 12.1908 50.4292C12.1908 49.3772 13.8964 48.5244 16.0004 48.5244C18.1043 48.5244 19.8099 49.3772 19.8099 50.4292C19.8099 51.4812 18.1043 52.334 16.0004 52.334Z" fill="#007A49"/>
</svg>
