<svg width="25" height="24" viewBox="0 0 25 24" fill="none" xmlns="http://www.w3.org/2000/svg">
<path fill-rule="evenodd" clip-rule="evenodd" d="M17.4275 14.8812C17.6906 15.2148 17.9561 15.5515 18.2238 15.8938L18.4127 15.661L18.4128 15.6608C18.6721 15.3414 18.907 15.0521 19.1374 14.7563L19.163 14.7241C20.5421 12.9906 21.9222 11.2557 22.936 9.29285C23.6435 7.92781 24.0866 6.50672 23.9252 4.94385C23.6642 2.40172 21.4385 0.242054 18.7767 0.0211425C15.8574 -0.22285 13.2093 1.66974 12.6289 4.42949C12.3232 5.88685 12.6357 7.27167 13.2162 8.61363C13.8722 10.1303 14.8098 11.4888 15.8127 12.8077C16.3378 13.4992 16.8771 14.1831 17.4274 14.881L17.4275 14.8811L17.4275 14.8812ZM15.6994 5.48129C15.7303 4.10966 16.8877 3.02159 18.2787 3.05126C19.6766 3.08094 20.8135 4.20198 20.786 5.52416C20.7585 6.86612 19.5907 7.95089 18.2066 7.92122C16.8122 7.89154 15.6685 6.77709 15.6994 5.48129ZM8.52316 12.1009C7.94179 12.6553 7.35963 13.2105 6.77631 13.7671L6.78106 13.7732C6.80109 13.799 6.82722 13.8325 6.86217 13.8661C7.77652 14.7429 8.69059 15.62 9.60462 16.4971L9.60491 16.4973L9.60519 16.4976C11.8909 18.6908 14.1763 20.8839 16.4653 23.0718C16.5511 23.151 16.7022 23.207 16.8259 23.207C17.9009 23.2202 18.9725 23.2202 20.0475 23.2103C20.2914 23.207 20.5455 23.1806 20.7825 23.1213C21.9949 22.8146 22.7059 21.8683 22.7059 20.5857C22.7024 17.8572 22.7024 15.1286 22.7024 12.4001V12.3955C22.7024 12.3411 22.6994 12.288 22.6964 12.2346L22.6964 12.2345L22.6964 12.2343C22.6949 12.2069 22.6933 12.1794 22.6921 12.1515C21.9958 13.0304 21.3017 13.9056 20.6056 14.7833L20.6012 14.7889L20.5963 14.7951C19.8226 15.7708 19.0463 16.7496 18.2615 17.7403C17.8034 17.1671 17.3376 16.6027 16.8735 16.0405L16.8734 16.0404C14.9854 13.7529 13.1267 11.501 11.9385 8.84113C10.8015 9.92831 9.66444 11.0126 8.52442 12.0997L8.52316 12.1009ZM11.9659 2.44126C11.9302 2.52651 11.8942 2.61001 11.8586 2.69253C11.7744 2.88772 11.6925 3.0775 11.6225 3.27216C11.1623 4.56136 11.1519 5.87364 11.4164 7.19582C11.4508 7.36727 11.4439 7.49256 11.2996 7.63105C8.79655 10.0266 6.29731 12.424 3.79905 14.8205L1.29815 17.2193C1.25289 17.2627 1.2058 17.3044 1.14609 17.3572L1.0749 17.4204L1.07435 17.4153C1.06435 17.3225 1.05773 17.2611 1.05773 17.2028C1.05773 15.8444 1.05734 14.4859 1.05696 13.1275C1.0562 10.4106 1.05544 7.69369 1.05773 4.97681C1.05773 3.76014 1.77899 2.84682 2.97765 2.52369C3.20434 2.46105 3.44819 2.43137 3.68174 2.43137C5.70912 2.42643 7.73843 2.42705 9.76678 2.42766H9.7671C10.4429 2.42787 11.1187 2.42808 11.7942 2.42808C11.8325 2.42808 11.8688 2.43171 11.9146 2.43628L11.9146 2.43629L11.9146 2.43629C11.9304 2.43787 11.9474 2.43957 11.9659 2.44126ZM14.7034 23.2004C11.7325 20.3516 8.76849 17.5094 5.7598 14.6277C5.75472 14.6345 5.74925 14.642 5.74342 14.65C5.70989 14.696 5.66427 14.7585 5.60868 14.809C5.42456 14.9867 5.2405 15.1644 5.05643 15.3421C3.86022 16.4969 2.66385 17.6519 1.44941 18.7921C1.15747 19.069 1.00978 19.3394 1.04756 19.7351C1.06772 19.9466 1.06895 20.1612 1.07018 20.3753C1.07208 20.7083 1.07399 21.0401 1.14717 21.3573C1.41163 22.4981 2.43513 23.2037 3.71966 23.207C6.11929 23.2092 8.51891 23.2085 10.9185 23.2077C12.1184 23.2074 13.3182 23.207 14.518 23.207C14.5832 23.207 14.6485 23.2037 14.7034 23.2004Z" fill="#007A49"/>
</svg>
