<svg width="4" height="16" viewBox="0 0 4 16" fill="none" xmlns="http://www.w3.org/2000/svg">
<path d="M2.01155 10.001C1.61822 10.001 1.23372 9.88368 0.906689 9.66386C0.579655 9.44404 0.324775 9.1316 0.174285 8.76606C0.0237942 8.40052 -0.0155468 7.99829 0.0612369 7.61026C0.138021 7.22223 0.32748 6.86582 0.605654 6.58611C0.883828 6.3064 1.23822 6.11595 1.62401 6.03884C2.0098 5.96174 2.40966 6.00145 2.77301 6.15294C3.13636 6.30444 3.44689 6.56092 3.66531 6.88995C3.88374 7.21898 4.00025 7.60577 4.00012 8.00142C4.00012 8.26406 3.94868 8.52414 3.84874 8.76678C3.74879 9.00943 3.60231 9.22989 3.41764 9.41558C3.23298 9.60127 3.01375 9.74854 2.77249 9.84899C2.53123 9.94944 2.27266 10.0011 2.01155 10.001Z" fill="#2F3336"/>
<path d="M2.01143 4.00052C1.6181 4.00052 1.2336 3.88319 0.906567 3.66337C0.579533 3.44355 0.324653 3.13111 0.174163 2.76557C0.0236721 2.40003 -0.0156689 1.99781 0.0611148 1.60978C0.137899 1.22175 0.327358 0.86534 0.605532 0.585625C0.883706 0.305911 1.2381 0.115458 1.62389 0.0383532C2.00968 -0.0387512 2.40953 0.000956873 2.77289 0.152455C3.13624 0.303954 3.44676 0.560437 3.66519 0.889467C3.88362 1.2185 4.00013 1.60529 4 2.00094C4 2.26358 3.94856 2.52365 3.84862 2.7663C3.74867 3.00894 3.60218 3.22941 3.41752 3.4151C3.23286 3.60078 3.01363 3.74806 2.77237 3.84851C2.53111 3.94896 2.27254 4.00061 2.01143 4.00052Z" fill="#2F3336"/>
<path d="M2.01155 16C1.61822 16 1.23372 15.8827 0.906689 15.6629C0.579655 15.4431 0.324775 15.1306 0.174285 14.7651C0.0237942 14.3996 -0.0155468 13.9973 0.0612369 13.6093C0.138021 13.2213 0.32748 12.8649 0.605654 12.5852C0.883828 12.3054 1.23822 12.115 1.62401 12.0379C2.0098 11.9608 2.40966 12.0005 2.77301 12.152C3.13636 12.3035 3.44689 12.56 3.66531 12.889C3.88374 13.218 4.00025 13.6048 4.00012 14.0005C3.99994 14.5308 3.79036 15.0394 3.41745 15.4144C3.04454 15.7894 2.53884 16 2.01155 16Z" fill="#2F3336"/>
</svg>
