<svg width="25" height="22" viewBox="0 0 25 22" fill="none" xmlns="http://www.w3.org/2000/svg">
<path d="M22.6741 11.2013C22.546 5.45673 20.4748 0.0777941 16.9517 0.0778809C13.4286 0.0779676 11.3362 5.45722 11.3362 11.2016C11.3361 16.9459 16.2045 16.9459 16.9518 16.9459C17.699 16.9459 22.8022 16.9459 22.6741 11.2013Z" fill="#007A49"/>
<path d="M22.6741 11.2013C22.546 5.45673 20.4748 0.0777941 16.9517 0.0778809C13.4286 0.0779676 11.3362 5.45722 11.3362 11.2016C11.3361 16.9459 16.2045 16.9459 16.9518 16.9459C17.699 16.9459 22.8022 16.9459 22.6741 11.2013Z" fill="white" fill-opacity="0.2"/>
<path fill-rule="evenodd" clip-rule="evenodd" d="M16.3752 7.4235C16.3752 7.04614 16.6811 6.74023 17.0585 6.74023C17.4359 6.74023 17.7418 7.04614 17.7418 7.4235V12.2881L18.4507 11.5791C18.7176 11.3123 19.1502 11.3123 19.417 11.5791C19.6839 11.8459 19.6839 12.2786 19.417 12.5454L17.7418 14.2207V21.2596H16.3752V11.3786L15.0651 10.0686C14.7983 9.80173 14.7983 9.36911 15.0651 9.10228C15.332 8.83545 15.7646 8.83545 16.0314 9.10228L16.3752 9.44608V7.4235Z" fill="#007A49"/>
<rect x="24.3186" y="20.5764" width="1.36653" height="14.5194" rx="0.683264" transform="rotate(90 24.3186 20.5764)" fill="#007A49"/>
<path d="M5.91415 1.18119C6.51719 -0.317557 8.63895 -0.317558 9.242 1.18119L14.5383 14.344C15.0125 15.5227 14.1448 16.8071 12.8744 16.8071H2.28177C1.01132 16.8071 0.143609 15.5227 0.617845 14.344L5.91415 1.18119Z" fill="#007A49"/>
<path fill-rule="evenodd" clip-rule="evenodd" d="M6.89527 7.42301C6.89527 7.04565 7.20117 6.73975 7.57853 6.73975C7.95589 6.73975 8.26179 7.04565 8.26179 7.42301V12.2871L8.97023 11.5786C9.23706 11.3118 9.66968 11.3118 9.93651 11.5786C10.2033 11.8455 10.2033 12.2781 9.93651 12.5449L8.26179 14.2196V21.2591H6.89527V11.3789L5.58446 10.0681C5.31763 9.80124 5.31763 9.36862 5.58446 9.10179C5.85129 8.83496 6.28391 8.83496 6.55074 9.10179L6.89527 9.44631V7.42301Z" fill="#007A49"/>
<path fill-rule="evenodd" clip-rule="evenodd" d="M6.89527 7.42301C6.89527 7.04565 7.20117 6.73975 7.57853 6.73975C7.95589 6.73975 8.26179 7.04565 8.26179 7.42301V12.2871L8.97023 11.5786C9.23706 11.3118 9.66968 11.3118 9.93651 11.5786C10.2033 11.8455 10.2033 12.2781 9.93651 12.5449L8.26179 14.2196V21.2591H6.89527V11.3789L5.58446 10.0681C5.31763 9.80124 5.31763 9.36862 5.58446 9.10179C5.85129 8.83496 6.28391 8.83496 6.55074 9.10179L6.89527 9.44631V7.42301Z" fill="white" fill-opacity="0.5"/>
<rect x="14.838" y="20.5758" width="1.36653" height="14.5194" rx="0.683264" transform="rotate(90 14.838 20.5758)" fill="#007A49"/>
</svg>
