<svg width="24" height="24" viewBox="0 0 24 24" fill="none" xmlns="http://www.w3.org/2000/svg">
<rect width="24" height="24" rx="12" fill="#007A49"/>
<g clip-path="url(#clip0_2060_11726)">
<path d="M12 6C9.792 6 8 7.70847 8 9.81356C8 12.1475 10.696 14.2602 11.528 14.8475C11.672 14.9466 11.832 15 12 15C12.168 15 12.328 14.9466 12.472 14.8475C13.296 14.2525 16 12.1398 16 9.81356C16 7.70847 14.208 6 12 6ZM12 11.4839C11 11.4839 10.184 10.7059 10.184 9.75254C10.184 8.79915 11 8.02119 12 8.02119C13 8.02119 13.816 8.79915 13.816 9.75254C13.816 10.7059 13 11.4839 12 11.4839Z" fill="white"/>
<path d="M18.9689 16.5759L17.9656 13.3831C17.8411 12.866 17.39 12.5079 16.8689 12.5079H15.8656C15.01 14.0355 13.6256 15.2368 12.8789 15.8096C12.6223 16.0085 12.3189 16.112 12 16.112C11.6811 16.112 11.3778 16.0085 11.1211 15.8096C10.3823 15.2368 8.99003 14.0434 8.13448 12.5079H7.13114C6.61003 12.5079 6.15892 12.866 6.03448 13.3831L5.03114 16.5759C4.94559 16.918 5.03114 17.2839 5.24114 17.5624C5.45892 17.8409 5.77781 18 6.12781 18H17.88C18.23 18 18.5489 17.8409 18.7667 17.5624C18.9845 17.2839 19.0545 16.9259 18.9767 16.5759H18.9689Z" fill="white"/>
</g>
<defs>
<clipPath id="clip0_2060_11726">
<rect width="14" height="12" fill="white" transform="translate(5 6)"/>
</clipPath>
</defs>
</svg>
