<svg width="50" height="50" viewBox="0 0 50 50" fill="none" xmlns="http://www.w3.org/2000/svg">
<rect x="0.501253" y="0.501253" width="48.9975" height="48.9975" rx="10.0251" fill="#E5F2EF"/>
<rect x="0.501253" y="0.501253" width="48.9975" height="48.9975" rx="10.0251" stroke="white" stroke-width="1.00251"/>
<path fill-rule="evenodd" clip-rule="evenodd" d="M33.6385 20.2495C33.6385 20.2495 32.0345 20.3296 31.6734 21.9263C31.6734 21.9263 31.668 17.2216 28.0737 14.6053C28.0737 14.6053 27.0231 15.4274 27.0444 17.1387C27.0444 17.1387 24.0218 13.7557 17.5359 12.0718C15.7347 18.5882 17.1697 22.8398 17.1697 22.8398C15.6983 21.9658 14.4611 22.4646 14.4611 22.4646C14.9305 26.885 19.0014 29.2425 19.0014 29.2425C17.4381 28.7569 16.5667 30.1059 16.5667 30.1059C20.4498 35.1707 25.7572 35.8768 29.6275 33.8753C29.8822 33.7435 30.131 33.5998 30.3725 33.4452C34.041 31.0942 36.0837 26.1456 33.6385 20.2495ZM29.6275 33.8753L27.9506 30.9708L22.9818 30.4719L23.0811 29.6285L27.4278 30.0652L25.0243 25.9023L20.0556 25.4035L20.1544 24.5593L24.501 24.9959L21.3725 19.5772L22.1174 19.1471L25.2459 24.5658L27.0411 20.5832L27.8217 20.9197L25.7693 25.4722L28.1727 29.6351L29.9679 25.6525L30.7479 25.9882L28.6955 30.5407L33.0215 38.0335L32.2766 38.4636L29.6275 33.8753Z" fill="#007A49"/>
</svg>
