<svg width="585" height="423" viewBox="0 0 585 423" fill="none" xmlns="http://www.w3.org/2000/svg">
<path d="M112.798 349.617C146.928 349.617 174.596 297.991 174.596 234.308C174.596 170.625 146.928 119 112.798 119C78.6679 119 51 170.625 51 234.308C51 297.991 78.6679 349.617 112.798 349.617Z" fill="#68B030"/>
<path d="M112.231 235.504C115.313 185.311 121.524 151.408 121.587 151.071L120.239 150.862C120.177 151.199 113.955 185.157 110.867 235.415C108.018 281.8 107.33 351.959 120.239 422.786L121.587 422.581C108.701 351.875 109.386 281.821 112.231 235.504Z" fill="#3F3D56"/>
<path d="M168.031 210.924L112.156 238.272L112.801 239.374L168.676 212.026L168.031 210.924Z" fill="#3F3D56"/>
<path d="M53.8152 224.631L53.1704 225.733L109.054 253.067L109.698 251.965L53.8152 224.631Z" fill="#3F3D56"/>
<path d="M504.172 299.186C548.45 299.186 584.345 232.211 584.345 149.593C584.345 66.975 548.45 0 504.172 0C459.894 0 424 66.975 424 149.593C424 232.211 459.894 299.186 504.172 299.186Z" fill="#68B030"/>
<path d="M503.199 151.125C507.198 85.9981 515.258 42.0071 515.339 41.5702L514.061 41.3723C513.98 41.8095 505.91 85.852 501.906 151.041C498.209 211.206 497.318 302.209 514.061 394.075L515.339 393.88C498.617 302.128 499.507 211.226 503.199 151.125Z" fill="#3F3D56"/>
<path d="M580.352 101.448L507.863 136.928L508.475 137.973L580.963 102.493L580.352 101.448Z" fill="#3F3D56"/>
<path d="M431.951 119.23L431.339 120.275L503.838 155.737L504.45 154.692L431.951 119.23Z" fill="#3F3D56"/>
<path d="M373.955 318.784C390.498 318.784 403.909 293.76 403.909 262.892C403.909 232.024 390.498 207 373.955 207C357.411 207 344 232.024 344 262.892C344 293.76 357.411 318.784 373.955 318.784Z" fill="#E6E6E6"/>
<path d="M373.928 265.3L374.105 265.603L401.189 252.347L400.578 251.301L373.985 264.318C375.456 239.549 378.466 222.921 378.527 222.594L377.249 222.396C377.183 222.753 373.607 242.499 372.337 271.07L345.516 257.942L344.905 258.987L371.988 272.244L372.312 271.691C371.296 295.273 371.865 324.759 377.249 354.298L378.527 354.103C372.657 321.897 372.528 289.751 373.928 265.3Z" fill="#3F3D56"/>
<path d="M232.955 311.784C249.498 311.784 262.909 286.76 262.909 255.892C262.909 225.024 249.498 200 232.955 200C216.411 200 203 225.024 203 255.892C203 286.76 216.411 311.784 232.955 311.784Z" fill="#E6E6E6"/>
<path d="M232.928 258.3L233.105 258.603L260.189 245.347L259.578 244.301L232.985 257.318C234.456 232.549 237.466 215.921 237.527 215.594L236.249 215.396C236.183 215.753 232.607 235.499 231.337 264.07L204.516 250.942L203.905 251.987L230.988 265.244L231.312 264.691C230.296 288.273 230.865 317.759 236.249 347.298L237.527 347.103C231.657 314.897 231.528 282.751 232.928 258.3Z" fill="#3F3D56"/>
<path d="M563.766 388.347C404.216 342.16 259.541 344.62 166.269 354.818C65.2211 365.866 1.10072 388.112 0.465092 388.335L0 387.229C0.637526 387.005 64.9088 364.706 166.116 353.641C225.648 347.14 285.713 345.735 345.531 349.444C419.79 354.04 493.184 366.721 564.157 387.217L563.766 388.347Z" fill="#3F3D56"/>
</svg>