<svg width="20" height="20" viewBox="0 0 16 13" fill="none" xmlns="http://www.w3.org/2000/svg">
<path d="M15.7143 0.0925046C15.6433 0.299683 15.5797 0.4963 15.5079 0.689666C15.0996 1.78812 14.5998 2.83539 13.9684 3.80709C13.6879 4.23933 13.3681 4.635 13.0104 4.99898C12.6165 5.39953 12.1794 5.71314 11.66 5.88457C11.3243 5.99506 10.9817 6.01862 10.6377 5.93657C10.3723 5.87319 10.2082 5.7107 10.1908 5.46127C10.1817 5.32884 10.212 5.18585 10.2536 5.05829C10.3632 4.72518 10.5659 4.453 10.7798 4.19139C11.2426 3.6251 11.7825 3.15306 12.3443 2.70864C12.5613 2.53721 12.7821 2.37066 13.0006 2.20004C13.0278 2.17891 13.0513 2.1521 13.0966 2.10742C12.6074 2.30322 12.1575 2.51852 11.7265 2.77933C11.2343 3.0775 10.7783 3.43092 10.3867 3.86722C9.77268 4.54969 9.39613 5.35809 9.32808 6.31842C9.24717 7.45587 9.2071 8.59495 9.21239 9.73565C9.21239 9.78196 9.20861 9.82909 9.20634 9.88433C9.22751 9.88027 9.24642 9.88108 9.26003 9.87296C10.0177 9.40254 11.0589 9.55041 11.6993 10.358C11.9889 10.7228 12.153 11.1453 12.1983 11.6214C12.2059 11.6986 12.224 11.7343 12.3042 11.753C12.8743 11.8814 13.272 12.2502 13.5367 12.7978C13.5405 12.806 13.5397 12.8173 13.5427 12.8401C13.5163 12.8458 13.4906 12.8555 13.4649 12.8555C10.5553 12.8547 7.64493 12.8523 4.73535 12.8515C3.63065 12.8515 2.52519 12.8531 1.42049 12.8571C1.34109 12.8571 1.31387 12.8328 1.32521 12.745C1.36226 12.4509 1.47266 12.2088 1.73277 12.0739C1.80157 12.0382 1.80611 11.987 1.80536 11.9187C1.79779 11.467 1.94448 11.0868 2.27113 10.7967C2.62878 10.4799 3.0386 10.4238 3.4764 10.54C3.5316 10.5546 3.55504 10.553 3.58604 10.4961C3.93234 9.84859 4.44424 9.50572 5.14895 9.51791C5.18147 9.51791 5.22532 9.49922 5.24498 9.47323C5.50509 9.1328 5.85064 9.03043 6.23929 9.07024C6.37313 9.08405 6.4442 9.05724 6.52133 8.92562C6.77463 8.49177 7.13228 8.23259 7.62981 8.26915C7.75609 8.2789 7.88236 8.3179 8.00485 8.3569C8.07215 8.37802 8.0971 8.37559 8.11147 8.29353C8.19993 7.77761 8.19993 7.26088 8.14171 6.74172C8.07971 6.18924 7.94512 5.65708 7.7266 5.15335C7.37953 4.35388 6.85478 3.71285 6.19468 3.19206C5.46124 2.61277 4.63328 2.27072 3.75995 2.03592C3.53538 1.9758 3.30854 1.92786 3.0817 1.87587C3.05902 1.87099 3.03406 1.87587 3.0076 1.88643C3.26695 1.98311 3.52857 2.07411 3.7849 2.1781C4.72855 2.55996 5.58827 3.0905 6.29978 3.86965C6.83815 4.45869 7.2026 5.15254 7.32282 5.97638C7.35912 6.22499 7.35534 6.4801 7.37197 6.73197C7.37727 6.81565 7.32282 6.83678 7.26611 6.84653C7.08691 6.8774 6.90695 6.9164 6.72624 6.92696C5.77276 6.97977 4.86616 6.7734 4.01552 6.31192C3.26922 5.90732 2.63861 5.34428 2.10478 4.65125C1.44166 3.78922 0.989492 2.80695 0.653015 1.75887C0.514644 1.3242 0.41181 0.878971 0.291586 0.44024C0.271926 0.36793 0.303684 0.340306 0.362662 0.330557C0.755849 0.263935 1.14677 0.182688 1.54147 0.133128C2.15393 0.0567561 2.76866 0.0518813 3.38339 0.109566C4.5864 0.222499 5.72286 0.547485 6.71565 1.32258C7.53454 1.96199 8.09937 2.8102 8.44492 3.82578C8.57346 4.20358 8.66571 4.59681 8.77308 4.97623C8.77913 4.95836 8.79425 4.9218 8.80408 4.88442C9.09141 3.82172 9.55038 2.85489 10.2324 2.02292C10.798 1.33233 11.4777 0.805036 12.2709 0.449989C12.8085 0.2095 13.3688 0.0795052 13.9473 0.0258825C14.5318 -0.0277402 15.1125 0.00557083 15.7143 0.0925046Z" fill="#007A49"/>
</svg>
