<svg width="22" height="22" viewBox="0 0 22 22" fill="none" xmlns="http://www.w3.org/2000/svg">
<path fill-rule="evenodd" clip-rule="evenodd" d="M3 0C1.34315 0 0 1.34315 0 3V19C0 20.6569 1.34315 22 3 22H19C20.6569 22 22 20.6569 22 19V3C22 1.34315 20.6569 0 19 0H3ZM9.55917 8.15305L8.14653 9.56657L4.44249 5.85691L3.00995 7.29034L3.01326 3H7.29762L5.85513 4.44338L9.55917 8.15305ZM17.5575 5.85691L18.9901 7.29034V3H14.7057L16.1449 4.44338L4.44249 16.153L3 14.713V19H7.28767L5.85513 17.5666L17.5575 5.85691ZM13.8468 12.4434L17.5575 16.153L19 14.713V19H14.7156L16.1482 17.5666L12.4342 13.8536L13.8468 12.4434Z" />
</svg>
