<svg width="20" height="20" viewBox="0 0 14 15" fill="none" xmlns="http://www.w3.org/2000/svg">
<path d="M13.8632 3.40363L10.6055 0.147069C10.5116 0.0531703 10.3835 0.00195312 10.2511 0.00195312C10.1231 0.00622122 10.0035 0.0574384 9.90959 0.147069L8.37683 1.67505L12.3261 5.62304L13.8589 4.09079C13.9485 4.00116 13.9998 3.87312 13.9998 3.74508C14.0041 3.61703 13.9528 3.49326 13.8632 3.40363Z" fill="#007A49"/>
<path d="M0.153703 9.90002C0.0640427 9.98965 0.0128085 10.1134 0.0128085 10.2415L0 13.5151C0 13.6474 0.0512342 13.7712 0.145163 13.8651C0.239093 13.959 0.362909 14.0102 0.495264 14.0102L3.76571 13.9974C3.8938 13.9974 4.01761 13.9462 4.10727 13.8523L11.643 6.31909L7.69366 2.37109L0.153703 9.90002Z" fill="#007A49"/>
</svg>
