<svg width="21" height="25" viewBox="0 0 21 25" fill="none" xmlns="http://www.w3.org/2000/svg">
<path d="M17.9007 12.713C17.7259 6.31467 14.9009 0.323634 10.0956 0.32373C5.29027 0.323827 2.43624 6.31522 2.43622 12.7133C2.43619 19.1113 9.07642 19.1113 10.0957 19.1113C11.1149 19.1113 18.0754 19.1113 17.9007 12.713Z" fill="#2F80ED"/>
<path fill-rule="evenodd" clip-rule="evenodd" d="M9.30911 8.67608C9.30911 8.16138 9.72635 7.74414 10.241 7.74414C10.7557 7.74414 11.173 8.16138 11.173 8.67608V13.9232L12.1396 13.1339C12.5036 12.8367 13.0936 12.8367 13.4576 13.1339C13.8215 13.4311 13.8215 13.9129 13.4576 14.2101L11.173 16.0757V23.9157H9.30911V12.9106L7.52198 11.4513C7.15804 11.1541 7.15804 10.6722 7.52198 10.375C7.88593 10.0778 8.476 10.0778 8.83995 10.375L9.30911 10.7582V8.67608Z" fill="#56CCF2"/>
<rect x="20.1431" y="23.1548" width="1.52203" height="19.8037" rx="0.761017" transform="rotate(90 20.1431 23.1548)" fill="#2F80ED"/>
</svg>
