<svg width="13" height="12" viewBox="0 0 13 12" fill="none" xmlns="http://www.w3.org/2000/svg">
<path d="M7.17142 9.83338C7.41691 9.84199 7.64945 9.94499 7.82005 10.1207C7.99065 10.2964 8.086 10.531 8.086 10.7752C8.086 11.0194 7.99065 11.254 7.82005 11.4297C7.64945 11.6054 7.41691 11.7084 7.17142 11.717L1.8086 11.717C1.55738 11.7169 1.31649 11.6176 1.13884 11.441C0.961199 11.2644 0.861331 11.0249 0.861174 10.7752L0.861174 5.44412C0.86984 5.20008 0.973452 4.96892 1.15018 4.79933C1.32691 4.62973 1.56297 4.53495 1.80861 4.53495C2.05425 4.53495 2.2903 4.62973 2.46703 4.79933C2.64376 4.96892 2.74737 5.20008 2.75604 5.44412L2.75604 8.50061L8.9054 2.38763L5.83072 2.38763C5.70349 2.39209 5.57665 2.37104 5.45778 2.32572C5.33892 2.2804 5.23045 2.21174 5.13885 2.12384C5.04726 2.03595 4.97441 1.93061 4.92465 1.81412C4.8749 1.69762 4.84925 1.57236 4.84925 1.44581C4.84925 1.31925 4.8749 1.19399 4.92465 1.07749C4.97441 0.961002 5.04726 0.855665 5.13885 0.767768C5.23045 0.679871 5.33892 0.611214 5.45778 0.565894C5.57665 0.520572 5.70349 0.499517 5.83072 0.503981L11.1935 0.503981C11.4448 0.504136 11.6857 0.603413 11.8633 0.780006C12.0409 0.956599 12.1408 1.19607 12.141 1.44581L12.141 6.77689C12.1455 6.90337 12.1243 7.02945 12.0787 7.14762C12.0331 7.26578 11.964 7.37361 11.8756 7.46466C11.7872 7.55571 11.6812 7.62813 11.564 7.67759C11.4469 7.72705 11.3208 7.75254 11.1935 7.75255C11.0662 7.75254 10.9402 7.72705 10.823 7.67759C10.7058 7.62813 10.5999 7.55572 10.5115 7.46466C10.423 7.37361 10.354 7.26578 10.3084 7.14761C10.2628 7.02945 10.2416 6.90337 10.2461 6.77689L10.2461 3.7204L4.09674 9.83338L7.17142 9.83338Z" fill="#4F4F4F"/>
</svg>
