<svg width="16" height="11" viewBox="0 0 16 11" fill="none" xmlns="http://www.w3.org/2000/svg">
<g clip-path="url(#clip0_4542_3633)">
<path d="M0 8.43154V4.2085C0.149969 4.37607 0.287101 4.55387 0.458673 4.7034C0.727927 4.93806 1.02223 5.13662 1.34126 5.30389C1.65122 5.46635 1.97088 5.60715 2.30495 5.71606C2.76894 5.86769 3.24515 5.97028 3.73075 6.03285C4.06137 6.07557 4.39292 6.09934 4.72699 6.09904C7.88165 6.09814 11.0363 6.09844 14.191 6.09874C14.5542 6.09874 14.9173 6.09814 15.2808 6.10055C15.51 6.10205 15.7044 6.18057 15.8513 6.35537C15.9665 6.49195 15.9997 6.65231 15.9997 6.82198C16 7.93092 16 9.03955 15.9997 10.1485C15.9997 10.2297 15.9969 10.3109 15.9922 10.3919C15.9725 10.7361 15.6747 11.0005 15.3162 10.9978C15.0376 10.9957 14.7592 10.9972 14.4806 10.999C14.4455 10.999 14.4368 10.99 14.4368 10.9572C14.438 10.6371 14.4377 10.3173 14.4374 9.99716C14.4374 9.79409 14.2921 9.61959 14.0839 9.57025C13.8785 9.52152 13.6603 9.61358 13.5617 9.78897C13.5119 9.87802 13.5019 9.974 13.5019 10.0721C13.5025 10.3684 13.5034 10.6644 13.5053 10.9608C13.5053 10.9903 13.4959 10.9993 13.4649 10.999C13.1735 10.9975 12.8817 10.9972 12.5902 10.9972C12.5119 10.9972 12.5113 10.9981 12.5113 10.9211C12.5106 10.6323 12.5106 10.3434 12.5103 10.0549C12.51 9.68368 12.5144 9.31243 12.5078 8.94118C12.5025 8.64364 12.2001 8.44237 11.9033 8.52901C11.7405 8.57655 11.5739 8.74111 11.5751 8.97818C11.5783 9.63825 11.5764 10.2983 11.578 10.9584C11.578 10.993 11.5657 10.9999 11.5326 10.9999C11.2345 10.9984 10.9364 10.9984 10.6384 10.9984C10.582 10.9984 10.5817 10.9996 10.5811 10.943C10.5802 10.8356 10.5795 10.7279 10.5792 10.6205C10.5792 10.4054 10.5855 10.1903 10.5776 9.9755C10.5667 9.67796 10.2461 9.4797 9.95523 9.58409C9.76174 9.65359 9.64809 9.81996 9.64841 10.0318C9.64903 10.3242 9.64934 10.6169 9.64934 10.9093C9.64934 10.9975 9.64872 10.9969 9.55855 10.9969C9.26706 10.9972 8.97527 10.9984 8.68378 10.999C8.67533 10.999 8.66688 10.9963 8.65686 10.9948C8.65623 10.9791 8.65498 10.9653 8.65498 10.9518C8.65467 10.6843 8.65404 10.4168 8.65404 10.1494C8.65404 9.75678 8.65498 9.36447 8.65498 8.97186C8.65498 8.75164 8.50814 8.56632 8.299 8.52209C8.07138 8.47396 7.85661 8.57324 7.76112 8.7718C7.7248 8.84731 7.71854 8.92794 7.71885 9.00977C7.71885 9.6587 7.71885 10.3073 7.71947 10.9563C7.71947 10.9815 7.72198 11.0002 7.68222 10.9999C7.37633 10.9984 7.07045 10.999 6.76456 10.9999C6.73419 10.9999 6.71634 10.9948 6.71979 10.9617C6.72104 10.9494 6.71885 10.9367 6.71885 10.9244C6.7201 10.6232 6.71666 10.3218 6.72386 10.0206C6.73106 9.70504 6.43143 9.49925 6.13901 9.57176C5.92736 9.62441 5.79086 9.80281 5.79086 10.0272C5.79086 10.3371 5.79086 10.6473 5.79211 10.9572C5.79211 10.9912 5.78209 10.9996 5.74797 10.9993C5.34721 10.9954 4.94615 10.9966 4.5454 10.9882C4.33751 10.984 4.12931 10.9695 3.92267 10.9482C3.61991 10.9169 3.32123 10.8603 3.0263 10.7878C2.52286 10.6641 2.03381 10.5032 1.57733 10.2583C1.26299 10.0898 0.969005 9.89908 0.713525 9.65359C0.473388 9.42314 0.273638 9.16772 0.145272 8.86416C0.0782718 8.70621 0.0259862 8.54496 0.0303694 8.37137C0.0309956 8.34068 0.0259862 8.30999 0.0237946 8.2793C0.0219161 8.2793 0.0203507 8.2793 0.0184721 8.2793C0.0122104 8.33075 0.00626174 8.38129 0 8.43154Z" fill="#27AE60"/>
<path d="M0 2.57269C0.00563557 2.61541 0.0115842 2.65844 0.0172198 2.70116C0.0187852 2.70116 0.0206637 2.70116 0.0222292 2.70116C0.0244208 2.67077 0.0297433 2.64008 0.0284909 2.6097C0.0222292 2.45867 0.0707577 2.31848 0.123356 2.18069C0.217282 1.93429 0.361929 1.71587 0.540701 1.51761C0.761115 1.27332 1.01503 1.06664 1.299 0.892444C1.65373 0.67523 2.03193 0.506152 2.42893 0.37468C2.81309 0.24742 3.20726 0.157165 3.60739 0.0921811C3.97088 0.0332144 4.33813 0.00373107 4.70664 0.000421717C4.92142 -0.00138339 5.13619 -0.00138339 5.35066 0.00884553C5.63651 0.0223838 5.92079 0.052168 6.20351 0.098499C6.53068 0.15205 6.85348 0.222449 7.16969 0.318722C7.39105 0.386112 7.60927 0.461927 7.82217 0.553385C8.10582 0.67523 8.37696 0.816629 8.63087 0.987513C8.87696 1.15328 9.09612 1.34733 9.2871 1.57146C9.44271 1.75378 9.56794 1.95264 9.65466 2.17256C9.75673 2.4322 9.79837 2.70056 9.76205 2.97794C9.72323 3.27428 9.60927 3.54234 9.44271 3.79385C9.25955 4.07003 9.0216 4.29356 8.75297 4.49092C8.35598 4.78274 7.91578 4.99605 7.44771 5.15941C7.01252 5.31104 6.56543 5.41483 6.10864 5.48433C5.64433 5.55503 5.17752 5.58631 4.70852 5.57067C4.39543 5.56044 4.08328 5.53517 3.77176 5.49516C3.40701 5.44822 3.05009 5.37 2.69912 5.26952C2.43456 5.19401 2.17564 5.09713 1.92142 4.99274C1.55792 4.84351 1.22073 4.64766 0.913901 4.40638C0.641202 4.19187 0.415153 3.93856 0.243582 3.64282C0.141828 3.46712 0.0729493 3.27879 0.0353788 3.08113C0.025047 3.02758 0.0306825 2.97162 0.028804 2.91657C0.0281778 2.90303 0.0262993 2.88949 0.0184721 2.87565C0.0125235 2.92439 0.00657483 2.97313 0.000626174 3.02217C0.000626174 2.87204 0.000626174 2.72222 0.000626174 2.57209L0 2.57269ZM4.94552 4.03483C4.94552 4.03092 4.94584 4.02701 4.94615 4.0231C5.18503 4.02069 5.42079 3.99481 5.65435 3.94578C5.94083 3.88561 6.21446 3.79475 6.46431 3.64493C6.68441 3.51315 6.87257 3.35099 6.98873 3.12355C7.05949 2.98456 7.08547 2.83684 7.06481 2.68281C7.04133 2.50741 6.95899 2.35879 6.84314 2.22401C6.75235 2.11841 6.6387 2.03989 6.52442 1.96106C6.38291 1.86329 6.22542 1.79379 6.06418 1.73483C5.87852 1.66683 5.68597 1.6202 5.48904 1.58861C5.2583 1.55161 5.02661 1.53687 4.79399 1.54529C4.60989 1.55191 4.4258 1.56184 4.24327 1.59523C4.03663 1.63284 3.83563 1.68669 3.64245 1.76401C3.47339 1.8317 3.3134 1.91684 3.16594 2.02454C3.05917 2.10277 2.96431 2.18971 2.88541 2.2935C2.74202 2.48124 2.68785 2.69123 2.72793 2.92018C2.76518 3.13228 2.88729 3.30015 3.04665 3.44456C3.21509 3.59709 3.41014 3.71171 3.62398 3.79475C3.87414 3.89192 4.13118 3.96653 4.40138 3.9909C4.58265 4.00745 4.76393 4.02009 4.94521 4.03453L4.94552 4.03483Z" fill="#27AE60"/>
<path d="M7.78052 5.56917C7.80932 5.55624 7.83781 5.5427 7.86724 5.53067C8.16029 5.41303 8.44332 5.27645 8.71446 5.1179C9.0695 4.91031 9.37789 4.64917 9.6534 4.35133C9.67501 4.32817 9.69411 4.30259 9.71446 4.27822C9.73387 4.25506 9.75359 4.23189 9.77739 4.20361V5.57489H7.78271C7.78208 5.57278 7.78114 5.57098 7.78052 5.56887V5.56917Z" fill="#27AE60"/>
</g>
<defs>
<clipPath id="clip0_4542_3633">
<rect width="16" height="11" fill="white"/>
</clipPath>
</defs>
</svg>
