<svg width="21" height="24" viewBox="0 0 21 24" fill="none" xmlns="http://www.w3.org/2000/svg">
<path d="M18.0651 12.2096C17.8929 5.90407 15.1089 -9.51896e-05 10.3733 0C5.63762 9.51919e-05 2.82498 5.90461 2.82495 12.2099C2.82493 18.5152 9.36887 18.5152 10.3733 18.5152C11.3778 18.5152 18.2373 18.5152 18.0651 12.2096Z" fill="#007A49"/>
<path fill-rule="evenodd" clip-rule="evenodd" d="M9.59874 8.23142C9.59874 7.72418 10.0099 7.31299 10.5172 7.31299C11.0244 7.31299 11.4356 7.72418 11.4356 8.23142V13.4024L12.3881 12.6246C12.7468 12.3317 13.3283 12.3317 13.687 12.6246C14.0456 12.9174 14.0456 13.3923 13.687 13.6852L11.4356 15.5236V23.2501H9.59874V12.4048L7.83724 10.9664C7.47857 10.6735 7.47857 10.1986 7.83724 9.90572C8.19591 9.61283 8.77742 9.61283 9.13609 9.90572L9.59874 10.2835V8.23142Z" fill="#007A49"/>
<path fill-rule="evenodd" clip-rule="evenodd" d="M9.59874 8.23142C9.59874 7.72418 10.0099 7.31299 10.5172 7.31299C11.0244 7.31299 11.4356 7.72418 11.4356 8.23142V13.4024L12.3881 12.6246C12.7468 12.3317 13.3283 12.3317 13.687 12.6246C14.0456 12.9174 14.0456 13.3923 13.687 13.6852L11.4356 15.5236V23.2501H9.59874V12.4048L7.83724 10.9664C7.47857 10.6735 7.47857 10.1986 7.83724 9.90572C8.19591 9.61283 8.77742 9.61283 9.13609 9.90572L9.59874 10.2835V8.23142Z" fill="white" fill-opacity="0.2"/>
<rect x="20.2749" y="22.5" width="1.49996" height="19.5166" rx="0.749982" transform="rotate(90 20.2749 22.5)" fill="#007A49"/>
</svg>
