<svg width="42" height="42" viewBox="0 0 42 42" fill="none" xmlns="http://www.w3.org/2000/svg">
<rect width="41.9998" height="41.8857" rx="8" fill="#48AADD" fill-opacity="0.15"/>
<path fill-rule="evenodd" clip-rule="evenodd" d="M16.9097 20.1827C16.9097 21.5409 15.8052 22.6372 14.4552 22.6372V22.6454C13.0807 22.6454 11.968 21.5082 12.0007 20.1255C12.0334 18.8082 13.1216 17.7364 14.4388 17.7119C14.8561 17.7119 15.2488 17.8182 15.5924 17.9982L18.7669 15.4456C18.6197 15.1183 18.546 14.7583 18.5542 14.3738C18.5869 13.0892 19.6424 12.0338 20.9351 12.0011C22.3178 11.9602 23.455 13.0811 23.4632 14.4556C23.4632 14.8074 23.3896 15.1428 23.2505 15.4456L26.4249 17.9982C26.7604 17.8346 27.1367 17.7282 27.5458 17.7282C28.904 17.7282 30.0003 18.8082 30.0003 20.1827C30.0003 21.5572 28.8713 22.6781 27.4804 22.6372C26.0977 22.5963 25.0095 21.3936 25.0995 20.0109C25.1241 19.7164 25.1895 19.4464 25.3041 19.1928L22.1214 16.6401C21.786 16.8119 21.4096 16.9101 21.0087 16.9101C20.6078 16.9101 20.2314 16.8119 19.896 16.6401L16.7133 19.2091C16.8361 19.5118 16.9097 19.8391 16.9097 20.1827ZM29.2149 23.8645H25.8686L25.8932 23.8564C25.4596 23.8564 25.1077 24.2082 25.1077 24.6418V28.3563H23.4714V20.9601C23.4714 20.5264 23.1196 20.1746 22.686 20.1746H19.3397C18.9061 20.1746 18.5542 20.5264 18.5542 20.9601V28.3645H16.9179V24.65C16.9179 24.2164 16.5661 23.8645 16.1325 23.8645H12.7862C12.3526 23.8645 12.0008 24.2164 12.0008 24.65V30.0008H30.0004V24.65C30.0004 24.2164 29.6486 23.8645 29.2149 23.8645Z" fill="#2D9CDB"/>
</svg>
