<svg width="21" height="22" viewBox="0 0 21 22" fill="none" xmlns="http://www.w3.org/2000/svg">
<g clip-path="url(#clip0_4531_3382)">
<path d="M14.3944 3.38281L14.0268 3.86769C13.7741 4.20598 7.80035 12.0768 7.80035 15.5161C7.80035 18.9553 10.7642 21.9999 14.3944 21.9999C18.0246 21.9999 21 19.0907 21 15.5161C21 11.9415 15.0263 4.20598 14.7621 3.86769L14.3944 3.38281ZM10.1899 15.5161C10.3162 16.0573 10.4885 16.5535 10.7298 17.0045C11.465 18.4028 12.8321 19.3162 14.3944 19.6432C12.0739 20.1845 9.63843 17.7939 10.1899 15.5161Z" fill="#007A49"/>
<path d="M4.26202 11.9641C6.60557 11.9641 8.51257 10.0923 8.51257 7.7919C8.51257 5.64941 5.02023 1.01486 4.62964 0.48488L4.26202 0L3.89441 0.48488C3.49233 1.00359 0.0114746 5.63813 0.0114746 7.7919C0.0114746 10.0923 1.91848 11.9641 4.26202 11.9641ZM2.01038 7.35213C2.13675 7.69042 2.2746 7.97232 2.43544 8.23168C2.92942 9.05484 3.68762 9.57355 4.60666 9.90056C3.15918 10.4418 1.45896 8.77294 2.01038 7.35213Z" fill="#007A49"/>
</g>
<defs>
<clipPath id="clip0_4531_3382">
<rect width="21" height="22" fill="white"/>
</clipPath>
</defs>
</svg>
