<svg width="42" height="42" viewBox="0 0 42 42" fill="none" xmlns="http://www.w3.org/2000/svg">
<rect width="41.9998" height="41.8857" rx="8" fill="#EB5757" fill-opacity="0.15"/>
<path d="M19.6011 15.3756H15.5935L16.4724 13.1252C16.724 12.5151 17.2465 12 17.5997 12C17.9529 12 18.4448 12.4395 18.727 13.1252L19.6011 15.3756ZM16.4724 30H18.727V26.6244H16.4724V30ZM21.0058 23.2504H12.5261L12.0874 24.3756C11.8229 24.9551 12.1858 25.5008 12.8099 25.5008H22.3911C22.783 25.5008 23.0862 25.2996 23.1782 24.9954C22.3121 24.6042 21.5751 23.9973 21.0074 23.2504H21.0058ZM19.8543 19.8748H13.8421L12.9631 22.1252H20.3301C20.0285 21.4346 19.8543 20.6764 19.8543 19.8748ZM20.4139 17.4715L20.0382 16.4992H15.1564L14.2807 18.7496H19.9656C20.0575 18.2989 20.2188 17.8755 20.4123 17.4715H20.4139ZM24.3635 25.4123V30H26.6181V25.4123C26.2488 25.4654 25.8746 25.5008 25.4908 25.5008C25.107 25.5008 24.7328 25.4654 24.3635 25.4123ZM25.4892 12C23.2346 12 20.9816 17.3894 20.9816 19.8748C20.9816 22.3602 23.0008 24.3756 25.4908 24.3756C27.9809 24.3756 30 22.3602 30 19.8748C30 17.3894 27.7438 12 25.4892 12Z" fill="#EB5757"/>
</svg>
