<svg width="22" height="22" viewBox="0 0 22 22" fill="none" xmlns="http://www.w3.org/2000/svg">
<path d="M13.1522 12.3636C14.4472 12.8006 16.1845 13.4841 18.5239 11.0471C21.4656 7.95456 21.9292 4.20658 21.9985 2.77237C22.0198 2.53147 21.812 2.30737 21.5828 2.33538C20.1706 2.40821 16.1898 2.62671 13.1788 5.81446C10.866 8.24588 11.255 9.75853 11.7187 10.4644C13.3387 8.56522 15.5876 6.83969 18.3641 5.74163C17.4368 6.32427 15.2838 7.90974 13.6425 9.66328C12.3209 11.0751 11.1644 12.6101 10.4237 14.2404C9.98139 13.0975 9.19801 11.7586 7.96699 10.3692C6.41623 8.59323 4.33255 6.96294 3.42661 6.35228C6.13378 7.52318 8.28674 9.29913 9.8375 11.2207C10.3225 10.5373 10.7381 9.08064 8.54253 6.59319C5.71812 3.33261 1.80656 3.01887 0.442315 2.87321C0.207835 2.8508 0 3.04128 0 3.28779C0.0213164 4.69958 0.346391 8.39715 3.17081 11.5401C5.13724 13.753 6.73597 13.5121 7.96166 13.148C8.42529 13.7306 9.46447 15.2432 9.44315 17.2601C7.13032 17.529 5.15856 18.5262 4.07143 19.938C3.84228 20.2294 4.05011 20.6663 4.3965 20.6663H16.8293C17.2023 20.6663 17.3835 20.2294 17.1543 19.938C16.0406 18.5038 13.9835 17.4562 11.5748 17.2377C11.5322 14.627 12.598 13.2432 13.1522 12.3636Z" fill="#007A49"/>
</svg>
