<svg width="20" height="20" viewBox="0 0 16 11" fill="none" xmlns="http://www.w3.org/2000/svg">
<path fill-rule="evenodd" clip-rule="evenodd" d="M15.8115 6.56389C15.4393 5.54053 14.5771 4.75159 13.4888 4.44954V4.30528C13.4888 2.97085 12.8386 1.71757 11.7362 0.901591C10.6337 0.0810987 9.1967 -0.198409 7.84923 0.139705C6.50177 0.47782 5.38987 1.38848 4.84335 2.61471C4.4947 2.46593 4.1225 2.3938 3.74087 2.3938C3.01531 2.3938 2.31802 2.67331 1.80448 3.16921C1.29093 3.66061 1.00353 4.33233 1.00353 5.02659C1.00353 5.12126 1.00353 5.21143 1.01767 5.30159C0.36278 5.92823 0 6.78028 0 7.66389C0 8.552 0.372203 9.39954 1.0318 10.0262C1.6914 10.6528 2.58186 11 3.5053 11H12.4994C13.6302 11 14.6949 10.4815 15.3498 9.5979C16.0047 8.7143 16.179 7.58725 15.8068 6.56389H15.8115ZM10.351 8.19585C10.6101 8.4438 10.6101 8.85405 10.351 9.102C10.0919 9.34995 9.66313 9.34995 9.404 9.102L8.00471 7.76307L6.60542 9.102C6.34629 9.34995 5.91755 9.34995 5.65842 9.102C5.39929 8.85405 5.39929 8.4438 5.65842 8.19585L7.05771 6.85692L5.65842 5.51798C5.39929 5.27003 5.39929 4.85979 5.65842 4.61184C5.91755 4.36389 6.34629 4.36389 6.60542 4.61184L8.00471 5.95077L9.404 4.61184C9.66313 4.36389 10.0919 4.36389 10.351 4.61184C10.6101 4.85979 10.6101 5.27003 10.351 5.51798L8.95171 6.85692L10.351 8.19585Z" fill="#EB5757"/>
</svg>
