<svg width="12" height="8" viewBox="0 0 12 8" fill="none" xmlns="http://www.w3.org/2000/svg">
<path fill-rule="evenodd" clip-rule="evenodd" d="M11.8589 4.78227C11.5798 4.03806 10.9331 3.46432 10.1168 3.24466V3.13975C10.1168 2.16932 9.6292 1.2579 8.80232 0.664495C7.97545 0.0678107 6.89769 -0.135455 5.88706 0.110431C4.87644 0.356317 4.0425 1.01857 3.63259 1.91032C3.3711 1.80213 3.09194 1.74967 2.80572 1.74967C2.26154 1.74967 1.73856 1.95294 1.35339 2.31357C0.96822 2.67093 0.752668 3.15942 0.752668 3.66431C0.752668 3.73316 0.752668 3.79873 0.763269 3.8643C0.272091 4.32001 0 4.93964 0 5.58222C0 6.22808 0.279158 6.84444 0.773869 7.30015C1.26858 7.75586 1.93644 8.0083 2.62904 8.0083H9.37477C10.2229 8.0083 11.0215 7.63128 11.5126 6.98869C12.0038 6.34611 12.1346 5.52649 11.8554 4.78227H11.8589ZM7.76343 5.96908C7.95778 6.1494 7.95778 6.44774 7.76343 6.62806C7.56908 6.80838 7.24752 6.80838 7.05317 6.62806L6.00367 5.65435L4.95418 6.62806C4.75983 6.80838 4.43826 6.80838 4.24391 6.62806C4.04956 6.44774 4.04956 6.1494 4.24391 5.96908L5.29341 4.99537L4.24391 4.02166C4.04956 3.84135 4.04956 3.543 4.24391 3.36269C4.43826 3.18237 4.75983 3.18237 4.95418 3.36269L6.00367 4.3364L7.05317 3.36269C7.24752 3.18237 7.56908 3.18237 7.76343 3.36269C7.95778 3.543 7.95778 3.84135 7.76343 4.02166L6.71394 4.99537L7.76343 5.96908Z" fill="#EB5757"/>
</svg>
