<svg xmlns="http://www.w3.org/2000/svg">
<path d="M13.9123 4.90686C14.1885 4.90686 14.4123 5.13072 14.4123 5.40686V6.75549C14.4123 7.20447 14.9582 7.42593 15.271 7.10386L18.064 4.2282C18.2524 4.03418 18.2524 3.72549 18.064 3.53148L15.271 0.655818C14.9582 0.333747 14.4123 0.555201 14.4123 1.00418V2.35281C14.4123 2.62895 14.1885 2.85281 13.9123 2.85281L4.89234 2.85281C4.6162 2.85281 4.39234 2.62895 4.39234 2.35281V1.00418C4.39234 0.555202 3.84648 0.333747 3.53367 0.655818L0.740688 3.53148C0.55225 3.72549 0.55225 4.03418 0.740688 4.2282L3.53367 7.10386C3.84648 7.42593 4.39234 7.20447 4.39234 6.7555V5.40686C4.39234 5.13072 4.6162 4.90686 4.89234 4.90686L13.9123 4.90686Z" fill="#4D5153"/>
</svg>
