<svg width="22" height="22" viewBox="0 0 22 22" fill="none" xmlns="http://www.w3.org/2000/svg">
<g clip-path="url(#clip0_52_1134)">
<path fill-rule="evenodd" clip-rule="evenodd" d="M16.9897 6.42645C16.9897 3.14774 14.2855 0.5 10.9844 0.5C7.68319 0.5 5.01025 3.14774 5.01025 6.42645C5.01025 9.70516 7.81586 13.9284 9.58351 16.3013C10.2781 17.2381 11.6906 17.2381 12.3891 16.3013C14.1646 13.9206 16.9936 9.62774 16.9936 6.42258L16.9897 6.42645ZM8.04608 6.06258C8.04608 4.47548 9.3806 3.14774 10.9844 3.14774C12.5881 3.14774 13.9538 4.47161 13.9538 6.06258C13.9538 7.65355 12.6193 9.00839 10.9844 9.00839C9.34938 9.00839 8.04608 7.68452 8.04608 6.06258Z" fill="#007A49"/>
<path fill-rule="evenodd" clip-rule="evenodd" d="M13.392 16.4755C16.7946 16.7233 19.0227 17.4587 19.8734 18.02C18.8471 18.7245 15.7645 19.6729 10.9805 19.6729C6.19652 19.6729 3.15289 18.7245 2.08762 18.02C2.93828 17.4587 5.20539 16.7194 8.60411 16.4755C8.21391 15.9491 7.8237 15.3491 7.43349 14.7529C3.11777 15.2097 0 16.5103 0 18.02C0 19.9516 4.92444 21.5 10.9805 21.5C17.0365 21.5 21.9961 19.9555 21.9961 18.02C21.9961 16.5103 18.8783 15.2097 14.5548 14.7529C14.1646 15.3491 13.7744 15.9491 13.3842 16.4755H13.392Z" fill="#007A49"/>
</g>
<defs>
<clipPath id="clip0_52_1134">
<rect width="22" height="21" fill="white" transform="translate(0 0.5)"/>
</clipPath>
</defs>
</svg>
