<svg width="28" height="28" viewBox="0 0 28 28" fill="none" xmlns="http://www.w3.org/2000/svg">
<g filter="url(#filter0_b_2146_11806)">
<rect width="28" height="28" rx="4" fill="white"/>
<path d="M8.85115 11.8752C8.77805 11.8752 8.70828 11.8589 8.63684 11.854L9.0937 20.8927C9.1452 21.8421 9.94428 22.5843 10.9112 22.5827H17.0912C18.0597 22.5827 18.8588 21.8404 18.9086 20.8911L19.3655 11.854C19.2924 11.8605 19.2243 11.8752 19.1512 11.8752H8.85115ZM12.1837 20.7981C12.1837 21.126 11.9129 21.3935 11.5773 21.3935C11.2418 21.3935 10.971 21.1276 10.971 20.7981V13.6598C10.971 13.3319 11.2418 13.0644 11.5773 13.0644C11.9129 13.0644 12.1837 13.3303 12.1837 13.6598V20.7981ZM14.6075 20.7981C14.6075 21.126 14.3367 21.3935 14.0012 21.3935C13.6656 21.3935 13.3948 21.1276 13.3948 20.7981V13.6598C13.3948 13.3319 13.6656 13.0644 14.0012 13.0644C14.3367 13.0644 14.6075 13.3303 14.6075 13.6598V20.7981ZM17.0314 20.7981C17.0314 21.126 16.7606 21.3935 16.425 21.3935C16.0894 21.3935 15.8186 21.1276 15.8186 20.7981V13.6598C15.8186 13.3319 16.0894 13.0644 16.425 13.0644C16.7606 13.0644 17.0314 13.3303 17.0314 13.6598V20.7981Z" fill="#4F4F4F"/>
<path d="M19.8481 7.42884H17.4302C17.4208 6.32177 16.5023 5.42619 15.3669 5.41699H12.6264C11.4872 5.41699 10.5631 6.3181 10.5631 7.42884H8.15457C5.93279 7.42884 5.93845 10.7813 8.15457 10.7813H19.8463C22.068 10.7813 22.0624 7.42884 19.8463 7.42884H19.8481ZM11.938 7.42884C11.938 7.05921 12.2454 6.75761 12.6264 6.75761H15.3687C15.746 6.76313 16.0515 7.05921 16.0572 7.42884H11.938Z" fill="#4F4F4F"/>
</g>
<defs>
<filter id="filter0_b_2146_11806" x="-50" y="-50" width="128" height="128" filterUnits="userSpaceOnUse" color-interpolation-filters="sRGB">
<feFlood flood-opacity="0" result="BackgroundImageFix"/>
<feGaussianBlur in="BackgroundImageFix" stdDeviation="25"/>
<feComposite in2="SourceAlpha" operator="in" result="effect1_backgroundBlur_2146_11806"/>
<feBlend mode="normal" in="SourceGraphic" in2="effect1_backgroundBlur_2146_11806" result="shape"/>
</filter>
</defs>
</svg>
