<svg width="28" height="28" viewBox="0 0 28 28" fill="none" xmlns="http://www.w3.org/2000/svg">
<g filter="url(#filter0_b_2146_11800)">
<rect width="28" height="28" rx="4" fill="white"/>
<rect width="28" height="28" rx="4" fill="white" fill-opacity="0.2"/>
<path d="M20.8632 10.4017L17.6055 7.14512C17.5116 7.05122 17.3835 7 17.2511 7C17.1231 7.00427 17.0035 7.05549 16.9096 7.14512L15.3768 8.67309L19.3261 12.6211L20.8589 11.0888C20.9485 10.9992 20.9998 10.8712 20.9998 10.7431C21.0041 10.6151 20.9528 10.4913 20.8632 10.4017Z" fill="#4F4F4F"/>
<path d="M7.1537 16.8981C7.06404 16.9877 7.01281 17.1115 7.01281 17.2395L7 20.5131C7 20.6455 7.05123 20.7692 7.14516 20.8631C7.23909 20.957 7.36291 21.0082 7.49526 21.0082L10.7657 20.9954C10.8938 20.9954 11.0176 20.9442 11.1073 20.8503L18.643 13.3171L14.6937 9.36914L7.1537 16.8981Z" fill="#4F4F4F"/>
</g>
<defs>
<filter id="filter0_b_2146_11800" x="-50" y="-50" width="128" height="128" filterUnits="userSpaceOnUse" color-interpolation-filters="sRGB">
<feFlood flood-opacity="0" result="BackgroundImageFix"/>
<feGaussianBlur in="BackgroundImageFix" stdDeviation="25"/>
<feComposite in2="SourceAlpha" operator="in" result="effect1_backgroundBlur_2146_11800"/>
<feBlend mode="normal" in="SourceGraphic" in2="effect1_backgroundBlur_2146_11800" result="shape"/>
</filter>
</defs>
</svg>
