<svg width="30" height="30" viewBox="0 0 30 30" fill="none" xmlns="http://www.w3.org/2000/svg">
<path d="M27.8575 11.7856H18.2145V2.14293C18.2145 1.57459 17.9887 1.02953 17.5868 0.627649C17.1849 0.225772 16.6398 0 16.0715 0L13.9295 0C13.3611 0 12.816 0.225772 12.4142 0.627649C12.0123 1.02953 11.7865 1.57459 11.7865 2.14293V11.7856H2.14349C1.57513 11.7856 1.03005 12.0114 0.628158 12.4133C0.226268 12.8151 0.000488281 13.3602 0.000488281 13.9285L0.000488281 16.0715C0.000488281 16.6398 0.226268 17.1849 0.628158 17.5867C1.03005 17.9886 1.57513 18.2144 2.14349 18.2144H11.7865V27.8571C11.7865 28.4254 12.0123 28.9705 12.4142 29.3724C12.816 29.7742 13.3611 30 13.9295 30H16.0725C16.6408 30 17.1859 29.7742 17.5878 29.3724C17.9897 28.9705 18.2155 28.4254 18.2155 27.8571V18.2134H27.8585C28.4267 18.2131 28.9715 17.9872 29.3732 17.5854C29.7748 17.1835 30.0005 16.6386 30.0005 16.0705V13.9285C30.0005 13.3602 29.7747 12.8151 29.3728 12.4133C28.9709 12.0114 28.4258 11.7856 27.8575 11.7856Z" fill="#007A49"/>
</svg>
