<svg width="16" height="13" viewBox="0 0 16 13" fill="none" xmlns="http://www.w3.org/2000/svg">
<g clip-path="url(#clip0_3524_983)">
<path fill-rule="evenodd" clip-rule="evenodd" d="M6.47005 0H9.53149C10.8986 0 11.9831 0 12.831 0.113457C13.7035 0.22998 14.4101 0.476825 14.9662 1.03338C15.5238 1.58993 15.7696 2.29367 15.8879 3.16452C16.0015 4.01085 16.0015 5.09176 16.0015 6.45784V6.54216C16.0015 7.90671 16.0015 8.98915 15.8879 9.83548C15.7711 10.7063 15.5238 11.4116 14.9662 11.9666C14.4086 12.5216 13.7035 12.7685 12.831 12.8865C11.9831 13 10.9002 13 9.53149 13H6.47005C5.10292 13 4.01843 13 3.17051 12.8865C2.298 12.77 1.5914 12.5232 1.03533 11.9666C0.477727 11.4101 0.231951 10.7063 0.113671 9.83548C0 8.98762 0 7.90671 0 6.54216V6.45784C0 5.09329 0 4.01085 0.113671 3.16452C0.230415 2.29367 0.477727 1.58839 1.03533 1.03338C1.59293 0.476825 2.298 0.231513 3.17051 0.113457C4.01843 0 5.10138 0 6.47005 0Z" fill="#4F4F4F"/>
<path fill-rule="evenodd" clip-rule="evenodd" d="M5.48078 3.09424C4.61903 3.09424 3.9201 3.79184 3.9201 4.65197C3.9201 5.51209 4.61903 6.2097 5.48078 6.2097C6.34253 6.2097 7.04146 5.51209 7.04146 4.65197C7.04146 3.79184 6.34253 3.09424 5.48078 3.09424Z" fill="white"/>
<path fill-rule="evenodd" clip-rule="evenodd" d="M5.4808 6.6543C4.74194 6.6543 4.05223 6.80302 3.52842 7.06366C3.03226 7.31051 2.54993 7.73827 2.54993 8.34848V8.38681C2.54993 8.70112 2.54686 9.23007 3.0507 9.59344C3.28418 9.76209 3.5914 9.86942 3.97389 9.93841C4.35945 10.0074 4.85254 10.0427 5.48388 10.0427C6.11521 10.0427 6.6083 10.0074 6.99386 9.93841C7.37481 9.86942 7.68357 9.76209 7.91705 9.59344C8.41936 9.23007 8.41782 8.70112 8.41782 8.38681V8.34848C8.41782 7.73827 7.93549 7.31204 7.43933 7.06366C6.91552 6.80148 6.22427 6.6543 5.48695 6.6543H5.4808Z" fill="white"/>
<path d="M12.9232 7.05744C13.2319 7.05744 13.4808 6.80753 13.4808 6.50089C13.4808 6.19425 13.2304 5.94434 12.9232 5.94434H9.94621C9.63746 5.94434 9.38861 6.19425 9.38861 6.50089C9.38861 6.80753 9.639 7.05744 9.94621 7.05744H12.9232Z" fill="white"/>
<path d="M13.4808 4.27188C13.4808 4.58006 13.2304 4.82844 12.9232 4.82844H9.20275C8.89399 4.82844 8.64514 4.57852 8.64514 4.27188C8.64514 3.96524 8.89553 3.71533 9.20275 3.71533H12.9232C13.2319 3.71533 13.4808 3.96524 13.4808 4.27188Z" fill="white"/>
<path d="M12.9232 9.28547C13.232 9.28547 13.4808 9.03555 13.4808 8.72891C13.4808 8.42227 13.2304 8.17236 12.9232 8.17236H10.6913C10.3825 8.17236 10.1337 8.42227 10.1337 8.72891C10.1337 9.03555 10.3841 9.28547 10.6913 9.28547H12.9232Z" fill="white"/>
</g>
<defs>
<clipPath id="clip0_3524_983">
<rect width="16" height="13" fill="white"/>
</clipPath>
</defs>
</svg>
