<svg  xmlns="http://www.w3.org/2000/svg">
<g clip-path="url(#clip0_2980_341)">
<path d="M16.95 14.5H21.04C21.57 14.5 22 14.93 22 15.46V22H0V15.46C0 14.93 0.43 14.5 0.96 14.5H5.05C5.58 14.5 6.01 14.93 6.01 15.46V20H8.01V10.95C8.01 10.42 8.44 9.98999 8.97 9.98999H13.06C13.59 9.98999 14.02 10.42 14.02 10.95V19.99H16.02V15.45C16.02 14.92 16.45 14.49 16.98 14.49L16.95 14.5Z" fill="#007A49"/>
<path d="M3.00001 13C4.65001 13 6.00001 11.66 6.00001 9.99998C6.00001 9.57998 5.91001 9.17998 5.76001 8.80998L9.65001 5.66998C10.06 5.87998 10.52 5.99998 11.01 5.99998C11.5 5.99998 11.96 5.87998 12.37 5.66998L16.26 8.78998C16.12 9.09998 16.04 9.42998 16.01 9.78998C15.9 11.48 17.23 12.95 18.92 13C20.62 13.05 22 11.68 22 9.99998C22 8.31998 20.66 6.99998 19 6.99998C18.5 6.99998 18.04 7.12998 17.63 7.32998L13.75 4.20998C13.92 3.83998 14.01 3.42998 14.01 2.99998C14 1.31998 12.61 -0.0500162 10.92 -1.62303e-05C9.34001 0.0399838 8.05001 1.32998 8.01001 2.89998C8.00001 3.36998 8.09001 3.80998 8.27001 4.20998L4.39001 7.32998C3.97001 7.10998 3.49001 6.97998 2.98001 6.97998C1.37001 7.00998 0.0400058 8.31998 5.8256e-06 9.92998C-0.0399942 11.62 1.32001 13.01 3.00001 13.01V13Z" fill="#007A49"/>
<path d="M3.00001 13C4.65001 13 6.00001 11.66 6.00001 9.99998C6.00001 9.57998 5.91001 9.17998 5.76001 8.80998L9.65001 5.66998C10.06 5.87998 10.52 5.99998 11.01 5.99998C11.5 5.99998 11.96 5.87998 12.37 5.66998L16.26 8.78998C16.12 9.09998 16.04 9.42998 16.01 9.78998C15.9 11.48 17.23 12.95 18.92 13C20.62 13.05 22 11.68 22 9.99998C22 8.31998 20.66 6.99998 19 6.99998C18.5 6.99998 18.04 7.12998 17.63 7.32998L13.75 4.20998C13.92 3.83998 14.01 3.42998 14.01 2.99998C14 1.31998 12.61 -0.0500162 10.92 -1.62303e-05C9.34001 0.0399838 8.05001 1.32998 8.01001 2.89998C8.00001 3.36998 8.09001 3.80998 8.27001 4.20998L4.39001 7.32998C3.97001 7.10998 3.49001 6.97998 2.98001 6.97998C1.37001 7.00998 0.0400058 8.31998 5.8256e-06 9.92998C-0.0399942 11.62 1.32001 13.01 3.00001 13.01V13Z" fill="white" fill-opacity="0.2"/>
</g>
<defs>
<clipPath id="clip0_2980_341">
<rect width="22" height="22" fill="white"/>
</clipPath>
</defs>
</svg>
