<svg width="20" height="20" viewBox="0 0 20 20" fill="none" xmlns="http://www.w3.org/2000/svg">
<g clip-path="url(#clip0_2080_11155)">
<path d="M14.8275 6.54338C14.9606 6.49886 15.0551 6.36531 15.0551 6.21842C15.0551 6.07152 14.9649 5.94242 14.8275 5.89345L14.1406 5.66198C13.7413 5.52843 13.4279 5.20347 13.2991 4.78948L13.0758 4.07724C13.0329 3.93924 12.9084 3.84131 12.7624 3.84131C12.6164 3.84131 12.4962 3.93479 12.449 4.07724L12.2257 4.78948C12.0969 5.20347 11.7835 5.52843 11.3842 5.66198L10.6973 5.89345C10.5642 5.93797 10.4697 6.07152 10.4697 6.21842C10.4697 6.36531 10.5599 6.49441 10.6973 6.54338L11.3842 6.77485C11.7835 6.9084 12.0969 7.23336 12.2257 7.64735L12.449 8.35959C12.4919 8.49759 12.6164 8.59552 12.7624 8.59552C12.9084 8.59552 13.0286 8.50204 13.0758 8.35959L13.2991 7.64735C13.4279 7.23336 13.7413 6.9084 14.1406 6.77485L14.8275 6.54338Z" fill="#007A49"/>
<path d="M16.8369 9.40578L16.3517 9.24108C16.0684 9.14759 15.8451 8.91612 15.755 8.62232L15.5961 8.1193C15.5661 8.02136 15.4759 7.95459 15.3771 7.95459C15.2784 7.95459 15.1882 8.02136 15.1582 8.1193L14.9993 8.62232C14.9092 8.91612 14.6859 9.14759 14.4026 9.24108L13.9174 9.40578C13.8229 9.43694 13.7585 9.53042 13.7585 9.63281C13.7585 9.73519 13.8229 9.82868 13.9174 9.85984L14.4026 10.0245C14.6859 10.118 14.9092 10.3495 14.9993 10.6433L15.1582 11.1463C15.1882 11.2443 15.2784 11.311 15.3771 11.311C15.4759 11.311 15.5661 11.2443 15.5961 11.1463L15.755 10.6433C15.8451 10.3495 16.0684 10.118 16.3517 10.0245L16.8369 9.85984C16.9314 9.82868 16.9958 9.73519 16.9958 9.63281C16.9958 9.53042 16.9314 9.43694 16.8369 9.40578Z" fill="#007A49"/>
<path d="M10.8304 10.3272L11.1782 10.4429C11.38 10.5097 11.5388 10.6744 11.6032 10.8836L11.7148 11.2442C11.7363 11.3154 11.8007 11.3644 11.8737 11.3644C11.9467 11.3644 12.0068 11.3154 12.0325 11.2442L12.1442 10.8836C12.2086 10.6744 12.3674 10.5097 12.5692 10.4429L12.917 10.3272C12.9857 10.3049 13.0329 10.2382 13.0329 10.1625C13.0329 10.0868 12.9857 10.0245 12.917 9.99777L12.5692 9.88203C12.3674 9.81526 12.2086 9.65056 12.1442 9.44133L12.0325 9.08076C12.0111 9.00954 11.9467 8.96057 11.8737 8.96057C11.8007 8.96057 11.7406 9.00954 11.7148 9.08076L11.6032 9.44133C11.5388 9.65056 11.38 9.81526 11.1782 9.88203L10.8304 9.99777C10.7617 10.02 10.7145 10.0868 10.7145 10.1625C10.7145 10.2382 10.7617 10.3005 10.8304 10.3272Z" fill="#007A49"/>
<path d="M12.9256 11.2932L12.8612 11.5068C12.8011 11.7072 12.6852 11.8852 12.5306 12.0232V14.2045C12.5306 14.3736 12.4662 14.5383 12.3503 14.6585C12.2343 14.7787 12.0755 14.8455 11.9123 14.8455H11.0708C10.9721 14.8455 10.8733 14.8855 10.8047 14.9612C10.736 15.0369 10.693 15.1348 10.693 15.2372C10.693 15.3396 10.6544 15.442 10.5814 15.5132C10.5084 15.5844 10.414 15.6289 10.3152 15.6289H8.25009C8.15134 15.6289 8.05259 15.5889 7.9839 15.5132C7.91521 15.442 7.87227 15.3396 7.87227 15.2372C7.87227 15.1348 7.83363 15.0324 7.76064 14.9612C7.68766 14.8855 7.5932 14.8455 7.49445 14.8455H6.65295C6.4898 14.8455 6.33095 14.7787 6.21503 14.6585C6.09911 14.5383 6.0347 14.3736 6.03041 14.2045V4.71383C6.03041 4.54467 6.09481 4.37997 6.21503 4.25978C6.33095 4.13959 6.4898 4.07281 6.65295 4.07281H11.8394L11.8694 3.98378C11.9467 3.7256 12.1055 3.50302 12.3159 3.34277C12.4147 3.27154 12.5177 3.21367 12.6293 3.17361C12.4061 3.05787 12.1571 3 11.9081 3H6.65295C6.21503 3 5.79428 3.18251 5.48515 3.50302C5.17603 3.82353 5 4.25978 5 4.71383V15.2817C5 15.7358 5.17603 16.172 5.48515 16.497C5.79428 16.8175 6.21503 17 6.65295 17H11.9081C12.346 17 12.7667 16.8175 13.0758 16.497C13.385 16.1765 13.561 15.7402 13.561 15.2817V10.9548C13.4408 11.075 13.2948 11.1685 13.136 11.2219L12.9256 11.2932Z" fill="#007A49"/>
</g>
<defs>
<clipPath id="clip0_2080_11155">
<rect width="12" height="14" fill="white" transform="translate(5 3)"/>
</clipPath>
</defs>
</svg>
