<svg width="24" height="24" viewBox="0 0 24 24" fill="none" xmlns="http://www.w3.org/2000/svg">
<g filter="url(#filter0_b_3696_957)">
<rect width="24" height="24" rx="3.42857" fill="#E0E0E0"/>
<path d="M17.8827 8.91572L15.0905 6.12438C15.01 6.0439 14.9002 6 14.7867 6C14.6769 6.00366 14.5745 6.04756 14.494 6.12438L13.1802 7.43408L16.5653 10.8181L17.8791 9.50472C17.9559 9.42789 17.9998 9.31814 17.9998 9.20839C18.0035 9.09864 17.9596 8.99255 17.8827 8.91572Z" fill="#4F4F4F"/>
<path d="M6.13175 14.4841C6.05489 14.561 6.01098 14.667 6.01098 14.7768L6 17.5828C6 17.6962 6.04392 17.8023 6.12443 17.8828C6.20494 17.9632 6.31106 18.0071 6.42451 18.0071L9.22775 17.9962C9.33754 17.9962 9.44367 17.9523 9.52052 17.8718L15.9797 11.4148L12.5946 8.03076L6.13175 14.4841Z" fill="#4F4F4F"/>
</g>
<defs>
<filter id="filter0_b_3696_957" x="-42.8571" y="-42.8571" width="109.714" height="109.714" filterUnits="userSpaceOnUse" color-interpolation-filters="sRGB">
<feFlood flood-opacity="0" result="BackgroundImageFix"/>
<feGaussianBlur in="BackgroundImageFix" stdDeviation="21.4286"/>
<feComposite in2="SourceAlpha" operator="in" result="effect1_backgroundBlur_3696_957"/>
<feBlend mode="normal" in="SourceGraphic" in2="effect1_backgroundBlur_3696_957" result="shape"/>
</filter>
</defs>
</svg>
