<svg width="24" height="24" viewBox="0 0 24 24" fill="none" xmlns="http://www.w3.org/2000/svg">
<path d="M8.22087 4.9005C8.7233 4.9005 9.16019 4.48545 9.16019 3.96118C9.16019 3.43691 8.7233 3.0437 8.22087 3.0437H3V21.0219H20.0388C20.5413 21.0219 20.9782 20.6068 20.9782 20.0825V14.8617H19.1214V19.1432H4.8568V4.9005H8.22087Z" fill="white"/>
<path d="M10.9951 14.3811L19.0558 6.32039V11.8252C19.0558 12.3714 19.4927 12.7864 20.0169 12.7864C20.5412 12.7864 20.9781 12.3495 20.9781 11.8252V3H12.1529C11.6068 3 11.1917 3.43689 11.1917 3.96117C11.1917 4.48544 11.6286 4.92233 12.1529 4.92233H17.6577L9.59705 12.983L10.9733 14.3592L10.9951 14.3811Z" fill="white"/>
</svg>
