<svg width="22" height="22" viewBox="0 0 22 22" fill="none" xmlns="http://www.w3.org/2000/svg">
<g clip-path="url(#clip0_2980_654)">
<path d="M20.9265 9.94948H18.8025C18.3639 8.75361 17.2395 7.89941 15.8957 7.89941C14.5519 7.89941 13.43 8.75361 12.9889 9.94948H1.02503C0.46407 9.94948 0 10.4136 0 11C0 11.5865 0.46407 12.0505 1.05053 12.0505H13.0144C13.4529 13.2464 14.5774 14.1006 15.9212 14.1006C17.265 14.1006 18.3869 13.2464 18.828 12.0505H20.952C21.5385 12.0505 22.0026 11.5865 22.0026 11C21.9796 10.4136 21.5155 9.94948 20.9291 9.94948H20.9265Z" fill="#007A49"/>
<path d="M20.9265 17.8616H8.76634C8.32777 16.6657 7.20329 15.8115 5.85953 15.8115C4.51576 15.8115 3.39383 16.6657 2.95271 17.8616H1.05053C0.46407 17.8616 0 18.3257 0 18.8866C0 19.4476 0.46407 19.9372 1.05053 19.9372H2.97821C3.39383 21.133 4.51576 21.9872 5.85953 21.9872C7.20329 21.9872 8.32522 21.133 8.76634 19.9372H20.9265C21.513 19.9372 21.9771 19.4731 21.9771 18.8866C21.9771 18.3257 21.513 17.8616 20.9265 17.8616Z" fill="#007A49"/>
<path d="M1.05053 4.13807H8.08299C8.52156 5.33395 9.64604 6.18814 10.9898 6.18814C12.3336 6.18814 13.4555 5.33395 13.8966 4.13807H20.9291C21.5155 4.13807 21.9796 3.674 21.9796 3.08754C21.9796 2.50108 21.5155 2.03701 20.9291 2.03701H13.8966C13.458 0.864083 12.3336 0.0098877 10.9898 0.0098877C9.64604 0.0098877 8.52411 0.864083 8.08299 2.05996H1.05053C0.46407 2.06251 0 2.52658 0 3.11304C0 3.6995 0.46407 4.13807 1.05053 4.13807Z" fill="#007A49"/>
</g>
<defs>
<clipPath id="clip0_2980_654">
<rect width="22" height="21.9745" fill="white" transform="translate(0 0.0126953)"/>
</clipPath>
</defs>
</svg>
