<svg width="42" height="42" viewBox="0 0 42 42" fill="none" xmlns="http://www.w3.org/2000/svg">
<rect width="41.9998" height="41.8857" rx="8" fill="#F2994A" fill-opacity="0.15"/>
<path d="M19.2345 21.0896C17.4368 21.0896 17.3783 17.6857 17.3783 17.6294C17.3783 17.4876 17.3327 17.3478 17.2482 17.2331C17.1636 17.1163 17.0421 17.0287 16.9034 16.9807C16.7667 16.9328 16.6171 16.9244 16.4762 16.9599C16.3352 16.9953 16.2073 17.0704 16.1119 17.1747C15.2054 18.228 14.5614 19.469 14.2339 20.7997C13.1909 25.8368 15.9037 28.1895 17.1115 28.9696C18.1784 29.6474 19.4297 30.0062 20.7091 29.9999C22.5849 29.9999 24.3891 29.3033 25.7444 28.056C26.7398 27.1279 27.4445 25.9515 27.7806 24.6563C28.1168 23.361 28.0647 22.0032 27.6375 20.7351C27.1474 19.396 26.3017 18.2051 25.1849 17.2748C23.7233 16.0797 22.7757 14.4069 22.5242 12.5777C22.5025 12.4484 22.4439 12.3295 22.355 12.2315C22.2661 12.1335 22.149 12.0626 22.0211 12.025C21.8953 11.9917 21.7608 11.9917 21.6329 12.025C21.5071 12.0584 21.3922 12.1251 21.3011 12.219C21.2209 12.3024 19.3516 14.2943 20.2732 17.815C20.6267 19.1645 20.5898 20.1886 20.18 20.6996C19.9436 20.9645 19.5945 21.1084 19.2345 21.0896Z" fill="#F2994A"/>
</svg>
