<svg width="24" height="24" viewBox="0 0 24 24" fill="none" xmlns="http://www.w3.org/2000/svg">
<circle cx="12" cy="12" r="12" fill="white"/>
<path d="M10.892 7.84364C10.5305 7.84364 10.2346 8.13894 10.2346 8.49986C10.2346 8.86079 10.5291 9.15609 10.892 9.15609C13.0672 9.15609 14.8365 10.9222 14.8365 13.0934C14.8365 13.4571 15.1323 13.7497 15.4939 13.7497C15.8554 13.7497 16.1513 13.4557 16.1513 13.0934C16.1513 10.1978 13.7928 7.84364 10.892 7.84364ZM11.1112 5C10.6263 5 10.2346 5.39127 10.2346 5.87497C10.2346 6.35866 10.6272 6.74993 11.1112 6.74993C14.4941 6.74993 17.2469 9.49787 17.2469 12.8747C17.2469 13.3584 17.6395 13.7497 18.1235 13.7497C18.6075 13.7497 19 13.3584 19 12.8747C19 8.53268 15.461 5 11.1112 5ZM10.1497 14.4606L10.8994 13.7122C10.9713 13.7293 11.038 13.7534 11.1133 13.7534C11.5995 13.7534 11.9896 13.3635 11.9896 12.8784C11.9896 12.3966 11.5995 12.0032 11.1133 12.0032C10.6307 12.0032 10.2371 12.3964 10.2371 12.8784C10.2371 12.957 10.2593 13.022 10.2798 13.0937L9.52793 13.8426L6.32775 10.6463C6.12916 10.448 5.77663 10.4822 5.66761 10.7283C4.524 12.8577 4.84914 15.5597 6.64686 17.3562C8.44431 19.1504 11.1555 19.4752 13.2866 18.3337C13.5366 18.197 13.571 17.8483 13.3688 17.6501L10.1497 14.4606Z"/>
</svg>
