<svg width="120" height="120" viewBox="0 0 120 120" fill="none" xmlns="http://www.w3.org/2000/svg">
<g clip-path="url(#clip0)">
<path d="M94.632 53.672L89.36 47.672C87.904 46.016 85.384 45.856 83.72 47.304L68 61.08V4C68 1.792 66.208 0 64 0H56C53.792 0 52 1.792 52 4V61.08L36.28 47.304C34.624 45.856 32.104 46.016 30.64 47.672L25.368 53.664C23.904 55.328 24.072 57.864 25.736 59.32L57.368 87.008C58.88 88.328 61.128 88.328 62.64 87.008L94.264 59.32C95.928 57.864 96.096 55.328 94.632 53.672Z" fill="#68B030"/>
<path d="M101.5 93C101.5 88.5817 105.082 85 109.5 85C113.918 85 117.5 88.5817 117.5 93V112C117.5 116.418 113.918 120 109.5 120H104.033L104 120H18.5C18.5 120.907 17.1902 120.717 15.1777 120.425C13.8622 120.235 12.2464 120 10.5 120C6.08172 120 2.5 116.418 2.5 112V93.0001C2.5 88.5819 6.08172 85.0001 10.5 85.0001C14.9183 85.0001 18.5 88.5819 18.5 93.0001V104H101.5V93Z" fill="#68B030"/>
</g>
<defs>
<clipPath id="clip0">
<rect width="120" height="120" fill="white"/>
</clipPath>
</defs>
</svg>