<svg width="22" height="22" viewBox="0 0 20 20" fill="none" xmlns="http://www.w3.org/2000/svg">
<g clip-path="url(#clip0_3467_10991)">
<path d="M9.99997 0C7.34402 0 4.80383 1.05466 2.92601 2.92604C1.05463 4.80386 -3.05176e-05 7.34405 -3.05176e-05 10C-3.05176e-05 12.6559 1.05463 15.1961 2.92601 17.0675C4.80383 18.9453 7.34402 19.9936 9.99354 19.9936C12.6431 19.9936 15.1897 18.9389 17.0611 17.0675C18.9389 15.1897 19.9871 12.6495 19.9871 10C19.9871 7.35048 18.9324 4.80386 17.0611 2.93248C15.1961 1.05466 12.6495 0 9.99997 0ZM11.717 15.1576C11.672 15.2154 11.6205 15.2605 11.5627 15.299C10.7588 15.8714 9.80061 16.1865 8.81026 16.1994C7.90351 16.1994 7.40833 15.5691 7.60769 14.6881C7.85849 13.6334 8.12216 12.5788 8.37939 11.5241C8.45013 11.3376 8.4437 11.1254 8.36653 10.9453C8.28936 10.8232 8.1736 10.7267 8.03212 10.6752C7.95495 10.6559 7.87778 10.6367 7.79418 10.6302C7.69772 10.6109 7.55624 10.5916 7.4855 10.4887L7.46621 10.4566C7.41476 10.3859 7.39547 10.2958 7.41476 10.2058C7.43405 10.1158 7.4855 10.045 7.56267 9.99357L7.74273 9.87138L8.01283 9.72347C8.1736 9.63987 8.34081 9.5627 8.50801 9.49839C8.85528 9.36334 9.2154 9.26045 9.58196 9.18971C9.80061 9.15112 10.0257 9.1254 10.2508 9.11254C10.4308 9.11254 10.6109 9.13183 10.791 9.17042C11.4405 9.32476 11.7685 9.90354 11.5884 10.6109C11.3376 11.672 11.0739 12.7331 10.8103 13.7878C10.6881 14.2894 10.8103 14.5145 11.3183 14.6495C11.3955 14.6688 11.4726 14.6817 11.5498 14.701C11.8135 14.7717 11.8714 14.9325 11.7106 15.1447L11.717 15.1576ZM10.8617 7.21543C10.4051 7.21543 9.97425 7.02894 9.6527 6.7074C9.33116 6.38585 9.15753 5.94855 9.15753 5.49196C9.15753 5.03537 9.34402 4.6045 9.66556 4.28939C9.98711 3.97428 10.4244 3.79421 10.881 3.80064C11.3376 3.80064 11.7685 3.98714 12.0836 4.31511C12.3987 4.63666 12.5787 5.07396 12.5723 5.53055C12.5723 5.98071 12.3794 6.41158 12.0643 6.72669C11.7427 7.0418 11.3119 7.22186 10.8617 7.21543Z" fill="#4F4F4F"/>
</g>
<defs>
<clipPath id="clip0_3467_10991">
<rect width="20" height="20" fill="white"/>
</clipPath>
</defs>
</svg>
