<svg width="24" height="24" viewBox="0 0 24 24" fill="none" xmlns="http://www.w3.org/2000/svg">
<rect width="24" height="24" rx="12" fill="#007A49"/>
<path fill-rule="evenodd" clip-rule="evenodd" d="M18.3071 17.7108C18.5201 17.4547 18.787 17.2489 19 16.9928C18.5201 16.9928 17.988 16.9417 17.5612 16.8388C17.1882 16.7359 16.6553 16.5309 16.3362 16.2748L16.2293 16.2237L16.2823 16.1208C17.7211 13.505 17.5073 11.0439 15.3234 8.94102C13.4594 7.14607 8.87682 6.63311 6 7.24898L7.01199 12.6849C7.49187 15.8648 10.2087 19.3007 14.8443 17.5057C12.0205 15.3518 8.71686 11.6079 8.77074 10.1209L9.19675 10.6849C10.6886 12.8899 15.6433 17.7618 18.3071 17.7108Z" fill="white"/>
</svg>
