<svg width="24" height="24" viewBox="0 0 24 24" fill="none" xmlns="http://www.w3.org/2000/svg">
<rect width="24" height="24" rx="12" fill="#007A49"/>
<g clip-path="url(#clip0_2060_11707)">
<path d="M16.2815 5H7.7186C7.26496 5 6.82787 5.17119 6.50337 5.4731C6.18218 5.77501 6.00006 6.18586 6.00006 6.61538V16.8493C5.9537 18.6919 8.8643 19.6287 10.4405 18.53C10.6126 18.4989 17.6193 13.5687 17.7616 13.5158C17.9007 13.4068 17.9868 13.2481 17.9967 13.08V6.61538C17.9967 6.18586 17.8146 5.77501 17.4934 5.4731C17.1722 5.17119 16.7352 5 16.2782 5H16.2815ZM8.29145 10.3846C8.29145 10.2414 8.35105 10.1045 8.46032 10.0049C8.56628 9.90529 8.71198 9.84615 8.8643 9.84615H15.1689C15.3742 9.84615 15.563 9.94887 15.6656 10.1169C15.7683 10.285 15.7683 10.4904 15.6656 10.6554C15.563 10.8204 15.3742 10.9262 15.1689 10.9262H8.8643C8.71198 10.9262 8.56628 10.8702 8.46032 10.7675C8.35436 10.6679 8.29145 10.5309 8.29145 10.3877V10.3846ZM13.4471 8.76923H10.5828C10.3775 8.76923 10.1888 8.66652 10.0862 8.49844C9.9835 8.33037 9.9835 8.12494 10.0862 7.95998C10.1888 7.79191 10.3775 7.6892 10.5828 7.6892H13.4471C13.6524 7.6892 13.8411 7.79191 13.9438 7.95998C14.0464 8.12806 14.0464 8.33348 13.9438 8.49844C13.8411 8.66341 13.6524 8.76923 13.4471 8.76923ZM11.4868 16.4913V14.1538C11.4868 14.0107 11.5464 13.8737 11.6557 13.7741C11.765 13.6745 11.9073 13.6154 12.0597 13.6154H15.6689L11.4868 16.4913Z" fill="white"/>
</g>
<defs>
<clipPath id="clip0_2060_11707">
<rect width="12" height="14" fill="white" transform="translate(6 5)"/>
</clipPath>
</defs>
</svg>
