<svg width="42" height="42" viewBox="0 0 42 42" fill="none" xmlns="http://www.w3.org/2000/svg">
<rect width="41.9998" height="41.8857" rx="8" fill="#828282" fill-opacity="0.1"/>
<path d="M31.3555 21.1442C31.2274 15.3996 29.1562 10.0207 25.6331 10.0208C22.1101 10.0208 20.0176 15.4001 20.0176 21.1445C20.0176 26.8888 24.8859 26.8888 25.6332 26.8888C26.3805 26.8888 31.4836 26.8888 31.3555 21.1442Z" fill="#007A49"/>
<path d="M31.3555 21.1442C31.2274 15.3996 29.1562 10.0207 25.6331 10.0208C22.1101 10.0208 20.0176 15.4001 20.0176 21.1445C20.0176 26.8888 24.8859 26.8888 25.6332 26.8888C26.3805 26.8888 31.4836 26.8888 31.3555 21.1442Z" fill="white" fill-opacity="0.2"/>
<path fill-rule="evenodd" clip-rule="evenodd" d="M25.0568 17.3664C25.0568 16.989 25.3627 16.6831 25.7401 16.6831C26.1174 16.6831 26.4234 16.989 26.4234 17.3664V22.2309L27.1323 21.522C27.3991 21.2551 27.8317 21.2551 28.0986 21.522C28.3654 21.7888 28.3654 22.2214 28.0986 22.4882L26.4234 24.1634V31.2025H25.0568V21.3218L23.7465 20.0115C23.4797 19.7446 23.4797 19.312 23.7465 19.0452C24.0133 18.7783 24.446 18.7783 24.7128 19.0452L25.0568 19.3892V17.3664Z" fill="#007A49"/>
<rect x="33" y="30.5193" width="1.36653" height="14.5194" rx="0.683264" transform="rotate(90 33 30.5193)" fill="#007A49"/>
<path d="M14.5957 11.1241C15.1987 9.62531 17.3205 9.62531 17.9235 11.1241L23.2198 24.2869C23.6941 25.4655 22.8264 26.75 21.5559 26.75H10.9633C9.69287 26.75 8.82516 25.4655 9.29939 24.2869L14.5957 11.1241Z" fill="#007A49"/>
<path fill-rule="evenodd" clip-rule="evenodd" d="M15.5768 17.3659C15.5768 16.9885 15.8828 16.6826 16.2601 16.6826C16.6375 16.6826 16.9434 16.9885 16.9434 17.3659V22.2299L17.6518 21.5215C17.9186 21.2546 18.3513 21.2546 18.6181 21.5215C18.8849 21.7883 18.8849 22.2209 18.6181 22.4878L16.9434 24.1625V31.202H15.5768V21.3218L14.266 20.011C13.9992 19.7441 13.9992 19.3115 14.266 19.0447C14.5329 18.7779 14.9655 18.7779 15.2323 19.0447L15.5768 19.3892V17.3659Z" fill="#007A49"/>
<path fill-rule="evenodd" clip-rule="evenodd" d="M15.5768 17.3659C15.5768 16.9885 15.8828 16.6826 16.2601 16.6826C16.6375 16.6826 16.9434 16.9885 16.9434 17.3659V22.2299L17.6518 21.5215C17.9186 21.2546 18.3513 21.2546 18.6181 21.5215C18.8849 21.7883 18.8849 22.2209 18.6181 22.4878L16.9434 24.1625V31.202H15.5768V21.3218L14.266 20.011C13.9992 19.7441 13.9992 19.3115 14.266 19.0447C14.5329 18.7779 14.9655 18.7779 15.2323 19.0447L15.5768 19.3892V17.3659Z" fill="white" fill-opacity="0.5"/>
<rect x="23.5195" y="30.5186" width="1.36653" height="14.5194" rx="0.683264" transform="rotate(90 23.5195 30.5186)" fill="#007A49"/>
</svg>
