<svg width="42" height="42" viewBox="0 0 42 42" fill="none" xmlns="http://www.w3.org/2000/svg">
<rect width="41.9998" height="41.8857" rx="8" fill="#007A49" fill-opacity="0.15"/>
<path d="M26.5568 29.4816H23.6928C23.0102 28.9504 21.8862 28.6245 21.4089 28.5269V24.8315C21.6219 24.8931 21.84 24.9264 22.0633 24.9264C23.0179 24.9264 23.8622 24.3541 24.2164 23.4662C24.26 23.3559 24.3755 23.2891 24.4935 23.3045C24.4987 23.3045 24.5218 23.3097 24.5269 23.3097C24.6783 23.3405 24.8348 23.3559 24.994 23.3559C26.272 23.3559 27.3113 22.3165 27.3113 21.0385C27.3113 19.9555 26.5799 19.0317 25.5303 18.7827C25.5252 18.7827 25.52 18.7802 25.5149 18.7802C25.42 18.7596 25.343 18.6852 25.3199 18.5902C25.2993 18.5056 25.3199 18.4157 25.3789 18.3541C25.7125 17.9435 25.8947 17.4251 25.8947 16.8939C25.8947 15.6159 24.8554 14.5766 23.5774 14.5766C23.4747 14.5766 23.3721 14.5843 23.272 14.5971C23.1334 14.6151 23.0025 14.5175 22.982 14.379L22.9794 14.3559C22.9769 14.343 22.9769 14.3302 22.9769 14.3174C22.9769 13.0393 21.9375 12 20.6595 12C19.3815 12 18.337 13.0393 18.337 14.3174C18.337 14.3302 18.337 14.343 18.3345 14.3559L18.3319 14.379C18.3114 14.5201 18.1805 14.6176 18.0419 14.5971C17.9418 14.5843 17.8392 14.5766 17.7365 14.5766C16.4585 14.5766 15.4192 15.6159 15.4192 16.8939C15.4192 17.4226 15.6014 17.9384 15.9324 18.349C15.9914 18.4132 16.0145 18.503 15.994 18.5902C15.9683 18.6878 15.8939 18.7622 15.7964 18.7827C15.7938 18.7827 15.7887 18.7853 15.7861 18.7853C14.734 19.0317 14 19.9581 14 21.0411C14 22.3191 15.0393 23.3584 16.3174 23.3584C16.4765 23.3584 16.633 23.343 16.7844 23.3122C16.7895 23.3097 16.7972 23.3097 16.8024 23.3097C16.9204 23.2943 17.0487 23.3584 17.0949 23.4688C17.4491 24.3541 18.2934 24.929 19.248 24.929C19.4713 24.929 19.692 24.8982 19.9024 24.834V28.5269C19.7177 28.568 18.3935 28.8683 17.6133 29.4816H14.7545C14.6108 29.4816 14.4953 29.5971 14.4953 29.7408C14.4953 29.8845 14.6108 30 14.7545 30H26.5568C26.7005 30 26.816 29.8845 26.816 29.7408C26.816 29.5971 26.7005 29.4816 26.5568 29.4816Z" fill="#007A49"/>
</svg>
