<svg width="18" height="18" viewBox="0 0 15 14" fill="none" xmlns="http://www.w3.org/2000/svg">
<path d="M13.5 7C12.891 7 12.602 7.43 12.5 7.883C12.135 9.516 10.584 12 7.5 12C6.743 12 6.027 11.828 5.386 11.526L5.914 11C6.273 10.656 6.5 10.445 6.5 10C6.5 9.477 6.062 9 5.5 9H2.5C1.891 9 1.5 9.492 1.5 10V13C1.5 13.541 1.928 14 2.5 14C2.984 14 3.188 13.727 3.5 13.406L3.908 12.999C4.958 13.632 6.185 14 7.5 14C12.49 14 14.5 9.25 14.5 8.062C14.5 7.336 13.969 7 13.5 7ZM2.5 6.117C2.865 4.485 4.416 2 7.5 2C8.257 2 8.973 2.171 9.614 2.473L9.086 3C8.727 3.344 8.5 3.555 8.5 4C8.5 4.523 8.938 5 9.5 5H12.5C13.109 5 13.5 4.508 13.5 4V1C13.5 0.459 13.072 0 12.5 0C12.016 0 11.812 0.273 11.5 0.594L11.092 1.001C10.042 0.368 8.815 0 7.5 0C2.51 0 0.5 4.75 0.5 5.938C0.5 6.664 1.031 7 1.5 7C2.109 7 2.398 6.57 2.5 6.117Z" fill="#007A49"/>
</svg>
