<svg width="16" height="16" viewBox="0 0 16 16" fill="none" xmlns="http://www.w3.org/2000/svg">
<path d="M6.07143 0.5C7.54906 0.5 8.96618 1.08699 10.011 2.13183C11.0559 3.17668 11.6429 4.59379 11.6429 6.07143C11.6429 7.45143 11.1371 8.72 10.3057 9.69714L10.5371 9.92857H11.2143L15.5 14.2143L14.2143 15.5L9.92857 11.2143V10.5371L9.69714 10.3057C8.72 11.1371 7.45143 11.6429 6.07143 11.6429C4.59379 11.6429 3.17668 11.0559 2.13183 10.011C1.08699 8.96618 0.5 7.54906 0.5 6.07143C0.5 4.59379 1.08699 3.17668 2.13183 2.13183C3.17668 1.08699 4.59379 0.5 6.07143 0.5ZM6.07143 2.21429C3.92857 2.21429 2.21429 3.92857 2.21429 6.07143C2.21429 8.21429 3.92857 9.92857 6.07143 9.92857C8.21429 9.92857 9.92857 8.21429 9.92857 6.07143C9.92857 3.92857 8.21429 2.21429 6.07143 2.21429Z" fill="#007A49"/>
</svg>
