<svg width="12" height="13" viewBox="0 0 12 13" fill="none" xmlns="http://www.w3.org/2000/svg">
<path d="M5.45695 12.1098C5.5264 12.179 5.61501 12.2315 5.70362 12.2673H5.72039C5.809 12.3031 5.89522 12.3198 6.0006 12.3198C6.10598 12.3198 6.19459 12.3031 6.28081 12.2673H6.29757C6.38619 12.2315 6.4724 12.179 6.54425 12.1098L11.2743 7.39618C11.5736 7.09785 11.5736 6.642 11.2743 6.34368C10.9581 6.04535 10.4839 6.04535 10.1846 6.32697L6.72148 9.77804V1.73508C6.72148 1.33174 6.38619 1 5.98383 1C5.58148 1 5.24619 1.33413 5.24619 1.73508V9.77804L1.7807 6.32697C1.48133 6.02864 1.0239 6.02864 0.724526 6.32697C0.425158 6.6253 0.425158 7.08115 0.724526 7.37947L5.45455 12.1098H5.45695Z" fill="white" stroke="white"/>
</svg>
