<svg xmlns="http://www.w3.org/2000/svg">
<path d="M29.1698 21.35C28.8825 10.8283 24.2369 0.976404 16.3348 0.976562C8.43277 0.976721 3.73948 10.8292 3.73943 21.3505C3.73939 31.8717 14.6589 31.8717 16.335 31.8717C18.0111 31.8717 29.4572 31.8717 29.1698 21.35Z" fill="#007A49"/>
<path fill-rule="evenodd" clip-rule="evenodd" d="M15.042 14.712C15.042 13.8656 15.7281 13.1794 16.5745 13.1794C17.4209 13.1794 18.107 13.8656 18.107 14.712V23.3406L19.6966 22.0426C20.2951 21.5538 21.2654 21.5538 21.8639 22.0426C22.4624 22.5313 22.4624 23.3237 21.8639 23.8124L18.107 26.8802V39.7728H15.042V21.6755L12.1031 19.2756C11.5046 18.7869 11.5046 17.9945 12.1031 17.5058C12.7016 17.0171 13.672 17.0171 14.2705 17.5058L15.042 18.1358V14.712Z" fill="#007A49"/>
<path fill-rule="evenodd" clip-rule="evenodd" d="M15.042 14.712C15.042 13.8656 15.7281 13.1794 16.5745 13.1794C17.4209 13.1794 18.107 13.8656 18.107 14.712V23.3406L19.6966 22.0426C20.2951 21.5538 21.2654 21.5538 21.8639 22.0426C22.4624 22.5313 22.4624 23.3237 21.8639 23.8124L18.107 26.8802V39.7728H15.042V21.6755L12.1031 19.2756C11.5046 18.7869 11.5046 17.9945 12.1031 17.5058C12.7016 17.0171 13.672 17.0171 14.2705 17.5058L15.042 18.1358V14.712Z" fill="white" fill-opacity="0.2"/>
</svg>
