<svg width="32" height="26" viewBox="0 0 32 26" fill="none" xmlns="http://www.w3.org/2000/svg">
<path d="M0 0H24C28.4183 0 32 3.58172 32 8V26H8C3.58172 26 0 22.4183 0 18V0Z" fill="#EB5757" fill-opacity="0.2"/>
<g clip-path="url(#clip0_2063_15940)">
<path fill-rule="evenodd" clip-rule="evenodd" d="M23.8119 14.161C23.4397 13.0446 22.5775 12.184 21.4891 11.8545V11.6972C21.4891 10.2415 20.8389 8.8744 19.7364 7.98429C18.6339 7.08926 17.1969 6.78437 15.8494 7.1532C14.5019 7.52202 13.39 8.51541 12.8435 9.85303C12.4948 9.69074 12.1226 9.61206 11.741 9.61206C11.0154 9.61206 10.3181 9.91696 9.80452 10.4579C9.29096 10.9939 9.00356 11.7267 9.00356 12.484C9.00356 12.5873 9.00356 12.6856 9.01769 12.784C8.36279 13.4676 8 14.397 8 15.3609C8 16.3297 8.37221 17.2542 9.03183 17.9378C9.69144 18.6213 10.5819 19 11.5054 19H20.4997C21.6305 19 22.6953 18.4345 23.3502 17.4706C24.0051 16.5067 24.1794 15.2773 23.8072 14.161H23.8119ZM18.3512 15.9412C18.6104 16.2116 18.6104 16.6592 18.3512 16.9296C18.0921 17.2001 17.6634 17.2001 17.4042 16.9296L16.0049 15.4691L14.6056 16.9296C14.3464 17.2001 13.9177 17.2001 13.6586 16.9296C13.3994 16.6592 13.3994 16.2116 13.6586 15.9412L15.0579 14.4806L13.6586 13.02C13.3994 12.7496 13.3994 12.3021 13.6586 12.0316C13.9177 11.7611 14.3464 11.7611 14.6056 12.0316L16.0049 13.4921L17.4042 12.0316C17.6634 11.7611 18.0921 11.7611 18.3512 12.0316C18.6104 12.3021 18.6104 12.7496 18.3512 13.02L16.9519 14.4806L18.3512 15.9412Z" fill="#EB5757"/>
</g>
<defs>
<clipPath id="clip0_2063_15940">
<rect width="16" height="12" fill="white" transform="translate(8 7)"/>
</clipPath>
</defs>
</svg>
