<svg width="20" height="20" viewBox="0 0 20 20" fill="none" xmlns="http://www.w3.org/2000/svg">
<path d="M18 10.0001C17.188 10.0001 16.8027 10.5734 16.6667 11.1774C16.18 13.3547 14.112 16.6667 10 16.6667C8.99069 16.6667 8.03602 16.4374 7.18135 16.0347L7.88535 15.3334C8.36402 14.8747 8.66669 14.5934 8.66669 14.0001C8.66669 13.3027 8.08269 12.6667 7.33335 12.6667H3.33335C2.52135 12.6667 2.00002 13.3227 2.00002 14.0001V18.0001C2.00002 18.7214 2.57069 19.3334 3.33335 19.3334C3.97869 19.3334 4.25069 18.9694 4.66669 18.5414L5.21069 17.9987C6.61069 18.8427 8.24669 19.3334 10 19.3334C16.6534 19.3334 19.3334 13.0001 19.3334 11.4161C19.3334 10.4481 18.6254 10.0001 18 10.0001ZM3.33335 8.82275C3.82002 6.64675 5.88802 3.33341 10 3.33341C11.0094 3.33341 11.964 3.56141 12.8187 3.96408L12.1147 4.66675C11.636 5.12541 11.3334 5.40675 11.3334 6.00008C11.3334 6.69741 11.9174 7.33342 12.6667 7.33342H16.6667C17.4787 7.33342 18 6.67741 18 6.00008V2.00008C18 1.27875 17.4294 0.666748 16.6667 0.666748C16.0214 0.666748 15.7494 1.03075 15.3334 1.45875L14.7894 2.00141C13.3894 1.15741 11.7534 0.666748 10 0.666748C3.34669 0.666748 0.666687 7.00008 0.666687 8.58408C0.666687 9.55208 1.37469 10.0001 2.00002 10.0001C2.81202 10.0001 3.19735 9.42675 3.33335 8.82275Z" fill="#4F4F4F"/>
</svg>
