<svg width="100%" height="100%" viewBox="0 0 813 596" fill="none" xmlns="http://www.w3.org/2000/svg">
<g opacity="0.8">
<path opacity="0.8" d="M812.79 70H446.92V478.35H812.79V70Z" fill="url(#paint0_linear)"/>
</g>
<path d="M806.74 342.63H452.97V469.45H806.74V342.63Z" fill="white"/>
<path d="M495.72 372.72H482.01V437.7H495.72V372.72Z" fill="#64FFDA"/>
<g opacity="0.7">
<path opacity="0.7" d="M522.78 372.72H509.07V437.7H522.78V372.72Z" fill="#64FFDA"/>
</g>
<g opacity="0.6">
<path opacity="0.6" d="M549.84 372.72H536.13V437.7H549.84V372.72Z" fill="#64FFDA"/>
</g>
<g opacity="0.5">
<path opacity="0.5" d="M576.91 372.72H563.2V437.7H576.91V372.72Z" fill="#64FFDA"/>
</g>
<g opacity="0.5">
<path opacity="0.5" d="M603.97 372.72H590.26V437.7H603.97V372.72Z" fill="#64FFDA"/>
</g>
<g opacity="0.4">
<path opacity="0.4" d="M631.04 372.72H617.33V437.7H631.04V372.72Z" fill="#64FFDA"/>
</g>
<g opacity="0.3">
<path opacity="0.3" d="M658.1 372.72H644.39V437.7H658.1V372.72Z" fill="#64FFDA"/>
</g>
<path d="M756.66 437.87C774.93 437.87 789.74 423.06 789.74 404.79C789.74 386.52 774.93 371.71 756.66 371.71C738.39 371.71 723.58 386.52 723.58 404.79C723.58 423.06 738.39 437.87 756.66 437.87Z" fill="#68B030"/>
<path d="M806.74 210.88H452.97V337.7H806.74V210.88Z" fill="white"/>
<path d="M495.72 240.96H482.01V305.94H495.72V240.96Z" fill="#64FFDA"/>
<g opacity="0.7">
<path opacity="0.7" d="M522.78 240.96H509.07V305.94H522.78V240.96Z" fill="#64FFDA"/>
</g>
<g opacity="0.6">
<path opacity="0.6" d="M549.84 240.96H536.13V305.94H549.84V240.96Z" fill="#64FFDA"/>
</g>
<g opacity="0.5">
<path opacity="0.5" d="M576.91 240.96H563.2V305.94H576.91V240.96Z" fill="#64FFDA"/>
</g>
<g opacity="0.5">
<path opacity="0.5" d="M603.97 240.96H590.26V305.94H603.97V240.96Z" fill="#64FFDA"/>
</g>
<g opacity="0.4">
<path opacity="0.4" d="M631.04 240.96H617.33V305.94H631.04V240.96Z" fill="#64FFDA"/>
</g>
<g opacity="0.3">
<path opacity="0.3" d="M658.1 240.96H644.39V305.94H658.1V240.96Z" fill="#64FFDA"/>
</g>
<path d="M756.66 306.12C774.93 306.12 789.74 291.31 789.74 273.04C789.74 254.77 774.93 239.96 756.66 239.96C738.39 239.96 723.58 254.77 723.58 273.04C723.58 291.31 738.39 306.12 756.66 306.12Z" fill="#68B030"/>
<path d="M806.74 79.13H452.97V205.95H806.74V79.13Z" fill="white"/>
<path d="M495.72 109.21H482.01V174.19H495.72V109.21Z" fill="#64FFDA"/>
<g opacity="0.7">
<path opacity="0.7" d="M522.78 109.21H509.07V174.19H522.78V109.21Z" fill="#64FFDA"/>
</g>
<g opacity="0.6">
<path opacity="0.6" d="M549.84 109.21H536.13V174.19H549.84V109.21Z" fill="#64FFDA"/>
</g>
<g opacity="0.5">
<path opacity="0.5" d="M576.91 109.21H563.2V174.19H576.91V109.21Z" fill="#64FFDA"/>
</g>
<g opacity="0.5">
<path opacity="0.5" d="M603.97 109.21H590.26V174.19H603.97V109.21Z" fill="#64FFDA"/>
</g>
<g opacity="0.4">
<path opacity="0.4" d="M631.04 109.21H617.33V174.19H631.04V109.21Z" fill="#64FFDA"/>
</g>
<g opacity="0.3">
<path opacity="0.3" d="M658.1 109.21H644.39V174.19H658.1V109.21Z" fill="#64FFDA"/>
</g>
<path d="M756.66 176.95C776.354 176.95 792.32 160.984 792.32 141.29C792.32 121.596 776.354 105.63 756.66 105.63C736.965 105.63 721 121.596 721 141.29C721 160.984 736.965 176.95 756.66 176.95Z" fill="url(#paint1_linear)"/>
<path d="M756.66 309.59C776.354 309.59 792.32 293.624 792.32 273.93C792.32 254.236 776.354 238.27 756.66 238.27C736.965 238.27 721 254.236 721 273.93C721 293.624 736.965 309.59 756.66 309.59Z" fill="url(#paint2_linear)"/>
<path d="M756.66 441.33C776.354 441.33 792.32 425.364 792.32 405.67C792.32 385.976 776.354 370.01 756.66 370.01C736.965 370.01 721 385.976 721 405.67C721 425.364 736.965 441.33 756.66 441.33Z" fill="url(#paint3_linear)"/>
<path d="M756.66 174.37C774.93 174.37 789.74 159.56 789.74 141.29C789.74 123.02 774.93 108.21 756.66 108.21C738.39 108.21 723.58 123.02 723.58 141.29C723.58 159.56 738.39 174.37 756.66 174.37Z" fill="#68B030"/>
<path d="M259.68 109H10.51C4.85463 109 0.27002 113.585 0.27002 119.24V585.49C0.27002 591.145 4.85463 595.73 10.51 595.73H259.68C265.335 595.73 269.92 591.145 269.92 585.49V119.24C269.92 113.585 265.335 109 259.68 109Z" fill="url(#paint4_linear)"/>
<path d="M252.65 115.58H17.56C10.0269 115.58 3.92004 121.687 3.92004 129.22V575.52C3.92004 583.053 10.0269 589.16 17.56 589.16H252.65C260.183 589.16 266.29 583.053 266.29 575.52V129.22C266.29 121.687 260.183 115.58 252.65 115.58Z" fill="white"/>
<path d="M201.02 127.46C200.26 132.488 197.724 137.077 193.871 140.395C190.019 143.714 185.105 145.543 180.02 145.55H89.44C84.3552 145.543 79.4413 143.714 75.5888 140.395C71.7363 137.077 69.2002 132.488 68.44 127.46H20.4399C17.7878 127.46 15.2442 128.514 13.3689 130.389C11.4935 132.264 10.4399 134.808 10.4399 137.46V567.36C10.4399 570.012 11.4935 572.556 13.3689 574.431C15.2442 576.306 17.7878 577.36 20.4399 577.36H249.74C252.392 577.36 254.936 576.306 256.811 574.431C258.686 572.556 259.74 570.012 259.74 567.36V137.42C259.74 134.768 258.686 132.224 256.811 130.349C254.936 128.474 252.392 127.42 249.74 127.42L201.02 127.46Z" fill="#68B030"/>
<path d="M162.88 133.12H108.07C107.059 133.12 106.24 133.937 106.24 134.945C106.24 135.953 107.059 136.77 108.07 136.77H162.88C163.891 136.77 164.71 135.953 164.71 134.945C164.71 133.937 163.891 133.12 162.88 133.12Z" fill="#DBDBDB"/>
<path d="M177.13 136.77C178.339 136.77 179.32 135.79 179.32 134.58C179.32 133.37 178.339 132.39 177.13 132.39C175.92 132.39 174.94 133.37 174.94 134.58C174.94 135.79 175.92 136.77 177.13 136.77Z" fill="#DBDBDB"/>
<g opacity="0.5">
<path opacity="0.5" d="M135.1 427.59C176.643 427.59 210.32 393.913 210.32 352.37C210.32 310.827 176.643 277.15 135.1 277.15C93.5572 277.15 59.88 310.827 59.88 352.37C59.88 393.913 93.5572 427.59 135.1 427.59Z" fill="url(#paint5_linear)"/>
</g>
<path d="M134.8 423.6C173.902 423.6 205.6 391.902 205.6 352.8C205.6 313.698 173.902 282 134.8 282C95.6982 282 64 313.698 64 352.8C64 391.902 95.6982 423.6 134.8 423.6Z" fill="white"/>
<path d="M135 317.363V304L117.5 321.818L135 339.636V326.272C149.437 326.272 161.25 338.299 161.25 353C161.25 357.343 160.199 361.622 158.187 365.472L164.531 371.932C168.11 366.266 170.007 359.701 170 353C170 333.4 154.25 317.363 135 317.363ZM135 379.727C120.563 379.727 108.751 367.699 108.751 353C108.751 348.656 109.801 344.376 111.813 340.527L105.469 334.068C101.861 339.72 99.9615 346.294 100.001 353C100.001 372.599 115.751 388.636 135 388.636V401.999L152.5 384.181L135 366.363V379.727Z" fill="#68B030"/>
<path d="M146.36 91V1H542.36V55" stroke="#3AD29F" stroke-width="2" stroke-miterlimit="10" stroke-dasharray="12 12"/>
<path d="M280 557H551V496" stroke="#3AD29F" stroke-width="2" stroke-miterlimit="10" stroke-dasharray="12 12"/>
<defs>
<linearGradient id="paint0_linear" x1="629.86" y1="478.35" x2="629.86" y2="70" gradientUnits="userSpaceOnUse">
<stop stop-color="#808080" stop-opacity="0.25"/>
<stop offset="0.54" stop-color="#808080" stop-opacity="0.12"/>
<stop offset="1" stop-color="#808080" stop-opacity="0.1"/>
</linearGradient>
<linearGradient id="paint1_linear" x1="59036.5" y1="12725.7" x2="59036.5" y2="7639.16" gradientUnits="userSpaceOnUse">
<stop stop-color="#808080" stop-opacity="0.25"/>
<stop offset="0.54" stop-color="#808080" stop-opacity="0.12"/>
<stop offset="1" stop-color="#808080" stop-opacity="0.1"/>
</linearGradient>
<linearGradient id="paint2_linear" x1="59036.5" y1="22317.5" x2="59036.5" y2="17231.7" gradientUnits="userSpaceOnUse">
<stop stop-color="#808080" stop-opacity="0.25"/>
<stop offset="0.54" stop-color="#808080" stop-opacity="0.12"/>
<stop offset="1" stop-color="#808080" stop-opacity="0.1"/>
</linearGradient>
<linearGradient id="paint3_linear" x1="59036.5" y1="31845.7" x2="59036.5" y2="26759.8" gradientUnits="userSpaceOnUse">
<stop stop-color="#808080" stop-opacity="0.25"/>
<stop offset="0.54" stop-color="#808080" stop-opacity="0.12"/>
<stop offset="1" stop-color="#808080" stop-opacity="0.1"/>
</linearGradient>
<linearGradient id="paint4_linear" x1="96698.2" y1="328548" x2="96698.2" y2="91642.1" gradientUnits="userSpaceOnUse">
<stop stop-color="#808080" stop-opacity="0.25"/>
<stop offset="0.54" stop-color="#808080" stop-opacity="0.12"/>
<stop offset="1" stop-color="#808080" stop-opacity="0.1"/>
</linearGradient>
<linearGradient id="paint5_linear" x1="29561.2" y1="64603.8" x2="29561.2" y2="41970.1" gradientUnits="userSpaceOnUse">
<stop stop-color="#808080" stop-opacity="0.25"/>
<stop offset="0.54" stop-color="#808080" stop-opacity="0.12"/>
<stop offset="1" stop-color="#808080" stop-opacity="0.1"/>
</linearGradient>
</defs>
</svg>
