<svg width="32" height="26" viewBox="0 0 32 26" fill="none" xmlns="http://www.w3.org/2000/svg">
<path d="M0 0H24C28.4183 0 32 3.58172 32 8V26H8C3.58172 26 0 22.4183 0 18V0Z" fill="#007A49" fill-opacity="0.2"/>
<g clip-path="url(#clip0_2063_15394)">
<path fill-rule="evenodd" clip-rule="evenodd" d="M21.4891 11.8497V11.6923C21.4891 10.2367 20.8389 8.86957 19.7364 7.97947C18.6339 7.08937 17.1969 6.78447 15.8494 7.1533C14.5019 7.52213 13.39 8.5155 12.8435 9.85311C12.4948 9.69083 12.1226 9.61214 11.741 9.61214C11.0154 9.61214 10.3181 9.91704 9.80452 10.458C9.29096 10.994 9.00356 11.7267 9.00356 12.4841C9.00356 12.5873 9.00356 12.6857 9.01769 12.784C8.36279 13.4676 8 14.397 8 15.3609C8 16.3248 8.37221 17.2542 9.03183 17.9378C9.69144 18.6213 10.5819 19 11.5054 19H20.4997C21.6305 19 22.6953 18.4345 23.3502 17.4706C24.0051 16.5067 24.1794 15.2773 23.8072 14.161C23.435 13.0447 22.5728 12.1841 21.4844 11.8546L21.4891 11.8497ZM19.1993 12.7644L15.8117 16.3002C15.7128 16.4084 15.5856 16.4772 15.4489 16.5067C15.3123 16.5362 15.1662 16.5166 15.039 16.4576C14.9495 16.4231 14.8647 16.3641 14.7987 16.2953L12.8105 14.2151C12.6314 14.0282 12.5655 13.7627 12.6267 13.5069C12.6927 13.2561 12.8811 13.0545 13.1214 12.9857C13.3617 12.9168 13.6209 12.9857 13.7999 13.1725L15.3359 14.7757L18.2382 11.7464C18.4172 11.594 18.6528 11.5399 18.8742 11.6087C19.0957 11.6776 19.27 11.8595 19.3359 12.0907C19.4019 12.3218 19.3548 12.5726 19.204 12.7545L19.1946 12.7644H19.1993Z" fill="#007A49"/>
</g>
<defs>
<clipPath id="clip0_2063_15394">
<rect width="16" height="12" fill="white" transform="translate(8 7)"/>
</clipPath>
</defs>
</svg>
