<svg xmlns="http://www.w3.org/2000/svg" data-name="Layer 138" viewBox="0 0 100 125" x="0px" y="0px"><defs><style>.cls-1{fill-rule:evenodd;}</style></defs><title>Artboard 2 copy 75</title><g><path class="cls-1" d="M94.83,50A44.81,44.81,0,0,0,17.12,19.56V11.15a6,6,0,1,0-12,0v23.9a6,6,0,0,0,6,6H35.06a6,6,0,0,0,0-12H24.64A32.88,32.88,0,1,1,50,82.87h0a6,6,0,1,0,0,12h.12A44.82,44.82,0,0,0,94.83,50Z"/></g><text x="0" y="115" fill="#000000" font-size="5px" font-weight="bold" font-family="'Helvetica Neue', Helvetica, Arial-Unicode, Arial, Sans-serif">Created by Melvin Salas</text><text x="0" y="120" fill="#000000" font-size="5px" font-weight="bold" font-family="'Helvetica Neue', Helvetica, Arial-Unicode, Arial, Sans-serif">from the Noun Project</text></svg>