<svg width="85" height="84" viewBox="0 0 85 84" fill="none" xmlns="http://www.w3.org/2000/svg">
<path d="M8.60938 78.0002L7.78125 75.2815H3.61719L2.78906 78.0002H0.179688L4.21094 66.5315H7.17188L11.2188 78.0002H8.60938ZM7.20312 73.2502C6.4375 70.7867 6.00521 69.3935 5.90625 69.0706C5.8125 68.7476 5.74479 68.4924 5.70312 68.3049C5.53125 68.9716 5.03906 70.62 4.22656 73.2502H7.20312ZM15.2422 78.1565C14.2161 78.1565 13.4089 77.7581 12.8203 76.9612C12.237 76.1643 11.9453 75.0601 11.9453 73.6487C11.9453 72.2164 12.2422 71.1018 12.8359 70.3049C13.4349 69.5028 14.2578 69.1018 15.3047 69.1018C16.4036 69.1018 17.2422 69.5289 17.8203 70.3831H17.8984C17.7786 69.732 17.7188 69.1513 17.7188 68.6409V65.844H20.1094V78.0002H18.2812L17.8203 76.8674H17.7188C17.1771 77.7268 16.3516 78.1565 15.2422 78.1565ZM16.0781 76.2581C16.6875 76.2581 17.1328 76.081 17.4141 75.7268C17.7005 75.3726 17.8568 74.7711 17.8828 73.9221V73.6643C17.8828 72.7268 17.737 72.0549 17.4453 71.6487C17.1589 71.2424 16.6901 71.0393 16.0391 71.0393C15.5078 71.0393 15.0938 71.2659 14.7969 71.719C14.5052 72.1669 14.3594 72.8206 14.3594 73.6799C14.3594 74.5393 14.5078 75.1851 14.8047 75.6174C15.1016 76.0445 15.526 76.2581 16.0781 76.2581ZM25.3672 78.1565C24.3411 78.1565 23.5339 77.7581 22.9453 76.9612C22.362 76.1643 22.0703 75.0601 22.0703 73.6487C22.0703 72.2164 22.3672 71.1018 22.9609 70.3049C23.5599 69.5028 24.3828 69.1018 25.4297 69.1018C26.5286 69.1018 27.3672 69.5289 27.9453 70.3831H28.0234C27.9036 69.732 27.8438 69.1513 27.8438 68.6409V65.844H30.2344V78.0002H28.4062L27.9453 76.8674H27.8438C27.3021 77.7268 26.4766 78.1565 25.3672 78.1565ZM26.2031 76.2581C26.8125 76.2581 27.2578 76.081 27.5391 75.7268C27.8255 75.3726 27.9818 74.7711 28.0078 73.9221V73.6643C28.0078 72.7268 27.862 72.0549 27.5703 71.6487C27.2839 71.2424 26.8151 71.0393 26.1641 71.0393C25.6328 71.0393 25.2188 71.2659 24.9219 71.719C24.6302 72.1669 24.4844 72.8206 24.4844 73.6799C24.4844 74.5393 24.6328 75.1851 24.9297 75.6174C25.2266 76.0445 25.651 76.2581 26.2031 76.2581ZM37.0703 78.0002V66.5784H39.4922V78.0002H37.0703ZM50 78.0002H47.6172V72.8987C47.6172 72.2685 47.5104 71.7971 47.2969 71.4846C47.0885 71.1669 46.7578 71.0081 46.3047 71.0081C45.6953 71.0081 45.2526 71.232 44.9766 71.6799C44.7005 72.1278 44.5625 72.8648 44.5625 73.8909V78.0002H42.1797V69.2659H44L44.3203 70.3831H44.4531C44.6875 69.982 45.026 69.6695 45.4688 69.4456C45.9115 69.2164 46.4193 69.1018 46.9922 69.1018C48.2995 69.1018 49.1849 69.5289 49.6484 70.3831H49.8594C50.0938 69.9768 50.4375 69.6617 50.8906 69.4377C51.349 69.2138 51.8646 69.1018 52.4375 69.1018C53.4271 69.1018 54.1745 69.357 54.6797 69.8674C55.1901 70.3726 55.4453 71.1851 55.4453 72.3049V78.0002H53.0547V72.8987C53.0547 72.2685 52.9479 71.7971 52.7344 71.4846C52.526 71.1669 52.1953 71.0081 51.7422 71.0081C51.1589 71.0081 50.7214 71.2164 50.4297 71.6331C50.1432 72.0497 50 72.7112 50 73.6174V78.0002ZM63.4453 78.0002L62.9844 76.8127H62.9219C62.5208 77.318 62.1068 77.6695 61.6797 77.8674C61.2578 78.0601 60.7057 78.1565 60.0234 78.1565C59.1849 78.1565 58.5234 77.9169 58.0391 77.4377C57.5599 76.9586 57.3203 76.2763 57.3203 75.3909C57.3203 74.4638 57.6432 73.7815 58.2891 73.344C58.9401 72.9013 59.9193 72.6565 61.2266 72.6096L62.7422 72.5627V72.1799C62.7422 71.2945 62.2891 70.8518 61.3828 70.8518C60.6849 70.8518 59.8646 71.0627 58.9219 71.4846L58.1328 69.8752C59.138 69.3492 60.2526 69.0862 61.4766 69.0862C62.6484 69.0862 63.5469 69.3414 64.1719 69.8518C64.7969 70.3622 65.1094 71.1383 65.1094 72.1799V78.0002H63.4453ZM62.7422 73.9534L61.8203 73.9846C61.1276 74.0055 60.612 74.1305 60.2734 74.3596C59.9349 74.5888 59.7656 74.9377 59.7656 75.4065C59.7656 76.0784 60.151 76.4143 60.9219 76.4143C61.474 76.4143 61.9141 76.2555 62.2422 75.9377C62.5755 75.62 62.7422 75.1982 62.7422 74.6721V73.9534ZM75.1719 69.2659V70.4768L73.8047 70.8284C74.0547 71.219 74.1797 71.6565 74.1797 72.1409C74.1797 73.0784 73.8516 73.8101 73.1953 74.3362C72.5443 74.857 71.638 75.1174 70.4766 75.1174L70.0469 75.094L69.6953 75.0549C69.4505 75.2424 69.3281 75.4508 69.3281 75.6799C69.3281 76.0237 69.7656 76.1956 70.6406 76.1956H72.125C73.0833 76.1956 73.8125 76.4013 74.3125 76.8127C74.8177 77.2242 75.0703 77.8284 75.0703 78.6252C75.0703 79.6461 74.6432 80.4377 73.7891 81.0002C72.9401 81.5627 71.7188 81.844 70.125 81.844C68.9062 81.844 67.974 81.6305 67.3281 81.2034C66.6875 80.7815 66.3672 80.1877 66.3672 79.4221C66.3672 78.8961 66.5312 78.456 66.8594 78.1018C67.1875 77.7476 67.6693 77.495 68.3047 77.344C68.0599 77.2398 67.8464 77.0706 67.6641 76.8362C67.4818 76.5966 67.3906 76.344 67.3906 76.0784C67.3906 75.745 67.487 75.469 67.6797 75.2502C67.8724 75.0263 68.151 74.8075 68.5156 74.594C68.0573 74.3961 67.6927 74.0784 67.4219 73.6409C67.1562 73.2034 67.0234 72.6877 67.0234 72.094C67.0234 71.1409 67.3333 70.4039 67.9531 69.8831C68.5729 69.3622 69.4583 69.1018 70.6094 69.1018C70.8542 69.1018 71.1432 69.1252 71.4766 69.1721C71.8151 69.2138 72.0312 69.245 72.125 69.2659H75.1719ZM68.4297 79.2346C68.4297 79.5627 68.5859 79.8206 68.8984 80.0081C69.2161 80.1956 69.6589 80.2893 70.2266 80.2893C71.0807 80.2893 71.75 80.1721 72.2344 79.9377C72.7188 79.7034 72.9609 79.3831 72.9609 78.9768C72.9609 78.6487 72.8177 78.4221 72.5312 78.2971C72.2448 78.1721 71.8021 78.1096 71.2031 78.1096H69.9688C69.5312 78.1096 69.1641 78.2112 68.8672 78.4143C68.5755 78.6226 68.4297 78.8961 68.4297 79.2346ZM69.2969 72.1252C69.2969 72.5992 69.4036 72.9742 69.6172 73.2502C69.8359 73.5263 70.1667 73.6643 70.6094 73.6643C71.0573 73.6643 71.3854 73.5263 71.5938 73.2502C71.8021 72.9742 71.9062 72.5992 71.9062 72.1252C71.9062 71.0732 71.474 70.5471 70.6094 70.5471C69.7344 70.5471 69.2969 71.0732 69.2969 72.1252ZM80.2344 70.7971C79.7292 70.7971 79.3333 70.9586 79.0469 71.2815C78.7604 71.5992 78.5964 72.0523 78.5547 72.6409H81.8984C81.888 72.0523 81.7344 71.5992 81.4375 71.2815C81.1406 70.9586 80.7396 70.7971 80.2344 70.7971ZM80.5703 78.1565C79.1641 78.1565 78.0651 77.7685 77.2734 76.9924C76.4818 76.2164 76.0859 75.1174 76.0859 73.6956C76.0859 72.232 76.4505 71.1018 77.1797 70.3049C77.9141 69.5028 78.9271 69.1018 80.2188 69.1018C81.4531 69.1018 82.4141 69.4534 83.1016 70.1565C83.7891 70.8596 84.1328 71.831 84.1328 73.0706V74.2268H78.5C78.526 74.9039 78.7266 75.4325 79.1016 75.8127C79.4766 76.193 80.0026 76.3831 80.6797 76.3831C81.2057 76.3831 81.7031 76.3284 82.1719 76.219C82.6406 76.1096 83.1302 75.9351 83.6406 75.6956V77.5393C83.224 77.7476 82.7786 77.9013 82.3047 78.0002C81.8307 78.1044 81.2526 78.1565 80.5703 78.1565Z" fill="#007A49"/>
<path d="M42.8101 12.1117L42.8842 12.1338L42.8875 12.1301C43.2376 12.1934 43.5849 11.9837 43.6878 11.6363C44.6255 8.48559 47.5797 6.28451 50.8711 6.28451C51.2607 6.28451 51.5768 5.96846 51.5768 5.57881C51.5768 5.18914 51.2607 4.87311 50.8711 4.87311C46.826 4.87311 43.4267 7.56635 42.3353 11.2341C42.2239 11.6077 42.4367 12.0003 42.8101 12.1117Z" fill="#007A49" stroke="#F9FFF9" stroke-width="0.240104"/>
<path d="M59.0693 34.2753H55.5555C55.2321 34.2753 54.9698 34.013 54.9698 33.6897C54.9698 33.3663 55.2321 33.104 55.5555 33.104H59.0693C63.9129 33.104 67.8539 29.1631 67.8539 24.3194C67.8539 19.4758 63.9129 15.5349 59.0693 15.5349H58.9848C58.8149 15.5349 58.6535 15.4612 58.5422 15.3328C58.4309 15.2044 58.3807 15.0341 58.405 14.866C58.4573 14.5012 58.4836 14.1348 58.4836 13.778C58.4836 9.5802 55.068 6.16461 50.8703 6.16461C49.2372 6.16461 47.6798 6.67495 46.3662 7.64082C46.0776 7.85291 45.6676 7.75879 45.5007 7.44129C41.7807 0.357595 32.0643 -0.593673 27.0269 5.56852C24.9048 8.16456 24.071 11.5416 24.7391 14.833C24.8128 15.1965 24.5346 15.5353 24.1652 15.5353H23.9305C19.0869 15.5353 15.1459 19.4763 15.1459 24.3199C15.1459 29.1635 19.0869 33.1045 23.9305 33.1045H27.4443C27.7677 33.1045 28.03 33.3667 28.03 33.6901C28.03 34.0135 27.7677 34.2758 27.4443 34.2758H23.9305C18.441 34.2758 13.9746 29.8094 13.9746 24.3198C13.9746 18.9843 18.1937 14.6154 23.4708 14.3744C22.9751 10.9597 23.923 7.5153 26.12 4.82728C31.5133 -1.77077 41.8491 -1.03122 46.2184 6.32609C47.6122 5.45222 49.2072 4.9938 50.8701 4.9938C55.9559 4.9938 59.986 9.32253 59.6334 14.3799C64.8619 14.6731 69.0249 19.019 69.0249 24.3194C69.0249 29.8094 64.5586 34.2753 59.069 34.2753L59.0693 34.2753Z" fill="#007A49"/>
<path d="M26.66 33.3589C26.66 41.4984 33.2818 48.1201 41.4212 48.1201C49.5607 48.1201 56.1824 41.4983 56.1824 33.3589C56.1824 25.2194 49.5607 18.5977 41.4212 18.5977C33.2817 18.5977 26.66 25.2195 26.66 33.3589ZM28.0716 33.3589C28.0716 25.9982 34.0604 20.0094 41.4212 20.0094C48.7819 20.0094 54.7708 25.9981 54.7708 33.3589C54.7708 40.7196 48.7819 46.7085 41.4212 46.7085C34.0605 46.7085 28.0716 40.7197 28.0716 33.3589Z" fill="#007A49" stroke="#F9FFF9" stroke-width="0.240104"/>
<path fill-rule="evenodd" clip-rule="evenodd" d="M45.3842 32.506C45.4776 32.5995 45.5989 32.6489 45.7214 32.654C45.599 32.6488 45.4779 32.5994 45.3845 32.506L42.1956 29.3172V29.3175L45.3842 32.506ZM41.6724 39.7724C41.4002 39.7636 41.1821 39.5402 41.1821 39.2659V29.317L41.1818 29.3174V39.2659C41.1818 39.5403 41.4 39.7638 41.6724 39.7724ZM37.6134 32.6541C37.491 32.6489 37.37 32.5996 37.2764 32.506C37.0784 32.308 37.0784 31.9873 37.2764 31.7893L40.3843 28.6814L41.309 27.7568C41.4018 27.6517 41.5376 27.5853 41.6889 27.5853C41.6948 27.5853 41.7006 27.5854 41.7064 27.5856C41.7005 27.5854 41.6945 27.5853 41.6885 27.5853C41.5373 27.5853 41.4015 27.6516 41.3086 27.7568L40.3847 28.6807L37.2761 31.7893C37.0781 31.9873 37.0781 32.308 37.2761 32.506C37.3697 32.5996 37.4908 32.649 37.6134 32.6541ZM36.9766 31.4899L41.0013 27.4652C41.1708 27.2795 41.4162 27.1619 41.6885 27.1619C41.9618 27.1619 42.2079 27.2803 42.3775 27.4671L46.4002 31.4899C46.7634 31.8531 46.7636 32.4415 46.4008 32.8049C46.2187 32.9877 45.9791 33.0779 45.7425 33.0779C45.5052 33.0779 45.2661 32.9869 45.0847 32.8054L42.6187 30.3395V39.2659C42.6187 39.7801 42.202 40.1961 41.6885 40.1961C41.1749 40.1961 40.7583 39.7796 40.7583 39.2659V30.3393L38.2923 32.8053C37.9291 33.169 37.3398 33.1686 36.9766 32.8054C36.6133 32.4421 36.6133 31.8532 36.9766 31.4899Z" fill="#007A49"/>
</svg>
