<svg width="18" height="18" viewBox="0 0 18 18" fill="none" xmlns="http://www.w3.org/2000/svg">
<g clip-path="url(#clip0_2060_11332)">
<path d="M16.875 7.875H15.6488C15.1734 5.04844 12.9516 2.82586 10.125 2.35125V1.09336C10.125 0.472148 9.62121 0 9.03164 0C8.44207 0 7.875 0.503789 7.875 1.09336V2.35125C5.04844 2.82586 2.82586 5.04844 2.35125 7.875H1.09336C0.503789 7.875 0 8.37773 0 8.96836C0 9.55898 0.503789 10.125 1.09336 10.125H2.31961C2.82586 12.9516 5.04844 15.1734 7.875 15.648V16.8743C7.875 17.4973 8.37773 17.9684 8.96836 17.9684C9.55898 17.9684 10.125 17.4973 10.125 16.875V15.6488C12.9516 15.1734 15.1734 12.9516 15.648 10.125H16.8743C17.4973 10.125 18 9.62227 18 9C18 8.37773 17.4973 7.875 16.875 7.875ZM9 13.5C6.5127 13.5 4.5 11.4873 4.5 9C4.5 6.5127 6.5127 4.5 9 4.5C11.4873 4.5 13.5 6.5127 13.5 9C13.5 11.4873 11.4891 13.5 9 13.5Z" fill="#333333"/>
<path d="M9 5.90625C7.29141 5.90625 5.90625 7.29141 5.90625 9C5.90625 10.7086 7.2907 12.0938 9 12.0938C10.7093 12.0938 12.0938 10.7086 12.0938 9C12.0938 7.29141 10.7086 5.90625 9 5.90625Z" fill="#333333"/>
</g>
<defs>
<clipPath id="clip0_2060_11332">
<rect width="18" height="18" fill="white"/>
</clipPath>
</defs>
</svg>
